<svg width="36" height="37" viewBox="0 0 36 37" fill="none" xmlns="http://www.w3.org/2000/svg">
<path d="M8.32788 12.0772V8.91553H0.0625V12.0772H1.95877V18.84H0.0625V22.0017H8.32788V18.84H6.43161V12.0772H8.32788Z" fill="#2D464F"/>
<path d="M17.4519 13.9368C16.9411 13.7884 14.3124 13.0372 13.8573 12.8889C13.4022 12.7405 13.0306 12.5272 13.0306 12.2583C13.0306 11.9893 13.4486 11.7019 14.2938 11.7019C16.9597 11.7019 18.2403 13.3433 18.2403 13.3433C18.2403 13.3433 18.3846 13.5352 18.433 13.604H21.0049V9.12588H18.2439V9.9406C18.033 9.79519 16.4761 8.78076 14.0616 8.78076C10.8757 8.78076 9.10156 10.4314 9.10156 12.8981C9.10156 15.3649 11.3401 16.3849 11.9624 16.6446C12.5848 16.9042 15.0184 17.5905 16.0587 17.915C17.099 18.2396 17.4798 18.4714 17.4798 18.6383C17.4798 18.8053 17.0247 19.2411 15.7243 19.2411C13.4591 19.2411 12.2927 17.9075 12.0879 17.6493V17.6473C12.0228 17.5602 11.9465 17.4571 11.9205 17.4183C11.8905 17.3735 11.8209 17.2738 11.7726 17.205H9.20061V21.9871H12.0879V20.9885C12.4239 21.2117 14.1436 22.2828 16.2073 22.2828C18.5108 22.2828 21.446 21.2813 21.446 18.1561C21.446 15.031 17.9628 14.0851 17.4519 13.9368Z" fill="#2D464F"/>
<path d="M28.7786 8.73682C24.9385 8.73682 21.7891 10.6537 21.7891 15.5468C21.7891 20.44 25.2081 22.2727 28.7954 22.2727C32.3828 22.2727 35.7681 20.4567 35.7681 15.5973C35.7681 10.7379 32.383 8.73682 28.7786 8.73682ZM28.8124 19.0107C27.4986 19.0107 26.6565 18.708 26.6565 15.53C26.6565 12.352 27.2797 12.0157 28.8628 12.0157C29.8228 12.0157 30.985 12.0829 30.985 15.4291C30.985 18.7753 30.1261 19.0107 28.8124 19.0107Z" fill="#2D464F"/>
<path d="M5.55987 7.4723C6.42311 6.1997 7.48467 5.07162 8.70162 4.13479C9.19369 4.498 9.71675 4.82747 10.2666 5.1211C9.34535 6.14636 8.51994 7.28224 8.38321 7.4723H8.93599C9.26778 7.02585 9.95409 6.12774 10.6778 5.33149C11.4688 5.71971 12.3094 6.03723 13.1866 6.27908C12.9531 6.77361 12.7766 7.20605 12.673 7.4723H13.1533C13.2636 7.19811 13.4253 6.81568 13.6271 6.39311C14.746 6.66604 15.9184 6.81902 17.1178 6.84231V7.47238H17.5637V6.84446C18.7543 6.83578 19.9203 6.70032 21.0353 6.44578C21.2254 6.84721 21.3784 7.20961 21.4841 7.4723H21.9644C21.8648 7.21658 21.6982 6.80781 21.4782 6.33754C22.371 6.10563 23.2277 5.79642 24.0345 5.41429C24.7305 6.18939 25.3811 7.04135 25.7015 7.4723H26.2542C26.1217 7.2881 25.339 6.21068 24.4496 5.20923C25.0611 4.89372 25.6409 4.53473 26.1828 4.13479C27.3997 5.07162 28.4614 6.1997 29.3245 7.4723H29.8608C27.2238 3.40901 22.6424 0.714844 17.4421 0.714844C12.2419 0.714844 7.66049 3.40901 5.02344 7.4723H5.55987ZM13.3855 5.87202C12.5512 5.64701 11.7506 5.35204 10.996 4.9912C11.0985 4.88481 11.201 4.78177 11.3023 4.68421C12.3357 3.68929 14.0354 2.59682 14.408 2.36164C14.7103 2.52745 15.0403 2.66767 15.3912 2.77895C15.1187 3.13578 14.5835 3.86015 14.0007 4.77895C13.7738 5.13653 13.5672 5.51236 13.3855 5.87202ZM17.1178 6.39704C15.9887 6.37449 14.8846 6.23413 13.8293 5.98426C13.9943 5.66215 14.1784 5.33068 14.3774 5.01716C15.0488 3.95874 15.6546 3.16405 15.8564 2.90551C16.2591 2.99995 16.6823 3.05967 17.1178 3.07918V6.39704ZM17.5637 6.39927V3.08422C17.9934 3.07695 18.4139 3.03155 18.8162 2.95076C19.0469 3.24862 19.6241 4.01453 20.2601 5.01716C20.4694 5.34707 20.6623 5.69679 20.8339 6.03471C19.7823 6.26692 18.6846 6.39096 17.5637 6.39927ZM21.2809 5.92929C21.0924 5.55242 20.8756 5.15552 20.6367 4.77895C20.084 3.90755 19.574 3.21094 19.2903 2.83689C19.6636 2.73221 20.0159 2.59615 20.3395 2.43153C20.8625 2.76626 22.3817 3.7663 23.3351 4.68421C23.4617 4.8061 23.5899 4.9363 23.7181 5.07132C22.9476 5.42645 22.131 5.71393 21.2809 5.92929ZM25.8095 3.85651C25.2864 4.23345 24.7275 4.57115 24.1391 4.86805C23.9746 4.69193 23.8088 4.52182 23.6446 4.3638C22.7529 3.50523 21.4251 2.60453 20.7745 2.18159C20.9955 2.03856 21.1976 1.88039 21.3778 1.70821C22.9881 2.16757 24.4831 2.9021 25.8095 3.85651ZM17.4423 1.15997C18.6196 1.15997 19.7639 1.30337 20.8596 1.57178C20.0281 2.24606 18.7821 2.64163 17.4423 2.64163C16.0963 2.64163 14.8538 2.24732 14.0234 1.57215C15.1195 1.30352 16.2643 1.15997 17.4423 1.15997ZM13.5065 1.70821C13.6532 1.84857 13.8138 1.97988 13.9878 2.10095C13.3983 2.4796 11.9466 3.44559 10.9928 4.36373C10.8555 4.49593 10.7171 4.63673 10.5792 4.78229C10.0517 4.50654 9.54859 4.1977 9.07517 3.85651C10.4013 2.9021 11.8962 2.16765 13.5065 1.70821Z" fill="#2D464F"/>
<path d="M29.3249 23.4844C28.48 24.7303 27.4449 25.8374 26.2602 26.7624C25.696 26.3388 25.0904 25.9601 24.4499 25.6294C25.2214 24.7605 25.9127 23.8345 26.1687 23.4845H25.6134C25.2712 23.9408 24.672 24.7148 24.0347 25.4245C23.2279 25.0422 22.3713 24.7328 21.4783 24.501C21.6671 24.0973 21.8163 23.7396 21.9178 23.4845H21.4361C21.334 23.7332 21.1983 24.0487 21.0351 24.3932C19.9208 24.139 18.755 24.0036 17.5634 23.995V23.4845H17.1175V23.997C15.9172 24.0202 14.7448 24.1731 13.6265 24.4456C13.4524 24.0808 13.308 23.7457 13.2008 23.4845H12.719C12.8254 23.7519 12.9841 24.132 13.1859 24.5595C12.3085 24.8014 11.4676 25.1185 10.6767 25.5069C10.012 24.7755 9.37916 23.9585 9.02345 23.4844H8.46822C8.73261 23.8461 9.46283 24.824 10.2663 25.718C9.68761 26.0274 9.13818 26.376 8.62359 26.7623C7.43883 25.8374 6.40371 24.7302 5.5589 23.4844H5.02344C7.66056 27.5477 12.2418 30.2418 17.442 30.2418C22.6421 30.2418 27.2234 27.5477 29.8605 23.4844H29.3249V23.4844ZM21.2807 24.9094C22.1311 25.1247 22.9478 25.4121 23.7183 25.7674C23.5899 25.9026 23.4616 26.033 23.3348 26.1551C22.3844 27.0701 20.87 28.0678 20.343 28.4052C20.0195 28.2399 19.6667 28.1038 19.2922 27.9992C19.5764 27.6244 20.0851 26.9292 20.6363 26.0602C20.8754 25.6836 21.0921 25.2864 21.2807 24.9094ZM17.5633 24.4401C18.6851 24.4484 19.7828 24.572 20.8338 24.8039C20.6621 25.1421 20.4691 25.4919 20.2597 25.8221C19.6246 26.8233 19.0482 27.5884 18.8169 27.8871C18.4156 27.8073 17.9952 27.7623 17.5632 27.7552V24.4401H17.5633ZM17.1175 24.4423V27.7598C16.6802 27.7791 16.2566 27.8381 15.8545 27.9319C15.6512 27.6714 15.0474 26.8789 14.377 25.8221C14.1779 25.5083 13.9936 25.1767 13.8285 24.8542C14.8832 24.6047 15.9873 24.4648 17.1175 24.4423ZM13.3849 24.9669C13.5667 25.3267 13.7735 25.7026 14.0003 26.0603C14.5827 26.9784 15.1175 27.7023 15.3902 28.0594C15.0388 28.1706 14.7092 28.311 14.407 28.4772C14.033 28.241 12.3348 27.1494 11.302 26.1551C11.2005 26.0575 11.0981 25.9543 10.9954 25.8478C11.7499 25.4868 12.5503 25.1918 13.3849 24.9669ZM8.99402 27.0414C9.49092 26.6767 10.0207 26.3479 10.5781 26.0564C10.7162 26.2021 10.8549 26.3432 10.9924 26.4755C11.9459 27.3934 13.3972 28.3592 13.9869 28.738C13.7768 28.8848 13.5853 29.0462 13.4151 29.2215C11.807 28.751 10.3152 28.0061 8.99402 27.0414ZM17.4419 29.7968C16.226 29.7968 15.0451 29.6443 13.9169 29.3586C14.7407 28.6359 16.0488 28.1977 17.4419 28.1977C18.8332 28.1977 20.1426 28.6362 20.9665 29.3587C19.8384 29.6444 18.6577 29.7968 17.4419 29.7968ZM21.4684 29.2215C21.2661 29.0134 21.0349 28.8236 20.777 28.6557C21.4287 28.232 22.7538 27.3327 23.6443 26.4754C23.8085 26.3174 23.9743 26.1472 24.1389 25.9709C24.7574 26.2832 25.3435 26.6405 25.8897 27.0413C24.5684 28.0062 23.0766 28.7511 21.4684 29.2215Z" fill="#2D464F"/>
<path d="M0.918534 34.9631C0.938374 35.3314 1.08067 35.5859 1.34558 35.7267C1.48172 35.8009 1.63516 35.8379 1.806 35.8379C2.1253 35.8379 2.39756 35.7051 2.62287 35.4395C2.8481 35.1738 3.00778 34.6344 3.10186 33.8214C2.95332 34.0561 2.76955 34.2211 2.55049 34.3162C2.33143 34.4114 2.09565 34.459 1.84315 34.459C1.33072 34.459 0.92537 34.2998 0.627097 33.9813C0.32875 33.6629 0.179688 33.253 0.179688 32.7518C0.179688 32.2705 0.326967 31.8471 0.621524 31.4817C0.916082 31.1163 1.35056 30.9336 1.92482 30.9336C2.69955 30.9336 3.23428 31.2818 3.52883 31.9783C3.69224 32.3611 3.7739 32.8402 3.7739 33.4157C3.7739 34.0652 3.67611 34.6406 3.48061 35.142C3.15625 35.9767 2.60674 36.3941 1.832 36.3941C1.31214 36.3941 0.917271 36.2581 0.647532 35.9863C0.377719 35.7145 0.242775 35.3735 0.242775 34.9632H0.918534V34.9631ZM2.65816 33.6123C2.87722 33.4384 2.98675 33.1343 2.98675 32.7C2.98675 32.3101 2.88837 32.0196 2.69153 31.8284C2.49476 31.6372 2.24412 31.5416 1.93968 31.5416C1.61294 31.5416 1.35361 31.6508 1.16174 31.8691C0.969881 32.0874 0.873949 32.3793 0.873949 32.7444C0.873949 33.0898 0.958066 33.3644 1.12645 33.568C1.29476 33.7715 1.56331 33.8733 1.93217 33.8733C2.19708 33.8733 2.4391 33.7863 2.65816 33.6123Z" fill="#2D464F"/>
<path d="M7.68707 31.7893C7.9247 32.2268 8.04352 32.8261 8.04352 33.5873C8.04352 34.3089 7.93585 34.9056 7.7205 35.3778C7.40863 36.0549 6.89858 36.3935 6.19072 36.3935C5.55204 36.3935 5.07677 36.1167 4.7649 35.5631C4.50497 35.101 4.375 34.4806 4.375 33.7022C4.375 33.0992 4.45302 32.5814 4.60892 32.1489C4.90095 31.3433 5.42951 30.9404 6.19436 30.9404C6.88253 30.9404 7.3801 31.2235 7.68707 31.7893ZM7.0145 35.3258C7.22026 35.0194 7.32318 34.4485 7.32318 33.6132C7.32318 33.0102 7.24872 32.514 7.10003 32.1248C6.95127 31.7356 6.66236 31.541 6.23345 31.541C5.83917 31.541 5.55093 31.7257 5.36872 32.0952C5.18645 32.4647 5.09534 33.0089 5.09534 33.7282C5.09534 34.2693 5.1536 34.7044 5.27012 35.033C5.4486 35.5348 5.75364 35.7856 6.185 35.7856C6.53217 35.7855 6.80859 35.6322 7.0145 35.3258Z" fill="#2D464F"/>
<path d="M11.9214 31.7893C12.1591 32.2268 12.2779 32.8261 12.2779 33.5873C12.2779 34.3089 12.1702 34.9056 11.9549 35.3778C11.643 36.0549 11.133 36.3935 10.4251 36.3935C9.78642 36.3935 9.31114 36.1167 8.99927 35.5631C8.73934 35.101 8.60938 34.4806 8.60938 33.7022C8.60938 33.0992 8.6874 32.5814 8.8433 32.1489C9.13533 31.3433 9.66388 30.9404 10.4287 30.9404C11.117 30.9404 11.6145 31.2235 11.9214 31.7893ZM11.2489 35.3258C11.4546 35.0194 11.5576 34.4485 11.5576 33.6132C11.5576 33.0102 11.4831 32.514 11.3344 32.1248C11.1856 31.7356 10.8967 31.541 10.4678 31.541C10.0735 31.541 9.7853 31.7257 9.6031 32.0952C9.42082 32.4647 9.32972 33.0089 9.32972 33.7282C9.32972 34.2693 9.38798 34.7044 9.50449 35.033C9.68298 35.5348 9.98802 35.7856 10.4194 35.7856C10.7665 35.7855 11.043 35.6322 11.2489 35.3258Z" fill="#2D464F"/>
<path d="M13.3281 32.4902V31.9787C13.8108 31.9317 14.1474 31.8533 14.338 31.7433C14.5286 31.6333 14.6709 31.3732 14.7651 30.9629H15.2923V36.2491H14.5794V32.4902H13.3281V32.4902Z" fill="#2D464F"/>
<path d="M17.6641 32.3311H18.4411V33.1392H17.6641V32.3311ZM17.6641 35.4412H18.4411V36.2494H17.6641V35.4412Z" fill="#2D464F"/>
<path d="M19.4637 35.0556C19.6283 34.7171 19.9494 34.4094 20.4272 34.1326L21.1402 33.7211C21.4595 33.5357 21.6835 33.3774 21.8123 33.2463C22.0151 33.0407 22.1167 32.8055 22.1167 32.5405C22.1167 32.231 22.0239 31.9852 21.8383 31.8033C21.6526 31.6213 21.4051 31.5303 21.0957 31.5303C20.6377 31.5303 20.3208 31.7038 20.1451 32.0508C20.051 32.2367 19.999 32.4945 19.9891 32.8241H19.3097C19.3171 32.362 19.4025 31.985 19.5658 31.6935C19.8554 31.1794 20.3665 30.9224 21.0993 30.9224C21.7082 30.9224 22.1532 31.0868 22.4342 31.4154C22.715 31.7441 22.8556 32.1099 22.8556 32.5127C22.8556 32.9377 22.7058 33.3011 22.4064 33.6025C22.233 33.778 21.9223 33.9905 21.4743 34.2401L20.9656 34.5219C20.723 34.6554 20.5325 34.7827 20.3939 34.9037C20.1463 35.1187 19.9903 35.3572 19.926 35.6191H22.8296V36.2494H19.1797C19.2044 35.7921 19.2991 35.3942 19.4637 35.0556Z" fill="#2D464F"/>
<path d="M26.7104 31.7893C26.9481 32.2268 27.0669 32.8261 27.0669 33.5873C27.0669 34.3089 26.9593 34.9056 26.7439 35.3778C26.432 36.0549 25.9219 36.3935 25.2141 36.3935C24.5754 36.3935 24.1001 36.1167 23.7883 35.5631C23.5284 35.101 23.3984 34.4806 23.3984 33.7022C23.3984 33.0992 23.4764 32.5814 23.6323 32.1489C23.9244 31.3433 24.4529 30.9404 25.2178 30.9404C25.9059 30.9404 26.4035 31.2235 26.7104 31.7893ZM26.0379 35.3258C26.2437 35.0194 26.3465 34.4485 26.3465 33.6132C26.3465 33.0102 26.2721 32.514 26.1233 32.1248C25.9746 31.7356 25.6857 31.541 25.2568 31.541C24.8625 31.541 24.5743 31.7257 24.3921 32.0952C24.2097 32.4647 24.1186 33.0089 24.1186 33.7282C24.1186 34.2693 24.1769 34.7044 24.2935 35.033C24.472 35.5348 24.777 35.7856 25.2084 35.7856C25.5556 35.7855 25.832 35.6322 26.0379 35.3258Z" fill="#2D464F"/>
<path d="M28.125 32.4902V31.9787C28.6077 31.9317 28.9442 31.8533 29.135 31.7433C29.3255 31.6333 29.4678 31.3732 29.562 30.9629H30.0893V36.2491H29.3763V32.4902H28.125V32.4902Z" fill="#2D464F"/>
<path d="M32.5616 34.8962C32.6062 35.2768 32.7831 35.54 33.0926 35.6858C33.251 35.7599 33.4343 35.797 33.6422 35.797C34.0383 35.797 34.3315 35.671 34.5222 35.4188C34.7127 35.1668 34.8082 34.8876 34.8082 34.5811C34.8082 34.2104 34.6949 33.9237 34.4684 33.7211C34.2419 33.5184 33.9703 33.417 33.6534 33.417C33.4231 33.417 33.2258 33.4616 33.0612 33.5505C32.8965 33.6395 32.7561 33.7631 32.6397 33.9212L32.0605 33.8878L32.4653 31.0298H35.2277V31.6748H32.9664L32.7399 33.1502C32.8637 33.0563 32.9812 32.9859 33.0926 32.9388C33.2906 32.8573 33.5197 32.8166 33.7795 32.8166C34.2671 32.8166 34.6806 32.9735 35.0196 33.2874C35.3588 33.6012 35.5284 33.9991 35.5284 34.481C35.5284 34.9828 35.373 35.4251 35.0624 35.8082C34.7517 36.1913 34.256 36.3827 33.5752 36.3827C33.142 36.3827 32.759 36.2609 32.4261 36.0176C32.0932 35.7743 31.9068 35.4004 31.8672 34.8963H32.5616V34.8962Z" fill="#2D464F"/>
</svg>
