<svg width="53" height="45" viewBox="0 0 53 45" fill="none" xmlns="http://www.w3.org/2000/svg">
<circle cx="26.7324" cy="17.417" r="17.1934" fill="#E7E7E7"/>
<rect x="5.54688" y="30.21" width="42.0623" height="8.08497" fill="#24B8EB"/>
<path d="M43.9164 34.2007H52.8201L50.2616 38.3967L43.6094 38.7037L43.9164 34.2007Z" fill="#24B8EB"/>
<path d="M43.6094 42.4902H52.8201L50.2616 38.2942L43.6094 37.9872V42.4902Z" fill="#24B8EB"/>
<path d="M9.43516 34.2017H0.531461L3.09 38.3977L9.74219 38.7047L9.43516 34.2017Z" fill="#24B8EB"/>
<path d="M9.74219 42.4912H0.531461L3.09 38.2952L9.74219 37.9882V42.4912Z" fill="#24B8EB"/>
<path d="M47.6016 38.2944H43.6102V42.1834L47.6016 38.2944Z" fill="#008BB8"/>
<path d="M5.54688 38.2944H9.53819V42.1834L5.54688 38.2944Z" fill="#008BB8"/>
<path d="M9.26943 35.6421L9.01576 34.9545H8.09452L7.84085 35.6421H7.46702L8.37156 33.2489H8.7454L9.6466 35.6421H9.26943ZM8.6753 33.9699C8.66863 33.9454 8.65639 33.9087 8.63859 33.8597C8.62301 33.8085 8.60743 33.7573 8.59186 33.7062C8.57628 33.6528 8.56404 33.6094 8.55514 33.576C8.54401 33.6205 8.53066 33.6694 8.51509 33.7229C8.50174 33.774 8.48839 33.8219 8.47503 33.8664C8.46168 33.9087 8.45056 33.9431 8.44166 33.9699L8.20133 34.6407H8.91562L8.6753 33.9699ZM11.8172 34.801C11.8172 34.9656 11.7827 35.1147 11.7137 35.2482C11.6469 35.3795 11.5435 35.4841 11.4033 35.562C11.2631 35.6376 11.0862 35.6755 10.8726 35.6755C10.5699 35.6755 10.3396 35.5954 10.1816 35.4351C10.0259 35.2727 9.94799 35.0591 9.94799 34.7943V33.2589H10.3085V34.7776C10.3085 34.9734 10.3563 35.1214 10.452 35.2215C10.5477 35.3194 10.6934 35.3684 10.8893 35.3684C11.0228 35.3684 11.1318 35.3439 11.2164 35.295C11.3009 35.246 11.3621 35.1781 11.3999 35.0914C11.44 35.0023 11.46 34.8966 11.46 34.7743V33.2589H11.8172V34.801ZM13.2333 35.6421H12.8728V33.5693H12.1586V33.2589H13.9476V33.5693H13.2333V35.6421ZM16.1722 35.6421H15.8117V34.554H14.6735V35.6421H14.313V33.2589H14.6735V34.2469H15.8117V33.2589H16.1722V35.6421ZM18.9127 34.4472C18.9127 34.6318 18.8893 34.7999 18.8426 34.9512C18.7981 35.1003 18.7291 35.2293 18.6356 35.3384C18.5444 35.4474 18.4287 35.5308 18.2885 35.5887C18.1505 35.6465 17.9892 35.6755 17.8045 35.6755C17.6154 35.6755 17.4507 35.6465 17.3105 35.5887C17.1726 35.5286 17.0569 35.4452 16.9634 35.3384C16.8722 35.2293 16.8043 35.0991 16.7598 34.9478C16.7153 34.7965 16.693 34.6285 16.693 34.4438C16.693 34.199 16.7331 33.9854 16.8132 33.803C16.8933 33.6205 17.0157 33.4781 17.1804 33.3757C17.3472 33.2734 17.5564 33.2222 17.8079 33.2222C18.0526 33.2222 18.2562 33.2734 18.4187 33.3757C18.5833 33.4759 18.7068 33.6183 18.7892 33.803C18.8715 33.9854 18.9127 34.2002 18.9127 34.4472ZM17.0735 34.4472C17.0735 34.6385 17.0991 34.8032 17.1503 34.9412C17.2015 35.0769 17.2816 35.1826 17.3906 35.2582C17.4997 35.3317 17.6376 35.3684 17.8045 35.3684C17.9736 35.3684 18.1116 35.3317 18.2184 35.2582C18.3252 35.1826 18.4042 35.0769 18.4554 34.9412C18.5066 34.8032 18.5322 34.6385 18.5322 34.4472C18.5322 34.1601 18.4743 33.9365 18.3586 33.7763C18.2451 33.6138 18.0615 33.5326 17.8079 33.5326C17.6387 33.5326 17.4997 33.5693 17.3906 33.6427C17.2816 33.7162 17.2015 33.8208 17.1503 33.9565C17.0991 34.0922 17.0735 34.2558 17.0735 34.4472ZM20.0981 33.2589C20.3028 33.2589 20.4708 33.2845 20.6021 33.3357C20.7334 33.3868 20.8313 33.4636 20.8958 33.566C20.9604 33.6661 20.9926 33.7929 20.9926 33.9465C20.9926 34.0689 20.9693 34.1723 20.9226 34.2569C20.878 34.3392 20.8202 34.4071 20.749 34.4605C20.6778 34.5117 20.6032 34.5529 20.5254 34.584L21.1929 35.6421H20.779L20.2049 34.6775H19.791V35.6421H19.4306V33.2589H20.0981ZM20.0747 33.566H19.791V34.3771H20.0914C20.2138 34.3771 20.314 34.3615 20.3918 34.3303C20.4719 34.2992 20.5298 34.2525 20.5654 34.1901C20.6032 34.1278 20.6221 34.0511 20.6221 33.9598C20.6221 33.8642 20.6021 33.7885 20.5621 33.7329C20.5242 33.675 20.4642 33.6327 20.3818 33.606C20.3017 33.5793 20.1994 33.566 20.0747 33.566ZM22.2771 35.6421H21.3525V35.4351L21.6362 35.3517V33.5526L21.3525 33.4658V33.2589H22.2771V33.4658L21.9967 33.5526V35.3517L22.2771 35.4351V35.6421ZM24.2047 35.6421H22.5191V35.3851L23.7407 33.5693H22.5558V33.2589H24.1747V33.5159L22.953 35.3317H24.2047V35.6421ZM25.9811 35.6421H24.6393V33.2589H25.9811V33.566H24.9998V34.2469H25.9211V34.5506H24.9998V35.3317H25.9811V35.6421ZM28.4266 34.4271C28.4266 34.6942 28.3765 34.9178 28.2764 35.098C28.1762 35.2783 28.0316 35.414 27.8424 35.5052C27.6555 35.5965 27.4297 35.6421 27.1649 35.6421H26.4973V33.2589H27.235C27.4775 33.2589 27.6878 33.3034 27.8658 33.3924C28.0438 33.4814 28.1818 33.6127 28.2797 33.7863C28.3776 33.9576 28.4266 34.1712 28.4266 34.4271ZM28.0494 34.4371C28.0494 34.2369 28.0171 34.0722 27.9526 33.9431C27.8881 33.8141 27.7924 33.7184 27.6655 33.6561C27.5409 33.5938 27.3896 33.5626 27.2116 33.5626H26.8578V35.3384H27.1482C27.4486 35.3384 27.6733 35.2627 27.8224 35.1114C27.9737 34.9601 28.0494 34.7353 28.0494 34.4371ZM30.4798 33.2589C30.7914 33.2589 31.0183 33.3223 31.1608 33.4492C31.3032 33.5738 31.3744 33.7484 31.3744 33.9732C31.3744 34.0733 31.3577 34.169 31.3243 34.2602C31.2932 34.3515 31.2409 34.4338 31.1674 34.5072C31.094 34.5784 30.9961 34.6352 30.8737 34.6775C30.7535 34.7175 30.6056 34.7375 30.4298 34.7375H30.1728V35.6421H29.8123V33.2589H30.4798ZM30.4531 33.5626H30.1728V34.4338H30.3897C30.5255 34.4338 30.6389 34.4193 30.7302 34.3904C30.8214 34.3593 30.8893 34.3114 30.9338 34.2469C30.9805 34.1801 31.0039 34.0934 31.0039 33.9865C31.0039 33.8441 30.9594 33.7384 30.8704 33.6694C30.7836 33.5982 30.6445 33.5626 30.4531 33.5626ZM33.1751 35.6421L32.9214 34.9545H32.0002L31.7465 35.6421H31.3727L32.2773 33.2489H32.6511L33.5523 35.6421H33.1751ZM32.581 33.9699C32.5743 33.9454 32.5621 33.9087 32.5443 33.8597C32.5287 33.8085 32.5131 33.7573 32.4975 33.7062C32.482 33.6528 32.4697 33.6094 32.4608 33.576C32.4497 33.6205 32.4364 33.6694 32.4208 33.7229C32.4074 33.774 32.3941 33.8219 32.3807 33.8664C32.3674 33.9087 32.3562 33.9431 32.3473 33.9699L32.107 34.6407H32.8213L32.581 33.9699ZM34.5413 33.2589C34.746 33.2589 34.914 33.2845 35.0453 33.3357C35.1766 33.3868 35.2745 33.4636 35.339 33.566C35.4035 33.6661 35.4358 33.7929 35.4358 33.9465C35.4358 34.0689 35.4124 34.1723 35.3657 34.2569C35.3212 34.3392 35.2633 34.4071 35.1921 34.4605C35.1209 34.5117 35.0464 34.5529 34.9685 34.584L35.6361 35.6421H35.2222L34.6481 34.6775H34.2342V35.6421H33.8737V33.2589H34.5413ZM34.5179 33.566H34.2342V34.3771H34.5346C34.657 34.3771 34.7571 34.3615 34.835 34.3303C34.9151 34.2992 34.973 34.2525 35.0086 34.1901C35.0464 34.1278 35.0653 34.0511 35.0653 33.9598C35.0653 33.8642 35.0453 33.7885 35.0052 33.7329C34.9674 33.675 34.9073 33.6327 34.825 33.606C34.7449 33.5793 34.6425 33.566 34.5179 33.566ZM36.787 35.6421H36.4265V33.5693H35.7122V33.2589H37.5013V33.5693H36.787V35.6421ZM39.8226 35.6421H39.3854L38.1804 33.7162H38.1671C38.1693 33.7607 38.1715 33.8085 38.1738 33.8597C38.1782 33.9109 38.1815 33.9654 38.1838 34.0233C38.186 34.0789 38.1882 34.1367 38.1905 34.1968C38.1927 34.2547 38.1938 34.3136 38.1938 34.3737V35.6421H37.8667V33.2589H38.3006L39.5022 35.1748H39.5122C39.51 35.1414 39.5078 35.1003 39.5055 35.0513C39.5033 35.0001 39.5011 34.9456 39.4989 34.8877C39.4989 34.8299 39.4978 34.7709 39.4955 34.7108C39.4933 34.6508 39.4911 34.594 39.4889 34.5406V33.2589H39.8226V35.6421ZM41.7998 35.6421H40.458V33.2589H41.7998V33.566H40.8185V34.2469H41.7398V34.5506H40.8185V35.3317H41.7998V35.6421ZM42.9836 33.2589C43.1883 33.2589 43.3563 33.2845 43.4876 33.3357C43.6189 33.3868 43.7168 33.4636 43.7813 33.566C43.8458 33.6661 43.8781 33.7929 43.8781 33.9465C43.8781 34.0689 43.8547 34.1723 43.808 34.2569C43.7635 34.3392 43.7056 34.4071 43.6344 34.4605C43.5632 34.5117 43.4887 34.5529 43.4108 34.584L44.0784 35.6421H43.6645L43.0904 34.6775H42.6765V35.6421H42.316V33.2589H42.9836ZM42.9602 33.566H42.6765V34.3771H42.9769C43.0993 34.3771 43.1994 34.3615 43.2773 34.3303C43.3574 34.2992 43.4152 34.2525 43.4508 34.1901C43.4887 34.1278 43.5076 34.0511 43.5076 33.9598C43.5076 33.8642 43.4876 33.7885 43.4475 33.7329C43.4097 33.675 43.3496 33.6327 43.2673 33.606C43.1872 33.5793 43.0848 33.566 42.9602 33.566Z" fill="white"/>
<path d="M15.1913 42.3462H14.8576V39.9912H14.0305V39.6982H16.0147V39.9912H15.1913V42.3462ZM17.8937 42.3462H16.414V39.6982H17.8937V39.9912H16.7477V40.8182H17.827V41.1075H16.7477V42.0532H17.8937V42.3462ZM19.6096 39.9541C19.3253 39.9541 19.1015 40.0493 18.9383 40.2397C18.7751 40.43 18.6935 40.6909 18.6935 41.0222C18.6935 41.351 18.769 41.6119 18.9198 41.8047C19.0731 41.9951 19.3018 42.0903 19.6059 42.0903C19.7221 42.0903 19.8321 42.0804 19.9359 42.0606C20.0398 42.0408 20.1412 42.0161 20.2401 41.9865V42.2757C20.1412 42.3128 20.0386 42.34 19.9322 42.3573C19.8284 42.3746 19.7035 42.3833 19.5577 42.3833C19.2882 42.3833 19.0632 42.3276 18.8827 42.2164C18.7022 42.1051 18.5662 41.9469 18.4747 41.7417C18.3857 41.5365 18.3412 41.2954 18.3412 41.0185C18.3412 40.7515 18.3894 40.5166 18.4859 40.3138C18.5848 40.1086 18.7294 39.9492 18.9198 39.8354C19.1102 39.7192 19.3413 39.6611 19.6133 39.6611C19.8927 39.6611 20.1362 39.713 20.3439 39.8169L20.2104 40.0987C20.1288 40.0617 20.0373 40.0283 19.9359 39.9986C19.8371 39.9689 19.7283 39.9541 19.6096 39.9541ZM22.8429 42.3462H22.5092V41.1112H21.1518V42.3462H20.818V39.6982H21.1518V40.8182H22.5092V39.6982H22.8429V42.3462ZM25.666 42.3462H25.2766L23.8599 40.147H23.8451C23.85 40.2335 23.8562 40.341 23.8636 40.4696C23.871 40.5982 23.8747 40.7304 23.8747 40.8664V42.3462H23.5669V39.6982H23.9526L25.3656 41.89H25.3804C25.378 41.8505 25.3743 41.7911 25.3693 41.712C25.3668 41.6329 25.3631 41.5464 25.3582 41.4524C25.3557 41.3584 25.3545 41.2719 25.3545 41.1928V39.6982H25.666V42.3462ZM28.6951 41.0185C28.6951 41.2929 28.6481 41.5328 28.5542 41.738C28.4627 41.9407 28.3267 42.0989 28.1462 42.2127C27.9658 42.3264 27.742 42.3833 27.475 42.3833C27.2005 42.3833 26.9718 42.3264 26.7889 42.2127C26.6084 42.0989 26.4736 41.9395 26.3846 41.7343C26.2956 41.529 26.2511 41.2892 26.2511 41.0148C26.2511 40.7428 26.2956 40.5055 26.3846 40.3027C26.4736 40.1 26.6084 39.9417 26.7889 39.828C26.9718 39.7143 27.2018 39.6574 27.4787 39.6574C27.7432 39.6574 27.9658 39.7143 28.1462 39.828C28.3267 39.9393 28.4627 40.0975 28.5542 40.3027C28.6481 40.5055 28.6951 40.744 28.6951 41.0185ZM26.6034 41.0185C26.6034 41.3523 26.6739 41.6156 26.8148 41.8084C26.9558 41.9988 27.1758 42.094 27.475 42.094C27.7766 42.094 27.9967 41.9988 28.1351 41.8084C28.2736 41.6156 28.3428 41.3523 28.3428 41.0185C28.3428 40.6847 28.2736 40.4239 28.1351 40.236C27.9967 40.0456 27.7778 39.9504 27.4787 39.9504C27.1795 39.9504 26.9582 40.0456 26.8148 40.236C26.6739 40.4239 26.6034 40.6847 26.6034 41.0185ZM29.282 42.3462V39.6982H29.6158V42.0495H30.7729V42.3462H29.282ZM33.465 41.0185C33.465 41.2929 33.418 41.5328 33.324 41.738C33.2325 41.9407 33.0966 42.0989 32.9161 42.2127C32.7356 42.3264 32.5118 42.3833 32.2448 42.3833C31.9704 42.3833 31.7417 42.3264 31.5587 42.2127C31.3782 42.0989 31.2435 41.9395 31.1545 41.7343C31.0655 41.529 31.0209 41.2892 31.0209 41.0148C31.0209 40.7428 31.0655 40.5055 31.1545 40.3027C31.2435 40.1 31.3782 39.9417 31.5587 39.828C31.7417 39.7143 31.9716 39.6574 32.2485 39.6574C32.5131 39.6574 32.7356 39.7143 32.9161 39.828C33.0966 39.9393 33.2325 40.0975 33.324 40.3027C33.418 40.5055 33.465 40.744 33.465 41.0185ZM31.3733 41.0185C31.3733 41.3523 31.4437 41.6156 31.5847 41.8084C31.7256 41.9988 31.9456 42.094 32.2448 42.094C32.5464 42.094 32.7665 41.9988 32.905 41.8084C33.0434 41.6156 33.1126 41.3523 33.1126 41.0185C33.1126 40.6847 33.0434 40.4239 32.905 40.236C32.7665 40.0456 32.5477 39.9504 32.2485 39.9504C31.9494 39.9504 31.7281 40.0456 31.5847 40.236C31.4437 40.4239 31.3733 40.6847 31.3733 41.0185ZM35.2015 40.948H36.1176V42.2461C35.9742 42.293 35.8295 42.3276 35.6837 42.3499C35.5378 42.3722 35.3721 42.3833 35.1867 42.3833C34.9123 42.3833 34.6811 42.3289 34.4932 42.2201C34.3053 42.1088 34.1619 41.9518 34.063 41.7491C33.9666 41.5439 33.9183 41.3016 33.9183 41.0222C33.9183 40.7453 33.9727 40.5055 34.0815 40.3027C34.1903 40.1 34.3461 39.943 34.5488 39.8317C34.754 39.718 35.0013 39.6611 35.2905 39.6611C35.4389 39.6611 35.5786 39.6747 35.7096 39.7019C35.8431 39.7291 35.9668 39.7674 36.0805 39.8169L35.9544 40.1062C35.8604 40.0641 35.7541 40.0283 35.6355 39.9986C35.5193 39.9689 35.3981 39.9541 35.272 39.9541C34.9555 39.9541 34.7083 40.0493 34.5303 40.2397C34.3547 40.43 34.267 40.6909 34.267 41.0222C34.267 41.2324 34.3003 41.419 34.3671 41.5822C34.4363 41.7429 34.5439 41.869 34.6897 41.9605C34.8356 42.0495 35.0272 42.094 35.2646 42.094C35.3808 42.094 35.4797 42.0878 35.5613 42.0755C35.6429 42.0631 35.717 42.0483 35.7838 42.031V41.2447H35.2015V40.948ZM37.4399 40.9999L38.1297 39.6982H38.4894L37.6068 41.3189V42.3462H37.273V41.3337L36.3903 39.6982H36.7538L37.4399 40.9999Z" fill="black"/>
<path fill-rule="evenodd" clip-rule="evenodd" d="M18.3465 23.657V22.1269C18.3465 21.9259 18.4719 21.7644 18.6797 21.7644H18.7373C18.945 21.7644 19.0699 21.9261 19.0699 22.1269V25.3481C19.0699 26.1336 18.6825 26.7586 18.0073 27.1568C17.698 27.3403 17.345 27.4367 16.9855 27.4359H16.8421C16.0577 27.4359 15.4346 27.0475 15.0364 26.3717C14.8529 26.062 14.7566 25.7082 14.7578 25.3481V25.2045C14.7578 24.4188 15.1454 23.7941 15.82 23.3952C16.1292 23.2113 16.4824 23.1148 16.8421 23.1161H16.9855C17.5164 23.1161 17.9667 23.3222 18.3465 23.657V23.657ZM15.4811 25.2762C15.4811 25.8436 15.7557 26.2702 16.2521 26.5423C16.4528 26.6523 16.6707 26.7114 16.8997 26.7114C17.4557 26.7114 17.8681 26.4486 18.1526 25.9767C18.2849 25.7571 18.3465 25.5169 18.3465 25.2615C18.3465 24.7696 18.114 24.3858 17.7183 24.1007C17.4784 23.9279 17.2083 23.8412 16.9138 23.8412C16.3077 23.8412 15.8715 24.1479 15.6098 24.6927C15.5215 24.8769 15.4811 25.0724 15.4811 25.2762V25.2762ZM21.5794 23.1161H21.6797C22.5178 23.1161 23.1553 23.5233 23.5592 24.2562C23.7207 24.5493 23.8072 24.8693 23.8072 25.2045V25.3481C23.8072 26.1336 23.4205 26.7594 22.7443 27.1569C22.4313 27.3408 22.0855 27.4359 21.7227 27.4359H21.5794C20.7951 27.4359 20.1717 27.0475 19.7738 26.3717C19.5902 26.062 19.4938 25.7083 19.4949 25.3481V25.2045C19.4949 24.4187 19.8841 23.7961 20.557 23.3954C20.8699 23.2092 21.2159 23.1161 21.5794 23.1161ZM20.2183 25.2762C20.2183 25.827 20.4881 26.2321 20.9526 26.5171C21.1706 26.6508 21.4108 26.7114 21.6656 26.7114C22.2089 26.7114 22.6105 26.4354 22.89 25.9761C23.0234 25.7571 23.0837 25.5165 23.0837 25.2615C23.0837 24.7493 22.8374 24.3581 22.4164 24.0746C22.1857 23.9191 21.9289 23.8412 21.651 23.8412C21.045 23.8412 20.6088 24.1479 20.3472 24.6927C20.2587 24.8769 20.2183 25.0724 20.2183 25.2762V25.2762ZM26.8144 23.8991C26.7052 23.8478 26.5007 23.8308 26.3827 23.8263C25.7784 23.8035 25.3411 24.1444 25.0845 24.6785C24.9959 24.8627 24.9555 25.0576 24.9555 25.2615C24.9555 25.8821 25.2809 26.3167 25.8339 26.5816C26.0359 26.6783 26.2968 26.6966 26.5175 26.6966C26.7117 26.6966 26.9862 26.5775 27.1585 26.4955L27.1884 26.4812H27.3222L27.3369 26.4842C27.5014 26.5186 27.6256 26.623 27.6256 26.8003V26.872C27.6256 27.3132 26.8207 27.4142 26.5135 27.4357C25.4297 27.5108 24.6191 26.9146 24.3101 25.879C24.2564 25.6992 24.2322 25.5206 24.2322 25.3332V25.1899C24.2322 24.4041 24.6215 23.7817 25.2943 23.3814C25.6071 23.1953 25.9531 23.1018 26.3165 23.1018H26.4599C26.8455 23.1018 27.2006 23.2115 27.519 23.4293L27.5451 23.4474L27.5616 23.4747C27.596 23.5317 27.6256 23.5978 27.6256 23.6657V23.7374C27.6256 23.9223 27.4874 24.0218 27.3207 24.054L27.3068 24.0564H27.2641C27.1562 24.0564 26.9107 23.9445 26.8144 23.8991V23.8991ZM29.1608 24.3897C29.4418 24.1079 29.7237 23.8266 30.0089 23.5494C30.0884 23.4721 30.3892 23.1448 30.5077 23.1448H30.6373L30.652 23.1479C30.8171 23.1822 30.9407 23.2868 30.9407 23.4645V23.5361C30.9407 23.6573 30.799 23.7982 30.7208 23.8811C30.5547 24.0576 30.3797 24.2282 30.2096 24.401L29.3356 25.2897C29.7119 25.6675 30.0879 26.0456 30.4611 26.4263C30.5646 26.5313 30.6674 26.6372 30.7693 26.7438C30.8052 26.7817 30.8582 26.8288 30.8884 26.8813C30.9208 26.9305 30.9407 26.9859 30.9407 27.0451V27.1199L30.9365 27.1372C30.8959 27.3025 30.7911 27.4359 30.6082 27.4359H30.5506C30.431 27.4359 30.2958 27.3003 30.2138 27.2228C30.0449 27.0632 29.8818 26.8955 29.7161 26.7325L29.1608 26.1864V27.0592C29.1608 27.2603 29.0351 27.4219 28.8276 27.4219H28.7707C28.5628 27.4219 28.4374 27.2603 28.4374 27.0592V22.141C28.4374 21.9399 28.5629 21.7791 28.7707 21.7791H28.8276C29.0351 21.7791 29.1608 21.9399 29.1608 22.141V24.3897V24.3897ZM38.1767 23.1448H38.2486C38.4655 23.1448 38.6103 23.2912 38.6103 23.5073C38.6103 23.8073 38.324 23.8841 38.0763 23.8841C37.7515 23.8841 37.4413 24.0811 37.2173 24.3021C36.9381 24.5778 36.8159 24.931 36.8159 25.3193V27.0734C36.8159 27.2745 36.6905 27.4359 36.4826 27.4359H36.4255C36.2176 27.4359 36.0923 27.2746 36.0923 27.0734V25.2186C36.0923 24.5063 36.4384 23.9249 37.0156 23.5171C37.3601 23.2735 37.7548 23.1449 38.1767 23.1449V23.1448ZM33.0353 26.6211C33.2985 26.7132 33.5987 26.7001 33.8688 26.6529C34.0069 26.5941 34.3602 26.4397 34.4901 26.4624L34.5104 26.4658L34.5291 26.475C34.6084 26.5135 34.6841 26.568 34.7246 26.6489C34.8193 26.8385 34.7738 27.029 34.5879 27.1367L34.526 27.1725C33.8398 27.5691 33.11 27.5142 32.426 27.1437C32.0989 26.9666 31.8487 26.7037 31.6642 26.3832L31.6211 26.3083C31.1805 25.5442 31.24 24.7404 31.7368 24.0137C31.9083 23.7625 32.1324 23.5685 32.3945 23.4167L32.4936 23.3594C33.1398 22.9857 33.8324 23.0114 34.4961 23.3393C34.853 23.5157 35.1421 23.7785 35.3413 24.1242L35.3772 24.1865C35.5219 24.4377 35.3344 24.6565 35.1409 24.8061C34.9163 24.9797 34.6895 25.1886 34.4743 25.3746C33.9942 25.7897 33.5149 26.2058 33.0353 26.6211V26.6211ZM32.414 26.1841C32.9508 25.7231 33.4878 25.2616 34.0232 24.7986C34.2061 24.6406 34.4068 24.4766 34.5882 24.3104C34.4426 24.1266 34.1993 23.9941 33.9926 23.915C33.5753 23.7558 33.1639 23.8093 32.7813 24.0305C32.2804 24.3202 32.0671 24.7815 32.0858 25.3556C32.0932 25.5817 32.1539 25.7996 32.2737 25.9919C32.3159 26.0597 32.363 26.1234 32.414 26.1841ZM28.5101 11.6641H30.6447V13.8499H31.724C32.2225 13.8499 32.7351 13.761 33.2071 13.6008C33.4391 13.522 33.6994 13.4124 33.9282 13.2744C33.6269 12.8804 33.473 12.3828 33.4278 11.8924C33.3662 11.2252 33.5007 10.3568 33.9514 9.83467L34.1758 9.57471L34.4432 9.79006C35.1163 10.3318 35.6825 11.0888 35.7823 11.9518C36.5929 11.713 37.5447 11.7695 38.2591 12.1825L38.5523 12.352L38.398 12.6536C37.7938 13.8348 36.5304 14.2008 35.2953 14.136C33.4472 18.7469 29.4235 20.9298 24.5449 20.9298C22.0243 20.9298 19.7119 19.986 18.395 17.7461L18.3735 17.7096L18.1816 17.3186C17.7365 16.3326 17.5886 15.2525 17.6889 14.1732L17.719 13.8499H19.5445V11.6641H21.6791V9.5259H25.9484V7.3877H28.5101V11.6641Z" fill="#364548"/>
<path fill-rule="evenodd" clip-rule="evenodd" d="M35.4269 12.4729C35.5701 11.3586 34.7376 10.4834 34.2214 10.0679C33.6264 10.7569 33.534 12.5625 34.4673 13.3228C33.9464 13.7862 32.8489 14.2063 31.725 14.2063H18.0443C17.9351 15.3814 18.141 16.4636 18.6114 17.3898L18.767 17.675C18.8656 17.8424 18.9733 18.0042 19.0896 18.1598C19.652 18.196 20.1706 18.2084 20.6451 18.1979H20.6452C21.5776 18.1773 22.3383 18.067 22.9149 17.8669C22.9556 17.8542 22.9997 17.8579 23.0378 17.8772C23.0759 17.8964 23.1051 17.9298 23.119 17.9702C23.133 18.0106 23.1308 18.0549 23.1128 18.0936C23.0947 18.1324 23.0624 18.1626 23.0225 18.1779C22.9458 18.2047 22.8659 18.2295 22.7833 18.2532H22.7831C22.3291 18.3831 21.8422 18.4704 21.2141 18.5092C21.2515 18.5099 21.1753 18.5148 21.1751 18.5148C21.1537 18.5162 21.1269 18.5193 21.1054 18.5204C20.8582 18.5344 20.5914 18.5373 20.3186 18.5373C20.0202 18.5373 19.7264 18.5317 19.3979 18.5148L19.3895 18.5204C20.5294 19.8038 22.3117 20.5735 24.5459 20.5735C29.2741 20.5735 33.2846 18.474 35.0606 13.7606C36.3205 13.8901 37.5314 13.5682 38.0822 12.4912C37.2049 11.9841 36.0766 12.1458 35.4269 12.4729" fill="#22A0C8"/>
<path fill-rule="evenodd" clip-rule="evenodd" d="M35.4195 12.4729C35.5626 11.3586 34.7302 10.4834 34.2139 10.0679C33.619 10.7569 33.5266 12.5625 34.4599 13.3228C33.939 13.7862 32.8414 14.2063 31.7175 14.2063H18.847C18.7912 16.006 19.4579 17.372 20.6375 18.1979H20.6378C21.5702 18.1773 22.3309 18.067 22.9075 17.8669C22.9482 17.8542 22.9923 17.8579 23.0304 17.8772C23.0685 17.8964 23.0976 17.9298 23.1116 17.9702C23.1256 18.0106 23.1233 18.0549 23.1053 18.0936C23.0873 18.1324 23.055 18.1626 23.0151 18.1779C22.9384 18.2047 22.8585 18.2295 22.7759 18.2532H22.7756C22.3217 18.3831 21.793 18.4816 21.1649 18.5204C21.1647 18.5204 21.1497 18.5059 21.1495 18.5059C22.7587 19.3328 25.0919 19.3298 27.767 18.3005C30.7664 17.1462 33.5577 14.9472 35.5051 12.4321C35.4758 12.4454 35.4472 12.4589 35.4195 12.4729" fill="#37B1D9"/>
<path fill-rule="evenodd" clip-rule="evenodd" d="M18.0625 15.6343C18.1475 16.2638 18.3314 16.8532 18.604 17.39L18.7596 17.6752C18.8581 17.8426 18.9658 18.0045 19.0821 18.16C19.6447 18.1962 20.1633 18.2086 20.6378 18.1981C21.5701 18.1776 22.3309 18.0672 22.9074 17.8671C22.9482 17.8544 22.9923 17.8581 23.0304 17.8774C23.0685 17.8966 23.0976 17.93 23.1116 17.9704C23.1256 18.0108 23.1233 18.0551 23.1053 18.0938C23.0873 18.1326 23.0549 18.1628 23.0151 18.1781C22.9383 18.2049 22.8584 18.2297 22.7759 18.2534H22.7756C22.3216 18.3833 21.7958 18.4762 21.1677 18.5151C21.1461 18.5164 21.1085 18.5167 21.0867 18.5179C20.8397 18.5318 20.5756 18.5403 20.3027 18.5403C20.0045 18.5403 19.6994 18.5346 19.3711 18.5178C20.5109 19.8012 22.3043 20.5737 24.5384 20.5737C28.5863 20.5737 32.108 19.0347 34.152 15.6343H18.0625Z" fill="#1B81A5"/>
<path fill-rule="evenodd" clip-rule="evenodd" d="M18.9766 15.6343C19.2185 16.7396 19.8 17.6072 20.6443 18.1981C21.5766 18.1776 22.3373 18.0672 22.9139 17.8671C22.9547 17.8544 22.9987 17.8581 23.0368 17.8774C23.0749 17.8966 23.1041 17.93 23.1181 17.9704C23.132 18.0108 23.1298 18.0551 23.1118 18.0938C23.0938 18.1326 23.0614 18.1628 23.0215 18.1781C22.9448 18.2049 22.8649 18.2297 22.7824 18.2534H22.7821C22.3281 18.3833 21.7911 18.4762 21.1629 18.5151C22.772 19.3418 25.0985 19.3299 27.7734 18.3007C29.3916 17.6779 30.949 16.7509 32.3463 15.6343H18.9766Z" fill="#1D91B4"/>
<path fill-rule="evenodd" clip-rule="evenodd" d="M19.8984 12.02H21.7485V13.8732H19.8984V12.02ZM20.0526 12.1745H20.1986V13.7188H20.0526V12.1745ZM20.327 12.1745H20.4789V13.7188H20.3271V12.1745H20.327ZM20.6073 12.1745H20.7592V13.7188H20.6073V12.1745ZM20.8877 12.1745H21.0395V13.7188H20.8877V12.1745ZM21.1681 12.1745H21.3199V13.7188H21.1681V12.1745ZM21.4483 12.1745H21.5944V13.7188H21.4483V12.1745ZM22.0331 9.88184H23.8833V11.7349H22.033V9.88184H22.0331ZM22.1873 10.0363H22.3332V11.5805H22.1873V10.0363ZM22.4618 10.0363H22.6136V11.5805H22.4619V10.0363H22.4618ZM22.742 10.0363H22.8938V11.5805H22.742V10.0363ZM23.0224 10.0363H23.1742V11.5805H23.0224V10.0363ZM23.3027 10.0363H23.4546V11.5805H23.3027V10.0363ZM23.583 10.0363H23.7292V11.5805H23.583V10.0363Z" fill="#23A3C2"/>
<path fill-rule="evenodd" clip-rule="evenodd" d="M22.0392 12.0205H23.8894V13.8737H22.0391V12.0205H22.0392ZM22.1934 12.175H22.3393V13.7193H22.1934V12.175ZM22.4678 12.175H22.6196V13.7193H22.4679V12.175H22.4678ZM22.7481 12.175H22.8999V13.7193H22.7481V12.175ZM23.0284 12.175H23.1802V13.7193H23.0284V12.175ZM23.3088 12.175H23.4607V13.7193H23.3088V12.175ZM23.589 12.175H23.7352V13.7193H23.589V12.175Z" fill="#34BBDE"/>
<path fill-rule="evenodd" clip-rule="evenodd" d="M24.1719 12.0205H26.022V13.8737H24.1719V12.0205ZM24.326 12.175H24.4719V13.7193H24.326V12.175ZM24.6005 12.175H24.7523V13.7193H24.6005V12.175ZM24.8808 12.175H25.0326V13.7193H24.8808V12.175ZM25.1612 12.175H25.313V13.7193H25.1612V12.175ZM25.4414 12.175H25.5934V13.7193H25.4414V12.175ZM25.7218 12.175H25.8678V13.7193H25.7218V12.175V12.175Z" fill="#23A3C2"/>
<path fill-rule="evenodd" clip-rule="evenodd" d="M24.1719 9.88184H26.022V11.7349H24.1719V9.88184ZM24.326 10.0363H24.4719V11.5805H24.326V10.0363ZM24.6005 10.0363H24.7523V11.5805H24.6005V10.0363ZM24.8808 10.0363H25.0326V11.5805H24.8808V10.0363ZM25.1612 10.0363H25.313V11.5805H25.1612V10.0363ZM25.4414 10.0363H25.5934V11.5805H25.4414V10.0363ZM25.7218 10.0363H25.8678V11.5805H25.7218V10.0363V10.0363ZM26.3065 12.02H28.1566V13.8732H26.3065V12.02ZM26.4607 12.1745H26.6067V13.7188H26.4607V12.1745ZM26.7352 12.1745H26.887V13.7188H26.7352V12.1745ZM27.0155 12.1745H27.1673V13.7188H27.0155V12.1745ZM27.2958 12.1745H27.4477V13.7188H27.2958V12.1745ZM27.5762 12.1745H27.728V13.7188H27.5762V12.1745ZM27.8565 12.1745H28.0025V13.7188H27.8565V12.1745Z" fill="#34BBDE"/>
<path fill-rule="evenodd" clip-rule="evenodd" d="M26.3047 9.88184H28.1548V11.7349H26.3047V9.88184ZM26.4589 10.0363H26.6048V11.5805H26.4589V10.0363ZM26.7334 10.0363H26.8852V11.5805H26.7334V10.0363ZM27.0136 10.0363H27.1654V11.5805H27.0136V10.0363ZM27.294 10.0363H27.4459V11.5805H27.294V10.0363ZM27.5743 10.0363H27.7262V11.5805H27.5743V10.0363ZM27.8547 10.0363H28.0007V11.5805H27.8547V10.0363Z" fill="#23A3C2"/>
<path fill-rule="evenodd" clip-rule="evenodd" d="M26.3047 7.74463H28.1548V9.598H26.3047V7.74463ZM26.4589 7.89901H26.6048V9.44343H26.4589V7.89892V7.89901ZM26.7334 7.89901H26.8852V9.44343H26.7334V7.89892V7.89901ZM27.0136 7.89901H27.1654V9.44343H27.0136V7.89892V7.89901ZM27.294 7.89901H27.4459V9.44343H27.294V7.89892V7.89901ZM27.5743 7.89901H27.7262V9.44343H27.5743V7.89892V7.89901ZM27.8547 7.89901H28.0007V9.44343H27.8547V7.89892V7.89901Z" fill="#34BBDE"/>
<path fill-rule="evenodd" clip-rule="evenodd" d="M28.4453 12.0205H30.2954V13.8737H28.4453V12.0205ZM28.5993 12.175H28.7454V13.7193H28.5994V12.175H28.5993ZM28.8738 12.175H29.0257V13.7193H28.8739V12.175H28.8738ZM29.1542 12.175H29.3061V13.7193H29.1542V12.175ZM29.4345 12.175H29.5864V13.7193H29.4345V12.175ZM29.7149 12.175H29.8667V13.7193H29.7149V12.175ZM29.9952 12.175H30.1412V13.7193H29.9952V12.175Z" fill="#23A3C2"/>
<path fill-rule="evenodd" clip-rule="evenodd" d="M23.7693 16.878C23.8369 16.8771 23.904 16.8896 23.9667 16.9149C24.0295 16.9402 24.0865 16.9777 24.1347 17.0253C24.1828 17.0729 24.221 17.1296 24.2471 17.1921C24.2731 17.2546 24.2866 17.3216 24.2866 17.3893C24.2865 17.4571 24.2731 17.5241 24.247 17.5866C24.2209 17.6491 24.1827 17.7057 24.1345 17.7533C24.0864 17.8009 24.0293 17.8384 23.9666 17.8636C23.9038 17.8889 23.8367 17.9014 23.7691 17.9005C23.6349 17.8987 23.5069 17.844 23.4126 17.7483C23.3184 17.6526 23.2656 17.5236 23.2656 17.3891C23.2656 17.2547 23.3185 17.1257 23.4128 17.0301C23.507 16.9344 23.6351 16.8798 23.7693 16.878Z" fill="#D3ECEC"/>
<path fill-rule="evenodd" clip-rule="evenodd" d="M23.77 17.024C23.8166 17.024 23.8612 17.0328 23.9023 17.0488C23.8739 17.0653 23.8518 17.0906 23.8393 17.121C23.8268 17.1513 23.8246 17.185 23.833 17.2167C23.8415 17.2484 23.8602 17.2764 23.8862 17.2964C23.9121 17.3165 23.944 17.3274 23.9767 17.3274C24.0332 17.3274 24.0822 17.2961 24.1076 17.2497C24.1377 17.3223 24.1437 17.4026 24.1247 17.4788C24.1057 17.555 24.0627 17.6231 24.0021 17.6729C23.9415 17.7228 23.8665 17.7518 23.7882 17.7557C23.7099 17.7596 23.6324 17.7382 23.5672 17.6946C23.502 17.651 23.4525 17.5875 23.426 17.5136C23.3996 17.4396 23.3976 17.3591 23.4203 17.284C23.443 17.2088 23.4893 17.1429 23.5523 17.0961C23.6152 17.0493 23.6916 17.024 23.77 17.024M14.7422 15.8195H38.4848C37.9679 15.6882 36.8493 15.5107 37.0337 14.832C36.0936 15.9216 33.8267 15.5965 33.2545 15.0593C32.6175 15.9848 28.9085 15.6329 28.6498 14.9119C27.8511 15.8508 25.3761 15.8508 24.5774 14.9119C24.3185 15.6329 20.6096 15.9848 19.9725 15.0592C19.4004 15.5965 17.1336 15.9216 16.1935 14.8321C16.3779 15.5107 15.2593 15.6882 14.7422 15.8196" fill="#364548"/>
<path fill-rule="evenodd" clip-rule="evenodd" d="M25.1269 20.5626C23.8629 19.9618 23.1691 19.1449 22.7831 18.2534C22.3135 18.3876 21.7492 18.4734 21.0934 18.5103C20.8464 18.5241 20.5865 18.5312 20.3139 18.5312C19.9995 18.5312 19.6682 18.5219 19.3203 18.5035C20.4795 19.6639 21.9055 20.5573 24.5459 20.5736C24.7409 20.5736 24.9343 20.5699 25.1269 20.5626" fill="#BDD9D7"/>
<path fill-rule="evenodd" clip-rule="evenodd" d="M23.2451 19.0758C23.0703 18.838 22.9007 18.5392 22.7759 18.2529C22.3064 18.3873 21.7418 18.4731 21.0859 18.5101C21.5365 18.755 22.1807 18.9819 23.2452 19.0758" fill="#D3ECEC"/>
</svg>
