<svg width="100" height="34" viewBox="0 0 100 34" fill="none" xmlns="http://www.w3.org/2000/svg">
<g clip-path="url(#clip0_6335_19671)">
<path d="M29.0143 15.8315C28.9488 15.8316 28.8835 15.8381 28.8193 15.851C28.7553 15.8639 28.6928 15.8835 28.6328 15.9094C28.572 15.9344 28.5138 15.9656 28.4592 16.0025C28.3515 16.0767 28.2584 16.1706 28.1849 16.2794C28.1484 16.3345 28.1175 16.3932 28.0928 16.4547C28.0671 16.5152 28.0477 16.5783 28.0349 16.6429C28.0221 16.7077 28.0157 16.7737 28.0156 16.8398C28.0156 16.9059 28.022 16.9718 28.0349 17.0367C28.048 17.1019 28.0674 17.1657 28.0928 17.2271C28.1171 17.288 28.148 17.3461 28.1849 17.4001C28.2209 17.4556 28.2626 17.5071 28.3092 17.5538C28.3547 17.6008 28.405 17.6429 28.4592 17.6792C28.5143 17.7153 28.5724 17.7464 28.6328 17.7723C28.6929 17.7975 28.7553 17.8164 28.8193 17.8285C28.8835 17.8414 28.9488 17.848 29.0143 17.848C29.0798 17.8481 29.1451 17.8415 29.2093 17.8285C29.2738 17.8161 29.337 17.7972 29.3979 17.7723C29.4578 17.7469 29.5153 17.7157 29.5693 17.6792C29.6242 17.6429 29.6752 17.6008 29.7215 17.5538C29.7675 17.5065 29.8091 17.4551 29.8458 17.4001C29.8819 17.3456 29.9128 17.2876 29.9379 17.2271C29.9617 17.1653 29.9803 17.1016 29.9936 17.0367C30.0065 16.9718 30.013 16.9059 30.0129 16.8398C30.013 16.7737 30.0065 16.7077 29.9936 16.6429C29.9806 16.5786 29.962 16.5156 29.9379 16.4547C29.9132 16.3932 29.8823 16.3345 29.8458 16.2794C29.7722 16.1699 29.6784 16.0758 29.5693 16.0025C29.5153 15.9647 29.457 15.9335 29.3957 15.9094C29.3358 15.8835 29.2733 15.8639 29.2093 15.851C29.1451 15.838 29.0798 15.8315 29.0143 15.8315Z" fill="white"/>
<path d="M4.67833 15.8315C4.61356 15.8316 4.54896 15.8381 4.48546 15.851C4.42078 15.8639 4.35758 15.8835 4.29687 15.9094C4.2365 15.934 4.179 15.9652 4.12543 16.0025C4.07052 16.0388 4.01952 16.0809 3.97328 16.128C3.92668 16.1739 3.88501 16.2246 3.84899 16.2794C3.81326 16.335 3.78243 16.3936 3.75684 16.4547C3.73114 16.5152 3.71174 16.5783 3.69898 16.6429C3.6862 16.7077 3.67974 16.7737 3.67969 16.8398C3.67962 16.9059 3.68608 16.9718 3.69898 17.0367C3.72494 17.1666 3.7759 17.2901 3.84899 17.4001C3.92162 17.511 4.01564 17.6059 4.12543 17.6792C4.17949 17.7157 4.2369 17.7469 4.29687 17.7723C4.35765 17.7975 4.42085 17.8164 4.48546 17.8285C4.61348 17.8545 4.74533 17.8545 4.87335 17.8285C4.93789 17.8161 5.00105 17.7972 5.06193 17.7723C5.1219 17.7469 5.17931 17.7157 5.23337 17.6792C5.34316 17.6059 5.43719 17.511 5.50982 17.4001C5.54596 17.3456 5.57682 17.2876 5.60197 17.2271C5.6267 17.1656 5.64536 17.1018 5.65769 17.0367C5.67058 16.9718 5.67704 16.9059 5.67698 16.8398C5.67704 16.7737 5.67058 16.7077 5.65769 16.6429C5.64565 16.5784 5.62698 16.5153 5.60197 16.4547C5.57683 16.3934 5.54597 16.3347 5.50982 16.2794C5.47379 16.2246 5.43213 16.1739 5.38553 16.128C5.33958 16.0814 5.28935 16.0394 5.23551 16.0025C5.18093 15.9656 5.12277 15.9344 5.06193 15.9094C5.00196 15.8835 4.93947 15.8639 4.87549 15.851C4.81129 15.838 4.74596 15.8315 4.68047 15.8315H4.67833Z" fill="white"/>
<path d="M18.3998 15.2863C16.8811 14.9084 15.9117 14.581 15.4917 14.3041C15.2984 14.1899 15.1384 14.026 15.0281 13.8292C14.9178 13.6323 14.8611 13.4095 14.8638 13.1833C14.8565 12.9673 14.899 12.7525 14.9881 12.5559C15.0766 12.359 15.2103 12.1861 15.3781 12.0518C15.578 11.8991 15.8039 11.7848 16.0446 11.7143C16.2839 11.6407 16.5342 11.6107 16.7839 11.6256C18.264 11.6256 19.6977 12.1571 21.085 13.2201L23.1058 12.7874L22.8915 10.5914C22.0695 9.89371 21.1243 9.35929 20.1056 9.01628C19.0763 8.65325 17.9942 8.46605 16.9039 8.4624C15.271 8.4624 13.9137 8.87781 12.8322 9.70863C11.7507 10.5394 11.205 11.7222 11.195 13.2569C11.195 14.7887 11.6236 15.9131 12.4808 16.6299C13.338 17.3468 14.6995 17.9281 16.5654 18.3738C17.7397 18.6622 18.5255 18.9507 18.9227 19.2392C19.111 19.3641 19.2638 19.5364 19.3663 19.739C19.4701 19.939 19.5217 20.1623 19.5163 20.3881C19.5242 20.6125 19.4771 20.8355 19.3791 21.0371C19.2808 21.2402 19.1334 21.4151 18.9505 21.5456C18.4979 21.8601 17.9539 22.0125 17.4054 21.9783C15.941 21.9783 14.3495 21.2182 12.6308 19.6979L12.6415 21.8939L10.5156 22.3439C12.5386 24.2262 14.8124 25.1674 17.3368 25.1674C19.0898 25.1674 20.5049 24.7167 21.5821 23.8152C21.8415 23.6059 22.0753 23.3662 22.2786 23.1012C22.4841 22.8379 22.6582 22.551 22.7972 22.2466C22.9365 21.9415 23.0408 21.6214 23.108 21.2924C23.1751 20.9638 23.2039 20.6283 23.1937 20.2929C23.1937 18.8505 22.7744 17.7492 21.9357 16.9891C21.0971 16.2289 19.9184 15.6628 18.3998 15.2907V15.2863Z" fill="white"/>
<path d="M29.0142 17.8455C28.9488 17.8454 28.8835 17.8389 28.8192 17.826C28.7553 17.8139 28.6928 17.795 28.6328 17.7698C28.5724 17.7439 28.5143 17.7128 28.4592 17.6767C28.405 17.6404 28.3547 17.5983 28.3092 17.5512C28.2626 17.5046 28.2209 17.4531 28.1849 17.3976C28.1479 17.3436 28.117 17.2855 28.0928 17.2245C28.0673 17.1631 28.048 17.0994 28.0349 17.0342C28.022 16.9693 28.0155 16.9034 28.0156 16.8373C28.0157 16.7712 28.0221 16.7052 28.0349 16.6404C28.0477 16.5758 28.0671 16.5127 28.0928 16.4522C28.1175 16.3907 28.1484 16.332 28.1849 16.2769C28.2584 16.1681 28.3514 16.0742 28.4592 16C28.5138 15.9631 28.572 15.9319 28.6328 15.9069C28.6928 15.881 28.7553 15.8614 28.8192 15.8485C28.8835 15.8356 28.9488 15.8291 29.0142 15.829C29.0797 15.829 29.1451 15.8355 29.2093 15.8485C29.2732 15.8614 29.3357 15.881 29.3957 15.9069C29.457 15.931 29.5152 15.9622 29.5693 16C29.6783 16.0733 29.7722 16.1674 29.8457 16.2769C29.8815 16.3325 29.9123 16.3911 29.9379 16.4522C29.9619 16.5131 29.9806 16.5761 29.9936 16.6404C30.0064 16.7052 30.0128 16.7712 30.0129 16.8373C30.013 16.9034 30.0065 16.9693 29.9936 17.0342C29.9803 17.0991 29.9616 17.1627 29.9379 17.2245C29.9127 17.2851 29.8819 17.3431 29.8457 17.3976C29.8091 17.4526 29.7674 17.504 29.7214 17.5512C29.6752 17.5983 29.6242 17.6404 29.5693 17.6767C29.5152 17.7132 29.4578 17.7444 29.3978 17.7698C29.337 17.7947 29.2738 17.8136 29.2093 17.826C29.1451 17.839 29.0797 17.8456 29.0142 17.8455ZM12.6288 19.6932C14.3432 21.2149 15.9347 21.975 17.4034 21.9736C17.9519 22.0081 18.496 21.8557 18.9485 21.5409C19.128 21.409 19.2728 21.2347 19.3703 21.0334C19.4678 20.832 19.515 20.6096 19.5078 20.3855C19.5136 20.158 19.4621 19.9328 19.3583 19.7307C19.2545 19.5287 19.1017 19.3565 18.9142 19.2302C18.5156 18.9417 17.7299 18.6532 16.5569 18.3648C14.6996 17.9191 13.3424 17.3378 12.4852 16.6209C11.628 15.904 11.1994 14.7797 11.1994 13.2479C11.1994 11.7161 11.7451 10.5333 12.8366 9.69961C13.9282 8.86591 15.2854 8.45051 16.9084 8.45339C18.003 8.45584 19.0895 8.64305 20.1229 9.00727C21.1418 9.34866 22.0873 9.88244 22.9088 10.5802L23.1231 12.7762L21.1022 13.2089C19.7164 12.1473 18.2828 11.6158 16.8012 11.6144C16.2964 11.5891 15.7985 11.7421 15.3933 12.0471C15.2272 12.1836 15.0945 12.3569 15.0053 12.5535C14.9161 12.75 14.8729 12.9647 14.8789 13.1808C14.8761 13.4073 14.9329 13.6304 15.0436 13.8273C15.1543 14.0243 15.3149 14.188 15.509 14.3015C15.9262 14.5785 16.8948 14.9059 18.4149 15.2838C19.935 15.6617 21.1137 16.2271 21.9509 16.9801C22.7895 17.7359 23.2088 18.8371 23.2088 20.2838C23.2179 20.6192 23.1892 20.9546 23.1231 21.2834C22.989 21.9437 22.7051 22.5635 22.2938 23.0943C22.0886 23.3584 21.8542 23.598 21.5951 23.8083C20.5193 24.7098 19.105 25.1606 17.352 25.1606C14.8246 25.1606 12.5502 24.2194 10.5286 22.3371L12.6566 21.8849L12.6288 19.6932ZM4.68034 15.8312C4.74583 15.8311 4.81115 15.8377 4.87536 15.8507C4.93996 15.8639 5.00312 15.8834 5.06394 15.9091C5.12432 15.9336 5.18182 15.9648 5.23538 16.0021C5.29025 16.0377 5.34125 16.0791 5.38754 16.1255C5.43366 16.1726 5.47528 16.224 5.51183 16.2791C5.58491 16.3891 5.63588 16.5126 5.66184 16.6425C5.67473 16.7074 5.68119 16.7733 5.68113 16.8394C5.68108 16.9055 5.67462 16.9715 5.66184 17.0363C5.64882 17.1006 5.63017 17.1636 5.60612 17.2245C5.58098 17.2858 5.55013 17.3445 5.51398 17.3998C5.47676 17.4543 5.43519 17.5057 5.38968 17.5534C5.34288 17.5999 5.29194 17.6419 5.23753 17.6789C5.18347 17.7154 5.12606 17.7465 5.06609 17.7719C5.00487 17.7959 4.94179 17.8147 4.8775 17.8282C4.8133 17.8412 4.74797 17.8477 4.68249 17.8477C4.61708 17.8483 4.55176 17.8425 4.48747 17.8303C4.42349 17.8175 4.361 17.7979 4.30103 17.7719C4.24059 17.7461 4.18251 17.715 4.12745 17.6789C4.01967 17.6047 3.92663 17.5108 3.85314 17.402C3.81661 17.3469 3.78573 17.2881 3.76099 17.2267C3.73529 17.1662 3.7159 17.1031 3.70313 17.0385C3.69035 16.9736 3.68389 16.9077 3.68384 16.8416C3.68378 16.7755 3.69024 16.7095 3.70313 16.6447C3.71616 16.5804 3.7348 16.5174 3.75885 16.4565C3.78399 16.3952 3.81484 16.3366 3.851 16.2812C3.88769 16.227 3.9293 16.1763 3.97529 16.1298C4.02153 16.0827 4.07253 16.0406 4.12745 16.0043C4.18101 15.967 4.23851 15.9358 4.29889 15.9113C4.35959 15.8853 4.42279 15.8657 4.48747 15.8528C4.5509 15.8392 4.6155 15.832 4.68034 15.8312ZM32.098 14.3167L19.3814 1.47585C19.217 1.31371 19.0368 1.16873 18.8435 1.04313C18.6505 0.913276 18.4452 0.803112 18.2306 0.714266C18.0165 0.624042 17.7939 0.555903 17.5663 0.510889C17.1101 0.418571 16.6402 0.418571 16.184 0.510889C15.9563 0.555597 15.7337 0.623746 15.5197 0.714266C15.0895 0.888994 14.6976 1.14781 14.3668 1.47585L1.65227 14.3059C1.3235 14.639 1.06346 15.0346 0.887211 15.4699C0.797551 15.6859 0.730051 15.9107 0.685768 16.1406C0.594327 16.6012 0.594327 17.0755 0.685768 17.5361C0.730342 17.7667 0.797831 17.9921 0.887211 18.209C0.972931 18.4251 1.07915 18.6323 1.20438 18.8278C1.33271 19.023 1.47987 19.2049 1.64369 19.3708L14.3582 32.2095C14.5231 32.3743 14.7032 32.5228 14.8961 32.653C15.0893 32.7825 15.2946 32.8926 15.509 32.9819C15.7238 33.0721 15.9471 33.1403 16.1755 33.1853C16.6317 33.2776 17.1015 33.2776 17.5577 33.1853C18.0166 33.0943 18.4534 32.9135 18.8435 32.653C19.0368 32.5233 19.2169 32.3748 19.3814 32.2095L32.0959 19.3708C32.2554 19.2038 32.3989 19.022 32.5245 18.8278C32.6527 18.6327 32.7618 18.4254 32.8502 18.209C32.9396 17.9921 33.0071 17.7667 33.0517 17.5361C33.1431 17.0755 33.1431 16.6012 33.0517 16.1406C33.0068 15.9111 32.9401 15.6864 32.8524 15.4699C32.6761 15.0346 32.4161 14.639 32.0873 14.3059L32.098 14.3167Z" fill="#E62B51"/>
<path d="M48.5626 13.6594C47.7632 12.9302 47.0046 12.7377 46.4345 12.7377C46.0724 12.7377 45.5602 12.7939 45.2366 13.0644C45.1034 13.1771 44.996 13.3177 44.922 13.4765C44.848 13.6353 44.8091 13.8084 44.808 13.9839C44.8056 14.1523 44.8433 14.3187 44.9178 14.4693C44.9924 14.6199 45.1017 14.7503 45.2366 14.8493C45.5023 15.0787 45.8452 15.2323 46.471 15.52L47.2125 15.8662C47.8597 16.1326 48.4333 16.5535 48.884 17.093C49.3336 17.6565 49.5624 18.3672 49.5269 19.0899C49.5417 20.3089 49.085 21.4856 48.254 22.3699C47.2275 23.3868 45.9159 23.6183 44.6237 23.6183C43.7455 23.6604 42.8723 23.4615 42.0971 23.0428C41.4665 22.6802 40.896 22.2203 40.4062 21.6797L42.0392 19.5681C42.3376 19.9652 42.6998 20.3089 43.1107 20.585C43.5561 20.8614 44.0688 21.0074 44.5916 21.0069C45.089 21.0143 45.5778 20.8744 45.9974 20.6044C46.1701 20.4601 46.3079 20.2779 46.4004 20.0717C46.4928 19.8655 46.5375 19.6407 46.531 19.4145C46.5353 19.2506 46.5054 19.0877 46.4431 18.9363C46.3801 18.7839 46.2867 18.6462 46.1688 18.5317C45.8746 18.2739 45.5321 18.0782 45.1616 17.9562L44.4223 17.649C43.7599 17.3915 43.153 17.0073 42.635 16.5174C42.3579 16.2327 42.1409 15.8941 41.9973 15.5222C41.8536 15.1503 41.7862 14.7528 41.7992 14.3539C41.7886 13.8183 41.8839 13.286 42.0797 12.7882C42.2755 12.2904 42.5677 11.837 42.9393 11.4547C43.9658 10.4378 45.2773 10.2452 46.3681 10.2452C47.7005 10.2135 49.0005 10.6622 50.0348 11.5109L48.5626 13.6594Z" fill="#2E054E"/>
<path d="M54.8317 17.5146C54.6047 17.7393 54.4265 18.0092 54.3084 18.3072C54.1903 18.6051 54.135 18.9247 54.1459 19.2454C54.1405 19.3705 54.1469 19.4959 54.1652 19.6197C54.1822 19.7431 54.2124 19.8642 54.2552 19.9811C54.2966 20.0987 54.3498 20.2118 54.4138 20.3186C54.4746 20.4255 54.5464 20.5255 54.6281 20.6171C54.7111 20.7097 54.803 20.7938 54.9024 20.8681C55.0014 20.943 55.1076 21.0075 55.2195 21.0607C55.3307 21.1143 55.4471 21.1564 55.5667 21.1862C55.6868 21.2161 55.8096 21.2342 55.9332 21.2403C55.9825 21.2403 56.0317 21.2403 56.081 21.2403C56.6433 21.2404 57.1853 21.0281 57.6004 20.6453C58.0755 20.1498 58.3472 19.4913 58.3612 18.8019C58.3658 18.6796 58.3586 18.5572 58.3398 18.4363C58.3197 18.3154 58.2888 18.1967 58.2476 18.0814C58.2049 17.9667 58.1511 17.8566 58.0869 17.7526C58.0255 17.6481 57.9537 17.5502 57.8726 17.4605C57.7896 17.3713 57.6985 17.2901 57.6004 17.2182C57.5019 17.1467 57.3972 17.0844 57.2875 17.0321C57.1771 16.9818 57.0623 16.942 56.9447 16.9131C56.8265 16.8847 56.706 16.8681 56.5846 16.8633C56.5311 16.8633 56.4796 16.8633 56.4261 16.8633C56.1326 16.8562 55.8409 16.9099 55.5688 17.0213C55.2935 17.1328 55.0445 17.3016 54.8381 17.5167L54.8317 17.5146ZM53.2544 27.7223H50.5156L52.0929 14.7712H54.8295L54.6774 15.7686C54.9726 15.4051 55.3369 15.1049 55.7489 14.8858C56.2886 14.6044 56.8903 14.466 57.4976 14.4834C58.8091 14.4834 59.6063 14.981 60.0692 15.4246C60.7528 16.1147 61.19 17.3047 61.19 18.6288C61.19 20.2602 60.6028 21.621 59.7649 22.467C59.5803 22.6591 59.3755 22.8304 59.1541 22.9776C58.9336 23.1266 58.698 23.2514 58.4512 23.3497C57.9569 23.5481 57.4269 23.6395 56.8954 23.618C56.2607 23.6503 55.6278 23.5248 55.0524 23.2524C54.6141 23.0185 54.2367 22.6834 53.9509 22.2744L53.2544 27.7223Z" fill="#2E054E"/>
<path d="M65.3199 10.269C65.4249 10.2694 65.5297 10.2795 65.6328 10.2993C65.7349 10.3205 65.8346 10.3516 65.9307 10.3924C66.1241 10.4738 66.3002 10.592 66.4493 10.7407C66.5233 10.8156 66.5901 10.8974 66.6486 10.9852C66.7062 11.0735 66.7557 11.1669 66.7965 11.2643C66.8352 11.3624 66.8653 11.4638 66.8865 11.5672C66.9061 11.6706 66.9162 11.7756 66.9165 11.8809C66.9163 11.9862 66.9062 12.0912 66.8865 12.1946C66.8653 12.2981 66.8352 12.3994 66.7965 12.4975C66.7557 12.5949 66.7062 12.6884 66.6486 12.7766C66.5906 12.8648 66.5238 12.9467 66.4493 13.0211C66.3755 13.0963 66.2944 13.1637 66.2071 13.2223C66.1189 13.2842 66.024 13.3357 65.9243 13.3759C65.8282 13.4167 65.7284 13.4478 65.6264 13.469C65.4204 13.5094 65.2087 13.5094 65.0028 13.469C64.9001 13.4475 64.7996 13.4164 64.7027 13.3759C64.6064 13.3369 64.5144 13.2876 64.4284 13.2288C64.3412 13.1702 64.2601 13.1027 64.1863 13.0276C64.1118 12.9532 64.045 12.8713 63.987 12.7831C63.9294 12.6948 63.8799 12.6014 63.8391 12.504C63.8004 12.4059 63.7703 12.3045 63.7491 12.2011C63.7283 12.0979 63.7183 11.9927 63.7191 11.8874C63.7167 11.7828 63.726 11.6783 63.747 11.5758C63.784 11.3696 63.862 11.1731 63.9763 10.9982C64.0334 10.9106 64.0987 10.8287 64.1713 10.7537C64.2446 10.6797 64.3242 10.6124 64.4092 10.5525C64.4948 10.4939 64.586 10.4439 64.6813 10.4032C64.8728 10.322 65.078 10.2786 65.2856 10.2755L65.3199 10.269ZM66.3272 15.0051L65.2814 23.5642H62.5469L63.5927 15.0051H66.3272Z" fill="#2E054E"/>
<path d="M71.3996 15.005L71.2667 15.9462C71.5681 15.6214 71.9208 15.3495 72.3104 15.1413C72.8239 14.865 73.4034 14.7384 73.9841 14.7757C74.687 14.7757 75.542 14.8709 76.1871 15.5048C76.8321 16.1387 76.9093 17.0193 76.9093 17.5386C76.8994 18.0846 76.855 18.6295 76.7764 19.1699L76.2642 23.5641H73.5276L73.9841 19.8666C74.053 19.4096 74.091 18.9484 74.0977 18.4862C74.1089 18.2993 74.0842 18.1119 74.0248 17.9345C73.9331 17.6696 73.7574 17.4427 73.5249 17.289C73.2924 17.1352 73.0161 17.0633 72.739 17.0842C72.513 17.0721 72.2869 17.1067 72.0747 17.1859C71.8624 17.2652 71.6684 17.3874 71.5046 17.5451C71.0096 18.0643 70.896 18.8886 70.8381 19.3495L70.3452 23.5706H67.6172L68.663 15.0137L71.3996 15.005Z" fill="#2E054E"/>
<path d="M82.1709 15.0051L82.038 15.9462C82.3402 15.6214 82.6936 15.3495 83.0838 15.1414C83.5965 14.8649 84.1754 14.7383 84.7554 14.7757C85.4583 14.7757 86.3133 14.8709 86.9605 15.5048C87.6077 16.1388 87.6827 17.0194 87.6827 17.5386C87.6721 18.0847 87.627 18.6296 87.5477 19.17L87.0355 23.5642H84.2989L84.7554 19.8666C84.8243 19.4096 84.8623 18.9485 84.869 18.4863C84.8899 18.1096 84.7681 17.7391 84.5282 17.4499C84.253 17.1993 83.8912 17.068 83.521 17.0843C83.2946 17.0718 83.0682 17.1063 82.8555 17.1855C82.6429 17.2648 82.4485 17.3872 82.2845 17.5451C81.7916 18.0644 81.678 18.8887 81.6201 19.3495L81.1358 23.5642H78.3906L79.4343 15.0072L82.1709 15.0051Z" fill="#2E054E"/>
<path d="M92.1671 22.2353L88.8797 14.771H91.9957L93.8773 19.453L96.7275 14.771H99.9398L91.7492 27.7222H88.6719L92.1671 22.2353Z" fill="#2E054E"/>
</g>
<defs>
<clipPath id="clip0_6335_19671">
<rect width="99.3243" height="32.8345" fill="white" transform="translate(0.617188 0.42041)"/>
</clipPath>
</defs>
</svg>
