<?xml version="1.0" encoding="utf-8"?>
<!-- Generator: Adobe Illustrator 24.1.2, SVG Export Plug-In . SVG Version: 6.00 Build 0)  -->
<svg version="1.2" baseProfile="tiny-ps" xmlns="http://www.w3.org/2000/svg" xmlns:xlink="http://www.w3.org/1999/xlink"
x="0px" overflow="visible" xml:space="preserve">
<title>ValueCoders</title>
<g id="design"></g>
<rect fill="#FFFFFF" width="413.1" height="82.6"/>
<path fill="#FDAD00" d="M23.3,52.2c-0.8,0-1.6-0.1-2.4-0.3c-0.8-0.3-1.4-0.7-1.8-1.4c-0.9-2.9-1.8-5.9-2.7-9
	c-0.9-3.1-1.9-6.1-2.8-9.1c-1.1-3.5-2.2-7.1-3.4-10.9C8.9,17.7,7.7,14,6.7,10.6C6.4,9.8,6.6,9,7.1,8.4C7.6,7.8,8.3,7.3,9.2,7
	c0.6-0.2,1.1-0.2,1.5-0.2c1.3,0,2.1,0.6,2.5,1.9l4.2,13.4c0.4,1.4,0.8,2.8,1.3,4.5c0.5,1.6,1.1,3.3,1.6,5c0.5,1.7,1.1,3.4,1.6,5.1
	c0.5,1.7,1,3.2,1.5,4.6c0.7-2.4,1.5-4.9,2.3-7.7c0.9-2.8,1.7-5.6,2.6-8.5c0.9-2.9,1.8-5.7,2.7-8.5c0.9-2.8,1.7-5.4,2.4-7.9
	c0.4-1.3,1.2-1.9,2.4-1.9c0.5,0,1,0.1,1.6,0.2c2.1,0.6,2.9,1.7,2.4,3.5c-2,6.6-4.1,13.2-6.2,19.9c-2.1,6.7-4.1,13.3-6.2,19.9
	c-0.3,0.8-0.9,1.2-1.7,1.5C24.9,52.1,24.1,52.2,23.3,52.2z"/>
<path fill="#05164D" d="M23.3,52.2c-0.8,0-1.6-0.1-2.4-0.3c-0.8-0.3-1.4-0.7-1.8-1.4c-0.9-2.9-1.8-5.9-2.7-9
	c-0.9-3.1-1.9-6.1-2.8-9.1c-1.1-3.5-2.2-7.1-3.4-10.9C8.9,17.7,7.7,14,6.7,10.6C6.4,9.8,6.6,9,7.1,8.4C7.6,7.8,8.3,7.3,9.2,7
	c0.6-0.2,1.1-0.2,1.5-0.2c1.3,0,2.1,0.6,2.5,1.9l4.2,13.4c0.4,1.4,0.8,2.8,1.3,4.5c0.5,1.6,1.1,3.3,1.6,5c0.5,1.7,1.1,3.4,1.6,5.1
	c0.5,1.7,1,3.2,1.5,4.6c0.7-2.4,1.5-4.9,2.3-7.7c0.9-2.8,1.7-5.6,2.6-8.5c0.9-2.9,1.8-5.7,2.7-8.5c0.9-2.8,1.7-5.4,2.4-7.9
	c0.4-1.3,1.2-1.9,2.4-1.9c0.5,0,1,0.1,1.6,0.2c2.1,0.6,2.9,1.7,2.4,3.5c-2,6.6-4.1,13.2-6.2,19.9c-2.1,6.7-4.1,13.3-6.2,19.9
	c-0.3,0.8-0.9,1.2-1.7,1.5C24.9,52.1,24.1,52.2,23.3,52.2z"/>
<path fill="#FDAD00" d="M60,12.7L47.6,50.5v-0.1c-0.2,0.6-0.5,1-1,1.4c-0.4,0.3-0.8,0.5-1.4,0.5c-0.3,0-0.6,0-0.9-0.1
	c-0.3,0-0.5-0.1-0.8-0.2h0.1c-2.2-0.7-2.9-1.9-2.4-3.6L54,9.5c0.2-0.6,0.5-1.1,1-1.5c0.5-0.4,1.1-0.7,1.7-0.7C57.3,7.1,58,7,58.6,7
	c0.6-0.1,1.1-0.1,1.4-0.1s0.8,0,1.4,0.1c0.6,0,1.2,0.1,1.9,0.2c0.5,0.1,1,0.4,1.5,0.8c0.5,0.5,0.9,1,1.2,1.5
	c2.1,6.5,4.2,13,6.4,19.5c2.2,6.5,4.3,13,6.5,19.5c0.5,1.7-0.3,2.9-2.4,3.6c-0.3,0.1-0.6,0.1-0.8,0.2c-0.2,0.1-0.5,0.1-0.8,0.1
	c-0.5,0-1-0.2-1.5-0.5c-0.4-0.4-0.7-0.8-0.9-1.4v0.1L60,12.7z M64.2,38.4c0,1.2-0.4,2.2-1.3,3.1c-0.8,0.8-1.8,1.2-3.1,1.2
	c-1.2,0-2.2-0.4-3.1-1.2c-0.8-0.9-1.2-1.9-1.2-3.1c0-1.2,0.4-2.2,1.2-3c0.8-0.9,1.8-1.3,3.1-1.3c1.2,0,2.2,0.4,3.1,1.3
	C63.8,36.1,64.2,37.2,64.2,38.4z"/>
<path fill="#05164D" d="M60,12.7L47.6,50.5v-0.1c-0.2,0.6-0.5,1-1,1.4c-0.4,0.3-0.8,0.5-1.4,0.5c-0.3,0-0.6,0-0.9-0.1
	c-0.3,0-0.5-0.1-0.8-0.2h0.1c-2.2-0.7-2.9-1.9-2.4-3.6L54,9.5c0.2-0.6,0.5-1.1,1-1.5c0.5-0.4,1.1-0.7,1.7-0.7C57.3,7.1,58,7,58.6,7
	c0.6-0.1,1.1-0.1,1.4-0.1s0.8,0,1.4,0.1c0.6,0,1.2,0.1,1.9,0.2c0.5,0.1,1,0.4,1.5,0.8c0.5,0.5,0.9,1,1.2,1.5
	c2.1,6.5,4.2,13,6.4,19.5c2.2,6.5,4.3,13,6.5,19.5c0.5,1.7-0.3,2.9-2.4,3.6c-0.3,0.1-0.6,0.1-0.8,0.2c-0.2,0.1-0.5,0.1-0.8,0.1
	c-0.5,0-1-0.2-1.5-0.5c-0.4-0.4-0.7-0.8-0.9-1.4v0.1L60,12.7z M64.2,38.4c0,1.2-0.4,2.2-1.3,3.1c-0.8,0.8-1.8,1.2-3.1,1.2
	c-1.2,0-2.2-0.4-3.1-1.2c-0.8-0.9-1.2-1.9-1.2-3.1c0-1.2,0.4-2.2,1.2-3c0.8-0.9,1.8-1.3,3.1-1.3c1.2,0,2.2,0.4,3.1,1.3
	C63.8,36.1,64.2,37.2,64.2,38.4z"/>
<path fill="#FDAD00" d="M87.5,51.9c-1.4,0-2.3-0.4-2.8-1.1c-0.5-0.7-0.7-1.5-0.7-2.4V9.6c0-1.8,1.1-2.7,3.3-2.7
	c2.3,0,3.4,0.9,3.4,2.7v36.7h18.9c1.4,0,2,0.9,2,2.8c0.1,2-0.6,2.9-2,2.9H87.5z"/>
<path fill="#05164D" d="M87.5,51.9c-1.4,0-2.3-0.4-2.8-1.1c-0.5-0.7-0.7-1.5-0.7-2.4V9.6c0-1.8,1.1-2.7,3.3-2.7
	c2.3,0,3.4,0.9,3.4,2.7v36.7h18.9c1.4,0,2,0.9,2,2.8c0.1,2-0.6,2.9-2,2.9H87.5z"/>
<path fill="#FDAD00" d="M147.2,42.9c0,3-1,5.3-3.1,6.8c-1,0.7-2,1.3-3.1,1.7c-1,0.4-2,0.6-3,0.6h-12.3c-1,0-2-0.2-3.1-0.6
	c-1-0.4-2-1-3-1.7c-1-0.8-1.7-1.7-2.3-2.8c-0.5-1.1-0.8-2.5-0.8-4.1V9.6c0-1.8,1.1-2.7,3.3-2.7c2.3,0,3.4,0.9,3.4,2.7v32.8
	c0,1,0.3,1.9,0.8,2.6c0.6,0.8,1.5,1.2,2.9,1.2h9.5c1.4,0,2.4-0.4,2.9-1.2c0.6-0.8,0.8-1.7,0.8-2.6V9.6c0-1.8,1.1-2.7,3.3-2.7
	c2.3,0,3.4,0.9,3.4,2.7V42.9z"/>
<path fill="#05164D" d="M147.2,42.9c0,3-1,5.3-3.1,6.8c-1,0.7-2,1.3-3.1,1.7c-1,0.4-2,0.6-3,0.6h-12.3c-1,0-2-0.2-3.1-0.6
	c-1-0.4-2-1-3-1.7c-1-0.8-1.7-1.7-2.3-2.8c-0.5-1.1-0.8-2.5-0.8-4.1V9.6c0-1.8,1.1-2.7,3.3-2.7c2.3,0,3.4,0.9,3.4,2.7v32.8
	c0,1,0.3,1.9,0.8,2.6c0.6,0.8,1.5,1.2,2.9,1.2h9.5c1.4,0,2.4-0.4,2.9-1.2c0.6-0.8,0.8-1.7,0.8-2.6V9.6c0-1.8,1.1-2.7,3.3-2.7
	c2.3,0,3.4,0.9,3.4,2.7V42.9z"/>
<path fill="#FDAD00" d="M159.5,51.9c-1.4,0-2.3-0.4-2.8-1.1c-0.5-0.7-0.7-1.5-0.7-2.4v-38c0-0.9,0.2-1.6,0.7-2.3
	c0.5-0.7,1.4-1.1,2.8-1.1h19.7c1.4,0,2.1,0.9,2.2,2.8c0.1,1.9-0.7,2.9-2.2,2.9h-16.6v33.4h17.6c1.4,0,2.1,0.9,2.2,2.8
	c0.1,2-0.6,2.9-2.2,2.9H159.5z M177.1,28.6c0,1.3-0.5,2.4-1.4,3.3c-0.9,0.9-2,1.4-3.3,1.4c-1.3,0-2.4-0.5-3.3-1.4
	c-0.9-0.9-1.4-2-1.4-3.3c0-1.3,0.5-2.4,1.4-3.3c0.9-0.9,2-1.4,3.3-1.4c1.3,0,2.4,0.5,3.3,1.4C176.6,26.2,177.1,27.3,177.1,28.6z"/>
<path fill="#05164D" d="M159.5,51.9c-1.4,0-2.3-0.4-2.8-1.1c-0.5-0.7-0.7-1.5-0.7-2.4v-38c0-0.9,0.2-1.6,0.7-2.3
	c0.5-0.7,1.4-1.1,2.8-1.1h19.7c1.4,0,2.1,0.9,2.2,2.8c0.1,1.9-0.7,2.9-2.2,2.9h-16.6v33.4h17.6c1.4,0,2.1,0.9,2.2,2.8
	c0.1,2-0.6,2.9-2.2,2.9H159.5z M177.1,28.6c0,1.3-0.5,2.4-1.4,3.3c-0.9,0.9-2,1.4-3.3,1.4c-1.3,0-2.4-0.5-3.3-1.4
	c-0.9-0.9-1.4-2-1.4-3.3c0-1.3,0.5-2.4,1.4-3.3c0.9-0.9,2-1.4,3.3-1.4c1.3,0,2.4,0.5,3.3,1.4C176.6,26.2,177.1,27.3,177.1,28.6z"/>
<path fill="#FDAD00" d="M219,42.9c0,3-1,5.3-3.1,6.8c-1,0.7-2,1.3-3.1,1.7c-1,0.4-2,0.6-3,0.6h-12.3c-1,0-2-0.2-3.1-0.6
	c-1-0.4-2-1-3-1.7c-1-0.8-1.7-1.7-2.3-2.8c-0.5-1.1-0.8-2.5-0.8-4.1V16.1c0-1.5,0.3-2.8,0.8-3.9c0.5-1.2,1.3-2.1,2.3-2.8h-0.1
	c1-0.6,2-1.2,3.1-1.6c1.1-0.4,2.1-0.6,3.1-0.6h12.3c1,0,2,0.2,3.1,0.6c1.1,0.4,2.1,0.9,3.1,1.6h-0.1c1,0.7,1.7,1.7,2.3,2.8
	c0.5,1.1,0.8,2.4,0.8,3.9V20c0,1.8-1.1,2.7-3.4,2.7c-2.2,0-3.3-0.9-3.3-2.7v-3.4c0-0.9-0.3-1.8-0.8-2.6c-0.6-0.8-1.5-1.2-2.9-1.2
	h-9.5c-1.4,0-2.4,0.4-2.9,1.2c-0.6,0.8-0.8,1.7-0.8,2.6v25.8c0,1,0.3,1.9,0.8,2.6c0.6,0.8,1.5,1.2,2.9,1.2h9.5
	c1.4,0,2.4-0.4,2.9-1.2c0.6-0.8,0.8-1.7,0.8-2.6v-3.3c0-1.8,1.1-2.6,3.3-2.6c2.3,0,3.4,0.9,3.4,2.6V42.9z"/>
<path fill="#FDAD00" d="M248.5,7.1c1,0,2,0.2,3.1,0.6c1.1,0.4,2.1,0.9,3.1,1.6h-0.1c1,0.7,1.7,1.7,2.3,2.8c0.5,1.1,0.8,2.4,0.8,3.9
	v26.8c0,3-1,5.3-3.1,6.8c-1,0.7-2,1.3-3.1,1.7c-1,0.4-2,0.6-3,0.6h-12.3c-1,0-2-0.2-3.1-0.6c-1-0.4-2-1-3-1.7
	c-1-0.8-1.7-1.7-2.3-2.8c-0.5-1.1-0.8-2.5-0.8-4.1V16.1c0-1.5,0.3-2.8,0.8-3.9c0.5-1.2,1.3-2.1,2.3-2.8h-0.1c1-0.6,2-1.2,3.1-1.6
	c1.1-0.4,2.1-0.6,3.1-0.6H248.5z M247.1,46.2c1.4,0,2.4-0.4,2.9-1.2c0.6-0.8,0.8-1.7,0.8-2.6V16.6c0-0.9-0.3-1.8-0.8-2.6
	c-0.6-0.8-1.5-1.2-2.9-1.2h-9.5c-1.4,0-2.4,0.4-2.9,1.2c-0.6,0.8-0.8,1.7-0.8,2.6v25.8c0,1,0.3,1.9,0.8,2.6c0.6,0.8,1.5,1.2,2.9,1.2
	H247.1z"/>
<path fill="#FDAD00" d="M286.2,46.2c1.4,0,2.4-0.4,2.9-1.2c0.6-0.8,0.8-1.7,0.8-2.6V16.6c0-0.9-0.3-1.8-0.8-2.6
	c-0.6-0.8-1.5-1.2-2.9-1.2H273l-0.1,36.7c0,0.8-0.3,1.5-1,2c-0.6,0.5-1.4,0.7-2.4,0.7c-2.2,0-3.3-0.9-3.3-2.7v-39
	c0-1.4,0.3-2.3,1-2.7c0.7-0.5,1.6-0.7,2.5-0.7h17.8c1,0,2,0.2,3.1,0.6c1.1,0.4,2.1,0.9,3.1,1.6h-0.1c1,0.7,1.7,1.7,2.3,2.8
	c0.5,1.1,0.8,2.4,0.8,3.9v26.8c0,3-1,5.3-3.1,6.8c-1,0.7-2,1.3-3.1,1.7c-1,0.4-2,0.6-3,0.6h-9.5c-0.6,0-1.2-0.3-1.5-0.8
	c-0.3-0.5-0.5-1.2-0.5-2.1c0-1.9,0.8-2.8,2.4-2.8H286.2z"/>
<path fill="#FDAD00" d="M308.9,51.9c-1.4,0-2.3-0.4-2.8-1.1c-0.5-0.7-0.7-1.5-0.7-2.4v-38c0-0.9,0.2-1.6,0.7-2.3
	c0.5-0.7,1.4-1.1,2.8-1.1h19.7c1.4,0,2.1,0.9,2.2,2.8c0.1,1.9-0.7,2.9-2.2,2.9H312v33.4h17.6c1.4,0,2.1,0.9,2.1,2.8
	c0.1,2-0.6,2.9-2.1,2.9H308.9z M326.5,28.6c0,1.3-0.5,2.4-1.4,3.3c-0.9,0.9-2,1.4-3.3,1.4c-1.3,0-2.4-0.5-3.3-1.4
	c-0.9-0.9-1.4-2-1.4-3.3c0-1.3,0.5-2.4,1.4-3.3c0.9-0.9,2-1.4,3.3-1.4c1.3,0,2.4,0.5,3.3,1.4C326,26.2,326.5,27.3,326.5,28.6z"/>
<path fill="#FDAD00" d="M353.9,33.3h-4.4c-0.6,0-1.1-0.2-1.5-0.7c-0.3-0.5-0.5-1.2-0.5-2.1c0-1.9,0.8-2.9,2.4-2.9h6.6
	c1.4,0,2.4-0.4,2.9-1.2c0.6-0.8,0.8-1.7,0.8-2.6v-7.3c0-0.9-0.3-1.8-0.8-2.6c-0.6-0.8-1.5-1.2-2.9-1.2h-11.9v36.7
	c0,1.8-1.1,2.7-3.3,2.7c-2.2,0-3.3-0.9-3.3-2.7v-39c0-1.4,0.3-2.3,1-2.7c0.7-0.5,1.6-0.7,2.5-0.7h16.5c1,0,2,0.2,3.1,0.6
	c1.1,0.4,2.1,0.9,3.1,1.6H364c1,0.7,1.7,1.7,2.3,2.8c0.5,1.1,0.8,2.4,0.8,3.9v8.2c0,3-1,5.3-3.1,6.8c-0.4,0.3-0.9,0.6-1.4,0.8
	c-0.5,0.3-0.9,0.5-1.4,0.8l9.1,14.9c0.1,0.2,0.2,0.4,0.3,0.7c0.1,0.3,0.2,0.5,0.2,0.7c0,0.9-0.6,1.8-1.9,2.6v-0.1
	c-0.9,0.5-1.6,0.8-2.2,0.8c-0.9,0-1.6-0.4-2.1-1.3l0.1,0.1L353.9,33.3z"/>
<path fill="#FDAD00" d="M397.5,26.1c1,0,2,0.2,3.1,0.6c1.1,0.4,2.1,1,3.1,1.6h-0.1c1,0.7,1.7,1.6,2.3,2.8c0.5,1.2,0.8,2.5,0.8,4v7.7
	c0,3-1,5.3-3.1,6.8c-1,0.7-2,1.3-3.1,1.7c-1,0.4-2,0.6-3,0.6h-12.3c-1,0-2-0.2-3.1-0.6c-1-0.4-2-1-3-1.7c-2-1.5-3.1-3.8-3.1-6.8
	v-3.7c0-1.8,1.1-2.6,3.3-2.6c2.3,0,3.4,0.9,3.4,2.6v3.3c0,1,0.3,1.9,0.8,2.6c0.6,0.8,1.5,1.2,2.9,1.2h9.5c1.4,0,2.4-0.4,2.9-1.2
	c0.6-0.8,0.8-1.7,0.8-2.6v-6.8c0-0.9-0.3-1.8-0.8-2.6c-0.6-0.8-1.5-1.2-2.9-1.2h-10.9c-2,0-4-0.7-6.1-2.1c-2-1.6-3.1-3.8-3.1-6.8
	v-6.7c0-1.5,0.3-2.8,0.8-3.9c0.5-1.2,1.3-2.1,2.3-2.8H379c1-0.6,2-1.2,3.1-1.6c1.1-0.4,2.1-0.6,3.1-0.6h12.3c1,0,2,0.2,3.1,0.6
	c1.1,0.4,2.1,0.9,3.1,1.6h-0.1c1,0.7,1.7,1.7,2.3,2.8c0.5,1.1,0.8,2.4,0.8,3.9v3.3c0,1.8-1.1,2.6-3.4,2.6c-2.2,0-3.3-0.9-3.3-2.6
	v-2.8c0-0.9-0.3-1.8-0.8-2.6c-0.6-0.8-1.5-1.2-2.9-1.2h-9.5c-1.4,0-2.4,0.4-2.9,1.2c-0.6,0.8-0.8,1.7-0.8,2.6v5.7
	c0,1,0.3,1.9,0.8,2.6c0.6,0.8,1.5,1.1,2.9,1.1H397.5z"/>
<path fill="#3F3F3F" d="M141.9,67.5v0.8c0,1-0.1,2-0.4,2.8c-0.3,0.8-0.7,1.5-1.2,2.1c-0.5,0.6-1.1,1-1.8,1.3
	c-0.7,0.3-1.5,0.5-2.3,0.5c-0.8,0-1.6-0.2-2.3-0.5c-0.7-0.3-1.3-0.8-1.8-1.3c-0.5-0.6-0.9-1.3-1.2-2.1c-0.3-0.8-0.4-1.8-0.4-2.8
	v-0.8c0-1,0.1-2,0.4-2.8c0.3-0.8,0.7-1.5,1.2-2.1c0.5-0.6,1.1-1,1.8-1.3c0.7-0.3,1.5-0.5,2.3-0.5c0.9,0,1.6,0.2,2.3,0.5
	c0.7,0.3,1.3,0.7,1.8,1.3c0.5,0.6,0.9,1.3,1.2,2.1C141.7,65.5,141.9,66.5,141.9,67.5z M139.5,68.3v-0.8c0-0.8-0.1-1.4-0.2-2
	c-0.1-0.6-0.4-1.1-0.7-1.5c-0.3-0.4-0.6-0.7-1.1-0.9c-0.4-0.2-0.9-0.3-1.4-0.3c-0.5,0-1,0.1-1.4,0.3c-0.4,0.2-0.8,0.5-1.1,0.9
	c-0.3,0.4-0.5,0.9-0.7,1.5c-0.2,0.6-0.2,1.3-0.2,2v0.8c0,0.8,0.1,1.4,0.2,2c0.2,0.6,0.4,1.1,0.7,1.5c0.3,0.4,0.7,0.7,1.1,0.9
	c0.4,0.2,0.9,0.3,1.4,0.3c0.5,0,1-0.1,1.4-0.3c0.4-0.2,0.8-0.5,1-0.9c0.3-0.4,0.5-0.9,0.6-1.5C139.4,69.7,139.5,69,139.5,68.3z"/>
<path fill="#3F3F3F" d="M155.2,61v13.8h-2.4l-6.2-9.9v9.9h-2.4V61h2.4l6.2,9.9V61H155.2z"/>
<path fill="#3F3F3F" d="M162.4,68v1.8h-5V68H162.4z"/>
<path fill="#3F3F3F" d="M168.7,74.8h-3l0-1.9h2.9c0.9,0,1.6-0.2,2.1-0.6c0.6-0.4,1-0.9,1.3-1.6c0.3-0.7,0.4-1.5,0.4-2.5v-0.7
	c0-0.7-0.1-1.4-0.3-2c-0.2-0.6-0.4-1.1-0.7-1.4c-0.3-0.4-0.7-0.7-1.2-0.9c-0.5-0.2-1-0.3-1.6-0.3h-3.1V61h3.1c0.9,0,1.8,0.2,2.5,0.5
	c0.8,0.3,1.4,0.7,2,1.3c0.6,0.6,1,1.3,1.3,2.1c0.3,0.8,0.4,1.7,0.4,2.7v0.7c0,1-0.1,1.9-0.4,2.7c-0.3,0.8-0.7,1.5-1.3,2.1
	c-0.6,0.6-1.2,1-2,1.3C170.5,74.6,169.6,74.8,168.7,74.8z M167.1,61v13.8h-2.4V61H167.1z"/>
<path fill="#3F3F3F" d="M186.4,72.9v1.9h-7.3v-1.9H186.4z M179.8,61v13.8h-2.4V61H179.8z M185.5,66.7v1.9h-6.4v-1.9H185.5z
	 M186.4,61v1.9h-7.3V61H186.4z"/>
<path fill="#3F3F3F" d="M189.3,61h2.1l4,10.6l4-10.6h2.1l-5.3,13.8h-1.7L189.3,61z M188.4,61h2l0.4,9.2v4.6h-2.4V61z M200.5,61h2
	v13.8h-2.4v-4.6L200.5,61z"/>
<path fill="#3F3F3F" d="M211,62.8l-4.1,11.9h-2.5l5.2-13.8h1.6L211,62.8z M214.4,74.8l-4.1-11.9l-0.2-1.8h1.6l5.2,13.8H214.4z
	 M214.2,69.7v1.9h-7.5v-1.9H214.2z"/>
<path fill="#3F3F3F" d="M229.4,61v13.8H227l-6.2-9.9v9.9h-2.4V61h2.4l6.2,9.9V61H229.4z"/>
<path fill="#3F3F3F" d="M236.3,74.8h-3l0-1.9h2.9c0.9,0,1.6-0.2,2.1-0.6c0.6-0.4,1-0.9,1.3-1.6c0.3-0.7,0.4-1.5,0.4-2.5v-0.7
	c0-0.7-0.1-1.4-0.3-2c-0.2-0.6-0.4-1.1-0.7-1.4c-0.3-0.4-0.7-0.7-1.2-0.9c-0.5-0.2-1-0.3-1.6-0.3h-3.1V61h3.1c0.9,0,1.8,0.2,2.5,0.5
	c0.8,0.3,1.4,0.7,2,1.3c0.6,0.6,1,1.3,1.3,2.1c0.3,0.8,0.4,1.7,0.4,2.7v0.7c0,1-0.1,1.9-0.4,2.7c-0.3,0.8-0.7,1.5-1.3,2.1
	c-0.6,0.6-1.2,1-2,1.3C238.1,74.6,237.2,74.8,236.3,74.8z M234.7,61v13.8h-2.4V61H234.7z"/>
<path fill="#3F3F3F" d="M257.1,71.2c0-0.3,0-0.5-0.1-0.8c-0.1-0.2-0.2-0.4-0.4-0.6s-0.5-0.4-0.9-0.5c-0.4-0.2-0.9-0.4-1.5-0.5
	c-0.7-0.2-1.3-0.4-1.8-0.7c-0.6-0.3-1-0.5-1.4-0.9c-0.4-0.3-0.7-0.7-1-1.1c-0.2-0.4-0.3-0.9-0.3-1.5c0-0.6,0.1-1.1,0.4-1.5
	c0.2-0.5,0.6-0.9,1-1.2c0.4-0.3,1-0.6,1.6-0.8c0.6-0.2,1.3-0.3,2-0.3c1,0,1.9,0.2,2.6,0.6c0.7,0.4,1.3,0.9,1.7,1.5
	c0.4,0.6,0.6,1.3,0.6,2.1h-2.4c0-0.5-0.1-0.9-0.3-1.2c-0.2-0.4-0.5-0.6-0.9-0.8c-0.4-0.2-0.9-0.3-1.5-0.3c-0.6,0-1,0.1-1.4,0.3
	c-0.4,0.2-0.7,0.4-0.8,0.7c-0.2,0.3-0.3,0.6-0.3,1c0,0.3,0.1,0.5,0.2,0.7c0.1,0.2,0.3,0.4,0.6,0.6c0.2,0.2,0.6,0.3,0.9,0.5
	c0.4,0.2,0.8,0.3,1.3,0.5c0.8,0.2,1.4,0.5,2,0.8c0.6,0.3,1,0.6,1.4,0.9c0.4,0.3,0.7,0.7,0.9,1.2c0.2,0.4,0.3,0.9,0.3,1.5
	c0,0.6-0.1,1.1-0.4,1.6c-0.2,0.5-0.6,0.9-1,1.2c-0.4,0.3-0.9,0.6-1.6,0.7c-0.6,0.2-1.3,0.3-2,0.3c-0.7,0-1.3-0.1-2-0.3
	c-0.6-0.2-1.2-0.4-1.7-0.8c-0.5-0.4-0.9-0.8-1.3-1.4c-0.3-0.5-0.5-1.2-0.5-1.9h2.4c0,0.4,0.1,0.8,0.2,1.1c0.2,0.3,0.4,0.6,0.7,0.8
	c0.3,0.2,0.6,0.3,1,0.4c0.4,0.1,0.8,0.1,1.2,0.1c0.6,0,1-0.1,1.4-0.2c0.4-0.2,0.7-0.4,0.9-0.7C257,71.9,257.1,71.6,257.1,71.2z"/>
<path fill="#3F3F3F" d="M272.6,67.5v0.8c0,1-0.1,2-0.4,2.8c-0.3,0.8-0.7,1.5-1.2,2.1c-0.5,0.6-1.1,1-1.8,1.3
	c-0.7,0.3-1.5,0.5-2.3,0.5c-0.8,0-1.6-0.2-2.3-0.5c-0.7-0.3-1.3-0.8-1.8-1.3c-0.5-0.6-0.9-1.3-1.2-2.1c-0.3-0.8-0.4-1.8-0.4-2.8
	v-0.8c0-1,0.1-2,0.4-2.8c0.3-0.8,0.7-1.5,1.2-2.1c0.5-0.6,1.1-1,1.8-1.3c0.7-0.3,1.5-0.5,2.3-0.5c0.9,0,1.6,0.2,2.3,0.5
	c0.7,0.3,1.3,0.7,1.8,1.3c0.5,0.6,0.9,1.3,1.2,2.1C272.5,65.5,272.6,66.5,272.6,67.5z M270.2,68.3v-0.8c0-0.8-0.1-1.4-0.2-2
	c-0.1-0.6-0.4-1.1-0.7-1.5c-0.3-0.4-0.6-0.7-1.1-0.9c-0.4-0.2-0.9-0.3-1.4-0.3c-0.5,0-1,0.1-1.4,0.3c-0.4,0.2-0.8,0.5-1.1,0.9
	c-0.3,0.4-0.5,0.9-0.7,1.5c-0.2,0.6-0.2,1.3-0.2,2v0.8c0,0.8,0.1,1.4,0.2,2c0.2,0.6,0.4,1.1,0.7,1.5c0.3,0.4,0.7,0.7,1.1,0.9
	c0.4,0.2,0.9,0.3,1.4,0.3c0.5,0,1-0.1,1.4-0.3c0.4-0.2,0.8-0.5,1-0.9c0.3-0.4,0.5-0.9,0.6-1.5C270.2,69.7,270.2,69,270.2,68.3z"/>
<path fill="#3F3F3F" d="M277.4,61v13.8H275V61H277.4z M283,67v1.9h-6.2V67H283z M283.8,61v1.9h-7V61H283.8z"/>
<path fill="#3F3F3F" d="M291.6,61v13.8h-2.4V61H291.6z M295.9,61v1.9h-11V61H295.9z"/>
<path fill="#3F3F3F" d="M301.4,71.7l2.8-10.7h1.4l-0.2,2.8l-2.9,11H301L301.4,71.7z M299.3,61l2.2,10.6l0.2,3.2h-1.6L297,61H299.3z
	 M308.7,71.6l2.2-10.6h2.4l-3.2,13.8h-1.6L308.7,71.6z M306.1,61l2.7,10.7l0.4,3.1h-1.5l-2.9-11l-0.2-2.8H306.1z"/>
<path fill="#3F3F3F" d="M320,62.8l-4.1,11.9h-2.5l5.2-13.8h1.6L320,62.8z M323.5,74.8l-4.1-11.9l-0.2-1.8h1.6l5.2,13.8H323.5z
	 M323.3,69.7v1.9h-7.5v-1.9H323.3z"/>
<path fill="#3F3F3F" d="M327.5,61h4.9c1.1,0,1.9,0.2,2.7,0.5c0.7,0.3,1.3,0.8,1.7,1.4c0.4,0.6,0.6,1.4,0.6,2.3
	c0,0.7-0.1,1.3-0.4,1.8c-0.3,0.5-0.6,1-1.1,1.3c-0.5,0.4-1,0.6-1.7,0.8l-0.7,0.3h-4.4l0-1.9h3.3c0.6,0,1-0.1,1.4-0.3
	c0.4-0.2,0.7-0.5,0.9-0.8c0.2-0.4,0.3-0.8,0.3-1.2c0-0.5-0.1-0.9-0.3-1.2c-0.2-0.4-0.5-0.6-0.9-0.8c-0.4-0.2-0.9-0.3-1.5-0.3h-2.5
	v11.9h-2.4V61z M335.4,74.8l-3.2-6.2l2.5,0l3.3,6.1v0.1H335.4z"/>
<path fill="#3F3F3F" d="M348.8,72.9v1.9h-7.3v-1.9H348.8z M342.2,61v13.8h-2.4V61H342.2z M347.9,66.7v1.9h-6.4v-1.9H347.9z
	 M348.8,61v1.9h-7.3V61H348.8z"/>
<path fill="#3F3F3F" d="M360.8,61v13.8h-2.4V61H360.8z M365.2,61v1.9h-11V61H365.2z"/>
<path fill="#3F3F3F" d="M376.1,72.9v1.9h-7.3v-1.9H376.1z M369.4,61v13.8H367V61H369.4z M375.1,66.7v1.9h-6.4v-1.9H375.1z M376,61
	v1.9h-7.3V61H376z"/>
<path fill="#3F3F3F" d="M383.4,62.8l-4.1,11.9h-2.5L382,61h1.6L383.4,62.8z M386.9,74.8l-4.1-11.9l-0.2-1.8h1.6l5.2,13.8H386.9z
	 M386.7,69.7v1.9h-7.5v-1.9H386.7z"/>
<path fill="#3F3F3F" d="M391.9,61h2.1l4,10.6l4-10.6h2.1l-5.3,13.8h-1.7L391.9,61z M390.9,61h2l0.4,9.2v4.6h-2.4V61z M403.1,61h2
	v13.8h-2.4v-4.6L403.1,61z"/>
</svg>
