<svg width="30" height="51" viewBox="0 0 30 51" fill="none" xmlns="http://www.w3.org/2000/svg">
<path d="M28.0848 43.4116V44.2991H27.9021V43.4116H28.0848ZM28.3586 43.4116V43.5549H27.6328V43.4116H28.3586ZM28.5468 43.4116H28.702L28.9304 44.0632L29.1589 43.4116H29.314L28.9928 44.2991H28.8682L28.5468 43.4116ZM28.4631 43.4116H28.6176L28.6457 44.0468V44.2991H28.4631V43.4116ZM29.2432 43.4116H29.3985V44.2991H29.2151V44.0468L29.2432 43.4116Z" fill="white"/>
<path d="M29.5291 0.709961H0.585938V29.4524H29.5291V0.709961Z" fill="#DD0401"/>
<path d="M6.46037 6.23806C6.35992 6.05431 6.22178 5.91441 6.04596 5.81836C5.87016 5.72231 5.66504 5.67429 5.43063 5.67429C5.1711 5.67429 4.94087 5.73274 4.73994 5.84968C4.53902 5.96661 4.38205 6.13365 4.26901 6.35082C4.15599 6.56794 4.09949 6.81852 4.09949 7.10251C4.09949 7.39485 4.15599 7.64961 4.26901 7.86673C4.38622 8.08391 4.54738 8.25093 4.7525 8.3679C4.95761 8.48481 5.19621 8.54326 5.4683 8.54326C5.80318 8.54326 6.07736 8.45558 6.29084 8.28015C6.50433 8.10061 6.64456 7.85215 6.71153 7.53476H5.20458V6.86445H7.57806V7.62873C7.51945 7.93353 7.39385 8.21547 7.20128 8.47434C7.00874 8.73327 6.75967 8.94211 6.45409 9.10077C6.15271 9.25532 5.81364 9.33253 5.43691 9.33253C5.01413 9.33253 4.6311 9.23862 4.28786 9.05066C3.94879 8.8586 3.68088 8.59337 3.48415 8.2551C3.29159 7.91683 3.19531 7.53264 3.19531 7.10251C3.19531 6.67239 3.29159 6.28817 3.48415 5.94991C3.68088 5.60747 3.94879 5.34228 4.28786 5.15435C4.6311 4.96226 5.01202 4.86621 5.43063 4.86621C5.92457 4.86621 6.35364 4.98732 6.71781 5.22953C7.08199 5.46757 7.33318 5.80374 7.47132 6.23806H6.46037ZM9.10745 6.36335C9.2205 6.17959 9.367 6.03551 9.54696 5.93111C9.73117 5.82671 9.94047 5.77451 10.1749 5.77451V6.69532H9.94253C9.66625 6.69532 9.45695 6.76007 9.31463 6.88951C9.17649 7.01901 9.10745 7.24447 9.10745 7.56604V9.29495H8.22842V5.82463H9.10745V6.36335ZM14.0007 7.48465C14.0007 7.60991 13.9923 7.72265 13.9755 7.82292H11.4325C11.4535 8.07344 11.5413 8.26975 11.6963 8.41171C11.8511 8.55373 12.0416 8.62471 12.2676 8.62471C12.5942 8.62471 12.8265 8.48481 12.9646 8.205H13.9127C13.8123 8.53909 13.6197 8.81473 13.335 9.03191C13.0504 9.24485 12.7009 9.35135 12.2865 9.35135C11.9516 9.35135 11.6502 9.27825 11.3823 9.13212C11.1186 8.98174 10.9114 8.77085 10.7607 8.49939C10.6142 8.22799 10.5409 7.91478 10.5409 7.55981C10.5409 7.20067 10.6142 6.88533 10.7607 6.61393C10.9072 6.34247 11.1123 6.13365 11.3761 5.9875C11.6397 5.84133 11.9432 5.76824 12.2865 5.76824C12.6172 5.76824 12.9123 5.83924 13.1718 5.98123C13.4355 6.12321 13.6385 6.32575 13.7809 6.58888C13.9274 6.84775 14.0007 7.14639 14.0007 7.48465ZM13.0902 7.23407C13.086 7.00854 13.0044 6.829 12.8453 6.69532C12.6862 6.55753 12.4916 6.48861 12.2614 6.48861C12.0437 6.48861 11.8595 6.55541 11.7088 6.68909C11.5623 6.81853 11.4723 7.00018 11.4388 7.23407H13.0902ZM14.4162 7.54728C14.4162 7.19649 14.4853 6.88533 14.6235 6.61393C14.7657 6.34247 14.9562 6.13365 15.1948 5.9875C15.4377 5.84133 15.7076 5.76824 16.0048 5.76824C16.2643 5.76824 16.4903 5.82044 16.683 5.92485C16.8797 6.02924 17.0366 6.1608 17.1539 6.3195V5.82463H18.0392V9.29495H17.1539V8.78755C17.0408 8.95046 16.8838 9.08619 16.683 9.19475C16.4862 9.29913 16.2581 9.35135 15.9985 9.35135C15.7055 9.35135 15.4377 9.2762 15.1948 9.12582C14.9562 8.97551 14.7657 8.76462 14.6235 8.49316C14.4853 8.21752 14.4162 7.90225 14.4162 7.54728ZM17.1539 7.55981C17.1539 7.3468 17.112 7.16514 17.0283 7.01483C16.9446 6.86028 16.8315 6.74337 16.6891 6.66404C16.5468 6.58053 16.3941 6.53871 16.2308 6.53871C16.0675 6.53871 15.9169 6.57841 15.7787 6.65774C15.6406 6.73714 15.5276 6.85405 15.4397 7.00854C15.356 7.15891 15.3141 7.33845 15.3141 7.54728C15.3141 7.75605 15.356 7.93983 15.4397 8.09849C15.5276 8.25305 15.6406 8.37207 15.7787 8.45558C15.921 8.53909 16.0717 8.58084 16.2308 8.58084C16.3941 8.58084 16.5468 8.54121 16.6891 8.46181C16.8315 8.37831 16.9446 8.2614 17.0283 8.11102C17.112 7.95653 17.1539 7.77275 17.1539 7.55981ZM19.9212 6.54501V8.22382C19.9212 8.34073 19.9484 8.42635 20.0028 8.48063C20.0615 8.53074 20.1578 8.55579 20.2917 8.55579H20.6999V9.29495H20.1472C19.4064 9.29495 19.0359 8.93581 19.0359 8.21752V6.54501H18.6215V5.82463H19.0359V4.96643H19.9212V5.82463H20.6999V6.54501H19.9212Z" fill="white"/>
<path d="M6.60225 12.4521C6.60225 12.686 6.54573 12.9052 6.43271 13.1098C6.32388 13.3145 6.15016 13.4794 5.91156 13.6047C5.67714 13.73 5.37993 13.7927 5.01994 13.7927H4.2853V15.4714H3.40625V11.099H5.01994C5.359 11.099 5.64784 11.1575 5.88644 11.2745C6.12504 11.3914 6.30294 11.5522 6.42015 11.7568C6.54154 11.9614 6.60225 12.1932 6.60225 12.4521ZM4.98227 13.0848C5.22505 13.0848 5.40506 13.0305 5.52226 12.9219C5.63947 12.8092 5.69807 12.6525 5.69807 12.4521C5.69807 12.0262 5.45947 11.8132 4.98227 11.8132H4.2853V13.0848H4.98227ZM8.1054 10.8359V15.4714H7.22637V10.8359H8.1054ZM8.74791 13.7237C8.74791 13.3729 8.81695 13.0618 8.95509 12.7904C9.09741 12.5189 9.28786 12.3101 9.5265 12.164C9.76926 12.0178 10.0392 11.9447 10.3365 11.9447C10.596 11.9447 10.8221 11.9969 11.0146 12.1013C11.2113 12.2057 11.3683 12.3373 11.4855 12.4959V12.0011H12.3708V15.4714H11.4855V14.964C11.3725 15.1269 11.2155 15.2626 11.0146 15.3712C10.8178 15.4756 10.5897 15.5279 10.3302 15.5279C10.0372 15.5279 9.76926 15.4526 9.5265 15.3023C9.28786 15.152 9.09741 14.9411 8.95509 14.6696C8.81695 14.394 8.74791 14.0787 8.74791 13.7237ZM11.4855 13.7363C11.4855 13.5233 11.4437 13.3416 11.36 13.1913C11.2762 13.0368 11.1632 12.9198 11.0209 12.8405C10.8786 12.757 10.7258 12.7152 10.5625 12.7152C10.3993 12.7152 10.2485 12.7549 10.1104 12.8343C9.97225 12.9136 9.85927 13.0305 9.77138 13.1851C9.68761 13.3354 9.64579 13.515 9.64579 13.7237C9.64579 13.9326 9.68761 14.1163 9.77138 14.275C9.85927 14.4295 9.97225 14.5486 10.1104 14.6321C10.2527 14.7156 10.4034 14.7573 10.5625 14.7573C10.7258 14.7573 10.8786 14.7177 11.0209 14.6383C11.1632 14.5548 11.2762 14.4378 11.36 14.2875C11.4437 14.133 11.4855 13.9493 11.4855 13.7363ZM13.0034 13.7363C13.0034 13.3771 13.0766 13.0639 13.2231 12.7966C13.3697 12.5252 13.5727 12.3164 13.8322 12.1702C14.0917 12.0199 14.3889 11.9447 14.7238 11.9447C15.1549 11.9447 15.5108 12.0533 15.7912 12.2705C16.0758 12.4835 16.2663 12.7841 16.3626 13.1725H15.4145C15.3643 13.0221 15.2785 12.9052 15.1571 12.8217C15.0398 12.734 14.8933 12.6902 14.7175 12.6902C14.4664 12.6902 14.2675 12.782 14.121 12.9657C13.9745 13.1454 13.9012 13.4022 13.9012 13.7363C13.9012 14.0662 13.9745 14.323 14.121 14.5068C14.2675 14.6863 14.4664 14.7762 14.7175 14.7762C15.0733 14.7762 15.3056 14.6175 15.4145 14.3001H16.3626C16.2663 14.6758 16.0758 14.9745 15.7912 15.1958C15.5066 15.4172 15.1508 15.5279 14.7238 15.5279C14.3889 15.5279 14.0917 15.4547 13.8322 15.3086C13.5727 15.1583 13.3697 14.9494 13.2231 14.6822C13.0766 14.4107 13.0034 14.0954 13.0034 13.7363ZM20.2403 13.6611C20.2403 13.7864 20.2319 13.8992 20.2151 13.9994H17.6721C17.6931 14.25 17.781 14.4462 17.9359 14.5882C18.0908 14.7302 18.2813 14.8012 18.5073 14.8012C18.8338 14.8012 19.0661 14.6613 19.2042 14.3814H20.1523C20.0519 14.7156 19.8593 14.9912 19.5747 15.2084C19.2901 15.4213 18.9405 15.5279 18.5261 15.5279C18.1912 15.5279 17.8899 15.4547 17.6219 15.3086C17.3582 15.1583 17.151 14.9473 17.0003 14.6758C16.8537 14.4044 16.7806 14.0912 16.7806 13.7363C16.7806 13.3771 16.8537 13.0618 17.0003 12.7904C17.1468 12.5189 17.352 12.3101 17.6157 12.164C17.8793 12.0178 18.1829 11.9447 18.5261 11.9447C18.8568 11.9447 19.1519 12.0157 19.4114 12.1577C19.6752 12.2997 19.8782 12.5022 20.0205 12.7653C20.167 13.0243 20.2403 13.3228 20.2403 13.6611ZM19.3298 13.4105C19.3257 13.1851 19.2441 13.0054 19.085 12.8718C18.9258 12.734 18.7312 12.6651 18.501 12.6651C18.2833 12.6651 18.0992 12.7319 17.9484 12.8655C17.8019 12.995 17.712 13.1767 17.6785 13.4105H19.3298Z" fill="white"/>
<path d="M6.39451 17.2754V17.9831H5.22662V21.6477H4.34758V17.9831H3.17969V17.2754H6.39451ZM8.5805 21.7041C8.24567 21.7041 7.94423 21.631 7.67638 21.4848C7.40846 21.3345 7.19704 21.1236 7.04217 20.8522C6.89148 20.5808 6.81614 20.2676 6.81614 19.9126C6.81614 19.5576 6.89357 19.2444 7.04847 18.9729C7.20753 18.7016 7.42307 18.4927 7.69517 18.3466C7.96727 18.1963 8.27076 18.1211 8.60566 18.1211C8.94055 18.1211 9.24399 18.1963 9.51609 18.3466C9.78818 18.4927 10.0017 18.7016 10.1565 18.9729C10.3156 19.2444 10.3951 19.5576 10.3951 19.9126C10.3951 20.2676 10.3135 20.5808 10.1502 20.8522C9.99118 21.1236 9.77351 21.3345 9.49723 21.4848C9.2252 21.631 8.91958 21.7041 8.5805 21.7041ZM8.5805 20.9399C8.73962 20.9399 8.88818 20.9024 9.02632 20.8271C9.16864 20.7478 9.28169 20.6309 9.3654 20.4763C9.44911 20.3219 9.49099 20.1338 9.49099 19.9126C9.49099 19.5828 9.4031 19.33 9.22726 19.1546C9.05566 18.975 8.84423 18.8853 8.59311 18.8853C8.34192 18.8853 8.13056 18.975 7.9589 19.1546C7.79149 19.33 7.70778 19.5828 7.70778 19.9126C7.70778 20.2425 7.78936 20.4973 7.95266 20.6768C8.12008 20.8522 8.32938 20.9399 8.5805 20.9399Z" fill="white"/>
<path d="M9.27057 23.452L8.04615 27.8244H7.01015L6.1876 24.7111L5.32738 27.8244L4.29763 27.8307L3.11719 23.452H4.05903L4.83135 26.8471L5.72296 23.452H6.70247L7.54384 26.8284L8.32244 23.452H9.27057ZM11.3892 27.8808C11.0543 27.8808 10.7529 27.8077 10.485 27.6615C10.2172 27.5112 10.0057 27.3003 9.85086 27.0288C9.70017 26.7575 9.62483 26.4443 9.62483 26.0893C9.62483 25.7343 9.70223 25.4211 9.8571 25.1496C10.0162 24.8781 10.2318 24.6694 10.5039 24.5233C10.776 24.3728 11.0794 24.2977 11.4143 24.2977C11.7492 24.2977 12.0527 24.3728 12.3248 24.5233C12.5969 24.6694 12.8103 24.8781 12.9652 25.1496C13.1243 25.4211 13.2038 25.7343 13.2038 26.0893C13.2038 26.4443 13.1222 26.7575 12.9589 27.0288C12.7999 27.3003 12.5822 27.5112 12.3059 27.6615C12.0338 27.8077 11.7283 27.8808 11.3892 27.8808ZM11.3892 27.1166C11.5482 27.1166 11.6969 27.079 11.835 27.0038C11.9773 26.9245 12.0903 26.8076 12.1741 26.653C12.2578 26.4985 12.2996 26.3105 12.2996 26.0893C12.2996 25.7594 12.2117 25.5067 12.0359 25.3312C11.8643 25.1517 11.6529 25.062 11.4017 25.062C11.1506 25.062 10.9392 25.1517 10.7676 25.3312C10.6001 25.5067 10.5164 25.7594 10.5164 26.0893C10.5164 26.4191 10.5981 26.674 10.7613 26.8535C10.9287 27.0288 11.138 27.1166 11.3892 27.1166ZM14.7277 24.8928C14.8407 24.709 14.9872 24.5649 15.1672 24.4606C15.3514 24.3561 15.5607 24.3039 15.7951 24.3039V25.2249H15.5627C15.2865 25.2249 15.0772 25.2895 14.935 25.419C14.7967 25.5485 14.7277 25.7739 14.7277 26.0955V27.8244H13.8486V24.354H14.7277V24.8928ZM18.4467 27.8244L17.2663 26.3462V27.8244H16.3872V23.189H17.2663V25.8262L18.4341 24.354H19.5769L18.0448 26.0955L19.5895 27.8244H18.4467Z" fill="white"/>
<path d="M29.5291 29.4521H0.585938V40.8464H29.5291V29.4521Z" fill="#001666"/>
<path d="M15.0529 40.8462H29.5276L22.2896 45.6224L15.0529 50.3985L7.81618 45.6224L0.578125 40.8462H15.0529Z" fill="#001666"/>
<path d="M6.40987 34.3928H7.26864C7.25139 34.6736 7.17386 34.9228 7.03598 35.1406C6.90005 35.3584 6.70953 35.5285 6.46444 35.6507C6.22125 35.7729 5.9283 35.8341 5.58555 35.8341C5.31748 35.8341 5.07718 35.7883 4.86465 35.6966C4.6521 35.6029 4.47019 35.4693 4.31892 35.2954C4.16957 35.1216 4.05564 34.9114 3.97714 34.665C3.89864 34.4186 3.85938 34.1426 3.85938 33.8368V33.5476C3.85938 33.2418 3.89959 32.9658 3.98001 32.7194C4.06235 32.4711 4.17914 32.2599 4.33042 32.0861C4.4836 31.9124 4.66646 31.7786 4.87901 31.685C5.09154 31.5913 5.32898 31.5446 5.5913 31.5446C5.93978 31.5446 6.23371 31.6076 6.47305 31.7336C6.71431 31.8598 6.901 32.0335 7.03315 32.2552C7.16717 32.4768 7.2476 32.7289 7.27436 33.0116H6.41273C6.40316 32.8436 6.36965 32.7012 6.31221 32.5847C6.25476 32.4663 6.16764 32.3775 6.05085 32.3183C5.93597 32.2571 5.78278 32.2265 5.5913 32.2265C5.44769 32.2265 5.32227 32.2533 5.21505 32.3068C5.10781 32.3602 5.01782 32.4414 4.94505 32.5503C4.8723 32.6592 4.81773 32.7967 4.78134 32.963C4.74688 33.1273 4.72964 33.3202 4.72964 33.5417V33.8368C4.72964 34.0527 4.74592 34.2428 4.77848 34.4072C4.81102 34.5695 4.86081 34.7071 4.92783 34.8197C4.99676 34.9306 5.08484 35.0146 5.19207 35.0719C5.30121 35.1273 5.43237 35.155 5.58555 35.155C5.76554 35.155 5.91393 35.1263 6.03073 35.069C6.14754 35.0117 6.23659 34.9267 6.29785 34.814C6.36105 34.7013 6.39837 34.5609 6.40987 34.3928ZM9.21309 35.8341C8.97187 35.8341 8.7555 35.7958 8.56402 35.7195C8.37254 35.6411 8.20975 35.5332 8.07573 35.3957C7.94357 35.2581 7.84211 35.0987 7.77127 34.9171C7.70043 34.7338 7.66498 34.539 7.66498 34.3327V34.2179C7.66498 33.983 7.6985 33.7681 7.76554 33.5732C7.83252 33.3784 7.92826 33.2094 8.05276 33.0661C8.17913 32.9229 8.33232 32.813 8.51229 32.7367C8.69231 32.6583 8.89524 32.619 9.12121 32.619C9.34138 32.619 9.53672 32.6553 9.7071 32.728C9.87754 32.8006 10.0202 32.9038 10.1351 33.0374C10.2519 33.1711 10.34 33.3317 10.3993 33.5189C10.4587 33.7041 10.4883 33.9104 10.4883 34.1378V34.4816H8.01827V33.9314H9.67551V33.8684C9.67551 33.7538 9.65447 33.6516 9.61233 33.5618C9.57211 33.4701 9.51086 33.3975 9.4285 33.3441C9.34621 33.2906 9.24088 33.2638 9.11259 33.2638C9.0034 33.2638 8.90959 33.2877 8.8311 33.3354C8.7526 33.3832 8.68845 33.4501 8.63865 33.5361C8.59078 33.622 8.55443 33.7233 8.52953 33.8397C8.50656 33.9544 8.49504 34.0805 8.49504 34.2179V34.3327C8.49504 34.4567 8.51229 34.5714 8.54677 34.6765C8.58313 34.7815 8.63389 34.8723 8.699 34.9486C8.76598 35.0251 8.84641 35.0843 8.94022 35.1263C9.03596 35.1684 9.14418 35.1894 9.26482 35.1894C9.41416 35.1894 9.553 35.1608 9.68124 35.1034C9.81146 35.0441 9.92348 34.9554 10.0173 34.837L10.4194 35.2724C10.3543 35.366 10.2653 35.4559 10.1523 35.5418C10.0412 35.6277 9.9072 35.6984 9.75021 35.7539C9.59315 35.8073 9.41416 35.8341 9.21309 35.8341ZM11.7865 33.3527V35.7768H10.9594V32.6765H11.7378L11.7865 33.3527ZM12.7229 32.6563L12.7085 33.4214C12.6683 33.4158 12.6195 33.4109 12.562 33.407C12.5065 33.4014 12.4558 33.3985 12.4098 33.3985C12.293 33.3985 12.1916 33.4138 12.1054 33.4443C12.0211 33.473 11.9503 33.516 11.8928 33.5732C11.8373 33.6306 11.7952 33.7003 11.7665 33.7825C11.7396 33.8646 11.7243 33.9582 11.7205 34.0632L11.5539 34.0117C11.5539 33.8112 11.574 33.6268 11.6142 33.4587C11.6544 33.2886 11.7129 33.1406 11.7894 33.0145C11.8679 32.8885 11.9637 32.7911 12.0767 32.7223C12.1896 32.6534 12.3188 32.619 12.4644 32.619C12.5103 32.619 12.5573 32.6229 12.6052 32.6305C12.653 32.6363 12.6923 32.6449 12.7229 32.6563ZM14.7794 32.6765V33.261H12.9699V32.6765H14.7794ZM13.418 31.9114H14.2451V34.8426C14.2451 34.9325 14.2567 35.0012 14.2796 35.049C14.3045 35.0967 14.3409 35.1302 14.3888 35.1492C14.4367 35.1664 14.497 35.175 14.5697 35.175C14.6213 35.175 14.6673 35.1731 14.7076 35.1693C14.7496 35.1636 14.7852 35.1579 14.8138 35.1521L14.8167 35.7595C14.7459 35.7825 14.6692 35.8006 14.5869 35.8141C14.5046 35.8274 14.4137 35.8341 14.3141 35.8341C14.1322 35.8341 13.9732 35.8045 13.8373 35.7453C13.7033 35.6842 13.5999 35.5867 13.5271 35.453C13.4543 35.3192 13.418 35.1435 13.418 34.9258V31.9114ZM16.1236 32.6765V35.7768H15.2935V32.6765H16.1236ZM15.2417 31.8683C15.2417 31.748 15.2839 31.6488 15.3682 31.5703C15.4524 31.4921 15.5654 31.4529 15.707 31.4529C15.8469 31.4529 15.9588 31.4921 16.043 31.5703C16.1292 31.6488 16.1724 31.748 16.1724 31.8683C16.1724 31.9887 16.1292 32.0881 16.043 32.1664C15.9588 32.2447 15.8469 32.2838 15.707 32.2838C15.5654 32.2838 15.4524 32.2447 15.3682 32.1664C15.2839 32.0881 15.2417 31.9887 15.2417 31.8683ZM17.841 35.7768H17.0111V32.536C17.0111 32.2724 17.0646 32.0498 17.1719 31.8683C17.281 31.6868 17.4361 31.5494 17.6371 31.4558C17.8401 31.3622 18.0853 31.3154 18.3725 31.3154C18.5352 31.3154 18.6932 31.3316 18.8463 31.364C18.9995 31.3946 19.1575 31.4348 19.3203 31.4844L19.1997 32.1463C19.0944 32.1139 18.9814 32.0832 18.8607 32.0547C18.7401 32.0259 18.5945 32.0116 18.4242 32.0116C18.2327 32.0116 18.0872 32.0565 17.9876 32.1463C17.8899 32.2343 17.841 32.3641 17.841 32.536V35.7768ZM18.4586 32.6765V33.261H16.5486V32.6765H18.4586ZM19.7052 32.6765V35.7768H18.8751V32.6765H19.7052ZM21.8276 35.8341C21.5863 35.8341 21.37 35.7958 21.1785 35.7195C20.987 35.6411 20.8243 35.5332 20.6903 35.3957C20.5581 35.2581 20.4567 35.0987 20.3859 34.9171C20.315 34.7338 20.2796 34.539 20.2796 34.3327V34.2179C20.2796 33.983 20.3131 33.7681 20.3801 33.5732C20.4472 33.3784 20.5429 33.2094 20.6673 33.0661C20.7937 32.9229 20.9469 32.813 21.1269 32.7367C21.3069 32.6583 21.5098 32.619 21.7358 32.619C21.9559 32.619 22.1512 32.6553 22.3217 32.728C22.4921 32.8006 22.6348 32.9038 22.7496 33.0374C22.8664 33.1711 22.9545 33.3317 23.0139 33.5189C23.0732 33.7041 23.103 33.9104 23.103 34.1378V34.4816H20.6329V33.9314H22.2902V33.8684C22.2902 33.7538 22.269 33.6516 22.2269 33.5618C22.1866 33.4701 22.1254 33.3975 22.043 33.3441C21.9607 33.2906 21.8555 33.2638 21.7272 33.2638C21.6181 33.2638 21.5242 33.2877 21.4456 33.3354C21.3672 33.3832 21.303 33.4501 21.2532 33.5361C21.2053 33.622 21.169 33.7233 21.1441 33.8397C21.1211 33.9544 21.1096 34.0805 21.1096 34.2179V34.3327C21.1096 34.4567 21.1269 34.5714 21.1614 34.6765C21.1977 34.7815 21.2485 34.8723 21.3135 34.9486C21.3806 35.0251 21.461 35.0843 21.5548 35.1263C21.6505 35.1684 21.7588 35.1894 21.8794 35.1894C22.0287 35.1894 22.1676 35.1608 22.2958 35.1034C22.426 35.0441 22.5381 34.9554 22.6319 34.837L23.0339 35.2724C22.9689 35.366 22.8798 35.4559 22.7669 35.5418C22.6558 35.6277 22.5217 35.6984 22.3647 35.7539C22.2077 35.8073 22.0287 35.8341 21.8276 35.8341ZM25.4092 35.1006V31.3754H26.2421V35.7768H25.4925L25.4092 35.1006ZM23.4447 34.2639V34.2037C23.4447 33.9668 23.4715 33.7518 23.5251 33.559C23.5787 33.3641 23.6572 33.197 23.7607 33.0576C23.864 32.918 23.9913 32.8101 24.1427 32.7338C24.2939 32.6573 24.4662 32.619 24.6597 32.619C24.8415 32.619 25.0004 32.6573 25.1364 32.7338C25.2742 32.8101 25.3911 32.919 25.4869 33.0603C25.5844 33.1999 25.663 33.3651 25.7224 33.5561C25.7817 33.7452 25.8247 33.9525 25.8516 34.1779V34.3097C25.8247 34.5256 25.7817 34.7261 25.7224 34.9114C25.663 35.0968 25.5844 35.2591 25.4869 35.3986C25.3911 35.5361 25.2742 35.643 25.1364 35.7195C24.9985 35.7958 24.8377 35.8341 24.6539 35.8341C24.4604 35.8341 24.2882 35.7949 24.1369 35.7166C23.9875 35.6383 23.8611 35.5285 23.7578 35.3872C23.6562 35.2456 23.5787 35.0795 23.5251 34.8884C23.4715 34.6975 23.4447 34.4893 23.4447 34.2639ZM24.2719 34.2037V34.2639C24.2719 34.3918 24.2815 34.5112 24.3006 34.622C24.3217 34.7328 24.3552 34.8312 24.4011 34.9171C24.449 35.0012 24.5103 35.0671 24.585 35.1148C24.6615 35.1608 24.7544 35.1837 24.8636 35.1837C25.0053 35.1837 25.1221 35.1521 25.2139 35.0892C25.3059 35.0242 25.3758 34.9353 25.4236 34.8226C25.4734 34.7099 25.5021 34.58 25.5099 34.4328V34.0575C25.504 33.9372 25.4869 33.8292 25.4581 33.7337C25.4312 33.6363 25.3911 33.5532 25.3375 33.4845C25.2857 33.4158 25.2207 33.3622 25.1421 33.324C25.0656 33.2859 24.9745 33.2667 24.8693 33.2667C24.7621 33.2667 24.6702 33.2915 24.5936 33.3412C24.517 33.389 24.4548 33.4548 24.4069 33.5388C24.361 33.6229 24.3264 33.7223 24.3034 33.8368C24.2824 33.9496 24.2719 34.0719 24.2719 34.2037Z" fill="white"/>
<path d="M12.1309 42.0127V44.0152H11.7188V42.0127H12.1309ZM14.1519 42.0127V44.0152H13.7384L12.9319 42.6729V44.0152H12.5183V42.0127H12.9319L13.7397 43.3564V42.0127H14.1519ZM15.1279 44.0152H14.6909L14.6937 43.6933H15.1279C15.2364 43.6933 15.3278 43.669 15.4023 43.6204C15.4767 43.5709 15.5328 43.4989 15.5704 43.4044C15.609 43.31 15.6284 43.1959 15.6284 43.062V42.9644C15.6284 42.8617 15.6173 42.7715 15.5953 42.6935C15.5741 42.6155 15.5425 42.5499 15.5001 42.4968C15.4578 42.4436 15.4059 42.4037 15.3443 42.3771C15.2827 42.3496 15.2121 42.3358 15.1321 42.3358H14.6826V42.0127H15.1321C15.2661 42.0127 15.3889 42.0356 15.5001 42.0814C15.6122 42.1263 15.7092 42.191 15.7909 42.2754C15.8728 42.3597 15.9358 42.4606 15.9799 42.5779C16.0249 42.6944 16.0474 42.8241 16.0474 42.9671V43.062C16.0474 43.2041 16.0249 43.3339 15.9799 43.4512C15.9358 43.5687 15.8728 43.6694 15.7909 43.7538C15.7102 43.8373 15.6131 43.9019 15.5001 43.9477C15.3881 43.9926 15.2639 44.0152 15.1279 44.0152ZM14.9253 42.0127V44.0152H14.5117V42.0127H14.9253ZM16.7877 42.0127V44.0152H16.3754V42.0127H16.7877ZM18.016 42.3551L17.4701 44.0152H17.0303L17.7761 42.0127H18.056L18.016 42.3551ZM18.4695 44.0152L17.9222 42.3551L17.8781 42.0127H18.1607L18.9106 44.0152H18.4695ZM18.4448 43.2697V43.593H17.3846V43.2697H18.4448Z" fill="white"/>
<path d="M20.6641 25.8281H21.0278C21.1025 25.8281 21.1665 25.8393 21.2201 25.8615C21.2741 25.8838 21.3157 25.9166 21.3446 25.9602C21.3737 26.0038 21.3883 26.0575 21.3883 26.1212C21.3883 26.1732 21.3792 26.2179 21.3614 26.2553C21.3441 26.2922 21.3193 26.3231 21.2871 26.3481C21.2554 26.3725 21.218 26.3921 21.1752 26.4068L21.1116 26.4401H20.7954L20.794 26.284H21.0292C21.0644 26.284 21.0937 26.2778 21.1169 26.2653C21.1402 26.2528 21.1576 26.2354 21.1691 26.2132C21.1813 26.191 21.1873 26.1652 21.1873 26.1358C21.1873 26.1047 21.1814 26.0778 21.1698 26.055C21.1582 26.0324 21.1406 26.015 21.1169 26.003C21.0932 25.991 21.0636 25.9849 21.0278 25.9849H20.865V26.8H20.6641V25.8281ZM21.2094 26.8L20.9869 26.3667L21.1993 26.3655L21.4244 26.7906V26.8H21.2094Z" fill="white"/>
<path d="M8.94742 39.5195V39.7837H7.77629V39.5583L8.33007 38.9655C8.38573 38.9036 8.42967 38.8492 8.46178 38.8023C8.49395 38.7545 8.51705 38.7119 8.53114 38.6743C8.54607 38.636 8.55353 38.5996 8.55353 38.5652C8.55353 38.5135 8.54491 38.4693 8.52766 38.4325C8.51042 38.3949 8.48494 38.366 8.45123 38.3456C8.41828 38.3253 8.37756 38.3151 8.32891 38.3151C8.27718 38.3151 8.23253 38.3276 8.19489 38.3527C8.15802 38.3777 8.12984 38.4125 8.11022 38.4572C8.09143 38.5018 8.08204 38.5523 8.08204 38.6086H7.74219C7.74219 38.5068 7.76651 38.4137 7.81509 38.3292C7.86366 38.2439 7.93232 38.1762 8.02085 38.1261C8.10945 38.0752 8.21445 38.0498 8.33599 38.0498C8.45592 38.0498 8.55707 38.0694 8.63936 38.1085C8.72242 38.1469 8.78516 38.2024 8.82749 38.2752C8.8706 38.3472 8.89216 38.4333 8.89216 38.5334C8.89216 38.5898 8.88315 38.645 8.86507 38.699C8.84705 38.7522 8.82119 38.8054 8.78747 38.8586C8.7546 38.9111 8.71457 38.9643 8.66754 39.0183C8.62051 39.0723 8.56839 39.1283 8.51119 39.1861L8.21368 39.5195H8.94742ZM10.3595 38.7788V39.0746C10.3595 39.203 10.3458 39.3137 10.3183 39.4069C10.2909 39.4992 10.2514 39.5751 10.1996 39.6346C10.1487 39.6933 10.0879 39.7367 10.0174 39.7649C9.94684 39.793 9.8684 39.8072 9.78219 39.8072C9.71321 39.8072 9.64894 39.7985 9.58936 39.7813C9.52978 39.7633 9.47612 39.7356 9.42825 39.698C9.38121 39.6604 9.34049 39.6131 9.306 39.5559C9.27228 39.498 9.24642 39.4291 9.2284 39.3493C9.21032 39.2695 9.20131 39.1779 9.20131 39.0746V38.7788C9.20131 38.6505 9.21508 38.5405 9.24249 38.449C9.27074 38.3566 9.31031 38.2811 9.36127 38.2224C9.413 38.1637 9.47412 38.1207 9.5447 38.0932C9.61522 38.0651 9.69359 38.051 9.77987 38.051C9.84884 38.051 9.91273 38.06 9.97148 38.078C10.0311 38.0952 10.0848 38.1222 10.1326 38.159C10.1804 38.1957 10.2212 38.2431 10.2549 38.301C10.2886 38.3581 10.3144 38.4266 10.3325 38.5065C10.3505 38.5855 10.3595 38.6763 10.3595 38.7788ZM10.0197 39.1192V38.733C10.0197 38.6712 10.0162 38.6172 10.0091 38.571C10.0029 38.5248 9.99303 38.4857 9.97971 38.4537C9.9664 38.4208 9.94992 38.3942 9.93036 38.3738C9.91074 38.3534 9.88841 38.3386 9.86332 38.3292C9.83823 38.3198 9.81043 38.3151 9.77987 38.3151C9.74146 38.3151 9.70736 38.3225 9.67757 38.3375C9.64855 38.3523 9.62384 38.3762 9.60345 38.409C9.58311 38.4411 9.56742 38.4842 9.55641 38.5381C9.54625 38.5914 9.54117 38.6563 9.54117 38.733V39.1192C9.54117 39.1811 9.54425 39.2355 9.55056 39.2824C9.55764 39.3294 9.5678 39.3697 9.58112 39.4033C9.59521 39.4362 9.61168 39.4632 9.63053 39.4843C9.65009 39.5047 9.67242 39.5195 9.69751 39.5289C9.72338 39.5383 9.75162 39.543 9.78219 39.543C9.81983 39.543 9.85316 39.5356 9.88211 39.5207C9.9119 39.5051 9.93699 39.4808 9.95739 39.4479C9.97856 39.4143 9.99426 39.3704 10.0044 39.3165C10.0146 39.2625 10.0197 39.1967 10.0197 39.1192ZM11.8093 39.5195V39.7837H10.6381V39.5583L11.192 38.9655C11.2476 38.9036 11.2915 38.8492 11.3237 38.8023C11.3558 38.7545 11.3789 38.7119 11.393 38.6743C11.4079 38.636 11.4154 38.5996 11.4154 38.5652C11.4154 38.5135 11.4067 38.4693 11.3895 38.4325C11.3722 38.3949 11.3468 38.366 11.3131 38.3456C11.2801 38.3253 11.2394 38.3151 11.1908 38.3151C11.139 38.3151 11.0944 38.3276 11.0567 38.3527C11.0199 38.3777 10.9917 38.4125 10.972 38.4572C10.9533 38.5018 10.9439 38.5523 10.9439 38.6086H10.604C10.604 38.5068 10.6283 38.4137 10.6769 38.3292C10.7256 38.2439 10.7941 38.1762 10.8827 38.1261C10.9713 38.0752 11.0763 38.0498 11.1978 38.0498C11.3178 38.0498 11.4189 38.0694 11.5012 38.1085C11.5843 38.1469 11.647 38.2024 11.6893 38.2752C11.7324 38.3472 11.754 38.4333 11.754 38.5334C11.754 38.5898 11.745 38.645 11.727 38.699C11.7089 38.7522 11.6831 38.8054 11.6494 38.8586C11.6164 38.9111 11.5765 38.9643 11.5294 39.0183C11.4824 39.0723 11.4302 39.1283 11.373 39.1861L11.0756 39.5195H11.8093ZM13.2402 39.5195V39.7837H12.0691V39.5583L12.6228 38.9655C12.6785 38.9036 12.7224 38.8492 12.7546 38.8023C12.7867 38.7545 12.8098 38.7119 12.8239 38.6743C12.8388 38.636 12.8463 38.5996 12.8463 38.5652C12.8463 38.5135 12.8377 38.4693 12.8204 38.4325C12.8032 38.3949 12.7777 38.366 12.744 38.3456C12.7111 38.3253 12.6703 38.3151 12.6217 38.3151C12.57 38.3151 12.5253 38.3276 12.4877 38.3527C12.4508 38.3777 12.4226 38.4125 12.403 38.4572C12.3842 38.5018 12.3747 38.5523 12.3747 38.6086H12.035C12.035 38.5068 12.0593 38.4137 12.1079 38.3292C12.1564 38.2439 12.225 38.1762 12.3136 38.1261C12.4022 38.0752 12.5072 38.0498 12.6288 38.0498C12.7487 38.0498 12.8498 38.0694 12.9321 38.1085C13.0152 38.1469 13.0779 38.2024 13.1203 38.2752C13.1634 38.3472 13.1849 38.4333 13.1849 38.5334C13.1849 38.5898 13.1759 38.645 13.1578 38.699C13.1398 38.7522 13.114 38.8054 13.0802 38.8586C13.0474 38.9111 13.0073 38.9643 12.9603 39.0183C12.9133 39.0723 12.8612 39.1283 12.804 39.1861L12.5065 39.5195H13.2402ZM14.8298 38.9173V39.1826H14.1654V38.9173H14.8298ZM16.965 39.5195V39.7837H15.7939V39.5583L16.3477 38.9655C16.4033 38.9036 16.4472 38.8492 16.4794 38.8023C16.5115 38.7545 16.5347 38.7119 16.5487 38.6743C16.5636 38.636 16.5711 38.5996 16.5711 38.5652C16.5711 38.5135 16.5625 38.4693 16.5452 38.4325C16.528 38.3949 16.5025 38.366 16.4688 38.3456C16.4359 38.3253 16.3951 38.3151 16.3465 38.3151C16.2948 38.3151 16.2501 38.3276 16.2124 38.3527C16.1756 38.3777 16.1474 38.4125 16.1278 38.4572C16.109 38.5018 16.0996 38.5523 16.0996 38.6086H15.7598C15.7598 38.5068 15.7841 38.4137 15.8327 38.3292C15.8813 38.2439 15.9499 38.1762 16.0385 38.1261C16.127 38.0752 16.2321 38.0498 16.3535 38.0498C16.4735 38.0498 16.5746 38.0694 16.6569 38.1085C16.74 38.1469 16.8027 38.2024 16.845 38.2752C16.8881 38.3472 16.9097 38.4333 16.9097 38.5334C16.9097 38.5898 16.9007 38.645 16.8827 38.699C16.8647 38.7522 16.8388 38.8054 16.8051 38.8586C16.7721 38.9111 16.7322 38.9643 16.6852 39.0183C16.6381 39.0723 16.586 39.1283 16.5287 39.1861L16.2313 39.5195H16.965ZM18.3771 38.7788V39.0746C18.3771 39.203 18.3634 39.3137 18.336 39.4069C18.3085 39.4992 18.2689 39.5751 18.2172 39.6346C18.1662 39.6933 18.1055 39.7367 18.035 39.7649C17.9644 39.793 17.886 39.8072 17.7998 39.8072C17.7308 39.8072 17.6665 39.7985 17.607 39.7813C17.5474 39.7633 17.4937 39.7356 17.4459 39.698C17.3988 39.6604 17.358 39.6131 17.3235 39.5559C17.2898 39.498 17.264 39.4291 17.2459 39.3493C17.2279 39.2695 17.2189 39.1779 17.2189 39.0746V38.7788C17.2189 38.6505 17.2326 38.5405 17.26 38.449C17.2883 38.3566 17.3279 38.2811 17.3788 38.2224C17.4305 38.1637 17.4917 38.1207 17.5623 38.0932C17.6328 38.0651 17.7112 38.051 17.7974 38.051C17.8664 38.051 17.9303 38.06 17.9891 38.078C18.0487 38.0952 18.1023 38.1222 18.1501 38.159C18.198 38.1957 18.2387 38.2431 18.2724 38.301C18.3062 38.3581 18.332 38.4266 18.35 38.5065C18.3681 38.5855 18.3771 38.6763 18.3771 38.7788ZM18.0373 39.1192V38.733C18.0373 38.6712 18.0337 38.6172 18.0267 38.571C18.0204 38.5248 18.0106 38.4857 17.9973 38.4537C17.984 38.4208 17.9675 38.3942 17.9479 38.3738C17.9284 38.3534 17.906 38.3386 17.8809 38.3292C17.8558 38.3198 17.828 38.3151 17.7974 38.3151C17.759 38.3151 17.7249 38.3225 17.6951 38.3375C17.6661 38.3523 17.6415 38.3762 17.6211 38.409C17.6007 38.4411 17.585 38.4842 17.574 38.5381C17.5638 38.5914 17.5587 38.6563 17.5587 38.733V39.1192C17.5587 39.1811 17.5619 39.2355 17.5681 39.2824C17.5752 39.3294 17.5853 39.3697 17.5987 39.4033C17.6128 39.4362 17.6293 39.4632 17.6481 39.4843C17.6677 39.5047 17.69 39.5195 17.7151 39.5289C17.741 39.5383 17.7692 39.543 17.7998 39.543C17.8374 39.543 17.8707 39.5356 17.8997 39.5207C17.9295 39.5051 17.9546 39.4808 17.975 39.4479C17.9961 39.4143 18.0118 39.3704 18.022 39.3165C18.0322 39.2625 18.0373 39.1967 18.0373 39.1192ZM19.8269 39.5195V39.7837H18.6557V39.5583L19.2095 38.9655C19.2652 38.9036 19.3091 38.8492 19.3412 38.8023C19.3734 38.7545 19.3965 38.7119 19.4106 38.6743C19.4255 38.636 19.4329 38.5996 19.4329 38.5652C19.4329 38.5135 19.4243 38.4693 19.407 38.4325C19.3898 38.3949 19.3643 38.366 19.3307 38.3456C19.2977 38.3253 19.2569 38.3151 19.2084 38.3151C19.1566 38.3151 19.1119 38.3276 19.0743 38.3527C19.0375 38.3777 19.0092 38.4125 18.9897 38.4572C18.9709 38.5018 18.9614 38.5523 18.9614 38.6086H18.6216C18.6216 38.5068 18.6459 38.4137 18.6945 38.3292C18.7431 38.2439 18.8117 38.1762 18.9003 38.1261C18.9889 38.0752 19.0939 38.0498 19.2154 38.0498C19.3354 38.0498 19.4364 38.0694 19.5188 38.1085C19.6019 38.1469 19.6646 38.2024 19.7069 38.2752C19.75 38.3472 19.7716 38.4333 19.7716 38.5334C19.7716 38.5898 19.7626 38.645 19.7445 38.699C19.7265 38.7522 19.7006 38.8054 19.6669 38.8586C19.634 38.9111 19.594 38.9643 19.547 39.0183C19.4999 39.0723 19.4478 39.1283 19.3906 39.1861L19.0931 39.5195H19.8269ZM20.4335 38.7824H20.6146C20.6726 38.7824 20.7204 38.7725 20.758 38.753C20.7956 38.7326 20.8235 38.7044 20.8415 38.6685C20.8603 38.6317 20.8698 38.589 20.8698 38.5405C20.8698 38.4967 20.8611 38.458 20.8438 38.4243C20.8274 38.3899 20.802 38.3633 20.7675 38.3445C20.733 38.3249 20.6894 38.3151 20.6369 38.3151C20.5954 38.3151 20.5569 38.3233 20.5217 38.3398C20.4864 38.3562 20.4582 38.3793 20.437 38.409C20.4158 38.4388 20.4053 38.4748 20.4053 38.5171H20.0655C20.0655 38.4231 20.0905 38.3413 20.1407 38.2717C20.1917 38.202 20.2599 38.1476 20.3453 38.1085C20.4308 38.0694 20.5248 38.0498 20.6275 38.0498C20.7435 38.0498 20.8451 38.0686 20.9321 38.1061C21.019 38.1429 21.0869 38.1974 21.1355 38.2694C21.1841 38.3413 21.2084 38.4305 21.2084 38.537C21.2084 38.591 21.1958 38.6434 21.1708 38.6943C21.1457 38.7444 21.1096 38.7897 21.0626 38.8305C21.0163 38.8704 20.9599 38.9025 20.8933 38.9267C20.8266 38.9502 20.7518 38.962 20.6687 38.962H20.4335V38.7824ZM20.4335 39.0394V38.8645H20.6687C20.7619 38.8645 20.8438 38.875 20.9144 38.8962C20.9849 38.9173 21.0441 38.9478 21.0919 38.9878C21.1398 39.0269 21.1758 39.0735 21.2002 39.1274C21.2244 39.1807 21.2366 39.2398 21.2366 39.3047C21.2366 39.3846 21.2213 39.4557 21.1908 39.5184C21.1601 39.5802 21.117 39.6326 21.0614 39.6757C21.0065 39.7187 20.9422 39.7516 20.8685 39.7743C20.7949 39.7962 20.7145 39.8072 20.6275 39.8072C20.5554 39.8072 20.4844 39.7973 20.4147 39.7778C20.3457 39.7575 20.283 39.7273 20.2266 39.6874C20.1709 39.6467 20.1262 39.5958 20.0925 39.5348C20.0596 39.473 20.0431 39.3998 20.0431 39.3153H20.383C20.383 39.3591 20.3939 39.3982 20.4158 39.4327C20.4378 39.4671 20.468 39.4941 20.5064 39.5137C20.5456 39.5332 20.5891 39.543 20.6369 39.543C20.691 39.543 20.7373 39.5332 20.7757 39.5137C20.8149 39.4933 20.8447 39.4651 20.865 39.4291C20.8862 39.3923 20.8968 39.3497 20.8968 39.3012C20.8968 39.2386 20.8854 39.1885 20.8627 39.1509C20.84 39.1126 20.8074 39.0844 20.7651 39.0664C20.7227 39.0484 20.6726 39.0394 20.6146 39.0394H20.4335Z" fill="white"/>
</svg>
