<svg width="77" height="29" viewBox="0 0 77 29" fill="none" xmlns="http://www.w3.org/2000/svg">
<path d="M9.45161 7.7395C5.5659 7.7395 2.60938 10.9103 2.60938 15.167V15.2104C2.60938 19.4671 5.65037 22.5945 9.83174 22.5945C12.197 22.5945 13.8864 21.6823 15.2802 19.9449L15.4491 19.7277L12.8727 17.5994L12.4504 18.0337C11.4789 18.9893 10.8032 19.1631 9.62056 19.1631C8.31124 19.1631 6.87521 18.1641 6.45285 16.8175H15.8715H16.1671V16.5135C16.2094 16.166 16.2094 15.7751 16.2094 15.471C16.2094 13.3861 15.6181 11.475 14.5622 10.1285C13.3373 8.52134 11.6056 7.7395 9.45161 7.7395ZM6.24167 13.7771L6.32615 13.473C6.66403 11.9962 7.97335 11.084 9.45161 11.084C11.0143 11.084 12.2814 12.0396 12.5771 13.473L12.6193 13.7771H6.24167Z" fill="#BC181F"/>
<path d="M38.3349 18.4243C37.3635 18.4243 36.561 17.6859 36.561 16.7303C36.561 16.6869 36.5188 16.1656 36.5188 15.5575V11.6483H40.3623V7.91286H36.5188V3.00464H32.4219V16.6434C32.4219 16.6869 32.4219 16.7303 32.4219 16.7303C32.4219 19.8142 35.0827 22.3335 38.3772 22.3335C38.4616 22.3335 38.5039 22.3335 40.6157 22.3335V18.4243C38.4616 18.4243 38.3772 18.4243 38.3349 18.4243Z" fill="#BC181F"/>
<path d="M24.6486 7.782C24.3952 7.782 24.0996 7.73856 23.8039 7.782C19.8337 7.91231 16.666 11.4306 16.7927 15.557C16.9194 19.5965 20.1294 22.637 24.0573 22.637C25.4089 22.637 26.3803 22.1592 27.5629 21.2905V22.3329H31.153V15.2095C31.153 11.3872 28.3232 8.08605 24.6486 7.782ZM24.0573 18.9015C22.1145 18.9015 20.5517 17.2944 20.5517 15.2964C20.5517 13.2983 22.1145 11.6912 24.0573 11.6912C26.0002 11.6912 27.5629 13.2983 27.5629 15.2964C27.5629 17.2944 26.0002 18.9015 24.0573 18.9015Z" fill="#BC181F"/>
<path d="M55.5678 7.91324C55.4833 7.91324 55.3566 7.86981 55.2722 7.86981C54.8498 7.78294 54.3852 7.7395 53.9628 7.7395C50.0349 7.7395 46.8672 11.0406 46.8672 15.1236C46.8672 15.5145 46.9094 15.9488 46.9517 16.3398C47.4163 19.9449 50.3728 22.551 54.0473 22.551C54.5964 22.551 55.1455 22.4642 55.6523 22.2904C56.2858 22.1167 56.8771 21.8995 57.4262 21.552V22.4207C57.4262 22.9854 57.2573 23.5501 56.9616 23.9844C56.5392 24.5925 55.7368 25.1572 54.343 25.1572C54.343 25.1572 51.9777 25.1572 51.3864 23.8976H47.5007C47.5007 23.8976 48.1343 28.7623 54.7653 28.7623C54.7653 28.7623 56.1169 28.6755 57.5951 28.1108C59.8337 27.2421 61.3119 24.9834 61.3119 22.5076V15.2104C61.2697 11.6921 58.9045 8.60821 55.5678 7.91324ZM57.384 15.6013C57.2995 16.4266 56.9194 17.2085 56.3703 17.7731C55.7368 18.3812 54.9343 18.7287 54.0051 18.7287C52.1045 18.7287 50.584 17.165 50.584 15.2104C50.584 14.9933 50.6262 14.7761 50.6684 14.5589C51.0063 12.9952 52.3579 11.779 54.0051 11.779C55.779 11.779 57.215 13.169 57.384 14.9498V15.6013Z" fill="#BC181F"/>
<path d="M69.166 7.7395C65.238 7.7395 62.0703 11.0406 62.0703 15.1236C62.0703 19.2065 65.238 22.5076 69.166 22.5076C73.0939 22.5076 76.2616 19.2065 76.2616 15.1236C76.2616 11.0406 73.0939 7.7395 69.166 7.7395ZM69.2504 18.7721C67.3498 18.7721 65.8293 17.2085 65.8293 15.2539C65.8293 13.2993 67.3498 11.7356 69.2504 11.7356C71.1511 11.7356 72.6716 13.2993 72.6716 15.2539C72.6716 17.165 71.1511 18.7721 69.2504 18.7721Z" fill="#BC181F"/>
<path d="M45.6047 7.91284H41.5078V22.3335H45.6047V7.91284Z" fill="#BC181F"/>
<path d="M43.5371 2.4834C42.2278 2.4834 41.1719 3.56929 41.1719 4.91579C41.1719 6.2623 42.2278 7.34819 43.5371 7.34819C44.8464 7.34819 45.9023 6.2623 45.9023 4.91579C45.8601 3.56929 44.8042 2.4834 43.5371 2.4834Z" fill="#BC181F"/>
<path fill-rule="evenodd" clip-rule="evenodd" d="M2.56493 11.1711C3.74754 8.82559 5.98605 7.1316 8.64692 6.82755C9.4494 6.5235 9.99847 5.69822 9.99847 4.78607C9.99847 3.56988 9.06928 2.61429 7.88667 2.61429C7.84443 2.61429 7.75996 2.61429 7.71773 2.61429C7.42207 1.5284 6.45064 0.703125 5.31027 0.703125C4.12766 0.703125 3.15623 1.5284 2.86058 2.61429C2.77611 2.61429 2.69164 2.57086 2.56493 2.57086C1.38232 2.57086 0.453125 3.56988 0.453125 4.74264C0.453125 5.95883 1.38232 6.91442 2.56493 6.91442V11.1711Z" fill="#F5831F"/>
</svg>
