<svg width="132" height="46" viewBox="0 0 132 46" fill="none" xmlns="http://www.w3.org/2000/svg">
<path d="M3.41612 29.8486H0.773438V37.1509H3.37244C5.84039 37.1509 7.47842 35.4825 7.47842 33.4673C7.47842 31.4521 5.88408 29.8486 3.41612 29.8486ZM3.43796 35.7208H2.4333V31.3221H3.43796C4.8139 31.3221 5.79671 32.2538 5.79671 33.5323C5.79671 34.8107 4.83574 35.7208 3.43796 35.7208Z" fill="#52606D"/>
<path d="M13.3301 34.1388C13.3301 35.1572 12.6967 35.7423 11.8449 35.7423C10.9932 35.7423 10.338 35.1356 10.338 34.1388V29.8701H8.65625V34.2038C8.65625 36.0673 9.90115 37.2807 11.8013 37.2807C13.7014 37.2807 14.9899 36.024 14.9899 34.1388V29.8701H13.3519V34.1388H13.3301Z" fill="#52606D"/>
<path d="M21.3223 33.3373C21.912 33.0122 22.2832 32.4055 22.2832 31.7338C22.2832 30.5204 21.2131 29.8486 19.9463 29.8486H16.6484V37.1509H20.1429C21.4752 37.1509 22.6108 36.3709 22.6108 35.1141C22.589 34.3123 22.0867 33.5973 21.3223 33.3373ZM19.5969 32.7956H18.3083V31.1487H19.5969C20.2521 31.1487 20.6015 31.5388 20.6015 31.9721C20.6015 32.4272 20.2521 32.7956 19.5969 32.7956ZM18.3083 34.009H19.8371C20.4923 34.009 20.9291 34.3774 20.9291 34.9191C20.9291 35.4174 20.5579 35.8508 19.8371 35.8508H18.3083V34.009Z" fill="#52606D"/>
<path d="M27.5716 29.8486H25.9335L22.9414 37.1509H24.6886L25.2783 35.6341H28.1394L28.7291 37.1509H30.5637L27.5934 29.8703L27.5716 29.8486ZM27.6808 34.3123H25.7588L26.7198 31.8205L27.6808 34.3123Z" fill="#52606D"/>
<path d="M33.1606 29.8486H31.457V37.1509H33.1606V29.8486Z" fill="#52606D"/>
<path d="M40.7434 29.8486H37.5547V37.1509H39.2364V34.8541H40.6997C42.4469 34.8541 43.5171 33.7056 43.5171 32.3188C43.4953 30.7804 42.3159 29.8486 40.7434 29.8486ZM39.2146 31.2788H40.5687C41.3767 31.2788 41.8354 31.7771 41.8354 32.3839C41.8354 32.9906 41.3767 33.4889 40.5687 33.4889H39.2146V31.2788Z" fill="#52606D"/>
<path d="M48.2548 29.7617C46.0707 29.7617 44.3672 31.4085 44.3672 33.5537C44.3672 35.6556 45.9834 37.2807 48.2111 37.2807C50.3951 37.2807 52.0987 35.6339 52.0987 33.5104C52.0987 31.3869 50.4825 29.7617 48.2548 29.7617ZM48.2329 35.7422C46.9443 35.7422 46.0271 34.7888 46.0271 33.5104C46.0271 32.2753 46.9225 31.2785 48.2329 31.2785C49.4997 31.2785 50.4388 32.2319 50.4388 33.5104C50.417 34.7671 49.4997 35.7422 48.2329 35.7422Z" fill="#52606D"/>
<path d="M68.2607 34.9392C67.8457 35.4592 67.2124 35.7626 66.5571 35.7409C65.2904 35.7409 64.3513 34.8092 64.3513 33.5091C64.3513 32.209 65.2686 31.2772 66.5571 31.2772C67.1905 31.2556 67.802 31.5372 68.217 32.0139L68.2388 32.0356L69.4619 30.9522L69.4401 30.9305C68.6975 30.1288 67.671 29.6954 66.579 29.7171C64.395 29.7171 62.6914 31.3856 62.6914 33.5091C62.6914 35.6326 64.3513 37.2361 66.5353 37.2361C67.671 37.2577 68.7412 36.781 69.4838 35.936L69.5056 35.9143L68.2825 34.8742L68.2607 34.9392Z" fill="#52606D"/>
<path d="M55.1114 29.8486H53.4297V37.1726H58.6495V35.6775H55.1114V29.8486Z" fill="#52606D"/>
<path d="M61.3364 29.8486H59.6328V37.1509H61.3364V29.8486Z" fill="#52606D"/>
<path d="M72.1911 35.7208V34.0957H75.4453V32.7305H72.1911V31.3004H75.9695V29.8486H70.5312V37.1726H76.0787V35.7208H72.1911Z" fill="#52606D"/>
<path d="M41.2873 12.1234C41.8989 12.1234 42.3793 11.6464 42.3793 11.0395C42.3793 10.4325 41.8989 9.95557 41.2873 9.95557C40.6758 9.95557 40.1953 10.4325 40.1953 11.0395C40.1953 11.6248 40.6758 12.1234 41.2873 12.1234Z" fill="#52606D"/>
<path d="M70.092 10.4769C70.7035 10.4769 71.184 9.99996 71.184 9.39298C71.184 8.786 70.7035 8.30908 70.092 8.30908C69.4805 8.30908 69 8.786 69 9.39298C69 9.99996 69.5023 10.4769 70.092 10.4769Z" fill="#52606D"/>
<path d="M68.592 12.991C69.2035 12.991 69.684 12.5141 69.684 11.9071C69.684 11.3002 69.2035 10.8232 68.592 10.8232C67.9805 10.8232 67.5 11.3002 67.5 11.9071C67.5 12.4924 67.9805 12.991 68.592 12.991Z" fill="#52606D"/>
<path d="M70.5312 11.9078C70.5312 12.5148 71.0117 12.9917 71.6233 12.9917C72.2348 12.9917 72.7153 12.5148 72.7153 11.9078C72.7153 11.3008 72.2348 10.8239 71.6233 10.8239C71.0117 10.8022 70.5312 11.3008 70.5312 11.9078Z" fill="#52606D"/>
<path d="M74.486 13.251L72.6514 14.3561C73.0882 15.0711 74.3549 17.5197 73.7652 20.9866H71.1881V14.3561H69.0259V20.9866H67.3879V14.3561H65.2257V20.9866H62.168V13.4893H60.0058V21.9184C60.0058 23.6519 58.5862 25.0387 56.839 25.0603H56.293V27.2055H56.839C59.3069 27.2055 61.4254 25.5154 62.0151 23.1535H75.4906L75.6872 22.3301C76.8447 17.6063 75.0538 14.1827 74.486 13.251Z" fill="#52606D"/>
<path d="M27.7913 13.228L26.8303 15.1349C29.6259 16.5216 29.8006 19.2735 29.5822 20.9854H24.7773V23.1305H31.3731L31.5697 22.2855C32.8801 16.2833 29.0144 13.8347 27.7913 13.228Z" fill="#52606D"/>
<path d="M57.492 23.1317L58.0599 21.2249C58.5622 19.4914 58.2346 17.6279 57.1644 16.1761C55.2643 13.6409 51.6825 13.1209 49.1272 15.0061C49.018 15.0711 48.9306 15.1577 48.8214 15.2444L46.9213 16.8479V11.019H44.7809V20.9866H42.3567V13.4893H40.1289C37.1587 13.4893 34.7344 15.8945 34.7344 18.8414V23.1534H36.8966V18.8414C36.8966 17.0646 38.338 15.6344 40.1289 15.6344H40.1945V23.1534L57.492 23.1317ZM46.9431 19.6648L50.241 16.8695C51.748 15.5911 54.0194 15.7644 55.308 17.2812C55.3517 17.3463 55.4172 17.4113 55.4608 17.4763C56.1379 18.3863 56.3563 19.5564 56.0287 20.6399L55.9195 21.0082H46.965L46.9431 19.6648Z" fill="#52606D"/>
<path d="M21.217 24.4956C20.6055 24.4956 20.125 24.9725 20.125 25.5795C20.125 26.1865 20.6055 26.6634 21.217 26.6634C21.8285 26.6634 22.309 26.1865 22.309 25.5795C22.3309 24.9942 21.8285 24.4956 21.217 24.4956Z" fill="#52606D"/>
<path d="M9.72874 24.4956C9.11721 24.4956 8.63672 24.9725 8.63672 25.5795C8.63672 26.1865 9.11721 26.6634 9.72874 26.6634C10.3403 26.6634 10.8208 26.1865 10.8208 25.5795C10.8208 24.9942 10.3184 24.4956 9.72874 24.4956Z" fill="#52606D"/>
<path d="M6.95139 24.4956C6.33986 24.4956 5.85938 24.9725 5.85938 25.5795C5.85938 26.1865 6.33986 26.6634 6.95139 26.6634C7.56292 26.6634 8.04341 26.1865 8.04341 25.5795C8.06525 24.9942 7.56292 24.4956 6.95139 24.4956Z" fill="#52606D"/>
<path d="M38.5998 12.1234C39.2114 12.1234 39.6918 11.6464 39.6918 11.0395C39.6918 10.4325 39.2114 9.95557 38.5998 9.95557C37.9883 9.95557 37.5078 10.4325 37.5078 11.0395C37.5078 11.6248 37.9883 12.1234 38.5998 12.1234Z" fill="#52606D"/>
<path d="M21.3268 19.6878C21.3268 20.4029 20.7371 20.9879 20.0164 20.9879H19.0336V13.4906H16.7622C13.8574 13.4906 11.5642 15.8308 11.5642 18.8427V21.0096H2.93723V20.7279C2.93723 18.4744 3.48324 16.2642 4.55341 14.2707L2.6533 13.2739C1.43024 15.5708 0.796875 18.1493 0.796875 20.7496V23.1764H13.7482V18.8644C13.7482 17.0442 15.0586 15.6575 16.784 15.6575H16.8932V23.1764H20.0164C21.9383 23.1764 23.489 21.638 23.489 19.7311V13.4906H21.3268V19.6878Z" fill="#52606D"/>
<path d="M131.4 25.7316C131.028 25.7099 130.635 25.7316 130.286 25.7966C130.57 25.4932 130.81 25.1898 131.028 24.8431C131.836 23.5864 132.033 22.0696 131.618 20.6611C131.247 20.7261 130.875 20.8128 130.548 20.9645C130.744 20.6178 130.919 20.2494 131.05 19.8811C131.553 18.4943 131.443 16.9558 130.723 15.6557C130.373 15.7857 130.046 15.9591 129.74 16.1757C129.871 15.7857 129.958 15.3957 130.002 15.0056C130.22 13.5322 129.783 12.0587 128.822 10.932C128.517 11.1486 128.211 11.387 127.971 11.647C128.014 11.257 128.014 10.8453 127.993 10.4336C127.883 8.96012 127.141 7.595 125.94 6.72826C125.677 6.98829 125.437 7.29164 125.263 7.61667C125.219 7.22664 125.131 6.81494 125.022 6.44657C124.607 5.03812 123.581 3.86802 122.249 3.23963C122.052 3.56466 121.877 3.88969 121.768 4.23638C121.637 3.84635 121.484 3.47798 121.288 3.13129C120.589 1.83118 119.344 0.899429 117.88 0.574401C117.618 1.28946 117.531 2.06953 117.597 2.82793C117.444 2.69792 117.247 2.58958 117.051 2.45956C115.784 1.6795 114.233 1.50615 112.814 1.93952C113.076 3.39131 113.971 4.64808 115.26 5.40648C115.456 5.51482 115.653 5.62317 115.827 5.70984C115.107 5.99153 114.452 6.4249 113.949 6.98828C114.735 7.92003 115.849 8.52675 117.072 8.72177C117.662 9.78352 118.601 10.5853 119.737 11.0186C120.086 12.1671 120.829 13.1638 121.855 13.8355C121.943 15.0273 122.467 16.1757 123.319 17.0208C123.144 18.2126 123.428 19.426 124.083 20.4444C123.668 21.5712 123.668 22.828 124.105 23.9547C123.45 24.9732 123.21 26.1866 123.384 27.3784C122.532 28.2451 122.03 29.3719 121.943 30.5853C120.938 31.257 120.196 32.2538 119.846 33.4022C118.71 33.8356 117.771 34.659 117.203 35.7207C116.002 35.9158 114.91 36.5225 114.124 37.4326C112.661 37.3676 111.219 37.9093 110.193 38.971C109.472 39.6861 109.079 40.3578 108.86 41.0079C108.664 41.6579 107.987 42.0263 107.332 41.8313C106.938 41.7229 106.633 41.3979 106.502 41.0079C106.305 40.3578 105.89 39.6644 105.169 38.971C104.143 37.9309 102.701 37.3676 101.238 37.4326C100.452 36.5225 99.3599 35.8941 98.1805 35.6991C97.6126 34.6373 96.6735 33.8139 95.5378 33.3805C95.2102 32.2321 94.4676 31.2137 93.4411 30.5636C93.3538 29.3719 92.8515 28.2234 91.9997 27.3567C92.1744 26.1649 91.9123 24.9515 91.2789 23.9331C91.6939 22.8063 91.7158 21.5495 91.3008 20.4228C91.956 19.4043 92.2181 18.1909 92.0652 16.9991C92.917 16.1541 93.4411 15.0056 93.5285 13.8139C94.555 13.1638 95.2976 12.1671 95.647 10.997C96.7827 10.5636 97.7218 9.74019 98.3115 8.7001C99.5346 8.50508 100.627 7.89836 101.435 6.96661C100.911 6.40323 100.277 5.96986 99.5564 5.68817C99.753 5.6015 99.9277 5.49316 100.124 5.38482C101.413 4.62642 102.286 3.36964 102.57 1.91785C101.151 1.48448 99.6001 1.6795 98.3334 2.4379C98.1368 2.54624 97.9621 2.67625 97.7874 2.80626C97.8747 2.04786 97.7874 1.2678 97.5253 0.552734C96.0838 0.877762 94.8389 1.80951 94.1182 3.10962C93.9216 3.45632 93.7687 3.82468 93.6377 4.21471C93.5067 3.86802 93.3538 3.52132 93.1572 3.21796C91.8031 3.84635 90.7985 5.01645 90.3835 6.4249C90.2743 6.81494 90.1869 7.20497 90.1433 7.595C89.9467 7.26997 89.7283 6.98828 89.4662 6.70659C88.265 7.595 87.5224 8.96012 87.4132 10.4336C87.3695 10.8236 87.3914 11.2353 87.4351 11.647C87.173 11.3653 86.889 11.127 86.5833 10.932C85.6005 12.0587 85.1637 13.5322 85.3821 14.984C85.4257 15.374 85.5131 15.7857 85.6441 16.1541C85.3384 15.9374 85.0108 15.764 84.6613 15.634C83.9406 16.9341 83.8314 18.4726 84.3337 19.8594C84.4648 20.2494 84.6395 20.5961 84.836 20.9428C84.4866 20.7911 84.1153 20.7045 83.7659 20.6395C83.3509 22.0479 83.5475 23.5864 84.3556 24.8215C84.574 25.1682 84.8142 25.4932 85.0981 25.7749C84.7269 25.7099 84.3556 25.6882 83.9843 25.7099C83.8751 27.1833 84.3992 28.6351 85.4476 29.6752C85.7315 29.9569 86.0373 30.2386 86.3649 30.4553C85.9936 30.4553 85.6223 30.5203 85.251 30.607C85.4476 32.0804 86.2775 33.3805 87.5224 34.1823C87.85 34.399 88.2213 34.594 88.5926 34.7673C88.2213 34.854 87.8719 34.984 87.5443 35.1574C88.0466 36.5441 89.1386 37.6492 90.5364 38.191C90.9077 38.3426 91.3008 38.451 91.6939 38.5377C91.3663 38.711 91.0387 38.906 90.7548 39.1444C91.541 40.4011 92.8515 41.2462 94.3148 41.4846C94.7079 41.5496 95.1229 41.5929 95.516 41.5712C95.2321 41.8096 94.9481 42.0696 94.7297 42.3513C95.7781 43.4131 97.2195 43.9764 98.7047 43.8898C99.1196 43.8681 99.5128 43.8248 99.9059 43.7381C99.6656 44.0198 99.4691 44.3448 99.2944 44.6698C100.539 45.4932 102.068 45.7316 103.51 45.3416C104.143 45.1899 104.733 44.9299 105.279 44.5615C106.764 43.5431 108.729 43.5431 110.236 44.5615C110.782 44.9082 111.372 45.1899 112.005 45.3416C113.447 45.7316 114.976 45.4932 116.221 44.6698C116.046 44.3448 115.849 44.0198 115.609 43.7381C116.002 43.8248 116.395 43.8898 116.81 43.8898C118.295 43.9764 119.737 43.4131 120.785 42.3513C120.545 42.0696 120.283 41.7879 119.999 41.5712C120.414 41.5712 120.807 41.5496 121.2 41.4846C122.664 41.2462 123.974 40.4011 124.76 39.1444C124.476 38.906 124.149 38.711 123.821 38.5377C124.214 38.451 124.607 38.3426 124.979 38.191C126.376 37.6492 127.468 36.5441 127.971 35.1574C127.643 34.984 127.294 34.854 126.922 34.7673C127.294 34.6157 127.643 34.4206 127.993 34.1823C129.237 33.3805 130.067 32.0588 130.264 30.607C129.893 30.5203 129.521 30.4553 129.15 30.4553C129.478 30.2169 129.783 29.9569 130.067 29.6752C130.963 28.6351 131.509 27.205 131.4 25.7316ZM98.7483 36.7825C99.622 37.1075 100.386 37.7142 100.889 38.4943C101.522 39.4911 101.74 40.3578 101.588 41.1379C100.801 40.9645 100.102 40.4011 99.4691 39.4044C98.9449 38.6243 98.7047 37.6926 98.7483 36.7825ZM95.8873 34.5506C96.6735 35.049 97.285 35.8074 97.5908 36.6742C98.0058 37.7793 98.0276 38.6677 97.7218 39.4044C97.0011 39.0577 96.4333 38.3643 96.0183 37.2809C95.6689 36.4141 95.6252 35.4607 95.8873 34.5506ZM93.5285 31.7987C94.1837 32.4705 94.6205 33.3155 94.7516 34.2473C94.9263 35.4174 94.7516 36.2841 94.2929 36.9342C93.6595 36.4575 93.2446 35.6557 93.0699 34.4856C92.9388 33.5539 93.0917 32.6221 93.5285 31.7987ZM91.825 28.6135C92.3273 29.3935 92.5675 30.3253 92.502 31.257C92.4146 32.4271 92.0652 33.2505 91.4755 33.7922C90.9513 33.1855 90.7111 32.3188 90.7985 31.1487C90.864 30.2169 91.2134 29.3285 91.825 28.6135ZM88.6363 23.413C89.0731 22.5896 89.772 21.9179 90.6237 21.5279C90.7548 22.4596 90.5801 23.3914 90.1433 24.2148C89.5754 25.2548 88.9202 25.8616 88.1558 26.0999C87.9374 25.3199 88.0684 24.4531 88.6363 23.413ZM87.7845 21.8962C87.7408 21.0945 88.0684 20.2711 88.8328 19.361C89.4444 18.646 90.2525 18.1476 91.1697 17.9309C91.1042 18.8626 90.7329 19.751 90.1214 20.4444C89.357 21.3545 88.5707 21.8096 87.7845 21.8962ZM89.3133 27.3784C89.5754 26.49 90.0996 25.6882 90.8421 25.1248C91.1697 25.9916 91.2134 26.945 90.9513 27.8551C90.6237 28.9818 90.0996 29.7186 89.4225 30.1086C89.0294 29.4152 88.9857 28.5051 89.3133 27.3784ZM90.8858 16.8041C89.9467 17.5192 89.0949 17.8009 88.2868 17.7142C88.396 16.9341 88.8984 16.1757 89.8375 15.4607C90.5801 14.8973 91.4755 14.5723 92.4146 14.5506C92.1744 15.4607 91.6284 16.2407 90.8858 16.8041ZM100.059 7.00995C99.3162 7.57334 98.3989 7.89837 97.4598 7.89837C96.2804 7.92003 95.4068 7.63834 94.8389 7.09663C95.4068 6.53325 96.2585 6.22989 97.4379 6.20822C98.3552 6.20822 99.2944 6.46824 100.059 7.00995ZM98.6828 3.19629C99.4909 2.71959 100.43 2.5029 101.347 2.58957C100.998 3.45632 100.365 4.17138 99.5564 4.64808C98.5299 5.2548 97.6563 5.44982 96.8701 5.2548C97.0885 4.4964 97.6782 3.80301 98.6828 3.19629ZM94.7952 3.54299C95.2539 2.71959 95.9528 2.06953 96.8046 1.6795C96.9356 2.61124 96.739 3.54299 96.2804 4.34473C95.7125 5.38481 95.0355 5.96986 94.2711 6.20822C94.0745 5.44982 94.2274 4.56141 94.7952 3.54299ZM94.2492 8.74344C95.1665 8.52675 96.1275 8.61343 96.9793 8.98179C96.3677 9.69685 95.5378 10.1952 94.6424 10.3902C93.4848 10.6503 92.5894 10.5636 91.9123 10.1736C92.3273 9.50184 93.0917 9.02513 94.2492 8.74344ZM91.1261 6.66326C91.3882 5.77485 91.9342 4.99478 92.6986 4.4314C93.0262 5.29814 93.048 6.27322 92.7641 7.16163C92.4146 8.28839 91.8905 9.02513 91.1916 9.39349C90.8203 8.7001 90.7766 7.81169 91.1261 6.66326ZM91.6939 11.8637C92.5457 11.452 93.5067 11.3437 94.424 11.517C93.9872 12.3404 93.2883 12.9905 92.4365 13.3805C91.3663 13.8789 90.4709 13.9872 89.7064 13.7272C89.9685 13.0121 90.6237 12.3837 91.6939 11.8637ZM88.1776 10.4986C88.2431 9.56684 88.6144 8.67843 89.226 7.98504C89.7283 8.78677 89.9467 9.69685 89.8593 10.6286C89.772 11.7987 89.4007 12.6221 88.811 13.1421C88.3087 12.5354 88.0903 11.6687 88.1776 10.4986ZM86.627 12.1887C87.2822 12.8605 87.6971 13.7272 87.8063 14.6373C87.9592 15.8074 87.7845 16.6741 87.304 17.3242C86.6706 16.8258 86.2775 16.0241 86.1246 14.8756C85.9936 13.9439 86.1683 13.0121 86.627 12.1887ZM84.9671 16.8475C85.7533 17.3675 86.343 18.1259 86.6488 18.9926C87.0419 20.0977 87.0638 20.9862 86.7362 21.7229C86.0154 21.3762 85.4476 20.6828 85.0545 19.5777C84.7268 18.6893 84.705 17.7359 84.9671 16.8475ZM84.3119 21.7229C85.1855 22.0696 85.9281 22.6763 86.4086 23.478C87.0419 24.4748 87.2385 25.3415 87.0638 26.1216C86.2994 25.9266 85.5786 25.3632 84.9671 24.3664C84.4866 23.5864 84.2464 22.6546 84.3119 21.7229ZM85.9499 29.0902C85.2947 28.4185 84.8797 27.5734 84.7487 26.6416C85.666 26.7933 86.5178 27.2484 87.173 27.9201C88.0029 28.7652 88.3742 29.5669 88.3742 30.3686C87.5661 30.3253 86.7798 29.9352 85.9499 29.0902ZM87.8937 33.4889C87.1074 32.9688 86.5178 32.2321 86.1902 31.3437C87.1293 31.3004 88.0466 31.5604 88.8328 32.0804C89.8156 32.7305 90.3617 33.4456 90.5364 34.2256C89.7501 34.3773 88.8765 34.1606 87.8937 33.4889ZM90.7329 37.4109C89.8593 37.0642 89.1168 36.4575 88.6144 35.6774C89.5317 35.4391 90.4927 35.5041 91.3445 35.8508C92.4583 36.2841 93.1354 36.8692 93.463 37.5842C92.7204 37.8659 91.825 37.8443 90.7329 37.4109ZM94.3148 40.6395C93.3975 40.4878 92.5238 40.0545 91.8686 39.3827C92.6986 38.9494 93.6595 38.8193 94.5768 38.971C95.7562 39.166 96.5425 39.5994 97.023 40.2278C96.3896 40.6828 95.4941 40.8345 94.3148 40.6395ZM98.5299 43.023C97.5908 43.0664 96.6735 42.828 95.8873 42.308C96.608 41.7229 97.5253 41.3762 98.4644 41.3329C99.6438 41.2679 100.517 41.5279 101.107 42.048C100.561 42.633 99.7093 42.9797 98.5299 43.023ZM103.16 44.4965C102.265 44.7349 101.282 44.6915 100.408 44.3448C100.998 43.6081 101.806 43.088 102.723 42.8714C103.881 42.568 104.776 42.633 105.475 43.023C105.038 43.6948 104.296 44.1931 103.16 44.4965ZM103.291 40.7695C102.614 40.1195 102.177 39.2527 102.046 38.3426C102.985 38.4943 103.837 38.9277 104.492 39.5777C105.322 40.4228 105.715 41.2246 105.737 42.0046C104.929 41.9829 104.121 41.5929 103.291 40.7695ZM130.919 21.7229C130.985 22.6546 130.766 23.5864 130.264 24.3664C129.631 25.3632 128.932 25.9266 128.167 26.1216C128.014 25.3415 128.189 24.4748 128.822 23.478C129.303 22.6763 130.046 22.0696 130.919 21.7229ZM130.264 16.8258C130.526 17.7142 130.504 18.6676 130.177 19.556C129.783 20.6611 129.216 21.3545 128.495 21.7012C128.167 20.9861 128.167 20.0761 128.582 18.971C128.91 18.1042 129.5 17.3458 130.264 16.8258ZM127.425 14.6373C127.534 13.7055 127.971 12.8605 128.604 12.1887C129.063 13.0121 129.237 13.9439 129.106 14.854C128.954 16.0241 128.539 16.8258 127.927 17.3025C127.447 16.6958 127.272 15.8074 127.425 14.6373ZM125.11 24.2148C124.651 23.3914 124.498 22.4596 124.629 21.5279C125.481 21.9179 126.18 22.5896 126.617 23.413C127.184 24.4531 127.315 25.3415 127.097 26.0999C126.333 25.8616 125.677 25.2548 125.11 24.2148ZM125.852 30.1086C125.153 29.7186 124.651 28.9818 124.323 27.8551C124.061 26.9667 124.105 26.0133 124.433 25.1248C125.175 25.6882 125.721 26.49 125.961 27.3784C126.267 28.5268 126.223 29.4152 125.852 30.1086ZM125.131 20.4661C124.52 19.751 124.149 18.8626 124.083 17.9526C125 18.1692 125.809 18.6676 126.42 19.3827C127.184 20.2711 127.512 21.1162 127.468 21.9179C126.682 21.8312 125.896 21.3762 125.131 20.4661ZM126.005 8.00671C126.617 8.7001 126.988 9.5885 127.053 10.5203C127.141 11.6904 126.922 12.5571 126.42 13.1638C125.83 12.6438 125.459 11.8204 125.372 10.6503C125.284 9.71852 125.503 8.78677 126.005 8.00671ZM122.576 4.4314C123.319 4.99478 123.887 5.77485 124.149 6.66326C124.498 7.79002 124.454 8.67843 124.083 9.39349C123.384 9.00346 122.86 8.28839 122.511 7.16163C122.227 6.25155 122.249 5.29814 122.576 4.4314ZM118.448 1.6795C119.3 2.06953 119.999 2.71959 120.458 3.54299C121.025 4.58308 121.178 5.44982 120.982 6.22989C120.217 5.99153 119.54 5.40648 118.972 4.36639C118.514 3.54299 118.317 2.58957 118.448 1.6795ZM115.675 4.64808C114.867 4.17138 114.233 3.45632 113.884 2.58957C114.823 2.5029 115.762 2.71959 116.548 3.19629C117.575 3.80301 118.143 4.4964 118.339 5.2548C117.575 5.44982 116.701 5.2548 115.675 4.64808ZM117.793 7.89837C116.854 7.8767 115.937 7.57334 115.194 7.00995C115.959 6.46824 116.876 6.18655 117.815 6.20822C118.994 6.22989 119.846 6.53325 120.414 7.09663C119.846 7.66001 118.972 7.92003 117.793 7.89837ZM118.252 8.98179C119.104 8.61343 120.065 8.52675 120.982 8.74344C122.139 9.02513 122.904 9.50183 123.341 10.1519C122.663 10.5636 121.746 10.6503 120.611 10.3686C119.693 10.1736 118.863 9.67518 118.252 8.98179ZM120.829 11.517C121.746 11.3437 122.707 11.452 123.559 11.8637C124.629 12.3621 125.263 12.9905 125.546 13.7489C124.782 14.0089 123.887 13.9005 122.816 13.4022C121.965 13.0121 121.266 12.3404 120.829 11.517ZM122.816 14.5506C123.756 14.5723 124.673 14.8973 125.394 15.4607C126.333 16.1757 126.835 16.9341 126.944 17.7142C126.158 17.8009 125.284 17.5192 124.345 16.8041C123.603 16.2407 123.057 15.439 122.816 14.5506ZM123.428 28.6135C124.039 29.3285 124.389 30.2169 124.454 31.1487C124.542 32.3188 124.302 33.1855 123.777 33.7922C123.188 33.2505 122.838 32.4271 122.751 31.257C122.685 30.3253 122.904 29.3935 123.428 28.6135ZM120.501 34.2473C120.632 33.3155 121.069 32.4705 121.724 31.7987C122.161 32.6221 122.336 33.5539 122.183 34.4856C122.008 35.6557 121.593 36.4358 120.96 36.9342C120.479 36.2841 120.327 35.3957 120.501 34.2473ZM117.662 36.6958C117.99 35.8291 118.579 35.0707 119.366 34.5723C119.628 35.4607 119.584 36.4141 119.256 37.3025C118.841 38.4076 118.274 39.101 117.553 39.4261C117.203 38.6893 117.247 37.8009 117.662 36.6958ZM114.364 38.4943C114.867 37.7142 115.609 37.1075 116.483 36.7608C116.548 37.6926 116.308 38.6243 115.784 39.4044C115.15 40.4011 114.43 40.9429 113.665 41.1379C113.512 40.3578 113.731 39.4694 114.364 38.4943ZM110.761 39.5561C111.416 38.8843 112.268 38.451 113.207 38.321C113.076 39.2527 112.639 40.0978 111.962 40.7478C111.132 41.5929 110.324 41.9829 109.516 41.9829C109.537 41.2029 109.931 40.4011 110.761 39.5561ZM112.093 44.4965C110.935 44.1931 110.193 43.6948 109.778 43.023C110.477 42.633 111.372 42.568 112.53 42.8714C113.447 43.1097 114.255 43.6298 114.845 44.3448C113.971 44.6915 113.01 44.7349 112.093 44.4965ZM116.723 43.023C115.544 42.958 114.692 42.633 114.146 42.048C114.757 41.5279 115.609 41.2679 116.788 41.3329C117.728 41.3762 118.623 41.7013 119.366 42.308C118.601 42.828 117.662 43.088 116.723 43.023ZM120.916 40.6395C119.737 40.8345 118.863 40.6828 118.208 40.2278C118.689 39.5994 119.475 39.166 120.654 38.971C121.571 38.8193 122.532 38.9494 123.362 39.3827C122.707 40.0328 121.855 40.4878 120.916 40.6395ZM124.52 37.4109C123.406 37.8443 122.511 37.8876 121.768 37.5842C122.096 36.8692 122.773 36.2841 123.887 35.8508C124.76 35.5041 125.721 35.4391 126.617 35.6774C126.136 36.4575 125.394 37.0642 124.52 37.4109ZM129.063 31.3654C128.735 32.2321 128.145 32.9905 127.359 33.5106C126.376 34.1606 125.503 34.399 124.716 34.2473C124.891 33.4672 125.437 32.7522 126.42 32.1021C127.184 31.5821 128.124 31.322 129.063 31.3654ZM126.879 30.3686C126.879 29.5669 127.25 28.7652 128.08 27.9201C128.735 27.2484 129.587 26.7933 130.504 26.6416C130.373 27.5734 129.958 28.4185 129.303 29.0902C128.473 29.9352 127.665 30.347 126.879 30.3686Z" fill="#52606D"/>
<path d="M94.1836 24.864V25.4707C94.948 26.9442 95.8216 28.3743 96.7826 29.7394H94.6204C94.6204 29.7394 95.0572 30.6278 96.3676 30.6278H118.841C120.174 30.6278 120.589 29.7394 120.589 29.7394H118.623C119.628 28.266 120.523 26.7492 121.331 25.1674H122.401V23.4772H116.548C110.389 18.5151 109.079 10.0427 112.661 3.69385C102.439 5.70902 94.7514 14.5498 94.1836 24.864ZM94.6422 24.8857C97.678 23.0222 101.151 21.9387 104.711 21.7437V24.8857H94.6422ZM116.068 24.1923L115.565 24.864H106.13V21.7004C109.581 21.7221 112.988 22.5888 116.068 24.1923ZM114.124 22.3504C107.943 19.9669 101.02 20.4003 95.2101 23.5422C96.3021 14.7665 102.548 7.48584 111.088 4.99396C108.642 10.8661 109.843 17.6267 114.124 22.3504Z" fill="#52606D"/>
<path d="M106.636 38.0197H108.624C109.956 38.0197 110.371 37.1309 110.371 37.1309H104.867C104.867 37.1309 105.304 38.0197 106.636 38.0197Z" fill="#52606D"/>
<path d="M114.386 35.2886H100.867C100.867 35.2886 101.304 36.1774 102.614 36.1774H112.617C113.95 36.1557 114.386 35.2886 114.386 35.2886Z" fill="#52606D"/>
<path d="M117.447 33.4233H97.8125C97.8125 33.4233 98.2493 34.3121 99.5597 34.3121H115.678C117.01 34.3121 117.447 33.4233 117.447 33.4233Z" fill="#52606D"/>
<path d="M119.3 31.5811H95.9531C95.9531 31.5811 96.3899 32.4698 97.7004 32.4698H117.553C118.885 32.4482 119.3 31.5811 119.3 31.5811Z" fill="#52606D"/>
</svg>
