<svg width="137" height="40" viewBox="0 0 137 40" fill="none" xmlns="http://www.w3.org/2000/svg">
<g clip-path="url(#clip0_1_148)">
<path d="M58.51 9.34166H58.4869L56.6391 18.4872H54.0984L51.6963 7.32877H53.7288L55.3919 15.9273H55.415L57.1935 7.32877H59.8266L61.5819 15.9273H61.605L63.3374 7.32877H65.3006L62.8754 18.4872H60.2885L58.51 9.34166Z" fill="#52606D"/>
<path d="M68.3492 10.1075C70.1276 10.1075 72.1602 10.9826 72.1602 14.3302C72.1602 17.7871 70.1276 18.5748 68.3492 18.5748C66.5707 18.5748 64.515 17.7652 64.515 14.3302C64.5381 10.9826 66.5938 10.1075 68.3492 10.1075ZM68.3492 17.1964C69.6888 17.1964 70.0122 15.7305 70.0122 14.3521C70.0122 12.9737 69.7119 11.5296 68.3492 11.5296C66.9864 11.5296 66.6861 12.9737 66.6861 14.3521C66.6861 15.7305 67.0095 17.1964 68.3492 17.1964Z" fill="#52606D"/>
<path d="M73.1998 11.5953C73.1998 11.1359 73.1767 10.6983 73.1305 10.2388H75.0245C75.0476 10.742 75.0938 11.2453 75.0938 11.7485H75.1169C75.3709 11.114 76.0177 10.1294 77.3342 10.1294C77.4497 10.1294 77.5652 10.1513 77.6807 10.1732V12.0329C77.4959 11.9892 77.288 11.9454 77.1033 11.9454C76.2487 11.9454 75.3017 12.4486 75.3017 13.9802V18.4873H73.2229L73.1998 11.5953Z" fill="#52606D"/>
<path d="M78.5817 6.49757H80.6836V18.4655H78.5817V6.49757Z" fill="#52606D"/>
<path d="M89.2061 6.49757V17.0653C89.2061 17.5247 89.2292 18.0061 89.2754 18.4655H87.3122C87.266 18.0498 87.2429 17.6122 87.2429 17.1965H87.1967C86.8502 17.8967 86.2266 18.5968 84.8869 18.5968C82.7389 18.5968 81.8381 16.6496 81.8381 14.3741C81.8381 11.683 82.9698 10.1295 84.8407 10.1295C85.8108 10.0858 86.6885 10.6109 87.0812 11.4423H87.1043V6.49757H89.2061ZM85.4413 17.1309C86.6654 17.1309 87.0812 15.8619 87.0812 14.3304C87.0812 12.7332 86.6192 11.5736 85.4644 11.5736C84.3095 11.5736 83.8937 12.6457 83.8937 14.2866C83.9168 16.1901 84.2402 17.1309 85.4413 17.1309Z" fill="#52606D"/>
<path d="M95.4195 7.32877H97.5907V11.8578H101.078V7.32877H103.226V18.4872H101.078V13.5425H97.5907V18.4653H95.4195V7.32877Z" fill="#52606D"/>
<path d="M110.872 18.0716C110.064 18.4217 109.163 18.5967 108.285 18.5967C105.49 18.5967 104.266 16.6932 104.266 14.4834C104.266 12.0329 105.629 10.1294 107.846 10.1294C109.717 10.1294 111.311 11.1577 111.311 14.5271V14.921H106.299C106.299 16.3212 106.899 17.1745 108.516 17.1745C109.787 17.1745 110.41 16.8026 110.803 16.54L110.872 18.0716ZM109.278 13.652C109.278 12.2079 108.77 11.464 107.823 11.464C106.715 11.464 106.276 12.558 106.276 13.652H109.278Z" fill="#52606D"/>
<path d="M112.65 10.7201C113.505 10.3263 114.452 10.1075 115.399 10.1075C118.101 10.1075 118.725 11.3546 118.725 13.4112V16.9994C118.725 17.4808 118.771 17.9621 118.841 18.4435H116.947C116.854 18.0715 116.808 17.6996 116.831 17.3276H116.808C116.277 18.0059 115.63 18.5748 114.383 18.5748C113.043 18.5748 111.796 17.6996 111.796 16.168C111.796 13.9364 113.713 13.3675 116.369 13.3675H116.785V13.0612C116.785 12.2516 116.369 11.4859 115.168 11.4859C114.313 11.5078 113.482 11.7922 112.789 12.2954L112.65 10.7201ZM116.762 14.4396H116.577C114.799 14.4396 113.736 14.7896 113.736 15.993C113.69 16.6494 114.221 17.2182 114.914 17.262C114.96 17.262 115.029 17.262 115.076 17.262C116.323 17.262 116.785 16.3868 116.785 14.9209V14.4396H116.762Z" fill="#52606D"/>
<path d="M120.642 6.49757H122.721V18.4655H120.642V6.49757Z" fill="#52606D"/>
<path d="M125.123 8.554L127.202 7.94138V10.2387H128.934V11.6827H127.202V15.9711C127.202 16.8462 127.548 17.1088 128.149 17.1088C128.426 17.1088 128.703 17.0432 128.934 16.9338V18.334C128.495 18.5091 128.01 18.5966 127.525 18.5966C125.978 18.5966 125.1 17.9183 125.1 16.1899V11.7046H123.714V10.2606H125.1V8.554H125.123Z" fill="#52606D"/>
<path d="M129.604 6.49757H131.683V11.311H131.729C132.099 10.8078 132.584 10.1295 133.877 10.1295C135.84 10.1295 136.441 11.5079 136.441 13.1708V18.4655H134.362V13.5427C134.362 12.2737 134.016 11.7486 133.161 11.7486C132.076 11.7486 131.683 12.6238 131.683 13.674V18.4655H129.604V6.49757Z" fill="#52606D"/>
<path d="M56.4778 21.4409C58.9262 21.4409 61.1666 23.1694 61.1666 27.1733C61.1666 31.1772 58.9262 32.9056 56.4778 32.9056C54.0295 32.9056 51.7891 31.1772 51.7891 27.1733C51.7891 23.1694 54.0295 21.4409 56.4778 21.4409ZM56.4778 31.3522C57.8406 31.3522 58.9493 30.2583 58.9493 27.1733C58.9493 24.0883 57.8406 23.0162 56.4778 23.0162C55.1151 23.0162 54.0064 24.1102 54.0064 27.1733C54.0064 30.2364 55.1151 31.3522 56.4778 31.3522Z" fill="#52606D"/>
<path d="M62.0443 25.8826C62.0443 25.4231 62.0212 24.9855 61.975 24.526H63.869C63.8921 25.0293 63.9383 25.5325 63.9383 26.0357H63.9614C64.2154 25.4012 64.8853 24.4166 66.1787 24.4166C66.2942 24.4166 66.4097 24.4385 66.5252 24.4604V26.3201C66.3404 26.2764 66.1325 26.2326 65.9246 26.2326C65.07 26.2326 64.123 26.7359 64.123 28.2674V32.7745H62.0443V25.8826Z" fill="#52606D"/>
<path d="M67.5408 34.0435C68.3261 34.4811 69.2038 34.7218 70.1046 34.7437C72.0679 34.7437 72.3913 33.4528 72.3913 32.1619V31.3743H72.3682C72.0217 32.0088 71.4443 32.7745 70.0815 32.7745C68.8805 32.7745 67.0558 32.0088 67.0558 28.6831C67.0558 26.4077 67.9104 24.4166 70.197 24.4166C71.4674 24.4166 72.0448 25.0949 72.4836 25.8169H72.5529C72.5529 25.3793 72.5991 24.9636 72.6222 24.5479H74.5162C74.4931 24.9855 74.4469 25.4012 74.4469 25.8388V31.8994C74.4469 34.4811 73.6154 36.2971 70.428 36.2971C69.4117 36.2971 68.3954 36.1221 67.4484 35.7939L67.5408 34.0435ZM70.5666 31.3086C71.8831 31.3086 72.4144 30.4116 72.4144 28.5518C72.4144 26.8234 71.7214 25.9044 70.7282 25.9263C69.6196 25.9482 69.2038 26.9109 69.2038 28.5737C69.2038 30.4991 69.8505 31.3086 70.5666 31.3086Z" fill="#52606D"/>
<path d="M76.2947 25.0073C77.1493 24.5916 78.0963 24.3947 79.0433 24.3947C81.7457 24.3947 82.3693 25.6418 82.3693 27.6985V31.2867C82.3693 31.768 82.4155 32.2494 82.4848 32.7307H80.5908C80.4984 32.3588 80.4522 31.9868 80.4753 31.6149H80.4522C79.921 32.2931 79.2743 32.862 78.027 32.862C76.6874 32.862 75.4401 31.9868 75.4401 30.4553C75.4401 28.2236 77.3572 27.6547 80.0134 27.6547H80.4291V27.3484C80.4291 26.5389 80.0134 25.7731 78.8123 25.7731C77.9577 25.795 77.1262 26.0794 76.4333 26.5826L76.2947 25.0073ZM80.406 28.7268H80.2213C78.4428 28.7268 77.3803 29.0769 77.3803 30.2802C77.3341 30.9366 77.8653 31.5055 78.5582 31.5492C78.6044 31.5492 78.6506 31.5492 78.7199 31.5492C79.9672 31.5492 80.4291 30.6741 80.4291 29.2082L80.406 28.7268Z" fill="#52606D"/>
<path d="M84.0557 25.8826C84.0557 25.4231 84.0326 24.9855 83.9865 24.526H85.9497C85.9728 24.9418 86.019 25.3793 86.019 25.795H86.0421C86.3424 25.2918 86.9429 24.4166 88.3519 24.4166C90.3151 24.4166 90.9157 25.795 90.9157 27.4579V32.7527H88.8138V27.8079C88.8138 26.5389 88.4673 26.0138 87.6127 26.0138C86.5272 26.0138 86.1345 26.889 86.1345 27.9392V32.7308H84.0557V25.8826Z" fill="#52606D"/>
<path d="M92.5092 21.0253H94.6803V22.9726H92.5092V21.0253ZM92.5554 24.526H94.6341V32.7526H92.5554V24.526Z" fill="#52606D"/>
<path d="M96.2747 31.046L99.9934 26.0356H96.3902V24.5259H102.072V26.2106L98.4227 31.2429H102.188V32.7525H96.2516V31.046H96.2747Z" fill="#52606D"/>
<path d="M103.781 25.0073C104.636 24.5916 105.582 24.3947 106.529 24.3947C109.232 24.3947 109.856 25.6418 109.856 27.6985V31.2867C109.856 31.768 109.902 32.2494 109.971 32.7307H108.077C107.985 32.3588 107.938 31.9868 107.962 31.6149H107.938C107.407 32.2931 106.76 32.862 105.513 32.862C104.174 32.862 102.926 31.9868 102.926 30.4553C102.926 28.2236 104.843 27.6547 107.5 27.6547H107.915V27.3484C107.915 26.5389 107.5 25.7731 106.299 25.7731C105.444 25.795 104.612 26.0794 103.919 26.5826L103.781 25.0073ZM107.892 28.7268H107.707C105.929 28.7268 104.866 29.0769 104.866 30.2802C104.82 30.9366 105.352 31.5055 106.044 31.5492C106.091 31.5492 106.137 31.5492 106.206 31.5492C107.453 31.5492 107.915 30.6741 107.915 29.2082V28.7268H107.892Z" fill="#52606D"/>
<path d="M112.119 22.8412L114.198 22.2286V24.5259H115.93V25.97H114.198V30.2364C114.198 31.1116 114.544 31.3742 115.145 31.3742C115.422 31.3742 115.699 31.3304 115.93 31.1991V32.5994C115.491 32.7963 115.006 32.8838 114.521 32.8619C112.973 32.8619 112.096 32.1837 112.096 30.4771V25.97H110.71V24.5259H112.096L112.119 22.8412Z" fill="#52606D"/>
<path d="M117.201 21.0253H119.349V22.9726H117.201V21.0253ZM117.247 24.526H119.349V32.7526H117.27L117.247 24.526Z" fill="#52606D"/>
<path d="M124.315 24.3947C126.093 24.3947 128.126 25.2699 128.126 28.6174C128.126 32.0743 126.093 32.862 124.315 32.862C122.536 32.862 120.481 32.0743 120.481 28.6174C120.504 25.2918 122.559 24.3947 124.315 24.3947ZM124.315 31.4836C125.654 31.4836 125.978 30.0177 125.978 28.6393C125.978 27.2609 125.678 25.8169 124.315 25.8169C122.952 25.8169 122.652 27.2609 122.652 28.6393C122.652 30.0177 122.975 31.4836 124.315 31.4836Z" fill="#52606D"/>
<path d="M129.788 25.8826C129.788 25.4231 129.765 24.9855 129.719 24.526H131.682C131.705 24.9418 131.752 25.3793 131.752 25.795H131.775C132.075 25.2918 132.675 24.4166 134.084 24.4166C136.048 24.4166 136.648 25.795 136.648 27.4579V32.7527H134.569V27.8079C134.569 26.5389 134.223 26.0138 133.368 26.0138C132.283 26.0138 131.89 26.889 131.89 27.9392V32.7308H129.811L129.788 25.8826Z" fill="#52606D"/>
<path d="M39.0854 7.21923C39.9862 8.24755 41.5569 8.83829 42.4807 9.86662C41.8109 6.84728 39.3626 4.37492 36.4523 3.78418C37.8844 4.79063 38.1846 6.1909 39.0854 7.21923ZM4.16218 14.877C6.17165 10.7418 9.15121 11.617 10.4216 7.70057C9.68245 8.88205 6.42572 9.38528 4.92439 12.4703C5.7097 10.6324 5.31705 7.83185 6.6105 6.3003C2.70704 9.05709 4.37006 13.4767 4.16218 14.877ZM7.76537 24.7664C8.13493 26.3636 7.07245 28.7047 8.75856 30.9145C7.02625 29.0766 3.33067 28.5953 1.82934 25.7947C3.70023 32.6429 8.59688 31.2427 10.7911 32.7305C8.98953 30.2581 10.4678 28.6172 7.76537 24.7664ZM7.21103 29.0766C6.12546 25.2477 8.04254 23.9131 6.5874 20.2374C6.44882 22.3159 4.97059 23.3224 5.96378 27.1075C4.23147 23.8912 1.55217 22.6879 0.766863 20.4999C0.813058 26.5167 5.91758 27.4138 7.21103 29.0766ZM15.041 35.4872C13.5397 33.5181 14.556 32.4023 10.3523 28.836C11.2531 30.1487 10.3292 31.7897 13.1702 34.3276C10.3985 32.7742 6.54121 33.4306 4.69342 31.3521C7.88086 37.1282 13.4704 34.7652 15.041 35.4872ZM35.4822 34.3276C38.3232 31.7678 37.3993 30.1268 38.3001 28.836C34.0733 32.4023 35.1127 33.5181 33.5883 35.4872C35.182 34.7652 40.7715 37.1282 43.9359 31.3521C42.1112 33.4525 38.2539 32.7742 35.4822 34.3276ZM39.8938 30.9145C41.5799 28.7047 40.5175 26.3855 40.8639 24.7664C38.1615 28.6172 39.6398 30.2581 37.8382 32.7305C40.0555 31.2427 44.9291 32.6429 46.8 25.7947C45.2986 28.5953 41.6261 29.0766 39.8938 30.9145ZM33.1494 35.7717C31.6481 35.3997 30.1005 35.1591 28.5299 35.1153C27.0979 35.0934 25.6658 35.3122 24.3262 35.7936C22.9866 35.3122 21.5545 35.0934 20.1225 35.1153C18.5519 35.1591 17.0043 35.3997 15.503 35.7717C12.9623 36.4062 10.768 36.9094 8.85095 35.9905C10.6756 37.522 12.8237 38.0909 15.9187 37.7627C18.4826 37.5001 20.5613 36.2749 22.9865 36.2968H23.0789C21.5545 37.0188 20.1918 38.0252 19.0831 39.2505L20.2611 39.4036C20.2611 39.4036 21.4852 37.0626 24.3262 36.4499C27.1672 37.0626 28.3913 39.4036 28.3913 39.4036L29.5693 39.2505C28.4606 38.0252 27.0979 37.0188 25.5735 36.2968H25.6658C28.0911 36.2749 30.1698 37.5001 32.7336 37.7627C35.8287 38.069 37.9537 37.522 39.8014 35.9905C37.8844 36.9094 35.6901 36.4062 33.1494 35.7717ZM6.77218 16.0803C5.7328 17.9838 4.09289 18.4214 4.27767 22.3378C3.39997 18.859 1.2981 17.5462 1.3212 15.3364C-0.133935 21.1563 3.74643 21.8346 4.76271 24.2851C4.60103 20.7844 6.95696 20.0842 6.77218 16.0803ZM8.22732 11.5951C7.85776 12.0764 7.60369 12.2952 6.6336 13.0391C5.17846 14.1331 4.16218 15.6865 3.81572 17.415C3.90811 15.2708 2.52226 12.2077 3.44616 9.97602C-0.133935 14.7676 3.65404 17.6338 3.79262 19.3841C4.69342 16.0366 6.84148 16.0147 8.22732 11.5951ZM44.8367 17.415C44.4671 15.6865 43.4739 14.1331 42.0188 13.0391C41.0487 12.2733 40.7946 12.0764 40.4251 11.5951C41.8109 16.0147 43.959 16.0366 44.8829 19.3841C45.0215 17.6556 48.8094 14.7895 45.2293 9.97602C46.1532 12.2077 44.7674 15.2708 44.8367 17.415ZM47.8855 20.4999C47.1002 22.7098 44.4209 23.8912 42.6886 27.1075C43.6818 23.3224 42.2036 22.3159 42.065 20.2374C40.6099 23.9131 42.5269 25.2477 41.4414 29.0766C42.7348 27.4138 47.8393 26.5167 47.8855 20.4999ZM41.8802 16.0803C41.6723 20.0842 44.0514 20.7844 43.8897 24.2851C44.8829 21.8565 48.7863 21.1563 47.3312 15.3364C47.3543 17.5681 45.2524 18.859 44.3747 22.3597C44.5595 18.3995 42.9427 17.9838 41.8802 16.0803ZM9.56697 7.21923C10.4678 6.1909 10.768 4.79063 12.2001 3.78418C9.2667 4.37492 6.81838 6.8254 6.14855 9.84474C7.07245 8.81641 8.66617 8.22567 9.56697 7.21923ZM38.2539 7.65681C39.5243 11.5951 42.5038 10.7199 44.5133 14.8332C44.3054 13.4548 45.9685 9.01333 42.065 6.3003C43.3815 7.80997 42.9889 10.6324 43.7511 12.4703C42.2267 9.38528 38.9699 8.88205 38.2539 7.65681ZM28.0911 9.91038C27.3289 9.60407 26.5205 9.40716 25.712 9.29776C25.712 9.47279 25.712 9.62595 25.712 9.80098C26.4743 9.91038 27.2134 10.1073 27.9063 10.3698C27.9987 10.2167 28.068 10.0635 28.0911 9.91038ZM27.4905 5.0313L27.6522 4.90002L27.352 4.76875L26.5435 4.74687L26.3357 4.87815L25.8737 4.83439V4.94378C26.174 4.96566 26.4743 4.98754 26.7052 5.0313L27.0979 5.00942L27.4905 5.0313ZM25.9661 21.3532C25.9661 21.222 25.7813 21.0907 25.5273 20.9813H25.4811C25.4811 21.0907 25.458 21.5939 25.458 21.8565C25.7582 21.7033 25.9661 21.572 25.9661 21.3532ZM16.7041 11.7482C16.7272 11.6607 16.7503 11.5513 16.7734 11.4638C16.6579 11.4857 16.5655 11.5076 16.45 11.4857L16.7041 11.7482ZM12.9854 8.22567L14.8794 10.0198C12.5927 12.2733 11.2993 15.2927 11.2531 18.4214H8.57378C8.61997 14.5925 10.1906 10.9606 12.9854 8.22567ZM11.8305 22.1847L11.6688 22.1628L11.5071 22.0096L10.7449 21.944L10.9759 22.2503L10.283 22.119L10.4678 21.9659L10.3061 21.8127L9.79794 22.0096L9.61316 22.3159L9.68245 23.0379L10.2599 24.3507L10.5371 24.7664L10.6987 24.8102L10.2599 24.0225L10.1675 23.6287L10.2599 23.5412L10.1906 23.3224L10.4447 23.3661L10.8604 23.935L10.9528 23.9788V23.563L11.1145 23.6506L11.1607 23.8694L11.5764 23.9788L11.7612 23.8475L11.8305 23.8912V24.1975L12.0153 24.4163L12.2463 24.4601L12.7544 25.2477L13.0547 25.3353L13.1471 24.9633C13.6783 25.7729 14.2788 26.5386 14.9949 27.2169L13.1009 29.011C10.283 26.3198 8.66617 22.7098 8.57378 18.9246H11.2531C11.2762 20.0186 11.4841 21.1344 11.8305 22.1847ZM14.4636 18.9028C14.4636 19.1434 14.4867 19.3841 14.5329 19.6467L14.2095 19.7123L14.1403 20.0186L13.4473 20.85L13.4704 21.9877L12.7775 22.2065H12.3848C12.0153 21.1344 11.8305 20.0405 11.7843 18.9028H14.4636V18.9028ZM15.0641 26.0573L15.6647 26.3855L15.7802 26.473L15.3413 26.8887C15.1334 26.6918 14.9487 26.4949 14.7639 26.2761L15.0641 26.0573ZM17.5125 12.514L19.4065 14.3081C19.0138 14.7238 18.6673 15.1833 18.4133 15.6865H18.2747L17.9975 15.7521H17.9051L17.628 15.9928L17.9975 15.9491L18.3209 15.8834L18.2516 15.9709L17.9744 16.146H17.8358L17.4201 16.4523L17.0274 16.4085L16.45 17.4368L16.5655 17.6338L16.2421 17.9838L16.1959 18.4214H14.9949C15.018 16.2116 15.9187 14.1112 17.5125 12.514ZM19.4527 19.9311L19.5912 19.8654L19.9377 20.1061L19.776 20.2155L20.1687 20.4562L20.1456 20.1936L20.3534 19.8654L20.5844 20.0842L20.8154 20.3905L20.3996 20.4999L20.5844 20.85L20.8616 20.6969L20.8154 20.5875L21.0233 20.4562L21.1388 19.9092C21.3004 20.2374 21.5083 20.5437 21.7624 20.8063L19.8684 22.6004C18.9445 21.6814 18.3671 20.4999 18.2054 19.2309L18.598 19.6248H18.9676L19.4527 19.9311ZM16.7272 18.0276L16.7734 17.5244L17.0967 17.3493L17.6742 17.4368L17.7665 17.5244C17.7203 17.8088 17.6972 18.1151 17.6742 18.3995H17.0274L16.7272 18.0276ZM15.8495 19.7779L15.5954 20.1499H15.1565L15.1334 20.128C15.0641 19.7342 15.018 19.3185 14.9949 18.9246H15.8033L15.6185 19.5373L15.8495 19.7779ZM17.628 24.7226C17.4432 24.5257 17.2353 24.3288 17.0736 24.1319L17.166 23.4974L16.8888 22.8848L16.8195 21.9221L16.4962 21.3314L16.5655 20.9594L16.1728 20.2593L15.8495 20.1061L15.988 19.7342L15.8495 19.4497L15.988 19.1216H16.3576L16.4962 18.9246H17.1198L17.2122 19.0997L17.0736 19.6904L17.0043 19.7998L17.2353 20.2812L17.0736 20.3687L16.9581 20.2374L16.9119 20.2812L17.0274 20.5656L17.2122 20.8938H17.3046L17.3508 20.5875L17.2584 20.4781V20.2812L17.2353 19.8654L17.3739 19.1216L17.2353 18.9246H17.6742C17.7665 20.4343 18.4133 21.8565 19.5219 22.9504L17.628 24.7226ZM33.7499 27.1731C36.0366 24.9414 37.3531 21.9877 37.4224 18.9028H40.1017C40.0093 22.666 38.4156 26.2761 35.6208 28.9672L33.7499 27.1731ZM33.0108 26.473L33.2187 26.2542L33.0108 25.2696L32.8722 25.2259L32.9646 25.0508L32.5258 24.9196L32.4334 25.2696L32.3872 25.7072L32.2948 25.7947L31.4864 25.029C33.1725 23.3661 34.1426 21.2001 34.235 18.9028H36.9143C36.8219 21.8783 35.5746 24.7008 33.3804 26.8231L33.0108 26.473ZM30.6549 28.8578L30.909 28.3546L30.8166 28.1358L31.1861 27.8295V27.6545L30.8628 27.4576L31.1168 26.9543L31.5095 26.473L31.1168 26.0792H30.8166L30.6318 25.7947C30.7935 25.6635 30.9552 25.5322 31.0937 25.4009L32.9877 27.195C32.2948 27.8295 31.5095 28.3984 30.6549 28.8578ZM30.2853 23.9131L30.0313 23.6724L30.216 23.4318L30.4701 22.9504L30.3777 22.8192L30.5394 22.4691L30.5163 22.1409L30.4239 21.8127L30.1929 21.7471L30.1005 21.9221L29.962 21.8783C30.1698 21.5939 30.3546 21.2657 30.5163 20.9594L30.7473 20.8719L30.8859 20.6969L30.9551 20.7625L31.1168 20.5875L30.9782 20.4343L31.0937 20.4124L31.3016 20.4999H31.7174L31.9714 20.3687L32.6182 20.1936L32.5027 19.9967L32.4565 19.7561L32.8029 19.9092L32.9415 19.8436L32.8722 19.581L32.4334 19.7342L31.9714 19.6467L31.6019 18.9465H33.6575C33.5652 21.1126 32.6413 23.1692 31.0706 24.7226L30.7935 24.4601L30.909 24.11L30.7011 23.3224L30.2853 23.9131ZM29.3152 14.3737L31.2092 12.5796C31.6481 13.0391 32.0407 13.5423 32.3872 14.0674L32.1562 14.1331L32.1793 14.5269L32.8722 14.9426C33.057 15.3146 33.1956 15.6865 33.3111 16.0803L33.1956 16.2554L32.9415 16.4304L32.8722 16.8024L32.6875 16.8899L32.5489 17.0649L32.4103 16.9993H32.1562L32.2948 16.8024L32.4103 16.2991L32.5951 16.1897L32.0869 15.7303L31.7174 15.8615L31.625 16.2116L31.394 16.4523L31.1399 16.2554L31.0475 16.0366L31.1861 15.9491L31.2554 16.0803L31.3709 16.0366L31.3247 15.8178H31.163V15.9053L31.0475 15.9272L30.4701 15.2708L30.2622 15.1176L30.3315 15.052L30.5163 14.9864L30.3315 14.9207C30.3315 14.9207 30.1236 14.9645 30.1005 14.9645L30.216 15.1176H29.9158C29.731 14.8332 29.5462 14.5925 29.3152 14.3737ZM29.6155 24.1538L29.0381 24.0006L28.8533 24.0663L28.5299 23.8256L28.2297 23.7162C28.3913 23.6068 28.5299 23.4974 28.6685 23.388L29.1536 23.7162L29.5231 23.8912L29.7079 24.0663L29.6155 24.1538ZM28.5992 15.7303L28.8302 15.6865V15.6427L28.5992 15.4896L28.6685 15.0082L28.9457 14.7238C29.1305 14.9207 29.2921 15.1176 29.4538 15.3364L29.3614 15.6209L29.1074 15.4458L28.8995 15.4896L28.9919 15.6646H29.0843L28.9688 15.9272L28.8995 15.8178L28.5992 15.7303ZM31.8098 17.4806L32.2948 17.2399L32.7798 17.1743L32.8953 16.9555L33.1725 16.8024L33.288 16.5836L33.3804 16.2116C33.4266 16.3429 33.4497 16.4742 33.4959 16.6054L33.2418 17.3275V17.5681L33.5652 17.0649C33.6344 17.5025 33.6806 17.962 33.7037 18.3995H31.3478L31.3016 18.2026L31.5788 18.0057L31.625 17.8744L31.7405 17.7869L32.0638 17.7432L32.0869 17.6119L31.8098 17.4806ZM32.341 11.5294L32.9877 11.5513L33.1494 11.7264L33.0801 11.9889L33.9809 12.514L34.1657 12.4921L35.2975 13.7393L35.7594 13.5861C36.4985 15.0958 36.8912 16.7586 36.9143 18.4214H34.235C34.235 17.765 34.1426 17.1305 33.9809 16.496L34.0964 16.3429L34.2581 15.5334L34.1426 14.6801L33.8192 13.6955L33.0801 12.6672L33.2649 12.7547L33.3573 12.6672L32.7567 12.2733L32.7106 12.4046L33.3111 13.2141L33.6575 13.8705L33.8885 14.5269L33.9578 14.9645L34.0733 15.7084L33.8423 15.7303C33.8423 15.7303 33.5883 15.2708 33.4959 15.0739L33.6113 14.8989L33.3804 14.5925V14.3081L33.2187 14.1112L33.0108 14.1331C32.9415 14.0018 32.8722 13.8705 32.7798 13.7611L32.9184 13.8268L32.9646 13.783L32.8953 13.6299L33.0801 13.5423L33.0108 13.4548L32.7567 13.5423L32.8491 13.1485L32.6875 13.061L32.5489 13.3673C32.2486 12.9516 31.9252 12.5578 31.5788 12.1858L32.341 11.5294ZM35.7594 8.26943C38.5311 11.0043 40.0786 14.6363 40.1248 18.4214H37.4455C37.4224 16.5398 36.9605 14.6801 36.0597 12.9954L36.0828 12.9516L36.2675 13.0391L36.3137 12.9078L35.8287 12.1202L35.2513 11.3763L34.5814 10.8512C34.3505 10.5886 34.1195 10.3261 33.8654 10.0635L35.7594 8.26943ZM24.3493 33.9995C33.3573 33.9995 40.6561 27.0637 40.633 18.5308C40.633 10.6105 34.3043 3.9811 25.9892 3.17156L25.9661 3.25908C25.943 3.41223 25.8968 3.54351 25.8737 3.67479C29.4538 4.00297 32.8029 5.49077 35.3668 7.87561L33.5652 9.58219L33.6344 9.27588L33.4035 9.16648L33.1032 9.18836L33.1725 8.99145L32.9646 8.29131L32.5258 7.83185L31.1168 7.13171L31.0013 7.26299L30.7473 7.32862C31.2323 7.985 31.4864 8.77266 31.4864 9.56031C31.4864 9.66971 31.4864 9.75722 31.4864 9.86662L32.1793 10.698L31.8559 10.7637L32.0638 11.07L31.4402 11.6607L31.1861 11.2231C31.0706 11.5294 30.909 11.8358 30.7242 12.0983L30.8628 12.2077L28.9457 14.0018C28.8302 13.8924 28.7147 13.8049 28.5992 13.6955C28.4144 13.783 28.2297 13.8486 28.0449 13.9143L28.2066 14.0237L28.1142 14.1112L27.8832 14.2206L27.7908 14.4394L27.6522 14.3081L27.2596 14.4394L27.3751 14.6144L27.6522 14.5488L27.837 14.5707L27.8601 14.4831L27.9987 14.4175L28.0449 14.3519L28.2989 14.2862H28.4837L28.5992 14.3737L27.8601 15.0958L27.8139 15.0301L27.0286 15.1614L26.8438 15.3364L26.6821 15.3583L27.1672 14.9207L26.9824 14.8332L26.5205 15.4021L26.659 15.3802V15.599L26.8207 15.6646L26.8438 15.8834L26.5666 15.8397L26.2895 15.8834L25.5966 15.5552C25.5966 15.5552 25.5504 17.3056 25.5504 18.1807C27.1672 18.7058 28.8995 19.4497 28.8995 21.4189C28.9226 22.2503 28.4606 23.0379 27.7215 23.4974L27.6753 23.5193L27.6291 23.563C26.9824 23.9788 26.1278 24.1975 25.3887 24.4163L25.3656 25.7947C26.5435 26.3417 27.9525 27.1512 27.8139 29.4267C27.7908 29.9956 27.5598 30.1487 27.3751 30.1925C26.6821 30.3456 25.9661 30.455 25.2732 30.4988C25.2732 30.6738 25.2732 30.8488 25.2732 31.002C28.322 30.8051 31.1861 29.6017 33.4035 27.6107L35.2975 29.4048C29.2228 34.9621 19.5912 34.9621 13.4935 29.4486L15.3875 27.6545C17.5818 29.6017 20.4227 30.7832 23.4254 31.002C23.4254 30.8488 23.4254 30.6738 23.4254 30.4988C20.5613 30.28 17.882 29.1641 15.8033 27.2825L16.2883 26.8012L16.9812 26.8668L17.3508 26.4949L18.3209 26.5386L18.4595 26.2104L18.4133 26.0792C19.8453 27.1075 21.5545 27.7639 23.3561 27.9389C23.3561 27.742 23.3561 27.567 23.3561 27.4357C21.3697 27.2169 19.5219 26.4292 18.0437 25.1384L19.9377 23.3443C20.3996 23.7381 20.9078 24.0663 21.4852 24.3288C21.5314 24.1538 21.5776 24.0006 21.67 23.8475C21.185 23.6068 20.723 23.3224 20.3304 22.9942L22.2243 21.2001C22.5246 21.4189 22.8711 21.6158 23.2175 21.7252C23.2175 21.5502 23.2175 21.3532 23.2175 21.1782C22.9865 21.0907 22.7787 20.9594 22.5939 20.8281L23.1251 20.3249C22.9404 20.2812 22.7556 20.2155 22.5708 20.1499L22.2012 20.4999C22.0165 20.303 21.8548 20.0842 21.7393 19.8654C21.4159 19.7342 21.0926 19.581 20.7923 19.3841C19.6836 18.7496 19.0138 17.59 19.0369 16.3429C19.0138 15.5115 19.2679 14.6801 19.7991 14.0237L17.9051 12.2296C19.291 10.9606 21.0695 10.1511 22.9635 9.86662C22.9635 9.69159 22.9635 9.51655 22.9635 9.3634C20.9309 9.64783 19.0138 10.523 17.5356 11.8795L17.2122 11.5732C17.1429 11.6826 17.0505 11.8358 16.9581 12.0327L17.166 12.2296C15.4799 13.9143 14.5329 16.146 14.4867 18.4652H11.7843C11.8305 15.4677 13.0547 12.6015 15.2489 10.4136L16.1035 11.2231C16.1497 11.2231 16.1728 11.2231 16.219 11.2231C16.3807 11.2013 16.5655 11.1575 16.7041 11.0919L15.6185 10.0635C16.1959 9.53843 16.8195 9.05709 17.4894 8.64138C17.5356 8.5101 17.5587 8.37883 17.628 8.26943C17.7434 8.0944 17.882 7.91936 18.0437 7.74433C17.0274 8.26943 16.1035 8.92581 15.272 9.69159L13.378 7.89748C15.9187 5.5564 19.2217 4.09049 22.7787 3.74042C22.7787 3.67479 22.7556 3.63103 22.7556 3.63103C22.7325 3.49975 22.7094 3.39035 22.6863 3.2372C13.7014 4.11237 7.21103 11.7045 8.15803 20.1936C9.03573 28.0483 16.0111 34.0213 24.3493 33.9995ZM32.3641 7.28487L32.2024 7.04419L31.8559 6.86916L31.5788 7.06607L31.9252 7.24111L32.3179 7.50366L32.3641 7.28487ZM30.7473 14.4613L30.7704 14.6582L31.2323 14.5269L31.3709 14.2644L31.0475 13.8705L31.2092 13.6299L31.6481 13.9143L31.7174 13.8486L31.625 13.783L31.5326 13.608L31.7174 13.5205L31.5326 13.3017L31.1168 13.4986L30.9782 13.7393L30.8859 13.958L31.0706 14.2425L31.0013 14.3737L30.7473 14.4613ZM11.3917 25.8385L11.4148 25.7291L11.1838 25.2259L10.9066 25.1165L11.3917 25.8385ZM22.3167 16.2991C22.3167 16.7367 22.5939 17.0211 23.0789 17.2837C23.0789 17.2837 23.0789 17.2181 23.0789 17.0868L22.7787 16.7805L22.9404 16.496L23.0789 16.4523C23.0558 15.9491 23.0558 15.4021 23.0558 15.3146H23.0327C22.5708 15.5771 22.3398 15.8834 22.3167 16.2991Z" fill="#52606D"/>
<path d="M25.3188 27.3044C26.1503 27.6983 26.9356 28.2671 27.259 29.3173C27.3976 27.567 26.3582 26.8231 25.3419 26.298L25.3188 27.3044Z" fill="#52606D"/>
<path d="M30.9089 9.56045C30.9089 7.96327 29.6847 6.21293 26.7052 5.60031C26.4049 5.55655 26.1046 5.51279 25.8044 5.49091C25.8044 5.73158 25.7813 6.27856 25.7813 6.27856C25.7813 6.4536 25.7582 7.0881 25.7582 7.21937C25.943 7.24125 26.1508 7.26313 26.3356 7.28501C28.0679 7.67884 28.6916 8.61965 28.6916 9.53857C28.6916 11.0482 27.3288 11.6171 25.6658 12.0547L25.1115 12.186C24.6033 12.2954 24.0721 12.4266 23.5639 12.5579C23.3792 12.6017 23.1944 12.6454 23.0096 12.7111C21.1618 13.2362 19.5681 14.0895 19.5681 16.2555C19.5681 18.4216 21.3928 19.2092 23.1713 19.7343C23.1713 19.1217 23.1482 18.4872 23.1251 17.8746C22.3167 17.5245 21.7854 17.065 21.7854 16.2993C21.7854 15.5335 22.2936 15.0959 23.0558 14.7677C23.2175 14.7021 23.4023 14.6364 23.6101 14.5708C24.049 14.4177 24.5571 14.3083 25.0653 14.177L25.6196 14.0457C28.1141 13.4768 30.932 12.7329 30.9089 9.56045Z" fill="#52606D"/>
<path d="M21.9237 24.7229C21.9237 25.5981 22.5935 26.0576 23.2633 26.4295C23.2633 26.2764 23.2402 24.9417 23.2402 24.9198C23.2633 24.6573 23.5174 24.4823 23.7484 24.3947C24.0948 24.2416 24.4644 24.1103 24.8339 24.0009C25.0418 23.9353 25.2035 23.8696 25.3883 23.8259C26.751 23.4321 28.3216 22.9507 28.3216 21.3754C28.3216 19.8001 26.982 19.1656 25.5038 18.6843C25.4807 19.1875 25.4807 19.9095 25.4576 20.4127C26.0812 20.6315 26.4969 20.9159 26.4969 21.3754C26.4969 21.9443 25.8733 22.2506 25.4114 22.4256C25.2266 22.4912 24.9494 22.5788 24.857 22.6006C24.4875 22.71 24.1179 22.8194 23.7484 22.9507C23.5636 23.0164 23.3788 23.082 23.194 23.1695C22.5935 23.4758 21.9237 23.9353 21.9237 24.7229Z" fill="#52606D"/>
<path d="M22.8485 5.7319C22.2942 5.90694 21.7398 6.10385 21.2086 6.3664C20.6312 6.54144 19.7997 6.58519 18.9451 7.46037C18.6679 7.76668 18.4138 8.09486 18.1597 8.42305C17.9057 8.77312 17.8826 9.34198 17.6978 9.62641C17.4206 10.064 17.4899 10.3266 17.4899 10.3266C17.4437 10.5235 17.3282 10.7204 17.1897 10.8735C16.9125 11.1798 16.4967 11.333 16.081 11.2674C16.4736 11.4424 17.0049 11.2017 17.0049 11.2017C16.9125 11.4424 16.8432 11.6831 16.797 11.9237C17.2358 10.9829 17.6285 10.6547 17.7671 10.5453C17.9519 10.5891 18.3445 10.5672 19.0605 10.1734C19.8689 9.73581 21.0931 9.01379 21.4396 8.55433C21.8091 8.09486 22.2942 7.72292 22.8716 7.526C22.8716 6.86963 22.8485 6.25701 22.8485 5.7319ZM19.4301 8.64185L19.0143 8.72936L19.5225 7.94171L20.0999 7.96359L19.4301 8.64185Z" fill="#52606D"/>
<path d="M24.5332 24.6133C24.4639 24.6351 24.256 24.7227 24.1174 24.7664C23.9788 24.8102 23.8172 24.8758 23.8172 24.9196C23.8172 24.9196 23.9557 31.6584 23.9557 31.7897C23.9557 33.1681 24.6949 33.1899 24.6949 31.7897C24.6949 31.7021 24.8565 24.5039 24.8565 24.5039C24.8565 24.5039 24.6487 24.5695 24.5332 24.6133Z" fill="#52606D"/>
<path d="M23.7482 22.3818C23.9792 22.3161 24.2102 22.2286 24.4181 22.1849C24.5797 22.1411 24.7183 22.0973 24.88 22.0536C24.88 21.6379 25.0186 15.7742 25.0417 14.724C24.5566 14.8334 24.0716 14.9647 23.6096 15.1179C23.6327 15.9055 23.7482 21.7473 23.7482 22.3818Z" fill="#52606D"/>
<path d="M24.3718 -0.000720978C22.2931 -0.000720978 23.1708 2.9311 23.3325 3.89379C23.3325 3.93755 23.4942 10.5232 23.5403 12.0329C23.8637 11.9454 24.164 11.8797 24.4873 11.8141L25.111 11.6609C25.1341 10.195 25.2957 3.91567 25.2957 3.87191C25.4343 2.86546 26.5199 -0.000720978 24.3718 -0.000720978Z" fill="#52606D"/>
</g>
<defs>
<clipPath id="clip0_1_148">
<rect width="135.882" height="39.4046" fill="white" transform="translate(0.765625)"/>
</clipPath>
</defs>
</svg>
