<svg width="112" height="17" viewBox="0 0 112 17" fill="none" xmlns="http://www.w3.org/2000/svg">
<path fill-rule="evenodd" clip-rule="evenodd" d="M85.4754 0.29399H89.9874V6.84169H99.1264V0.29399H103.639V16.649H99.1264V9.43389H89.9874V16.649H85.4754V0.29399ZM0.859375 0.29399H5.37335V6.84169H14.5114V0.29399H19.0524V16.649H14.5114V9.43389H5.37335V16.649H0.859375V0.29399ZM22.7854 0.29399H27.3554V16.649H22.7854V0.29399ZM107.289 0.29399H111.859V16.649H107.289V0.29399ZM29.0274 0.29399H46.7754V3.01959H40.1443V16.649H35.6584V3.01959H29.0274V0.29399ZM50.6754 10.3956L53.8234 3.09969L56.9444 10.3956H50.6754ZM58.0864 12.9877L59.6474 16.649H64.7464L56.6944 0.32059H50.9824L42.8744 16.649H47.9444L49.5334 12.9877H58.0864ZM78.4814 5.85259H83.1074C83.0504 2.88609 80.3754 0.0536888 74.1624 0.000288824C69.5384 -0.0264112 63.9374 1.79089 63.9084 8.44479C63.8814 15.0453 69.5934 17.1029 74.1624 16.9961C78.3694 16.8626 83.0504 15.7407 83.2464 10.77L78.5924 10.7967C78.4534 13.8974 75.8624 14.5114 74.1634 14.5381C72.4074 14.5381 68.8134 14.191 68.7584 8.52549C68.7034 3.18109 71.9904 2.43289 74.1634 2.43289C76.3084 2.45899 78.4534 3.42129 78.4814 5.85259Z" fill="#52606D"/>
</svg>
