<svg width="116" height="11" viewBox="0 0 116 11" fill="none" xmlns="http://www.w3.org/2000/svg">
<path d="M1.68039 10.2861L1.69495 10.2852L1.70943 10.2835C16.2975 8.50908 31.0127 7.04859 45.7481 5.90871C60.383 4.88249 75.0381 4.17688 89.7133 3.79186C97.9627 3.59575 106.219 3.50653 114.482 3.52417L114.498 3.5242L114.514 3.52319C114.829 3.50339 115.083 3.34859 115.242 3.12169C115.392 2.90812 115.444 2.65466 115.429 2.42796C115.415 2.20126 115.333 1.95621 115.157 1.76307C114.974 1.56199 114.71 1.44096 114.403 1.45481C99.6902 1.4125 84.8894 1.69768 70.1143 2.41065C55.4442 3.117 40.7942 4.14432 26.1643 5.49256C17.9403 6.22378 9.73142 7.16865 1.5319 8.22011C1.22529 8.24474 0.97838 8.39787 0.822265 8.62027C0.672345 8.83385 0.621036 9.0873 0.635271 9.31401C0.649506 9.54071 0.732116 9.78575 0.907576 9.9789C1.09398 10.1841 1.36513 10.3059 1.68039 10.2861Z" fill="#FF6600" stroke="#FF6600"/>
</svg>
