<svg width="73" height="74" viewBox="0 0 73 74" fill="none" xmlns="http://www.w3.org/2000/svg">
<g filter="url(#filter0_d_1341_1051)">
<circle cx="37" cy="33" r="17" fill="#70C217"/>
<circle cx="37" cy="33" r="16.5" stroke="white" stroke-opacity="0.39"/>
</g>
<path d="M42.4254 36.3858C41.5012 35.8985 40.5734 35.4181 39.6476 34.9343C39.4022 34.8055 39.1394 34.7759 38.8993 34.9013C38.7009 35.0057 38.5111 35.1571 38.3666 35.3295C38.0272 35.7297 37.7157 36.1544 37.392 36.5705C35.3087 35.4948 33.7858 33.9023 32.7033 31.8364C33.1489 31.4813 33.5683 31.1489 33.9861 30.8113C34.4072 30.4718 34.5135 30.0262 34.2732 29.546C33.8067 28.6114 33.3351 27.6784 32.8547 26.7507C32.5571 26.1764 31.9374 26.0285 31.4013 26.3887C30.8234 26.7785 30.2509 27.1754 29.6713 27.5635C29.2153 27.8681 28.9994 28.2806 29.0221 28.8323C29.0622 29.8696 29.2641 30.8739 29.6539 31.8329C31.0132 35.1712 33.3698 37.5973 36.5306 39.2666C37.7124 39.8914 38.9691 40.2744 40.3162 40.337C40.915 40.3648 41.3779 40.1612 41.7034 39.6513C42.0794 39.063 42.4657 38.4835 42.8346 37.8935C43.2123 37.2913 43.0557 36.7204 42.4256 36.3879L42.4254 36.3858Z" fill="white"/>
<path d="M44.2966 32.0506C44.2757 31.8818 44.2408 31.7164 44.2095 31.5493C43.576 28.2198 40.6832 25.4804 37.3241 25.0313C36.8925 24.9739 36.5983 25.1479 36.5217 25.5082C36.4347 25.9155 36.6645 26.2809 37.0769 26.3801C37.3101 26.4375 37.5486 26.4758 37.7835 26.5333C39.0905 26.8588 40.2148 27.5011 41.1252 28.5018C42.0894 29.56 42.669 30.8062 42.9231 32.209C42.9979 32.6215 43.2259 32.813 43.614 32.8147C44.056 32.8164 44.3502 32.4892 44.2963 32.0506L44.2966 32.0506Z" fill="white"/>
<path d="M36.9619 28.7471C37.6946 28.9141 38.3682 29.2066 38.9565 29.68C39.8407 30.3918 40.3715 31.3196 40.6187 32.4195C40.7057 32.8041 40.925 32.9817 41.2887 32.9851C41.7552 32.9903 42.0859 32.6248 41.9971 32.1863C41.5133 29.7983 39.7641 27.7655 37.2422 27.3807C36.8071 27.3145 36.4712 27.513 36.3876 27.9063C36.2989 28.3222 36.5129 28.6442 36.962 28.7452L36.9619 28.7471Z" fill="white"/>
<path d="M36.7357 31.0531C37.042 31.1854 37.343 31.3525 37.6094 31.5525C37.9714 31.8223 38.1506 32.2261 38.3055 32.6439C38.4326 32.985 38.7528 33.1364 39.1079 33.0598C39.4142 32.9936 39.6161 32.7291 39.6144 32.3514C39.6075 32.3113 39.6004 32.2313 39.5743 32.1547C39.1722 30.9416 38.3682 30.1323 37.1499 29.7407C36.7373 29.6083 36.3892 29.7789 36.2727 30.1584C36.1508 30.5553 36.3458 30.8894 36.7322 31.0548L36.7357 31.0531Z" fill="white"/>
<defs>
<filter id="filter0_d_1341_1051" x="0" y="0" width="74" height="74" filterUnits="userSpaceOnUse" color-interpolation-filters="sRGB">
<feFlood flood-opacity="0" result="BackgroundImageFix"/>
<feColorMatrix in="SourceAlpha" type="matrix" values="0 0 0 0 0 0 0 0 0 0 0 0 0 0 0 0 0 0 127 0" result="hardAlpha"/>
<feOffset dy="4"/>
<feGaussianBlur stdDeviation="10"/>
<feComposite in2="hardAlpha" operator="out"/>
<feColorMatrix type="matrix" values="0 0 0 0 1 0 0 0 0 1 0 0 0 0 1 0 0 0 0.25 0"/>
<feBlend mode="normal" in2="BackgroundImageFix" result="effect1_dropShadow_1341_1051"/>
<feBlend mode="normal" in="SourceGraphic" in2="effect1_dropShadow_1341_1051" result="shape"/>
</filter>
</defs>
</svg>
