<svg width="15" height="15" viewBox="0 0 15 15" fill="none" xmlns="http://www.w3.org/2000/svg">
<path d="M0.778154 13.4232C0.571911 13.6413 0.571911 13.9949 0.778154 14.213C0.984397 14.431 1.31878 14.431 1.52503 14.213L7.5 7.89488L13.475 14.213C13.6812 14.4311 14.0156 14.4311 14.2218 14.213C14.4281 13.9949 14.4281 13.6413 14.2218 13.4232L8.24687 7.10512L13.475 1.5768C13.6812 1.35871 13.6812 1.00512 13.475 0.787037C13.2687 0.56895 12.9343 0.56895 12.7281 0.787037L7.5 6.31536L2.2719 0.787039C2.06565 0.568953 1.73127 0.568953 1.52503 0.787039C1.31878 1.00513 1.31878 1.35871 1.52503 1.5768L6.75313 7.10512L0.778154 13.4232Z" fill="black"/>
<path fill-rule="evenodd" clip-rule="evenodd" d="M1.07204 13.7846C1.07197 13.7846 1.0721 13.7845 1.07204 13.7846V13.7846ZM13.928 0.358646C14.3615 0.817095 14.3615 1.54674 13.928 2.00519L9.10499 7.10512L14.6748 12.9948C15.1084 13.4533 15.1084 14.1829 14.6748 14.6414C14.2226 15.1195 13.4742 15.1195 13.022 14.6414L7.5 8.80227L1.97802 14.6414C1.52579 15.1195 0.777391 15.1195 0.325165 14.6414C-0.108388 14.1829 -0.108388 13.4533 0.325165 12.9948L5.89501 7.10512L1.07204 2.00519C0.638484 1.54674 0.638483 0.817098 1.07204 0.358649C1.52426 -0.119547 2.27266 -0.119547 2.72489 0.358649L7.5 5.40797L12.2751 0.358647C12.7273 -0.119549 13.4757 -0.119548 13.928 0.358646Z" fill="black"/>
</svg>
