<svg width="62" height="62" viewBox="0 0 62 62" fill="none" xmlns="http://www.w3.org/2000/svg">
<circle cx="31" cy="31" r="30.5" fill="white" stroke="black"/>
<path d="M16.1929 33.6774C15.928 31.2084 15.7823 29.4466 15.5441 27.0852C15.4532 26.1058 15.3479 25.0742 15.2283 23.9895C15.1086 22.905 14.9817 21.8338 14.8485 20.7754C14.7151 19.7173 14.5738 18.6941 14.4259 17.7057C14.2774 16.7176 14.1356 15.8128 14 14.9902C14.4469 14.9902 14.9241 14.9815 15.4331 14.9639C15.9415 14.9465 16.4037 14.9291 16.8194 14.9115C17.2349 14.8941 17.7352 14.8591 18.3212 14.8065C18.497 16.8356 18.6332 18.5017 18.7289 19.8044C18.8243 21.1076 18.9067 22.1657 18.9757 22.9791C19.0447 23.7924 19.117 24.5754 19.1932 25.3271C19.2691 26.0794 19.3305 26.7794 19.3776 27.4261C19.4244 28.0733 19.4631 28.6245 19.4925 29.0791H20.1995L22.6725 15.1213C23.1737 15.1042 26.6398 14.9115 27.0645 14.8591C26.8609 15.6291 26.659 16.4771 26.4583 17.4039C26.2574 18.3313 26.0498 19.2928 25.8357 20.2899C25.6212 21.287 25.4175 22.3014 25.225 23.3332C25.0318 24.3656 24.8411 25.3624 24.6521 26.3242C24.2244 28.5806 23.803 30.9029 23.3078 33.2767L16.1929 33.6774Z" fill="black"/>
<path d="M46.351 41.0491C45.9946 41.9215 45.4796 42.6737 44.8058 43.3064C44.131 43.9387 43.3158 44.4277 42.3594 44.7728C41.4028 45.1178 40.3573 45.2903 39.2226 45.2903C38.4266 45.2903 37.613 45.0848 36.7837 44.6723C35.9534 44.2603 35.133 43.6038 34.3226 42.7026L36.1878 38.533C36.3472 38.7826 36.5771 39.0363 36.8773 39.295C37.1775 39.5538 37.5094 39.7793 37.8734 39.9708C38.2371 40.1624 38.5989 40.3209 38.9574 40.4453C39.3156 40.5702 39.6341 40.6324 39.9131 40.6324C40.1517 40.6324 40.3974 40.594 40.6498 40.5172C40.9022 40.4408 41.1315 40.3257 41.338 40.1722C41.5442 40.019 41.7036 39.8414 41.8165 39.6401C41.9294 39.4387 41.9746 39.2043 41.9525 38.9354C41.9146 38.4756 41.7251 38.049 41.3845 37.6558C41.0433 37.2632 40.6296 36.8893 40.1424 36.5344C39.6553 36.1802 39.1283 35.8206 38.5607 35.4562C37.9934 35.0925 37.4693 34.7087 36.9883 34.3063C36.5072 33.9035 36.0865 33.4535 35.7273 32.9547C35.3678 32.4565 35.1628 31.9006 35.1121 31.2869C35.0297 30.2902 35.2616 29.3604 35.8074 28.4978C36.353 27.6352 37.0633 26.8922 37.9372 26.2693C38.8115 25.6465 39.7807 25.1527 40.8451 24.7883C41.9095 24.4246 42.9293 24.2419 43.9049 24.2419C44.4421 24.2419 44.9546 24.3044 45.4427 24.4287C45.9305 24.5537 46.3599 24.7547 46.7316 25.0325C47.1024 25.3107 47.4102 25.6605 47.6543 26.0822C47.898 26.504 48.0459 27.0311 48.0982 27.6637C48.1203 27.9324 48.1174 28.2006 48.0901 28.4689C48.0622 28.7375 48.0414 29.0252 48.027 29.3315L43.7978 30.5395C43.8248 30.3863 43.8469 30.2331 43.8642 30.0793C43.8815 29.9261 43.8838 29.773 43.8709 29.6192C43.8235 29.0442 43.6846 28.6272 43.4543 28.3684C43.2237 28.1096 42.9396 27.9802 42.6013 27.9802C42.4419 27.9802 42.2523 28.038 42.0333 28.1528C41.8136 28.2679 41.5971 28.4166 41.3835 28.5986C41.1696 28.781 40.9932 28.9966 40.8547 29.2456C40.7158 29.4948 40.6587 29.7631 40.6825 30.0508C40.7203 30.5109 40.8864 30.8946 41.1805 31.201C41.4746 31.508 41.8312 31.7956 42.2517 32.0636C42.6721 32.3322 43.1272 32.6052 43.6182 32.883C44.1083 33.1608 44.571 33.5205 45.0056 33.9613C45.4398 34.4027 45.8189 34.9532 46.1422 35.6148C46.4654 36.2763 46.6691 37.1148 46.7528 38.1312C46.8407 39.2043 46.7069 40.177 46.351 41.0491Z" fill="black"/>
<path d="M38.6774 9L20.5323 54" stroke="black"/>
</svg>
