<svg width="46" height="42" viewBox="0 0 46 42" fill="none" xmlns="http://www.w3.org/2000/svg">
<path d="M7.54102 40.2598H20.036V41.9998H7.54102V40.2598Z" fill="#FFAD00"/>
<path fill-rule="evenodd" clip-rule="evenodd" d="M16.4482 35.4658H11.6968L10.9619 38.5907H17.048L16.4482 35.4658Z" fill="#FFAD00"/>
<path fill-rule="evenodd" clip-rule="evenodd" d="M16.7167 19.547L14.0644 27.1318C13.9123 27.5663 13.4351 27.796 12.9958 27.6477C12.5566 27.4973 12.3243 27.0252 12.4742 26.5908L15.1265 19.006C15.2786 18.5715 15.7558 18.3418 16.1951 18.4901C16.6343 18.6405 16.8666 19.1146 16.7167 19.547ZM28.3775 15.9668H13.5001C13.4747 15.9689 13.4494 15.971 13.4241 15.971C13.3987 15.971 13.3734 15.9689 13.348 15.9668H0.810912V15.971C0.589178 15.971 0.386452 16.0608 0.240738 16.2049C0.0950289 16.3491 0.00422372 16.5475 0.00422372 16.7689H0V29.1829H29.1802V16.7689C29.1802 16.5496 29.0893 16.3491 28.9436 16.2049C28.7979 16.0608 28.5973 15.971 28.3735 15.971L28.3775 15.9668ZM20.0614 20.5267C19.7404 20.1946 19.7552 19.6661 20.091 19.3486C20.4267 19.0311 20.961 19.0457 21.282 19.3778L24.2848 22.4923L24.287 22.4902C24.6079 22.8244 24.5953 23.3529 24.2595 23.6704L24.2447 23.685L21.2819 26.7576C20.961 27.0898 20.4288 27.1044 20.0909 26.7869C19.7552 26.4694 19.7404 25.943 20.0614 25.6088L22.5131 23.0667L20.0614 20.5267ZM9.09741 19.3507C9.43318 19.6682 9.44796 20.1946 9.12698 20.5288L6.67739 23.0688L9.12914 25.6109C9.45012 25.943 9.43534 26.4715 9.09957 26.789C8.76381 27.1064 8.22953 27.0918 7.90857 26.7597L4.94579 23.6871L4.93101 23.6724C4.59313 23.3549 4.58046 22.8265 4.90356 22.4923L4.90567 22.4943L7.90856 19.3799C8.22743 19.0457 8.76164 19.0332 9.09741 19.3507Z" fill="#FBD278"/>
<path fill-rule="evenodd" clip-rule="evenodd" d="M20.0029 31.4887C19.5362 31.4887 19.1582 31.8626 19.1582 32.3242C19.1582 32.7858 19.5362 33.1597 20.0029 33.1597H20.8835C21.3502 33.1597 21.7282 32.7858 21.7282 32.3242C21.7282 31.8626 21.3502 31.4887 20.8835 31.4887H20.0029ZM23.1114 31.4887C22.6447 31.4887 22.2667 31.8626 22.2667 32.3242C22.2667 32.7858 22.6447 33.1597 23.1114 33.1597H23.9919C24.4586 33.1597 24.8366 32.7858 24.8366 32.3242C24.8366 31.8626 24.4586 31.4887 23.9919 31.4887H23.1114ZM26.2198 31.4887C25.7531 31.4887 25.3751 31.8626 25.3751 32.3242C25.3751 32.7858 25.7531 33.1597 26.2198 33.1597H27.1004C27.5671 33.1597 27.9451 32.7858 27.9451 32.3242C27.9451 31.8626 27.5671 31.4887 27.1004 31.4887H26.2198ZM29.1847 30.8516H0.00292969V33.0009H0.00715341C0.00715341 33.2203 0.0979586 33.4208 0.243667 33.5649C0.389376 33.7091 0.589989 33.7989 0.813842 33.7989H28.3803V33.8031C28.5999 33.8031 28.8026 33.7132 28.9505 33.567C29.0962 33.4229 29.187 33.2245 29.187 33.003L29.1847 30.8516Z" fill="#FFAD00"/>
<path fill-rule="evenodd" clip-rule="evenodd" d="M43.008 17.7504H30.872V25.0026H44.5941C44.9236 25.0026 45.2213 24.871 45.4388 24.6579C45.6542 24.4449 45.7873 24.1482 45.7873 23.8224V8.53418H14.2695V14.3035H28.3804V14.2993C29.0688 14.2993 29.6918 14.575 30.1436 15.0221C30.4372 15.3124 30.6568 15.6738 30.7772 16.079H43.0127C43.4794 16.079 43.8574 16.4529 43.8574 16.9146C43.8531 17.3762 43.4751 17.7501 43.0084 17.7501L43.008 17.7504ZM43.008 12.4323H16.6557C16.189 12.4323 15.811 12.0584 15.811 11.5968C15.811 11.1351 16.189 10.7612 16.6557 10.7612L43.008 10.7633C43.4747 10.7633 43.8527 11.1372 43.8527 11.5988C43.8527 12.0584 43.4747 12.4323 43.008 12.4323ZM34.9308 21.055L36.2295 19.7077C36.5505 19.3756 37.0827 19.3609 37.4205 19.6784C37.7563 19.9959 37.7711 20.5223 37.4501 20.8565L36.7025 21.6315L37.4501 22.4064C37.7711 22.7385 37.7563 23.267 37.4205 23.5845C37.0848 23.902 36.5505 23.8874 36.2295 23.5553L34.9709 22.2497L34.9562 22.2351C34.6183 21.9176 34.6056 21.3892 34.9287 21.055L34.9308 21.055ZM38.1006 22.9997L39.2493 19.7181C39.4014 19.2836 39.8787 19.0539 40.3179 19.2022C40.7571 19.3526 40.9894 19.8247 40.8395 20.2591L39.6907 23.5407C39.5387 23.9752 39.0614 24.2049 38.6222 24.0566C38.1829 23.9062 37.9506 23.4341 38.1006 22.9997ZM41.5194 19.6784C41.8552 19.3609 42.3895 19.3756 42.7104 19.7077L44.0091 21.055L44.0113 21.0529C44.3322 21.3871 44.3196 21.9156 43.9838 22.233L43.969 22.2477L42.7104 23.5532C42.3895 23.8853 41.8573 23.8999 41.5194 23.5824C41.1837 23.2649 41.1689 22.7385 41.4899 22.4043L42.2374 21.6294L41.4899 20.8544C41.1689 20.5223 41.1816 19.9938 41.5194 19.6784Z" fill="#FFAD00"/>
<path fill-rule="evenodd" clip-rule="evenodd" d="M44.5942 0H15.4627C15.1332 0 14.8355 0.131594 14.618 0.344656C14.4026 0.557718 14.2695 0.854327 14.2695 1.18019V6.86607H45.7873V1.18019C45.7873 0.854327 45.6542 0.559782 45.4388 0.344656C45.2213 0.131594 44.9236 0 44.5942 0ZM27.2381 3.43196C27.2381 4.1568 26.9403 4.81474 26.461 5.28895C25.9795 5.7652 25.3164 6.05764 24.5836 6.05764C23.8508 6.05764 23.1857 5.76311 22.7063 5.28895C22.2248 4.8127 21.9291 4.1568 21.9291 3.43196C21.9291 2.70712 22.2269 2.04918 22.7063 1.57497C23.1877 1.09872 23.8508 0.80628 24.5836 0.80628C25.3164 0.80628 25.9816 1.1008 26.461 1.57497C26.9403 2.05122 27.2381 2.70712 27.2381 3.43196ZM44.0941 4.53694H29.973C29.5063 4.53694 29.1283 4.16304 29.1283 3.70141C29.1283 3.23978 29.5063 2.86588 29.973 2.86588H44.0941C44.5608 2.86588 44.9388 3.23978 44.9388 3.70141C44.9388 4.16304 44.5608 4.53694 44.0941 4.53694ZM21.0152 3.43196C21.0152 4.1568 20.7174 4.81474 20.2381 5.28895C19.7566 5.7652 19.0935 6.05764 18.3607 6.05764C17.6279 6.05764 16.9628 5.76311 16.4834 5.28895C16.0019 4.8127 15.7063 4.1568 15.7063 3.43196C15.7063 2.70712 16.004 2.04918 16.4834 1.57497C16.9648 1.09872 17.6279 0.80628 18.3607 0.80628C19.0935 0.80628 19.7587 1.1008 20.2381 1.57497C20.7174 2.05122 21.0152 2.70712 21.0152 3.43196Z" fill="#FFAD00"/>
<path fill-rule="evenodd" clip-rule="evenodd" d="M25.2656 2.75549C25.0903 2.58212 24.8496 2.47559 24.5814 2.47559C24.3132 2.47559 24.0725 2.58212 23.8972 2.75549C23.722 2.92886 23.6143 3.16699 23.6143 3.43226C23.6143 3.69753 23.722 3.93567 23.8972 4.10902C24.0725 4.28238 24.3132 4.38893 24.5814 4.38893C24.8496 4.38893 25.0903 4.2824 25.2656 4.10902C25.4409 3.93565 25.5486 3.69753 25.5486 3.43226C25.5486 3.16906 25.4409 2.92885 25.2656 2.75549Z" fill="#FFAD00"/>
<path fill-rule="evenodd" clip-rule="evenodd" d="M19.042 2.75549C18.8667 2.58212 18.626 2.47559 18.3578 2.47559C18.0896 2.47559 17.8489 2.58212 17.6736 2.75549C17.4983 2.92886 17.3906 3.16699 17.3906 3.43226C17.3906 3.69753 17.4983 3.93567 17.6736 4.10902C17.8489 4.28238 18.0896 4.38893 18.3578 4.38893C18.626 4.38893 18.8667 4.2824 19.042 4.10902C19.2172 3.93565 19.3249 3.69753 19.3249 3.43226C19.3249 3.16906 19.2172 2.92885 19.042 2.75549Z" fill="#FFAD00"/>
</svg>
