<svg width="43" height="43" viewBox="0 0 43 43" fill="none" xmlns="http://www.w3.org/2000/svg">
<path d="M16.6741 6.27522L19.6932 0.275391H18.1837L15.1646 6.27522H16.6741Z" fill="#FFB81D"/>
<path d="M13.6543 6.27522L16.6734 0.275391H4.59695C3.76333 0.275391 3.0874 0.947021 3.0874 1.77535V6.27522H13.6543ZM10.6352 1.77535C11.4688 1.77535 12.1447 2.44698 12.1447 3.27531C12.1447 4.10364 11.4688 4.77527 10.6352 4.77527C9.80153 4.77527 9.1256 4.10364 9.1256 3.27531C9.1256 2.44698 9.80153 1.77535 10.6352 1.77535ZM6.1065 1.77535C6.94013 1.77535 7.61605 2.44698 7.61605 3.27531C7.61605 4.10364 6.94013 4.77527 6.1065 4.77527C5.27288 4.77527 4.59695 4.10364 4.59695 3.27531C4.59695 2.44698 5.27288 1.77535 6.1065 1.77535Z" fill="#FFB81D"/>
<path d="M39.3168 6.27522V1.77535C39.3168 0.947021 38.6409 0.275391 37.8073 0.275391H21.2022L18.1831 6.27522H39.3168Z" fill="#FFB81D"/>
<path d="M3.08697 22.7754H0.0678711V40.7749H3.08697C3.9206 40.7749 4.59652 40.1033 4.59652 39.2749V24.2753C4.59652 23.447 3.9206 22.7754 3.08697 22.7754Z" fill="#FFB81D" fill-opacity="0.58"/>
<path d="M5.68819 22.7761H12.1449C12.9513 22.7761 13.7091 23.0881 14.2795 23.655L16.4141 25.7746C18.1936 25.776 23.1791 25.779 23.5504 25.782C25.2146 25.8332 26.5755 26.8939 27.0544 28.3544L36.3636 23.3827C37.1055 22.984 37.9398 22.773 38.7755 22.773C38.9571 22.773 39.137 22.7905 39.3166 22.8099V7.77344H3.0874V21.2731C4.20067 21.2731 5.16437 21.8821 5.68797 22.776L5.68819 22.7761ZM26.0024 12.0998C25.6827 11.8346 25.6392 11.3615 25.9057 11.0428C26.1726 10.7251 26.648 10.6819 26.9695 10.9467L31.4981 14.6966C31.67 14.8396 31.7694 15.0505 31.7694 15.2732C31.7694 15.4958 31.67 15.7067 31.4981 15.8497L26.9695 19.5996C26.828 19.7158 26.6571 19.773 26.4866 19.773C26.27 19.773 26.0553 19.6816 25.9057 19.5035C25.6388 19.1848 25.6823 18.7117 26.0024 18.4465L29.8353 15.2732L26.0024 12.0998ZM18.291 18.636L22.8196 11.1362C23.0349 10.7803 23.5036 10.6682 23.8544 10.8791C24.2126 11.0924 24.3291 11.5531 24.1138 11.908L19.5852 19.4078C19.4437 19.6421 19.1936 19.7717 18.9372 19.7717C18.8051 19.7717 18.671 19.7372 18.5494 19.6649C18.1922 19.452 18.0766 18.9913 18.2909 18.636H18.291ZM10.9067 14.6966L15.4353 10.9467C15.7568 10.6815 16.2322 10.7247 16.4991 11.0428C16.7659 11.3616 16.7225 11.8346 16.4024 12.0998L12.5695 15.2731L16.4024 18.4464C16.7221 18.7116 16.7656 19.1847 16.4991 19.5034C16.3495 19.6816 16.1348 19.773 15.9182 19.773C15.748 19.773 15.5768 19.7157 15.4353 19.5995L10.9067 15.8496C10.7348 15.7067 10.6354 15.4957 10.6354 15.2731C10.6354 15.0504 10.7348 14.8395 10.9067 14.6965L10.9067 14.6966Z" fill="#FFB81D"/>
<path d="M40.6055 24.7817C39.5154 24.1345 38.1946 24.1064 37.0786 24.7054L27.1932 29.9856C26.962 31.8355 25.3884 33.2765 23.4658 33.2765H17.3972C16.9801 33.2765 16.6424 32.9411 16.6424 32.5266C16.6424 32.1121 16.9801 31.7766 17.3972 31.7766H23.4658C24.7146 31.7766 25.7301 30.7675 25.7301 29.527C25.7301 28.31 24.7509 27.3216 23.5352 27.2844C23.0834 27.2791 15.7883 27.2774 15.7883 27.2774L13.2113 24.7174C12.9282 24.4362 12.5441 24.2782 12.1438 24.2782L6.10596 24.2778V39.2783H8.77122L13.6537 40.7756C15.6822 41.4234 17.8518 42.2752 20.2556 42.2752C22.4293 42.2752 24.5713 41.559 26.4198 40.1515L40.7959 30.6975C41.7596 30.0416 42.3352 28.9578 42.3352 27.8007C42.3352 26.5512 41.6889 25.4235 40.6052 24.782L40.6055 24.7817Z" fill="#FFB81D" fill-opacity="0.58"/>
</svg>
