<svg width="46" height="46" viewBox="0 0 46 46" fill="none" xmlns="http://www.w3.org/2000/svg">
<path d="M45.2924 40.127H0.70765C0.28313 40.127 0 40.4101 0 40.8346V44.9391C0 45.3636 0.283122 45.6467 0.70765 45.6467H45.2924C45.7169 45.6467 46 45.3636 46 44.9391V40.8346C46 40.4808 45.7169 40.127 45.2924 40.127Z" fill="#FFB81D"/>
<path d="M16.9834 30.2891H20.522V34.3936H16.9834V30.2891Z" fill="#FFB81D" fill-opacity="0.58"/>
<path d="M16.9834 21.7969H20.522V25.9014H16.9834V21.7969Z" fill="#FFB81D" fill-opacity="0.58"/>
<path d="M25.4756 30.2891H29.0142V34.3936H25.4756V30.2891Z" fill="#FFB81D" fill-opacity="0.58"/>
<path d="M16.9834 13.375H20.522V17.4795H16.9834V13.375Z" fill="#FFB81D" fill-opacity="0.58"/>
<path d="M16.9834 4.95312H20.522V9.05762H16.9834V4.95312Z" fill="#FFB81D" fill-opacity="0.58"/>
<path d="M25.4756 21.7969H29.0142V25.9014H25.4756V21.7969Z" fill="#FFB81D" fill-opacity="0.58"/>
<path d="M25.4756 4.95312H29.0142V9.05762H25.4756V4.95312Z" fill="#FFB81D" fill-opacity="0.58"/>
<path d="M25.4756 13.375H29.0142V17.4795H25.4756V13.375Z" fill="#FFB81D" fill-opacity="0.58"/>
<path d="M33.8998 0.707976C33.8998 0.283456 33.5459 0.000325765 33.1921 0.000325765L12.8102 0C12.3857 0 12.1025 0.283122 12.1025 0.70765V38.7108H33.899L33.8998 0.707976ZM21.9402 35.0304C21.9402 35.3842 21.5864 35.7381 21.2325 35.7381H16.2786C15.8541 35.7381 15.571 35.3842 15.571 35.0304V29.5103C15.571 29.0857 15.8541 28.8026 16.2786 28.8026H21.2325C21.5864 28.8026 21.9402 29.0857 21.9402 29.5103V35.0304ZM21.9402 26.6089C21.9402 27.0334 21.5864 27.3165 21.2325 27.3165H16.2786C15.8541 27.3165 15.571 27.0334 15.571 26.6089V21.0887C15.571 20.6642 15.8541 20.3811 16.2786 20.3811H21.2325C21.5864 20.3811 21.9402 20.6642 21.9402 21.0887V26.6089ZM21.9402 18.1874C21.9402 18.5412 21.5864 18.895 21.2325 18.895H16.2786C15.8541 18.895 15.571 18.5412 15.571 18.1874V12.6672C15.571 12.2427 15.8541 11.9596 16.2786 11.9596H21.2325C21.5864 11.9596 21.9402 12.2427 21.9402 12.6672V18.1874ZM21.9402 9.69498C21.9402 10.1195 21.5864 10.4026 21.2325 10.4026H16.2786C15.8541 10.4026 15.571 10.1195 15.571 9.69498V4.24556C15.571 3.89174 15.8541 3.53791 16.2786 3.53791H21.2325C21.5864 3.53791 21.9402 3.89174 21.9402 4.24556V9.69498ZM30.4326 35.0296C30.4326 35.3834 30.0788 35.7372 29.7249 35.7372H24.771C24.3465 35.7372 24.0634 35.3834 24.0634 35.0296V29.5094C24.0634 29.0849 24.3465 28.8018 24.771 28.8018H29.7249C30.0788 28.8018 30.4326 29.0849 30.4326 29.5094V35.0296ZM30.4326 26.6081C30.4326 27.0326 30.0788 27.3157 29.7249 27.3157H24.771C24.3465 27.3157 24.0634 27.0326 24.0634 26.6081V21.0879C24.0634 20.6634 24.3465 20.3803 24.771 20.3803H29.7249C30.0788 20.3803 30.4326 20.6634 30.4326 21.0879V26.6081ZM30.4326 18.1865C30.4326 18.5404 30.0788 18.8942 29.7249 18.8942H24.771C24.3465 18.8942 24.0634 18.5404 24.0634 18.1865V12.6664C24.0634 12.2419 24.3465 11.9588 24.771 11.9588H29.7249C30.0788 11.9588 30.4326 12.2419 30.4326 12.6664V18.1865ZM30.4326 9.69414C30.4326 10.1187 30.0788 10.4018 29.7249 10.4018H24.771C24.3465 10.4018 24.0634 10.1187 24.0634 9.69414V4.24473C24.0634 3.8909 24.3465 3.53708 24.771 3.53708H29.7249C30.0788 3.53708 30.4326 3.8909 30.4326 4.24473V9.69414Z" fill="#FFB81D" fill-opacity="0.58"/>
<path d="M44.444 15.1436C44.444 14.9312 44.3733 14.7191 44.1609 14.5774L36.7302 8.27886C36.5178 8.06644 36.235 8.06644 35.9519 8.20816C35.6687 8.34956 35.5273 8.56199 35.5273 8.84511V38.7095H44.3734L44.3731 15.1431L44.444 15.1436ZM41.1178 35.7374H38.9238C38.57 35.7374 38.2162 35.3836 38.2162 35.0297C38.2162 34.6052 38.57 34.3221 38.9238 34.3221H41.1178C41.4717 34.3221 41.8255 34.6052 41.8255 35.0297C41.8255 35.4543 41.5427 35.7374 41.1178 35.7374ZM41.1178 30.1466H38.9238C38.57 30.1466 38.2162 29.7928 38.2162 29.439C38.2162 29.0851 38.57 28.7313 38.9238 28.7313H41.1178C41.4717 28.7313 41.8255 29.0851 41.8255 29.439C41.8255 29.7928 41.5427 30.1466 41.1178 30.1466ZM41.1178 24.4851H38.9238C38.57 24.4851 38.2162 24.202 38.2162 23.7774C38.2162 23.3529 38.57 23.0698 38.9238 23.0698H41.1178C41.4717 23.0698 41.8255 23.3529 41.8255 23.7774C41.8255 24.1313 41.5427 24.4851 41.1178 24.4851ZM41.1178 18.8236H38.9238C38.57 18.8236 38.2162 18.5404 38.2162 18.1159C38.2162 17.6914 38.57 17.4083 38.9238 17.4083H41.1178C41.4717 17.4083 41.8255 17.6914 41.8255 18.1159C41.8255 18.5404 41.5427 18.8236 41.1178 18.8236Z" fill="#FFB81D"/>
<path d="M10.4068 8.84683C10.4068 8.56371 10.2654 8.35161 9.9823 8.20989C9.69918 8.06849 9.41605 8.13919 9.20395 8.28059L1.77297 14.5791C1.63158 14.7205 1.56055 14.9329 1.56055 15.1453V38.7818H10.4066L10.4068 8.84683ZM7.08067 35.7394H4.887C4.46248 35.7394 4.17935 35.3856 4.17935 35.0318C4.17935 34.6073 4.46248 34.3241 4.887 34.3241H7.081C7.50552 34.3241 7.78865 34.6073 7.78865 35.0318C7.78833 35.4563 7.50553 35.7394 7.08068 35.7394H7.08067ZM7.08067 30.1487H4.887C4.46248 30.1487 4.17935 29.7948 4.17935 29.441C4.17935 29.0872 4.46248 28.7334 4.887 28.7334H7.081C7.50552 28.7334 7.78865 29.0872 7.78865 29.441C7.78833 29.7948 7.50553 30.1487 7.08068 30.1487H7.08067ZM7.08067 24.4871H4.887C4.46248 24.4871 4.17935 24.204 4.17935 23.7795C4.17935 23.355 4.46248 23.0718 4.887 23.0718H7.081C7.50552 23.0718 7.78865 23.355 7.78865 23.7795C7.78833 24.1333 7.50553 24.4871 7.08068 24.4871H7.08067ZM7.08067 18.8256H4.887C4.46248 18.8256 4.17935 18.5425 4.17935 18.118C4.17935 17.6934 4.46248 17.4103 4.887 17.4103H7.081C7.50552 17.4103 7.78865 17.6934 7.78865 18.118C7.78833 18.5425 7.50553 18.8256 7.08068 18.8256H7.08067Z" fill="#FFB81D"/>
</svg>
