<svg width="86" height="34" viewBox="0 0 86 34" fill="none" xmlns="http://www.w3.org/2000/svg">
<path fill-rule="evenodd" clip-rule="evenodd" d="M0.918644 3.81834L0.917969 3.77753V0.510397H4.17776V24.4733L4.17911 24.548V27.7812H0.917969V24.5141L0.918644 24.4733V3.81834Z" fill="#52606D"/>
<path fill-rule="evenodd" clip-rule="evenodd" d="M34.061 17.8501C34.1446 22.8065 37.2107 26.7702 40.9097 26.7038C44.608 26.6374 47.5379 22.5658 47.4542 17.6094C47.3698 12.6523 44.3037 8.6886 40.6047 8.7557C36.9064 8.8221 33.9766 12.8937 34.061 17.8501ZM61.0514 11.8575C61.1365 12.0464 60.9346 11.5753 60.9346 11.5753L61.0514 11.8575ZM63.2731 32.3769C63.4225 32.1209 63.6307 31.7294 63.8783 31.2403L63.2731 32.3769ZM63.4646 10.1475C63.5041 10.2575 63.5497 10.3723 63.6009 10.4934L64.6986 13.1974L63.4646 10.1475ZM49.8058 23.7598C51.8206 25.5998 53.6348 26.551 55.9547 26.551C58.3291 26.569 60.44 25.4006 60.44 23.1517C60.44 21.275 58.7863 20.1772 55.8315 18.9203C53.3277 17.8301 51.4644 17.0657 50.4905 15.4878C50.6095 16.1733 50.6718 16.8817 50.6718 17.6066C50.6718 23.6933 46.2839 28.6283 40.871 28.6283C35.4581 28.6283 31.0702 23.6933 31.0702 17.6066C31.0702 13.9369 32.6652 10.6864 35.1171 8.68307H28.4848V24.4736L28.4855 24.5366V27.7816H25.5397V24.6424C25.5418 24.5871 25.5425 24.5311 25.5425 24.4736V8.68307H22.9453V6.69567H25.5805C25.9208 2.68629 28.3894 0.418724 31.8068 0.418724C34.0229 0.418724 35.2395 0.651157 35.9422 0.978355V3.69624C35.9312 3.89892 35.9312 4.02275 35.9312 4.02275C35.9008 4.01929 35.8281 4.0179 35.8281 4.0179C34.7616 3.02801 33.7096 2.29129 31.2521 2.29406C29.2947 2.29406 28 3.89408 28.4523 6.69567H39.4773C39.9331 6.62303 40.3979 6.58498 40.871 6.58498C44.7975 6.58498 48.1853 9.18181 49.7491 12.9325C49.7346 12.7243 49.7277 12.5071 49.7277 12.2802C49.7277 8.36693 53.4924 6.70259 57.403 6.71089C57.5524 6.7102 57.699 6.71088 57.8429 6.71434C59.2193 6.6922 61.1801 7.14392 62.3774 7.46074L64.6986 13.1974L68.0158 21.3379L68.4052 22.6453L68.8388 21.3379L73.0337 10.8891C73.8077 8.01206 76.871 6.76691 80.2546 6.77383C81.9367 6.76622 83.179 6.97029 84.6688 7.4974V10.6573C82.8345 9.31602 81.521 8.53641 79.4398 8.53641C77.6104 8.53641 75.4116 9.3513 75.4116 12.0602C75.3764 14.096 76.5902 14.4682 80.1523 16.2467C83.08 17.5257 85.781 18.9376 85.7969 22.2075C85.7969 27.6591 80.4586 28.6034 77.8601 28.6117C75.5403 28.6117 73.4141 28.0355 72.2314 27.0456V23.4464L72.4216 23.6048C74.5318 25.5874 76.3966 26.6146 78.8063 26.6146C81.1814 26.6326 83.2917 25.4635 83.2917 23.2147C83.2917 21.3379 81.6379 20.2401 78.6832 18.9832C75.8591 17.7533 74.0062 16.9384 73.2488 14.9012C72.0972 17.727 66.7403 30.853 65.4795 33.6587H62.5911L63.8983 31.203C64.6225 29.7683 65.6759 27.5173 66.6117 25.3639L61.0514 11.8575C61.0141 11.7752 60.9228 11.5677 60.7368 11.1422C60.31 10.1641 59.913 9.26068 58.7123 8.80551C58.069 8.5876 57.3843 8.47346 56.5882 8.47346C54.7588 8.47346 52.4189 9.28835 52.4189 11.9972C52.3836 14.0331 53.7379 14.4052 57.3006 16.183C60.2284 17.4628 62.9293 18.8746 62.9452 22.1445C62.9452 27.5962 57.6063 28.5397 55.0078 28.5487C52.9452 28.5487 51.0349 28.0929 49.8058 27.296V23.7598Z" fill="#52606D"/>
<path fill-rule="evenodd" clip-rule="evenodd" d="M10.2594 6.89888L10.2954 9.28403L10.2933 9.44451L10.3251 9.44382C10.3631 9.3442 10.4143 9.25981 10.4627 9.19686C11.66 7.90537 13.1692 6.62217 16.7561 6.62217C20.1895 6.62217 22.4118 9.55727 22.501 11.4049L22.5045 24.4735V24.5385V27.7814H19.5622V23.8848L19.5615 12.7594C19.5615 10.4558 17.5522 8.79012 15.0927 8.79012C13.0481 8.79012 10.424 10.6412 10.3369 12.5152V24.4769L10.3383 24.5648V27.7842H7.39453V9.64511L7.39525 6.89888H10.2594Z" fill="#52606D"/>
</svg>
