<svg width="122" height="32" viewBox="0 0 122 32" fill="none" xmlns="http://www.w3.org/2000/svg">
<path fill-rule="evenodd" clip-rule="evenodd" d="M56.9087 31.6174H0.890625V0H56.9087V31.6174ZM20.984 25.9101C20.3899 25.9101 20.0571 25.4497 20.0571 24.9557C20.0571 24.0859 20.9667 23.6201 22.8844 23.3963V25.1368C22.2564 25.6581 21.6276 25.9101 20.984 25.9101ZM20.3571 27.2339C21.2802 27.2339 22.1397 26.9937 22.9345 26.5014L23.1149 27.1483H24.9338C24.9308 27.1346 24.9318 21.8187 24.9318 21.8187C24.9318 20.4686 23.7919 19.6388 21.7606 19.6388C20.2732 19.6388 19.1666 20.1174 18.4383 21.0745L19.8265 21.8187C20.2885 21.271 20.9339 20.9735 21.7287 20.9735C22.5217 20.9735 22.9489 21.2846 22.9489 21.8187V22.2281C19.6452 22.5811 18.0419 23.4527 18.0419 25.0967C18.0419 26.3213 18.9024 27.2339 20.3571 27.2339ZM28.2538 19.7689L26.5558 19.99V27.1375H28.5885V21.866C29.2839 21.3147 29.8934 21.0481 30.5048 21.0481C31.2486 21.0481 31.4955 21.4548 31.4955 22.3573V27.1375H33.5472V22.0179C33.5472 20.4294 32.7185 19.6279 31.1163 19.6279C30.1572 19.6279 29.3995 19.9791 28.4404 20.6414L28.2538 19.7689ZM47.0975 20.9344C48.0714 20.9344 48.668 21.5122 48.668 22.4993H45.5112C45.5932 21.5003 46.1709 20.9344 47.0975 20.9344ZM43.4606 23.4673C43.4606 25.8874 44.8326 27.2794 47.1301 27.2794C48.7332 27.2794 49.9215 26.7299 50.5833 25.689L49.0809 24.9012C48.6 25.5489 48.0893 25.8446 47.3149 25.8446C46.1067 25.8446 45.4953 25.1423 45.4795 23.7485H50.6664C50.6664 23.6847 50.6709 23.6213 50.6753 23.5581C50.6798 23.4951 50.6842 23.4321 50.6842 23.3689C50.6842 20.979 49.3447 19.6279 47.0975 19.6279C44.8504 19.6279 43.4606 21.02 43.4606 23.4673ZM6.04391 23.4791C6.04391 22.5375 6.32552 21.2365 7.85746 21.2365C9.38931 21.2365 9.6729 22.5375 9.6729 23.4791C9.6729 24.4235 9.38931 25.7236 7.85746 25.7236C6.32552 25.7236 6.04391 24.4235 6.04391 23.4791ZM4 23.4791C4 26.1403 5.82976 27.3593 7.85746 27.3593C9.88517 27.3593 11.714 26.1403 11.714 23.4791C11.714 20.818 9.88517 19.5988 7.85746 19.5988C5.82976 19.5988 4 20.818 4 23.4791ZM15.068 19.7935H13.1176V27.1428H15.2011V22.2536C15.5146 21.5986 16.4909 21.4712 17.3831 21.4712H17.4815V19.6552C17.3995 19.6424 17.3011 19.6424 17.2181 19.6424C16.3597 19.6424 15.4414 20.192 15.068 20.6578V19.7935ZM42.2268 26.7262V19.7663H40.4932L40.3321 20.6088C40.1729 20.2475 39.5795 19.6298 38.084 19.6325C36.4265 19.6334 34.9528 21.0089 34.9528 23.4691C34.9528 25.9538 36.384 27.1401 38.1977 27.1401C39.3898 27.1401 39.8858 26.6207 40.2117 26.0711L40.2413 26.1003V26.9546C40.2413 28.1037 39.7297 28.5822 38.6668 28.5822C37.5191 28.5822 37.2829 28.2228 37.2009 27.8616L35.1761 28.1673C35.4616 29.4311 36.8779 30.0069 38.41 29.9996C42.1261 29.9769 42.2268 27.9571 42.2268 26.7262ZM40.2542 23.0852C40.2542 24.0623 40.1257 25.5535 38.5681 25.5653C37.0646 25.5762 36.9936 24.0742 36.9936 23.1662C36.9936 21.5085 37.8153 21.0026 38.5553 21.0026C39.6586 21.0026 40.2542 21.937 40.2542 23.0852ZM54.4208 19.4351H54.8476V17.0059H54.1957L53.4391 18.8509L52.6696 17.0059H52.0126V19.4351H52.4394V17.4062H52.4513L53.2969 19.4351H53.5655L54.4091 17.4062H54.4208V19.4351ZM50.6822 17.328H51.4881V17.0059H49.4513V17.328H50.2584V19.4351H50.6822V17.328Z" fill="#52606D"/>
<path d="M63.9154 16.6067H67.1154C68.2178 16.6067 68.8564 16.0518 68.8564 15.0769C68.8564 14.13 68.2178 13.5877 67.1154 13.5877H63.9154V16.6067ZM63.9154 12.3691H66.87C67.7395 12.3691 68.3915 11.8933 68.3915 11.0291C68.3915 10.0533 67.8555 9.70078 66.87 9.70078H63.9154V12.3691ZM62.1033 8.32031H67.1308C68.9853 8.32031 70.2027 9.10632 70.2027 10.717C70.2027 11.6928 69.6661 12.3951 68.7254 12.7756V12.8016C69.9861 13.0598 70.6676 13.9807 70.6676 15.2937C70.6676 16.8108 69.5358 17.9871 66.8565 17.9871H62.1033M78.6226 17.9871H76.9992V17.0123H76.9706C76.5651 17.7174 75.6662 18.1787 74.8396 18.1787C72.8829 18.1787 72.0437 17.2569 72.0437 15.4295V10.9868H73.6942V15.2801C73.6942 16.5113 74.2313 16.9583 75.1301 16.9583C76.5072 16.9583 76.9706 16.1346 76.9706 15.049V10.9868H78.6226M81.5491 15.7406C81.6358 16.6345 82.3616 16.9583 83.2435 16.9583C83.8694 16.9583 84.9551 16.8378 84.9108 16.0401C84.8675 15.2262 83.6651 15.1318 82.4621 14.8737C81.2441 14.6317 80.0561 14.2243 80.0561 12.8016C80.0561 11.271 81.8255 10.7979 83.1868 10.7979C84.7222 10.7979 86.1129 11.3933 86.3168 12.9491H84.5933C84.4464 12.2207 83.7959 12.0156 83.0702 12.0156C82.593 12.0156 81.707 12.1253 81.707 12.7333C81.707 13.4932 82.9255 13.6021 84.1428 13.8574C85.3449 14.1156 86.5627 14.522 86.5627 15.9025C86.5627 17.5699 84.7664 18.1787 83.2141 18.1787C81.3327 18.1787 79.9261 17.3927 79.8968 15.7406M87.9692 10.9868H89.6197V17.9871H87.9692V10.9868ZM87.9692 8.32031H89.6197V9.78263H87.9692M91.52 10.9868H93.0838V12.0156L93.1122 12.0436C93.6041 11.271 94.4606 10.7979 95.4461 10.7979C97.0691 10.7979 98.0968 11.6092 98.0968 13.1811V17.9871H96.445V13.5877C96.4161 12.4914 95.9522 12.0156 94.9812 12.0156C93.8812 12.0156 93.1691 12.8296 93.1691 13.8574V17.9871H91.52M104.952 13.8718C104.895 12.8961 104.185 12.0156 103.068 12.0156C101.923 12.0156 101.141 12.8296 101.097 13.8718H104.952ZM101.097 14.8863C101.097 15.9844 101.734 16.9583 103.111 16.9583C104.067 16.9583 104.646 16.5662 104.937 15.7946H106.502C106.138 17.3243 104.749 18.1787 103.111 18.1787C100.764 18.1787 99.4437 16.6481 99.4437 14.4942C99.4437 12.504 100.835 10.7979 103.068 10.7979C105.43 10.7979 106.879 12.789 106.605 14.8863M109.212 15.7406C109.299 16.6345 110.022 16.9583 110.908 16.9583C111.529 16.9583 112.619 16.8378 112.575 16.0401C112.53 15.2262 111.327 15.1318 110.124 14.8737C108.908 14.6317 107.718 14.2243 107.718 12.8016C107.718 11.271 109.487 10.7979 110.85 10.7979C112.386 10.7979 113.778 11.3933 113.98 12.9491H112.255C112.111 12.2207 111.458 12.0156 110.733 12.0156C110.255 12.0156 109.372 12.1253 109.372 12.7333C109.372 13.4932 110.588 13.6021 111.807 13.8574C113.01 14.1156 114.226 14.522 114.226 15.9025C114.226 17.5699 112.428 18.1787 110.879 18.1787C108.995 18.1787 107.589 17.3927 107.561 15.7406M116.732 15.7406C116.821 16.6345 117.544 16.9583 118.427 16.9583C119.051 16.9583 120.139 16.8378 120.095 16.0401C120.05 15.2262 118.847 15.1318 117.644 14.8737C116.428 14.6317 115.24 14.2243 115.24 12.8016C115.24 11.271 117.007 10.7979 118.369 10.7979C119.906 10.7979 121.298 11.3933 121.499 12.9491H119.775C119.63 12.2207 118.978 12.0156 118.254 12.0156C117.775 12.0156 116.892 12.1253 116.892 12.7333C116.892 13.4932 118.108 13.6021 119.326 13.8574C120.53 14.1156 121.746 14.522 121.746 15.9025C121.746 17.5699 119.948 18.1787 118.399 18.1787C116.515 18.1787 115.109 17.3927 115.081 15.7406M63.568 27.3328C63.568 28.8221 64.7421 29.4067 66.192 29.4067C67.7862 29.4067 68.3799 28.6746 68.3799 27.9417C68.3799 27.1979 67.9459 26.9003 67.5244 26.7527C66.8007 26.4938 65.8595 26.3166 64.437 25.9515C62.6692 25.5046 62.1486 24.5027 62.1486 23.5018C62.1486 21.5638 64.0608 20.6581 65.9307 20.6581C68.0903 20.6581 69.9004 21.7274 69.9004 23.7446H68.0903C68.0037 22.4999 67.1048 22.0376 65.8595 22.0376C65.0174 22.0376 63.9598 22.3219 63.9598 23.2985C63.9598 23.9748 64.4525 24.3535 65.1925 24.5432C65.3514 24.5845 67.6408 25.1385 68.1764 25.2887C69.5386 25.6673 70.1902 26.7527 70.1902 27.752C70.1902 29.9193 68.1346 30.7853 66.075 30.7853C63.7129 30.7853 61.8002 29.7304 61.7578 27.3328M76.7103 26.4389C76.6536 25.4659 75.9423 24.5845 74.8289 24.5845C73.6836 24.5845 72.9003 25.3975 72.8569 26.4389H76.7103ZM72.8569 27.4551C72.8569 28.5523 73.495 29.5272 74.8707 29.5272C75.8269 29.5272 76.4062 29.1333 76.6978 28.3617H78.2627C77.9008 29.8923 76.5092 30.7467 74.8707 30.7467C72.5245 30.7467 71.2065 29.216 71.2065 27.063C71.2065 25.0711 72.5961 23.366 74.8289 23.366C77.1905 23.366 78.6399 25.3561 78.3638 27.4551M79.6384 23.5557H81.1893V24.9083H81.2182C81.4077 24.1646 82.3912 23.366 83.4067 23.366C83.7819 23.366 83.8839 23.392 84.0283 23.4064V24.8966C83.7978 24.8687 83.5509 24.8273 83.3196 24.8273C82.1893 24.8273 81.2894 25.6826 81.2894 27.224V30.556H79.6384M84.2458 23.5557H86.0446L87.9414 28.9318H87.9708L89.7968 23.5557H91.5061L88.8277 30.556H86.9704M92.6513 23.5557H94.3042V30.556H92.6513V23.5557ZM92.6513 20.8875H94.3042V22.3497H92.6513M101.099 25.8975C100.968 25.0449 100.302 24.5845 99.39 24.5845C98.5334 24.5845 97.3313 25.0045 97.3313 27.1296C97.3313 28.2943 97.8829 29.5272 99.3173 29.5272C100.274 29.5272 100.94 28.9318 101.099 27.93H102.751C102.447 29.7449 101.244 30.7467 99.3173 30.7467C96.9695 30.7467 95.6795 29.189 95.6795 27.1296C95.6795 25.018 96.9118 23.366 99.375 23.366C101.115 23.366 102.593 24.178 102.751 25.8975M109.272 26.4389C109.214 25.4659 108.504 24.5845 107.389 24.5845C106.245 24.5845 105.461 25.3975 105.418 26.4389H109.272ZM105.418 27.4551C105.418 28.5523 106.055 29.5272 107.432 29.5272C108.388 29.5272 108.967 29.1333 109.258 28.3617H110.823C110.461 29.8923 109.07 30.7467 107.432 30.7467C105.085 30.7467 103.767 29.216 103.767 27.063C103.767 25.0711 105.157 23.366 107.389 23.366C109.75 23.366 111.2 25.3561 110.925 27.4551M113.533 28.3086C113.62 29.2016 114.345 29.5272 115.229 29.5272C115.852 29.5272 116.938 29.4067 116.894 28.6063C116.851 27.7933 115.648 27.698 114.445 27.4408C113.229 27.1979 112.039 26.7914 112.039 25.3706C112.039 23.8399 113.808 23.366 115.171 23.366C116.707 23.366 118.097 23.9613 118.301 25.5189H116.576C116.432 24.786 115.78 24.5845 115.053 24.5845C114.576 24.5845 113.693 24.6915 113.693 25.3021C113.693 26.0612 114.909 26.1691 116.126 26.4263C117.329 26.6835 118.547 27.0909 118.547 28.4696C118.547 30.1361 116.749 30.7467 115.2 30.7467C113.315 30.7467 111.909 29.9606 111.882 28.3086" fill="#52606D"/>
</svg>
