<svg width="135" height="22" viewBox="0 0 135 22" fill="none" xmlns="http://www.w3.org/2000/svg">
<g clip-path="url(#clip0_3160_6503)">
<path d="M132.321 18.9094C131.25 20.0385 130.037 20.7117 128.515 21.0191C127.487 21.2275 126.587 21.2713 125.543 21.1627C124.159 21.0199 123.016 20.5738 121.902 19.7375C120.991 19.0562 120.339 18.3189 119.769 17.331C119.329 16.5661 119.073 15.8507 118.93 14.9796C118.731 13.771 118.783 12.7076 119.1 11.5258C119.824 8.83783 121.84 6.93253 124.556 6.36556C126.108 6.04193 127.487 6.07518 129.021 6.47263C130.113 6.75571 130.98 7.23264 131.807 8.00401C132.328 8.48905 132.698 8.97653 133.027 9.60757C133.416 10.3538 133.572 11.0789 133.528 11.9192H128.683C128.578 11.2679 128.266 10.7488 127.743 10.3497C127.066 9.83144 126.192 9.79007 125.468 10.2394C124.973 10.5485 124.648 10.9686 124.472 11.5258C124.055 12.8536 124.037 14.089 124.408 15.4297C124.567 15.9934 124.833 16.4355 125.258 16.8378C125.742 17.3018 126.346 17.4924 127.009 17.3942C127.42 17.3342 127.754 17.1541 128.03 16.8419C128.321 16.5199 128.486 16.1743 128.562 15.7469C128.616 15.4459 128.646 15.1913 128.662 14.8863H133.77C133.872 16.4314 133.383 17.7884 132.321 18.9094Z" fill="#52606D"/>
<path d="M112.793 4.60791H118.092V0.852431H112.793V4.60791Z" fill="#52606D"/>
<path d="M112.793 20.7544H118.092V6.53795H112.793V20.7544Z" fill="#52606D"/>
<path d="M101.817 8.03828C102.514 7.42671 103.179 6.9952 104.02 6.60505C105.388 5.97076 106.757 5.86775 108.205 6.29196C109.758 6.74862 110.877 7.84443 111.367 9.39284C111.602 10.1366 111.704 10.7969 111.704 11.5772V20.7524H106.076V12.501C106.076 12.2252 106.043 11.9916 105.961 11.7272C105.817 11.2535 105.505 10.9047 105.049 10.7117C104.051 10.2867 102.917 10.663 102.37 11.6007C102.141 11.9916 102.037 12.3769 102.037 12.8311V20.7524H96.5859V6.5353H101.699L101.817 8.03828Z" fill="#52606D"/>
<path d="M39.1456 8.03828C39.8425 7.42671 40.5071 6.9952 41.3463 6.60505C42.7158 5.97076 44.0853 5.86775 45.5325 6.29196C47.0863 6.74862 48.2052 7.84443 48.6952 9.39284C48.9304 10.1366 49.0323 10.7969 49.0323 11.5772V20.7524H43.4046V12.501C43.4046 12.2252 43.3698 11.9916 43.2898 11.7272C43.1443 11.2535 42.8322 10.9047 42.3754 10.7117C41.3786 10.2867 40.2443 10.663 39.6978 11.6007C39.4682 11.9916 39.3639 12.3769 39.3639 12.8311V20.7524H33.9141V6.5353H39.0268L39.1456 8.03828Z" fill="#52606D"/>
<path d="M72.5429 15.5275C72.9487 15.5965 73.2883 15.6816 73.6779 15.8122C74.0038 15.9193 74.2277 16.1724 74.2988 16.5073C74.3765 16.8732 74.2738 17.2203 74.0118 17.4839C73.7459 17.754 73.4427 17.9098 73.0692 17.9682C72.5695 18.0485 72.1265 18.0071 71.6503 17.8335C71.4199 17.7508 71.2372 17.6461 71.048 17.4896C70.8047 17.2836 70.6478 17.0475 70.5532 16.7426C70.474 16.4838 70.4425 16.2551 70.4473 15.9842H65.2578V16.2875C65.2578 16.7774 65.3338 17.1927 65.5052 17.651C65.7655 18.3405 66.1221 18.8734 66.6605 19.3762C67.363 20.0357 68.0963 20.4469 69.0204 20.7121C70.9389 21.2604 72.6666 21.3691 74.6384 21.0658C75.5633 20.9238 76.3265 20.674 77.1584 20.2417C77.5246 20.0511 77.8181 19.854 78.1342 19.5879C79.5361 18.407 80.0559 16.6047 79.4956 14.8567C79.2838 14.1981 78.9491 13.6904 78.4277 13.2361C77.713 12.6148 76.9894 12.219 76.0807 11.953C75.8818 11.8954 75.712 11.8467 75.5115 11.7915C74.3999 11.4817 73.4451 11.2773 72.3036 11.107C71.998 11.0615 71.7409 11.0121 71.4393 10.9415C71.3003 10.9082 71.1846 10.8693 71.0553 10.8101C70.736 10.6657 70.5945 10.2886 70.7384 9.96898C70.7465 9.95194 70.7537 9.93653 70.7626 9.92031C70.934 9.6129 71.1879 9.41256 71.5226 9.31441C72.1152 9.14246 72.6609 9.15706 73.2422 9.35578C73.8 9.54639 74.1501 10.0598 74.1258 10.6511H79.1262C79.1213 10.0347 79.0275 9.51395 78.8206 8.93481C78.6088 8.34757 78.287 7.90065 77.7979 7.51375C77.3726 7.1747 76.9692 6.94435 76.4623 6.74725C75.9691 6.55501 75.5342 6.43497 75.0127 6.34331C73.7733 6.12918 72.707 6.06672 71.4522 6.14135C70.7351 6.18271 70.1304 6.27194 69.4287 6.43659C68.4844 6.65965 67.7236 7.02546 66.9604 7.62568C66.312 8.13587 65.8876 8.73203 65.616 9.51232C65.4923 9.86597 65.4332 10.1799 65.4171 10.5522C65.3888 11.1759 65.4785 11.7072 65.7089 12.2871C66.1212 13.3254 66.8537 14.061 67.8902 14.4755C68.4149 14.6856 68.8749 14.8235 69.4287 14.937C70.5201 15.1633 71.4442 15.3393 72.5429 15.5275Z" fill="#52606D"/>
<path d="M10.5117 14.6235H6.87528V9.95884H9.23841C9.68711 9.95884 10.0671 9.94829 10.5158 9.92315C11.1375 9.88908 11.6541 9.61006 12.0244 9.10798C12.2208 8.84113 12.3316 8.57184 12.3785 8.24253C12.4173 7.96513 12.4229 7.72828 12.3955 7.45088C12.2944 6.41266 11.4374 5.63399 10.3986 5.63399H6.87528V20.7539H0.855469V0.850876H10.6953C11.0866 0.850876 11.4172 0.858175 11.8077 0.880075C14.4182 1.0204 16.5687 2.47472 17.6747 4.85127C18.2503 6.08822 18.446 7.2773 18.298 8.6351C17.986 11.4935 15.9931 13.7167 13.1934 14.3323C12.2653 14.5367 11.4617 14.6235 10.5117 14.6235Z" fill="#52606D"/>
<path d="M89.5402 6.2646C88.98 6.17538 88.5013 6.13888 87.9346 6.13888C87.3671 6.13888 86.8893 6.17538 86.3282 6.2646C84.7016 6.5201 83.3838 7.17629 82.1962 8.31996C80.9253 9.54555 80.2292 10.9958 80.0699 12.7567C79.9729 13.8379 80.0562 14.7699 80.3464 15.8154C80.791 17.4198 81.6262 18.6592 82.944 19.6714C83.8115 20.3406 84.6741 20.7413 85.7429 20.9749C86.502 21.142 87.1577 21.2109 87.9346 21.2109C88.7107 21.2109 89.3672 21.142 90.1272 20.9749C91.1951 20.7413 92.0578 20.3406 92.9253 19.6714L89.8806 16.3427C89.3963 17.4214 88.1351 17.9024 87.0591 17.4166C86.5635 17.1927 86.2118 16.8407 85.9878 16.3427C85.7817 15.8828 85.6612 15.4707 85.5868 14.9711C85.4365 13.9726 85.4534 13.1055 85.6483 12.1135C85.7477 11.5985 85.9191 11.1783 86.2053 10.7395C86.8311 9.78158 88.1117 9.51391 89.0681 10.1409C89.3179 10.3056 89.5006 10.4889 89.6631 10.7395C89.9501 11.1783 90.1215 11.5985 90.2209 12.1135C90.4134 13.1055 90.4328 13.9726 90.2824 14.9711C90.2072 15.4707 90.0867 15.8828 89.8806 16.3427L92.9253 19.6714C94.2439 18.6592 95.079 17.4198 95.5228 15.8154C95.8131 14.7699 95.8955 13.8379 95.7993 12.7567C95.6401 10.9958 94.9456 9.54555 93.6739 8.31996C92.4854 7.17467 91.1685 6.5201 89.5402 6.2646Z" fill="#52606D"/>
<path d="M64.6757 19.6397C64.5965 18.4684 64.552 17.4764 64.5286 16.3011C64.4979 14.7568 64.4793 13.4541 64.4688 11.9106C64.4623 11.0776 64.3709 10.3743 64.1632 9.5681C63.8907 8.51123 63.2739 7.70823 62.3239 7.17452C61.7499 6.85251 61.2236 6.6546 60.5817 6.51508C58.5379 6.07627 56.7342 6.03977 54.675 6.39828C54.0962 6.49886 53.6176 6.63837 53.0743 6.86386C51.8196 7.38459 50.9553 8.33359 50.5527 9.6338C50.3983 10.131 50.3571 10.582 50.4161 11.1003C50.4274 11.1952 50.4508 11.2755 50.4937 11.3623L55.262 11.4791C55.2499 11.1741 55.2895 10.9162 55.3922 10.6298C55.5482 10.1935 55.8554 9.88363 56.2904 9.72465C56.9299 9.48862 57.5459 9.47969 58.1943 9.6922C58.6203 9.83253 58.9227 10.1407 59.0553 10.5698C59.1386 10.8383 59.0973 11.1027 58.9356 11.3323C58.795 11.535 58.6212 11.6713 58.3907 11.7597C58.2485 11.8141 58.1272 11.8538 57.9817 11.8927C57.3187 12.072 56.7528 12.1953 56.0761 12.308C55.5401 12.3964 55.089 12.48 54.5578 12.5887C53.8359 12.7322 53.2328 12.8912 52.5334 13.1183C51.8931 13.326 51.3887 13.6212 50.8939 14.0779C50.2503 14.6684 49.8825 15.3684 49.7596 16.2371C49.6788 16.8162 49.6974 17.3207 49.8251 17.8909C50.159 19.3736 51.1849 20.4702 52.641 20.8953C54.2547 21.3649 55.7689 21.2878 57.3268 20.6568C58.0851 20.351 58.6624 19.9268 59.1838 19.2958L58.8475 16.8519C58.6074 17.225 58.3091 17.4797 57.9057 17.6581C57.5273 17.826 57.1853 17.9144 56.7738 17.9566C56.431 17.9907 56.1335 17.9655 55.8012 17.8723C55.5312 17.7976 55.3202 17.6711 55.1286 17.4667C54.9669 17.2915 54.8707 17.1033 54.8214 16.8697C54.7462 16.5112 54.8634 16.1665 55.1423 15.9288C55.3291 15.769 55.5118 15.662 55.7406 15.5776C56.2944 15.3732 56.7673 15.2199 57.3341 15.0585C58.0197 14.8647 58.5872 14.6546 59.234 14.3561C59.2978 14.876 59.2946 15.3213 59.2226 15.8388C59.1701 16.2184 59.0553 16.5307 58.8475 16.8519L59.1838 19.2958C59.2881 19.6429 59.3843 19.9333 59.5024 20.2731C59.5695 20.4638 59.6568 20.6114 59.7894 20.7598H65.042C64.818 20.407 64.704 20.0582 64.6757 19.6397Z" fill="#52606D"/>
<path d="M32.8635 19.6397C32.7843 18.4684 32.7398 17.4764 32.7164 16.3011C32.6849 14.7568 32.6671 13.4541 32.6566 11.9106C32.6509 11.0776 32.5595 10.3743 32.351 9.5681C32.0785 8.51123 31.4625 7.70823 30.5117 7.17452C29.9377 6.85251 29.4114 6.6546 28.7695 6.51508C26.7257 6.07627 24.922 6.03977 22.862 6.39828C22.2848 6.49886 21.8046 6.63837 21.2621 6.86386C20.0074 7.38459 19.1431 8.33359 18.7405 9.6338C18.5869 10.131 18.5449 10.582 18.6047 11.1003C18.6152 11.1952 18.6386 11.2755 18.6815 11.3623L23.4498 11.4791C23.4385 11.1741 23.4773 10.9162 23.58 10.6298C23.736 10.1935 24.0432 9.88363 24.4782 9.72465C25.1185 9.48862 25.7337 9.47969 26.3813 9.6922C26.8081 9.83253 27.1113 10.1407 27.2447 10.5698C27.3264 10.8383 27.2851 11.1027 27.1234 11.3323C26.982 11.535 26.8081 11.6713 26.5785 11.7597C26.4362 11.8141 26.315 11.8538 26.1686 11.8927C25.5065 12.072 24.9398 12.1953 24.2639 12.308C23.7287 12.3964 23.2768 12.48 22.7448 12.5887C22.0237 12.7322 21.4214 12.8912 20.7204 13.1183C20.0817 13.326 19.5773 13.6212 19.0817 14.0779C18.4381 14.6684 18.0711 15.3684 17.9474 16.2371C17.8657 16.8162 17.8851 17.3207 18.0137 17.8909C18.346 19.3736 19.3735 20.4702 20.8279 20.8953C22.4433 21.3649 23.9559 21.2878 25.5146 20.6568C26.2721 20.351 26.851 19.9268 27.3724 19.2958L27.0361 16.8519C26.796 17.225 26.4969 17.4797 26.0927 17.6581C25.7151 17.826 25.3723 17.9144 24.9624 17.9566C24.618 17.9907 24.3221 17.9655 23.989 17.8723C23.719 17.7976 23.508 17.6711 23.3172 17.4667C23.1547 17.2915 23.0585 17.1033 23.0092 16.8697C22.9348 16.5112 23.0512 16.1665 23.3301 15.9288C23.5161 15.769 23.6988 15.662 23.9284 15.5776C24.4822 15.3732 24.956 15.2199 25.5227 15.0585C26.2083 14.8647 26.775 14.6546 27.4226 14.3561C27.4856 14.876 27.4824 15.3213 27.4104 15.8388C27.3579 16.2184 27.2423 16.5307 27.0361 16.8519L27.3724 19.2958C27.4759 19.6429 27.5721 19.9333 27.691 20.2731C27.7573 20.4638 27.8446 20.6114 27.9772 20.7598H33.2298C33.0058 20.407 32.8926 20.0582 32.8635 19.6397Z" fill="#52606D"/>
</g>
<defs>
<clipPath id="clip0_3160_6503">
<rect width="133.99" height="21.4444" fill="white" transform="translate(0.324219 0.316406)"/>
</clipPath>
</defs>
</svg>
