<svg width="84" height="19" viewBox="0 0 84 19" fill="none" xmlns="http://www.w3.org/2000/svg">
<mask id="mask0_1_190" style="mask-type:luminance" maskUnits="userSpaceOnUse" x="0" y="0" width="84" height="19">
<path d="M83.0859 0H0.0859375V19H83.0859V0Z" fill="white"/>
</mask>
<g mask="url(#mask0_1_190)">
<path d="M48.2379 16.8199C48.2379 16.9732 48.287 17.0621 48.379 17.0621C48.456 17.0621 48.5199 17.0218 48.5779 16.9813L74.447 0.645998C74.884 0.348798 75.4069 0.195898 75.9399 0.209898H81.6249C82.4969 0.209898 83.0859 0.774997 83.0859 1.623V12.1848C83.0859 13.4605 82.7959 14.2036 81.6339 14.8817L74.7369 18.9192C74.6679 18.9657 74.5869 19 74.5049 19C74.4229 19 74.3389 18.9354 74.3389 18.7013V6.3792C74.3389 6.2337 74.2969 6.1369 74.1979 6.1369C74.1249 6.1369 74.0559 6.1732 73.9979 6.2177L55.093 18.1686C54.661 18.4511 54.155 18.6047 53.64 18.5966H41.1089C40.2289 18.5966 39.6479 18.0315 39.6479 17.1754V1.9544C39.6479 1.8414 39.5979 1.7365 39.4979 1.7365C39.4259 1.7365 39.357 1.7734 39.299 1.8173L26.8259 9.1004C26.7009 9.1812 26.668 9.2378 26.668 9.2943C26.668 9.3427 26.6929 9.3911 26.7759 9.48L35.689 18.1442C35.806 18.2573 35.8889 18.3462 35.8889 18.443C35.8889 18.5239 35.756 18.5885 35.598 18.5885H27.5479C26.9169 18.5885 26.4269 18.4995 26.0869 18.1686L20.6849 12.92C20.6429 12.8718 20.5839 12.8391 20.5189 12.8391C20.4599 12.8391 20.403 12.8584 20.353 12.8875L11.3229 18.1686C10.7759 18.4917 10.4019 18.5804 9.86292 18.5804H1.55493C0.666932 18.5885 0.0859375 18.0152 0.0859375 17.1673V6.8072C0.0859375 5.5234 0.376936 4.7885 1.54694 4.1103L8.48492 0.0567989C8.53892 0.0210989 8.60197 0.00149755 8.66797 0.000297546C8.77497 0.000297546 8.83392 0.105197 8.83392 0.339397V14.2119C8.83392 14.3574 8.86691 14.4217 8.97491 14.4217C9.04791 14.4217 9.11595 14.3814 9.18195 14.3409L32.619 0.621698C33.067 0.322898 33.615 0.177697 34.163 0.201797H46.778C47.649 0.201797 48.2379 0.766899 48.2379 1.6149L48.2299 16.8199H48.2379Z" fill="#52606D"/>
</g>
</svg>
