<svg width="532" height="56" viewBox="0 0 532 56" fill="none" xmlns="http://www.w3.org/2000/svg">
<path d="M468.349 21.0149C468.728 21.2573 469.315 21.464 470.041 21.6023C470.767 21.8091 471.527 21.8433 472.323 21.8433C473.083 21.8433 473.774 21.7407 474.396 21.5666C475.017 21.3599 475.571 21.0848 476.054 20.7382C476.503 20.3932 476.884 19.9797 477.126 19.4265C477.367 18.9089 477.506 18.3571 477.506 17.7012C477.506 16.9412 477.265 16.2511 476.816 15.6295C476.366 15.042 475.605 14.5586 474.534 14.2136L472.461 13.5235C471.701 13.2826 471.113 13.0059 470.801 12.6951C470.526 12.4185 470.352 12.0734 470.352 11.6243C470.352 11.0383 470.594 10.5549 471.044 10.3125C471.527 10.0373 472.15 9.86483 473.014 9.86483C474.085 9.86483 474.983 10.0716 475.882 10.4508C476.124 10.5549 476.331 10.659 476.469 10.659C476.711 10.659 476.816 10.5207 476.816 10.1757V9.58819C476.816 9.38146 476.78 9.20894 476.677 9.10484C476.573 8.96652 476.435 8.8282 476.228 8.72558C476.09 8.62147 475.847 8.51737 475.605 8.48316C475.364 8.38054 475.087 8.34484 474.777 8.24222C474.5 8.20652 474.153 8.1039 473.808 8.1039C473.463 7.99979 473.117 7.9998 472.806 7.9998C472.114 7.9998 471.563 8.1039 470.975 8.24222C470.388 8.44895 469.869 8.68988 469.419 9.00072C468.97 9.34576 468.659 9.72651 468.349 10.2099C468.072 10.6932 467.968 11.2108 467.968 11.8667C467.968 12.6267 468.21 13.351 468.694 14.0069C469.177 14.697 469.938 15.1803 471.078 15.4911L473.221 16.1812C473.947 16.4237 474.43 16.6646 474.707 16.9412C474.983 17.2179 475.087 17.5629 475.087 17.9422C475.087 18.5296 474.845 19.013 474.327 19.3581C473.808 19.7031 473.117 19.8414 472.15 19.8414C471.563 19.8414 470.975 19.8072 470.422 19.6347C469.834 19.5306 469.315 19.3581 468.764 19.1156C468.625 19.0814 468.487 19.013 468.383 18.9788C468.279 18.9431 468.175 18.9431 468.106 18.9431C467.864 18.9431 467.761 19.0814 467.761 19.4265V20.1522C467.761 20.2906 467.795 20.4274 467.864 20.6014C467.968 20.7739 468.106 20.8765 468.349 21.0149Z" fill="black"/>
<path d="M443.326 13.8686C442.807 13.7645 442.254 13.7645 441.77 13.7645C440.284 13.7645 439.075 14.1453 438.142 14.9395C437.209 15.698 436.794 16.7346 436.794 17.9765C436.794 19.1856 437.139 20.1166 437.865 20.8424C438.591 21.5667 439.559 21.9118 440.803 21.9118C442.531 21.9118 443.982 21.2217 445.157 19.8757C445.295 20.2208 445.434 20.4974 445.606 20.7383C445.779 20.9807 445.953 21.2217 446.125 21.4284C446.263 21.5667 446.402 21.6366 446.574 21.6366C446.677 21.6366 446.815 21.6024 446.954 21.4983L447.888 20.8766C448.094 20.7383 448.164 20.6 448.164 20.4275C448.164 20.3249 448.128 20.2208 448.06 20.0824C447.853 19.7032 447.679 19.3581 447.577 19.0131C447.473 18.6681 447.438 18.2531 447.438 17.7013V12.8677C447.438 11.2793 447.058 10.0717 446.228 9.24324C445.399 8.41484 444.154 8.03409 442.358 8.03409C441.528 8.03409 440.768 8.13821 440.042 8.31073C439.351 8.51746 438.729 8.68997 438.211 9.0008C438.003 9.10491 437.865 9.20754 437.83 9.27744C437.727 9.38155 437.727 9.55409 437.727 9.79502V10.5208C437.727 10.7959 437.83 11.0027 438.003 11.0027C438.038 11.0027 438.142 11.0027 438.245 10.9685C438.349 10.9343 438.522 10.8658 438.764 10.7617C439.282 10.555 439.835 10.3825 440.353 10.2784C440.872 10.1401 441.425 10.0716 441.943 10.0716C443.118 10.0716 443.878 10.3126 444.363 10.7617C444.846 11.2109 445.053 12.0051 445.053 13.1443V14.2137C444.431 14.0754 443.914 13.9728 443.326 13.8686ZM445.019 16.4922C445.019 16.9755 444.984 17.4247 444.88 17.7355C444.776 18.0806 444.639 18.4256 444.397 18.668C444.016 19.1157 443.533 19.4266 442.98 19.5991C442.461 19.8073 441.908 19.8757 441.425 19.8757C440.733 19.8757 440.215 19.669 439.87 19.3581C439.524 19.0131 439.351 18.494 439.351 17.8039C439.351 17.0796 439.593 16.4922 440.077 16.1129C440.561 15.7337 441.286 15.5255 442.254 15.5255C442.703 15.5255 443.188 15.5597 443.671 15.6296C444.154 15.6638 444.604 15.7679 445.019 15.8705V16.4922Z" fill="black"/>
<path d="M452.484 20.7744C452.587 21.0495 452.691 21.2578 452.761 21.3604C452.863 21.4645 453.037 21.4987 453.348 21.4987H454.592C454.868 21.4987 455.075 21.4645 455.179 21.3604C455.283 21.2578 455.387 21.0852 455.456 20.7744L457.737 11.2455L460.053 20.7744C460.087 21.0495 460.19 21.2578 460.328 21.3604C460.432 21.4645 460.675 21.4987 460.916 21.4987H462.16C462.403 21.4987 462.61 21.4645 462.748 21.3604C462.852 21.2578 462.99 21.0852 463.024 20.7744L466.618 9.38194C466.653 9.24363 466.722 9.1053 466.722 9.03688C466.722 8.93277 466.756 8.89858 466.756 8.79447C466.756 8.55353 466.653 8.44943 466.411 8.44943H465.064C464.787 8.44943 464.58 8.48362 464.476 8.58773C464.372 8.69183 464.268 8.86438 464.199 9.17373L461.641 19.0819L459.257 9.13951C459.223 8.86436 459.119 8.65615 458.981 8.55353C458.876 8.44942 458.636 8.41521 458.393 8.41521H457.184C456.907 8.41521 456.701 8.44942 456.596 8.55353C456.492 8.65615 456.388 8.82867 456.32 9.13951L454.004 18.9094L451.55 9.13951C451.448 8.86436 451.343 8.65615 451.274 8.55353C451.171 8.44942 450.998 8.41521 450.686 8.41521H449.236C448.994 8.41521 448.889 8.51784 448.889 8.76027C448.889 8.86438 448.924 9.03688 449.028 9.34772L452.484 20.7744Z" fill="black"/>
<path d="M474.397 27.9196C468.97 30.2323 463.027 31.3374 457.67 31.3374C449.686 31.3374 441.946 29.1615 435.691 25.5028C435.172 25.1578 434.723 25.7438 435.207 26.1929C441.013 31.4058 448.65 34.5469 457.187 34.5469C463.234 34.5469 470.283 32.6491 475.191 29.0232C475.883 28.4714 475.226 27.6088 474.397 27.9196Z" fill="#FF9900"/>
<path d="M471.354 25.9172C470.905 26.1938 471.009 26.643 471.458 26.6073C473.012 26.4006 476.537 25.9871 477.126 26.8155C477.748 27.574 476.434 30.8892 475.881 32.3734C475.674 32.8226 476.088 32.9951 476.503 32.6486C479.129 30.4742 479.787 25.883 479.268 25.2613C478.714 24.5013 474.119 23.9838 471.354 25.9172Z" fill="#FF9900"/>
<path d="M490.882 18.4597C490.779 18.4597 490.675 18.4255 490.675 18.2529V10.2782C490.675 10.1741 490.709 10.0715 490.882 10.0715H491.124C491.263 10.0715 491.331 10.1057 491.331 10.2782L491.367 10.7616C491.712 10.4849 492.092 10.2782 492.438 10.1399C492.783 10.0016 493.129 9.93315 493.508 9.93315C494.27 9.93315 494.857 10.2098 495.306 10.7616C495.756 11.2791 495.997 12.0733 495.997 12.9716C495.997 13.9384 495.756 14.6969 495.306 15.2844C494.822 15.8703 494.234 16.147 493.406 16.147C492.68 16.147 492.057 15.8703 491.435 15.3185V18.2187C491.435 18.3214 491.401 18.4255 491.228 18.4255H490.882V18.4597ZM493.302 15.561C493.923 15.561 494.407 15.3528 494.753 14.9393C495.098 14.4902 495.237 13.8685 495.237 13.0401C495.237 11.3832 494.615 10.5891 493.336 10.5891C492.714 10.5891 492.023 10.8315 491.401 11.349V14.7668C491.746 15.0419 492.023 15.2501 492.333 15.387C492.644 15.4569 492.991 15.561 493.302 15.561Z" fill="black"/>
<path d="M498.834 16.147C498.317 16.147 497.866 16.0087 497.521 15.6636C497.176 15.387 497.037 14.9393 497.037 14.4217C497.037 13.8343 497.244 13.4193 497.625 13.0743C498.004 12.7292 498.557 12.5909 499.215 12.5909C499.732 12.5909 500.286 12.695 500.907 12.8675V11.9008C500.907 11.4175 500.805 11.0724 500.562 10.8999C500.32 10.6932 499.975 10.6233 499.456 10.6233C498.938 10.6233 498.351 10.7274 497.763 10.8999C497.729 10.8999 497.625 10.9341 497.555 10.9341C497.452 10.9341 497.452 10.8999 497.452 10.7958V10.5548C497.452 10.5206 497.452 10.4507 497.487 10.4165C497.521 10.3823 497.521 10.3823 497.591 10.3124C498.212 10.0715 498.834 9.93315 499.56 9.93315C500.251 9.93315 500.769 10.0715 501.116 10.3823C501.461 10.6575 501.599 11.1066 501.599 11.6941V15.8361C501.599 15.9402 501.565 16.0443 501.392 16.0443H501.15C501.046 16.0443 500.943 16.0087 500.943 15.8361L500.907 15.3528C500.286 15.906 499.56 16.147 498.834 16.147ZM498.938 15.561C499.215 15.561 499.56 15.5253 499.905 15.3528C500.251 15.2145 500.597 15.0776 500.977 14.8352V13.3851C500.458 13.2468 499.975 13.1784 499.422 13.1784C498.317 13.1784 497.763 13.6275 497.763 14.4217C497.763 14.7668 497.866 15.0419 498.04 15.2502C498.247 15.4569 498.557 15.561 498.938 15.561Z" fill="black"/>
<path d="M503.634 16.0452C503.53 16.0452 503.428 16.0095 503.428 15.8369V10.279C503.428 10.1764 503.462 10.0723 503.634 10.0723H503.877C504.015 10.0723 504.083 10.1065 504.083 10.279L504.118 10.9691C504.394 10.6241 504.705 10.3831 504.982 10.279C505.258 10.1407 505.605 10.0723 505.95 10.0723C506.088 10.0723 506.192 10.0723 506.227 10.0723C506.329 10.0723 506.433 10.1065 506.433 10.279V10.5556C506.433 10.5898 506.433 10.5898 506.399 10.6583C506.399 10.694 506.365 10.694 506.295 10.694C506.261 10.694 506.157 10.694 506.088 10.694C506.054 10.694 505.95 10.694 505.846 10.694C505.501 10.694 505.154 10.7282 504.879 10.9007C504.602 11.039 504.36 11.2457 504.049 11.5224V15.8369C504.049 15.941 504.015 16.0452 503.841 16.0452H503.634Z" fill="black"/>
<path d="M509.51 16.1132C509.025 16.1132 508.68 15.9748 508.437 15.7339C508.196 15.4915 508.058 15.1464 508.058 14.6631V10.762H507.124C507.021 10.762 506.917 10.7278 506.917 10.5552V10.4511C506.917 10.4169 506.917 10.3485 506.952 10.3128C506.952 10.2786 506.986 10.2786 507.09 10.2786L508.058 10.176L508.161 8.6218C508.161 8.5876 508.196 8.51769 508.196 8.48348C508.231 8.44928 508.231 8.44928 508.335 8.44928H508.541C508.646 8.44928 508.748 8.48348 508.748 8.656V10.2102H510.442C510.546 10.2102 510.649 10.2444 510.649 10.4169V10.6594C510.649 10.762 510.615 10.8661 510.442 10.8661H508.748V14.7672C508.748 15.1122 508.784 15.2847 508.956 15.4573C509.095 15.5956 509.336 15.664 509.648 15.664C509.889 15.664 510.097 15.664 510.235 15.6298C510.338 15.6298 510.372 15.5956 510.442 15.5956C510.476 15.5956 510.546 15.5956 510.546 15.5956C510.649 15.5956 510.685 15.6298 510.685 15.7339V15.9406C510.685 16.0789 510.649 16.1474 510.546 16.1816C510.235 16.0447 509.923 16.1132 509.51 16.1132Z" fill="black"/>
<path d="M512.138 16.0447C512.034 16.0447 511.93 16.009 511.93 15.8364V10.2785C511.93 10.1759 511.966 10.0718 512.138 10.0718H512.381C512.518 10.0718 512.587 10.106 512.587 10.2785L512.622 10.7619C513.002 10.4852 513.382 10.2785 513.831 10.1402C514.281 10.0019 514.661 9.89926 515.041 9.89926C515.629 9.89926 516.044 10.0376 516.355 10.3484C516.631 10.6236 516.804 11.0727 516.804 11.6944V15.8022C516.804 15.9063 516.77 16.009 516.596 16.009H516.251C516.147 16.009 516.044 15.9748 516.044 15.8022V12.0394C516.044 11.5219 515.94 11.1768 515.767 10.9344C515.559 10.6935 515.248 10.5894 514.833 10.5894C514.073 10.5894 513.279 10.8318 512.553 11.3494V15.9063C512.553 16.009 512.518 16.1131 512.345 16.1131H512.104V16.0447H512.138Z" fill="black"/>
<path d="M521.122 16.1812C520.19 16.1812 519.464 15.9402 519.049 15.4227C518.564 14.9051 518.323 14.1109 518.323 13.0401C518.323 12.0733 518.564 11.3133 519.049 10.7616C519.532 10.244 520.224 9.93315 521.018 9.93315C521.744 9.93315 522.263 10.1399 522.678 10.5548C523.057 10.9341 523.265 11.5216 523.265 12.2801C523.265 12.5567 523.265 12.7991 523.23 13.0059C523.23 13.1085 523.127 13.2126 523.023 13.2126H519.049C519.049 14.041 519.256 14.6627 519.566 15.0419C519.913 15.4227 520.5 15.6294 521.226 15.6294C521.814 15.6294 522.331 15.5253 522.816 15.3528C522.919 15.3186 523.023 15.3185 523.023 15.3185C523.057 15.3185 523.057 15.3186 523.127 15.3528C523.127 15.387 523.161 15.387 523.161 15.4569V15.6636C523.161 15.8019 523.127 15.8703 523.023 15.906C522.401 16.0443 521.814 16.1812 521.122 16.1812ZM522.574 12.6608C522.574 12.5567 522.574 12.4184 522.574 12.2801C522.574 11.6941 522.435 11.3134 522.193 11.0382C521.916 10.7616 521.503 10.5891 520.984 10.5891C519.739 10.5891 519.083 11.2791 519.015 12.6608H522.574Z" fill="black"/>
<path d="M524.856 16.0452C524.752 16.0452 524.649 16.0095 524.649 15.8369V10.279C524.649 10.1764 524.683 10.0723 524.856 10.0723H525.098C525.236 10.0723 525.305 10.1065 525.305 10.279L525.339 10.9691C525.616 10.6241 525.927 10.3831 526.203 10.279C526.48 10.1407 526.826 10.0723 527.171 10.0723C527.31 10.0723 527.414 10.0723 527.448 10.0723C527.552 10.0723 527.655 10.1065 527.655 10.279V10.5556C527.655 10.5898 527.655 10.5898 527.621 10.6583C527.621 10.694 527.586 10.694 527.516 10.694C527.448 10.694 527.378 10.694 527.31 10.694C527.276 10.694 527.171 10.694 527.067 10.694C526.722 10.694 526.377 10.7282 526.101 10.9007C525.824 11.039 525.582 11.2457 525.271 11.5224V15.8369C525.271 15.941 525.236 16.0452 525.064 16.0452H524.856Z" fill="black"/>
<path d="M490.882 29.0583C490.779 29.0583 490.675 29.0241 490.675 28.8516V23.3279C490.675 23.2253 490.709 23.1212 490.882 23.1212H491.124C491.263 23.1212 491.331 23.1554 491.331 23.3279L491.367 23.8113C491.746 23.5346 492.127 23.3279 492.576 23.1896C493.025 23.0513 493.406 22.9486 493.785 22.9486C494.372 22.9486 494.787 23.087 495.098 23.3978C495.375 23.6729 495.547 24.1221 495.547 24.7438V28.8516C495.547 28.9557 495.513 29.0583 495.341 29.0583H494.994C494.892 29.0583 494.787 29.0241 494.787 28.8516V25.0204C494.787 24.5014 494.683 24.1563 494.511 23.9154C494.304 23.6729 493.993 23.5703 493.578 23.5703C492.818 23.5703 492.023 23.8113 491.297 24.3288V28.8858C491.297 28.9899 491.263 29.094 491.09 29.094H490.848V29.0583H490.882Z" fill="black"/>
<path d="M499.899 29.2313C498.965 29.2313 498.241 28.9904 497.826 28.4728C497.341 27.9553 497.1 27.1611 497.1 26.0902C497.1 25.1235 497.341 24.365 497.826 23.8117C498.309 23.2942 499.001 22.9833 499.795 22.9833C500.521 22.9833 501.04 23.1901 501.455 23.605C501.834 23.9843 502.042 24.5717 502.042 25.3317C502.042 25.6069 502.042 25.8493 502.007 26.056C502.007 26.1601 501.904 26.2628 501.8 26.2628H497.826C497.826 27.0912 498.033 27.7128 498.343 28.0921C498.69 28.4728 499.277 28.6796 500.003 28.6796C500.591 28.6796 501.108 28.5754 501.592 28.4029C501.696 28.3687 501.8 28.3687 501.8 28.3687C501.834 28.3687 501.834 28.3687 501.904 28.4029C501.904 28.4386 501.938 28.4386 501.938 28.507V28.7138C501.938 28.8521 501.904 28.922 501.8 28.9562C501.212 29.0945 500.555 29.2313 499.899 29.2313ZM501.351 25.6768C501.351 25.5727 501.351 25.4344 501.351 25.296C501.351 24.7101 501.212 24.3293 500.97 24.0542C500.693 23.7775 500.278 23.605 499.761 23.605C498.516 23.605 497.86 24.2951 497.79 25.6768H501.351Z" fill="black"/>
<path d="M505.327 29.1624C504.842 29.1624 504.497 29.0241 504.254 28.7831C504.014 28.5407 503.875 28.1957 503.875 27.7123V23.7428H502.941C502.839 23.7428 502.734 23.7086 502.734 23.5361V23.4319C502.734 23.3977 502.735 23.3278 502.769 23.2936C502.769 23.2594 502.803 23.2594 502.907 23.2594L503.875 23.1553L503.978 21.6026C503.978 21.5684 504.014 21.4985 504.014 21.4643C504.048 21.4301 504.048 21.4301 504.15 21.4301H504.359C504.463 21.4301 504.565 21.4643 504.565 21.6368V23.191H506.259C506.363 23.191 506.466 23.2252 506.466 23.3977V23.6387C506.466 23.7428 506.432 23.8469 506.259 23.8469H504.601V27.748C504.601 28.0931 504.635 28.2656 504.808 28.4381C504.98 28.6106 505.189 28.6448 505.499 28.6448C505.74 28.6448 505.948 28.6448 506.087 28.6106C506.189 28.6106 506.225 28.5764 506.294 28.5764C506.328 28.5764 506.398 28.5764 506.398 28.5764C506.502 28.5764 506.536 28.6106 506.536 28.7132V28.9215C506.536 29.0598 506.502 29.1282 506.398 29.1624C506.053 29.094 505.706 29.1624 505.327 29.1624Z" fill="black"/>
<path d="M509.131 29.0591C509.027 29.0591 508.924 29.0249 508.889 28.9223L507.058 23.467C507.024 23.3629 507.024 23.3287 507.024 23.2603C507.024 23.1904 507.058 23.1562 507.162 23.1562H507.541C507.645 23.1562 507.68 23.1904 507.749 23.2945L509.338 28.2664L510.755 23.2945C510.789 23.1904 510.859 23.1562 510.998 23.1562H511.447C511.551 23.1562 511.654 23.1904 511.689 23.2945L513.105 28.2664L514.765 23.2261C514.799 23.122 514.867 23.0878 514.972 23.0878H515.317C515.421 23.0878 515.455 23.122 515.455 23.1904C515.455 23.2261 515.455 23.2945 515.421 23.3986L513.486 28.8524C513.452 28.9565 513.382 28.9907 513.243 28.9907H512.864C512.76 28.9907 512.656 28.9565 512.622 28.8524L511.204 23.882L509.788 28.8524C509.753 28.9565 509.684 28.9907 509.546 28.9907H509.201V29.0591H509.131Z" fill="black"/>
<path d="M518.878 29.2309C518.014 29.2309 517.324 28.9557 516.839 28.4024C516.355 27.8849 516.113 27.0907 516.113 26.0898C516.113 25.123 516.355 24.3645 516.839 23.7771C517.324 23.2595 518.014 22.9486 518.878 22.9486C519.742 22.9486 520.433 23.2253 520.917 23.7771C521.402 24.2946 521.643 25.0888 521.643 26.0898C521.643 27.0565 521.402 27.8165 520.917 28.4024C520.399 28.9557 519.742 29.2309 518.878 29.2309ZM518.878 28.6107C520.227 28.6107 520.917 27.7823 520.917 26.0898C520.917 24.3987 520.227 23.5703 518.878 23.5703C517.53 23.5703 516.839 24.3987 516.839 26.0898C516.839 27.7823 517.496 28.6107 518.878 28.6107Z" fill="black"/>
<path d="M523.296 29.0588C523.192 29.0588 523.088 29.0246 523.088 28.8521V23.3284C523.088 23.2258 523.124 23.1217 523.296 23.1217H523.537C523.676 23.1217 523.746 23.1559 523.746 23.3284L523.78 24.0185C524.056 23.6734 524.367 23.4325 524.644 23.3284C524.921 23.1901 525.266 23.1217 525.612 23.1217C525.75 23.1217 525.853 23.1217 525.887 23.1217C525.991 23.1217 526.096 23.1559 526.096 23.3284V23.605C526.096 23.6392 526.096 23.6392 526.061 23.7091C526.026 23.7433 526.026 23.7433 525.957 23.7433C525.923 23.7433 525.819 23.7433 525.75 23.7433C525.715 23.7433 525.612 23.7433 525.508 23.7433C525.163 23.7433 524.816 23.7776 524.54 23.9501C524.263 24.0884 524.022 24.2951 523.711 24.5718V28.8863C523.711 28.9904 523.676 29.0945 523.503 29.0945H523.262V29.0588H523.296Z" fill="black"/>
<path d="M527.34 29.059C527.237 29.059 527.133 29.0248 527.133 28.8523V20.5325C527.133 20.4284 527.167 20.3258 527.34 20.3258H527.686C527.79 20.3258 527.893 20.36 527.893 20.5325V25.7796L530.692 23.2602C530.796 23.156 530.9 23.156 530.968 23.156H531.418C531.522 23.156 531.556 23.1902 531.556 23.2602C531.556 23.3286 531.522 23.3628 531.418 23.4669L528.55 25.9878L531.66 28.8523C531.694 28.8865 531.764 28.9564 531.764 28.9906C531.764 29.0947 531.73 29.0947 531.626 29.0947H531.141C531.038 29.0947 530.934 29.059 530.9 28.9906L527.893 26.1945V28.8865C527.893 28.9906 527.859 29.0947 527.686 29.0947H527.34V29.059Z" fill="black"/>
<path d="M437.349 44.0105C436.692 43.768 436.208 43.4587 435.932 43.1121C435.655 42.7671 435.517 42.3194 435.517 41.7662C435.517 41.0761 435.759 40.5243 436.278 40.1094C436.796 39.6944 437.487 39.4877 438.351 39.4877C439.077 39.4877 439.768 39.626 440.459 39.9026V41.1445C439.733 40.9378 439.077 40.7995 438.455 40.7995C437.591 40.7995 437.142 41.0761 437.142 41.6279C437.142 41.8361 437.211 42.0086 437.349 42.1454C437.487 42.2837 437.798 42.4221 438.213 42.5604L439.042 42.8712C439.733 43.1122 440.217 43.423 440.494 43.7338C440.77 44.0789 440.943 44.4938 440.943 45.0456C440.943 45.8056 440.666 46.3931 440.114 46.8407C439.561 47.2899 438.835 47.4966 437.867 47.4966C437.453 47.4966 437.038 47.4624 436.623 47.394C436.208 47.3241 435.863 47.2215 435.552 47.0832V45.8056C435.932 45.9097 436.312 46.0123 436.727 46.0822C437.142 46.1506 437.522 46.1849 437.867 46.1849C438.316 46.1849 438.628 46.1164 438.869 45.9439C439.111 45.7714 439.215 45.5632 439.215 45.2538C439.215 45.0114 439.146 44.8389 439.008 44.7006C438.869 44.5622 438.558 44.4239 438.144 44.2514L437.349 44.0105ZM443.431 44.943C443.465 45.4263 443.604 45.7714 443.88 46.0123C444.157 46.2191 444.572 46.3232 445.125 46.3232C445.608 46.3232 446.196 46.2191 446.853 46.0465V47.1174C446.611 47.2557 446.3 47.3583 445.919 47.4282C445.574 47.4966 445.193 47.5323 444.814 47.5323C443.88 47.5323 443.154 47.2899 442.671 46.7723C442.187 46.2548 441.945 45.529 441.945 44.528C441.945 43.5955 442.187 42.8712 442.671 42.3194C443.154 41.8004 443.846 41.5253 444.71 41.5253C445.436 41.5253 445.989 41.732 446.403 42.1454C446.783 42.5604 446.99 43.1121 446.99 43.8721C446.99 44.0447 446.99 44.2172 446.956 44.4239C446.922 44.6321 446.922 44.8047 446.887 44.943H443.431ZM444.606 42.6645C444.227 42.6645 443.95 42.7671 443.742 42.9753C443.535 43.1821 443.431 43.4929 443.397 43.9064H445.574V43.7338C445.574 43.0095 445.263 42.6645 444.606 42.6645ZM450.689 47.2557C450.378 47.394 450.032 47.4282 449.686 47.4282C448.684 47.4282 448.201 46.8764 448.201 45.7714V39.1768H449.825V45.6331C449.825 45.8398 449.859 45.9781 449.929 46.0822C449.997 46.1506 450.101 46.2191 450.274 46.2191C450.378 46.2191 450.516 46.2191 450.689 46.1849V47.2557ZM453.005 44.943C453.039 45.4263 453.177 45.7714 453.454 46.0123C453.73 46.2191 454.144 46.3232 454.697 46.3232C455.182 46.3232 455.769 46.2191 456.425 46.0465V47.1174C456.183 47.2557 455.872 47.3583 455.493 47.4282C455.146 47.4966 454.767 47.5323 454.386 47.5323C453.454 47.5323 452.728 47.2899 452.243 46.7723C451.76 46.2548 451.517 45.529 451.517 44.528C451.517 43.5955 451.76 42.8712 452.243 42.3194C452.728 41.8004 453.418 41.5253 454.282 41.5253C455.008 41.5253 455.561 41.732 455.976 42.1454C456.357 42.5604 456.564 43.1121 456.564 43.8721C456.564 44.0447 456.564 44.2172 456.529 44.4239C456.495 44.6321 456.495 44.8047 456.459 44.943H453.005ZM454.214 42.6645C453.833 42.6645 453.556 42.7671 453.35 42.9753C453.143 43.1821 453.039 43.4929 453.005 43.9064H455.182V43.7338C455.146 43.0095 454.835 42.6645 454.214 42.6645ZM461.851 47.1174C461.644 47.2215 461.402 47.3241 461.125 47.394C460.848 47.4624 460.538 47.4966 460.261 47.4966C459.363 47.4966 458.671 47.2557 458.188 46.7381C457.704 46.2191 457.462 45.4948 457.462 44.5622C457.462 43.6312 457.704 42.9054 458.222 42.3878C458.741 41.8703 459.433 41.5937 460.297 41.5937C460.848 41.5937 461.333 41.6978 461.782 41.9387V43.0095C461.333 42.8712 460.953 42.837 460.572 42.837C460.054 42.837 459.673 42.9753 459.433 43.2163C459.19 43.4929 459.086 43.9064 459.086 44.4596V44.6321C459.086 45.1839 459.19 45.5989 459.433 45.874C459.673 46.1506 460.054 46.2547 460.538 46.2547C460.884 46.2547 461.333 46.1848 461.782 46.0465V47.1174H461.851ZM466.344 47.2215C465.929 47.3583 465.514 47.4624 464.996 47.4624C464.373 47.4624 463.89 47.3241 463.613 47.0132C463.302 46.7024 463.164 46.2548 463.164 45.6331V42.9054H462.3V41.9045L463.198 41.732L463.441 40.1778H464.754V41.6978H466.274V42.9054H464.754V45.5632C464.754 45.8056 464.824 45.9781 464.926 46.0822C465.031 46.1849 465.237 46.2191 465.514 46.2191C465.756 46.2191 465.999 46.1849 466.31 46.1507V47.2215H466.344Z" fill="black"/>
<path d="M470.378 46.6184C470.313 46.6184 470.285 46.5914 470.285 46.5288V42.7184H468.922C468.857 42.7184 468.829 42.6914 468.829 42.6284V42.4851C468.829 42.4226 468.857 42.3955 468.922 42.3955H472.022C472.087 42.3955 472.115 42.4226 472.115 42.4851V42.6284C472.115 42.6914 472.087 42.7184 472.022 42.7184H470.658V46.5288C470.658 46.5914 470.63 46.6184 470.565 46.6184H470.378ZM474.075 46.7081C473.571 46.7081 473.198 46.5736 472.936 46.2955C472.684 46.0178 472.554 45.6142 472.554 45.0761C472.554 44.5651 472.684 44.1707 472.936 43.8838C473.198 43.5968 473.552 43.4624 474.01 43.4624C474.393 43.4624 474.691 43.5701 474.897 43.7764C475.102 43.9915 475.205 44.2874 475.205 44.6818C475.205 44.8432 475.195 44.9688 475.177 45.0495C475.167 45.1121 475.13 45.1391 475.065 45.1391H472.918C472.918 45.5694 473.02 45.883 473.207 46.0804C473.394 46.2867 473.693 46.3851 474.094 46.3851C474.402 46.3851 474.691 46.3315 474.962 46.233C475.018 46.2148 475.055 46.2059 475.074 46.2059C475.093 46.2059 475.102 46.2148 475.121 46.2237C475.13 46.2418 475.14 46.2507 475.14 46.2778V46.3674C475.14 46.43 475.121 46.4748 475.065 46.4929C474.775 46.6362 474.439 46.7081 474.075 46.7081ZM474.859 44.861C474.859 44.8073 474.869 44.7355 474.869 44.664C474.869 44.3681 474.794 44.153 474.645 44.0004C474.495 43.8478 474.281 43.7764 473.991 43.7764C473.319 43.7764 472.964 44.1437 472.927 44.8699H474.859V44.861ZM477.342 46.6899C476.857 46.6899 476.484 46.5555 476.222 46.2867C475.97 46.0178 475.839 45.6142 475.839 45.0943C475.839 44.574 475.97 44.1796 476.222 43.9019C476.484 43.6238 476.857 43.4894 477.342 43.4894C477.576 43.4894 477.8 43.5253 478.005 43.606C478.052 43.6238 478.08 43.6686 478.08 43.7316V43.8212C478.08 43.8749 478.052 43.9019 478.005 43.9019C477.996 43.9019 477.977 43.9019 477.959 43.8926C477.94 43.8838 477.912 43.8838 477.866 43.8749C477.697 43.839 477.529 43.8119 477.361 43.8119C476.96 43.8119 476.67 43.9108 476.493 44.1078C476.316 44.3052 476.222 44.6192 476.222 45.0584V45.1302C476.222 45.5516 476.316 45.8653 476.493 46.0626C476.67 46.2596 476.96 46.3674 477.352 46.3674C477.52 46.3674 477.697 46.3403 477.903 46.2867C477.949 46.2778 477.977 46.2689 477.996 46.2596C478.015 46.2507 478.033 46.2507 478.043 46.2507C478.089 46.2507 478.117 46.2778 478.117 46.3315V46.4211C478.117 46.484 478.099 46.5288 478.052 46.5466C477.837 46.6362 477.595 46.6899 477.342 46.6899ZM478.976 46.6184C478.911 46.6184 478.883 46.5914 478.883 46.5288V42.1981C478.883 42.1356 478.911 42.1085 478.976 42.1085H479.144C479.21 42.1085 479.237 42.1356 479.237 42.1981V43.9019C479.443 43.7671 479.658 43.6597 479.891 43.579C480.115 43.4983 480.339 43.4624 480.554 43.4624C480.862 43.4624 481.095 43.5431 481.264 43.6957C481.431 43.8478 481.506 44.0811 481.506 44.3859V46.5288C481.506 46.5914 481.478 46.6184 481.413 46.6184H481.245C481.18 46.6184 481.151 46.5914 481.151 46.5288V44.5385C481.151 44.2781 481.095 44.0811 480.993 43.9645C480.89 43.8478 480.722 43.7853 480.489 43.7853C480.068 43.7853 479.658 43.9108 479.256 44.1708V46.5288C479.256 46.5914 479.228 46.6184 479.163 46.6184H478.976ZM482.58 46.6184C482.514 46.6184 482.486 46.5914 482.486 46.5288V43.6416C482.486 43.579 482.514 43.552 482.58 43.552H482.71C482.776 43.552 482.813 43.579 482.822 43.6416L482.85 43.9019C483.056 43.7582 483.28 43.6508 483.504 43.5701C483.728 43.4894 483.952 43.4535 484.167 43.4535C484.475 43.4535 484.708 43.5342 484.876 43.6864C485.044 43.839 485.119 44.0723 485.119 44.377V46.5288C485.119 46.5914 485.091 46.6184 485.026 46.6184H484.858C484.792 46.6184 484.764 46.5914 484.764 46.5288V44.5385C484.764 44.2781 484.708 44.0811 484.605 43.9645C484.503 43.8478 484.335 43.7853 484.101 43.7853C483.681 43.7853 483.271 43.9108 482.869 44.1708V46.5288C482.869 46.5914 482.841 46.6184 482.776 46.6184H482.58ZM487.397 46.7081C486.93 46.7081 486.566 46.5648 486.314 46.2778C486.052 45.9908 485.931 45.5871 485.931 45.0761C485.931 44.5651 486.062 44.1707 486.314 43.8838C486.575 43.5968 486.939 43.4535 487.397 43.4535C487.863 43.4535 488.227 43.5968 488.479 43.8838C488.741 44.1707 488.871 44.5651 488.871 45.0761C488.871 45.5871 488.741 45.9908 488.479 46.2778C488.227 46.5648 487.863 46.7081 487.397 46.7081ZM487.397 46.394C488.125 46.394 488.498 45.9549 488.498 45.0854C488.498 44.2156 488.134 43.7853 487.397 43.7853C486.669 43.7853 486.295 44.2156 486.295 45.0854C486.295 45.9549 486.659 46.394 487.397 46.394ZM490.235 46.6362C490.067 46.6362 489.936 46.5914 489.843 46.4929C489.749 46.3944 489.702 46.2689 489.702 46.0893V42.1893C489.702 42.1267 489.73 42.0997 489.796 42.0997H489.964C490.029 42.0997 490.057 42.1267 490.057 42.1893V46.0804C490.057 46.17 490.076 46.233 490.113 46.2689C490.151 46.3044 490.216 46.3226 490.309 46.3226C490.337 46.3226 490.365 46.3226 490.393 46.3137C490.421 46.3137 490.449 46.3044 490.468 46.3044C490.524 46.3044 490.561 46.3315 490.561 46.394V46.5107C490.561 46.5648 490.534 46.5914 490.477 46.6003C490.403 46.6273 490.328 46.6362 490.235 46.6362ZM492.587 46.7081C492.12 46.7081 491.756 46.5648 491.504 46.2778C491.243 45.9908 491.121 45.5871 491.121 45.0761C491.121 44.5651 491.252 44.1707 491.504 43.8838C491.766 43.5968 492.13 43.4535 492.587 43.4535C493.054 43.4535 493.418 43.5968 493.67 43.8838C493.932 44.1707 494.062 44.5651 494.062 45.0761C494.062 45.5871 493.932 45.9908 493.67 46.2778C493.418 46.5648 493.054 46.7081 492.587 46.7081ZM492.587 46.394C493.315 46.394 493.688 45.9549 493.688 45.0854C493.688 44.2156 493.324 43.7853 492.587 43.7853C491.859 43.7853 491.486 44.2156 491.486 45.0854C491.495 45.9549 491.859 46.394 492.587 46.394ZM496.013 47.9452C495.836 47.9452 495.658 47.9275 495.49 47.8915C495.322 47.8556 495.173 47.8108 495.042 47.7482C494.996 47.7301 494.968 47.6853 494.968 47.6227V47.5327C494.968 47.479 494.986 47.4524 495.042 47.4524C495.052 47.4524 495.07 47.4524 495.08 47.4613C495.098 47.4613 495.126 47.4701 495.164 47.4879C495.462 47.5775 495.742 47.6316 495.985 47.6316C496.377 47.6316 496.667 47.542 496.853 47.3535C497.04 47.1654 497.133 46.8695 497.133 46.4659V46.17C496.975 46.2955 496.806 46.394 496.61 46.4659C496.424 46.5377 496.237 46.5736 496.069 46.5736C495.658 46.5736 495.341 46.43 495.089 46.1522C494.846 45.8741 494.725 45.5068 494.725 45.0495C494.725 44.5562 494.846 44.1707 495.089 43.8838C495.332 43.5968 495.668 43.4535 496.088 43.4535C496.489 43.4535 496.835 43.5879 497.143 43.8571L497.171 43.6327C497.18 43.5701 497.217 43.5431 497.283 43.5431H497.414C497.479 43.5431 497.507 43.5701 497.507 43.6327V46.4659C497.507 46.941 497.376 47.3087 497.124 47.5598C496.872 47.8108 496.489 47.9452 496.013 47.9452ZM496.153 46.2596C496.471 46.2596 496.797 46.1341 497.133 45.8741V44.1796C496.956 44.0452 496.797 43.9375 496.629 43.8749C496.471 43.8119 496.293 43.7764 496.116 43.7764C495.78 43.7764 495.518 43.8838 495.351 44.09C495.182 44.3052 495.098 44.6099 495.098 45.0313C495.098 45.4261 495.192 45.7308 495.369 45.946C495.547 46.1611 495.808 46.2596 496.153 46.2596ZM498.599 47.9452C498.496 47.9452 498.403 47.9275 498.31 47.9004C498.244 47.8827 498.216 47.8467 498.216 47.7749V47.6853C498.216 47.6316 498.244 47.6046 498.291 47.6046C498.319 47.6046 498.338 47.6046 498.356 47.6134C498.375 47.6134 498.403 47.6227 498.44 47.6227C498.478 47.6227 498.515 47.6227 498.571 47.6227C498.711 47.6227 498.823 47.5868 498.907 47.5149C498.991 47.4431 499.066 47.3176 499.141 47.1384L499.355 46.6273L498.104 43.6775C498.086 43.6416 498.076 43.6149 498.076 43.5968C498.076 43.552 498.104 43.5253 498.151 43.5253H498.356C498.412 43.5253 498.45 43.552 498.469 43.606L499.532 46.2237L500.606 43.606C500.625 43.552 500.662 43.5253 500.718 43.5253H500.905C500.951 43.5253 500.979 43.5431 500.979 43.5968C500.979 43.606 500.97 43.6327 500.951 43.6775L499.458 47.2461C499.355 47.4972 499.234 47.6675 499.103 47.7749C498.972 47.9004 498.804 47.9452 498.599 47.9452Z" fill="black"/>
<path d="M504.017 47.8238C503.933 47.8238 503.898 47.7876 503.898 47.7023V42.2211C503.898 42.1363 503.933 42.0997 504.017 42.0997H505.827C506.339 42.0997 506.744 42.2578 507.054 42.5614C507.363 42.8656 507.506 43.2787 507.506 43.8012C507.506 44.3117 507.351 44.7248 507.054 45.0285C506.744 45.3327 506.339 45.4902 505.827 45.4902H504.362V47.7023C504.362 47.7876 504.326 47.8238 504.243 47.8238H504.017ZM505.815 45.0531C506.613 45.0531 507.018 44.64 507.018 43.8012C507.018 42.9625 506.613 42.5373 505.815 42.5373H504.362V45.0531H505.815ZM509.495 47.9212C509.126 47.9212 508.828 47.8117 508.601 47.5929C508.387 47.374 508.268 47.0824 508.268 46.718C508.268 46.317 508.399 46.0007 508.673 45.7698C508.947 45.5389 509.316 45.4175 509.781 45.4175C510.138 45.4175 510.531 45.4782 510.936 45.6122V44.9196C510.936 44.5792 510.852 44.3484 510.698 44.2023C510.543 44.0562 510.281 43.9834 509.924 43.9834C509.554 43.9834 509.161 44.0562 508.744 44.1902C508.697 44.2023 508.649 44.2143 508.626 44.2143C508.578 44.2143 508.542 44.1782 508.542 44.1049V43.9714C508.542 43.9227 508.554 43.8986 508.566 43.874C508.578 43.8499 508.614 43.8253 508.649 43.8133C509.078 43.6431 509.531 43.5583 510.007 43.5583C510.483 43.5583 510.829 43.6552 511.067 43.862C511.305 44.0688 511.412 44.3724 511.412 44.7855V47.7023C511.412 47.7876 511.376 47.8238 511.293 47.8238H511.126C511.043 47.8238 511.007 47.7876 510.995 47.7023L510.96 47.3499C510.483 47.7264 509.995 47.9212 509.495 47.9212ZM509.554 47.4835C509.757 47.4835 509.983 47.4473 510.221 47.362C510.459 47.2772 510.698 47.1557 510.948 46.9976V45.9646C510.591 45.8672 510.233 45.8185 509.9 45.8185C509.149 45.8185 508.769 46.1102 508.769 46.706C508.769 46.9609 508.84 47.1557 508.971 47.2892C509.09 47.4227 509.292 47.4835 509.554 47.4835ZM512.77 47.8238C512.686 47.8238 512.651 47.7876 512.651 47.7023V43.7892C512.651 43.7039 512.686 43.6677 512.77 43.6677H512.925C513.008 43.6677 513.056 43.7039 513.068 43.7892L513.103 44.2751C513.306 44.0442 513.508 43.874 513.711 43.7892C513.913 43.6918 514.127 43.6431 514.378 43.6431C514.461 43.6431 514.532 43.6431 514.592 43.6552C514.675 43.6552 514.711 43.7039 514.711 43.7892V43.9955C514.711 44.0201 514.699 44.0442 514.687 44.0562C514.675 44.0808 514.651 44.0808 514.628 44.0808C514.58 44.0808 514.544 44.0808 514.509 44.0808C514.473 44.0808 514.413 44.0808 514.342 44.0808C514.092 44.0808 513.877 44.1295 513.687 44.2264C513.497 44.3237 513.306 44.4698 513.139 44.6761V47.7143C513.139 47.7997 513.103 47.8358 513.02 47.8358H512.77V47.8238ZM516.688 47.8725C516.367 47.8725 516.128 47.7876 515.961 47.6175C515.795 47.4473 515.712 47.1918 515.712 46.8636V44.0929H515.068C514.985 44.0929 514.949 44.0562 514.949 43.9714V43.8866C514.949 43.8379 514.961 43.8133 514.973 43.7892C514.985 43.7646 515.021 43.7525 515.068 43.7525L515.723 43.6918L515.783 42.5981C515.783 42.5494 515.795 42.5253 515.819 42.5007C515.842 42.4766 515.866 42.4766 515.902 42.4766H516.045C516.128 42.4766 516.164 42.5133 516.164 42.5981V43.6798H517.343C517.427 43.6798 517.462 43.7164 517.462 43.8012V43.9714C517.462 44.0562 517.427 44.0929 517.343 44.0929H516.164V46.8395C516.164 47.0704 516.211 47.2285 516.307 47.3133C516.402 47.4107 516.557 47.4594 516.783 47.4594C516.938 47.4594 517.081 47.4473 517.2 47.4227C517.259 47.4107 517.307 47.3986 517.343 47.3986C517.379 47.3866 517.402 47.3866 517.427 47.3866C517.486 47.3866 517.521 47.4227 517.521 47.4835V47.6049C517.521 47.7023 517.498 47.751 517.427 47.7751C517.212 47.8358 516.962 47.8725 516.688 47.8725ZM518.486 47.8238C518.403 47.8238 518.367 47.7876 518.367 47.7023V43.7892C518.367 43.7039 518.403 43.6677 518.486 43.6677H518.653C518.737 43.6677 518.784 43.7039 518.796 43.7892L518.831 44.1415C519.094 43.9473 519.379 43.8012 519.665 43.6918C519.951 43.5824 520.237 43.5337 520.511 43.5337C520.904 43.5337 521.202 43.6431 521.416 43.8499C521.63 44.0562 521.726 44.3724 521.726 44.7855V47.7023C521.726 47.7876 521.69 47.8238 521.607 47.8238H521.392C521.309 47.8238 521.273 47.7876 521.273 47.7023V45.0044C521.273 44.652 521.202 44.3845 521.071 44.2264C520.939 44.0688 520.725 43.9834 520.427 43.9834C519.892 43.9834 519.367 44.1536 518.855 44.5059V47.7023C518.855 47.7876 518.82 47.8238 518.737 47.8238H518.486ZM524.691 47.9452C524.048 47.9452 523.572 47.763 523.238 47.3866C522.917 47.0096 522.75 46.4625 522.75 45.7337C522.75 45.041 522.917 44.506 523.238 44.1175C523.572 43.7285 524.024 43.5463 524.608 43.5463C525.096 43.5463 525.477 43.6918 525.739 43.9714C526.001 44.263 526.132 44.6641 526.132 45.1986C526.132 45.4175 526.12 45.5876 526.096 45.6971C526.085 45.7824 526.037 45.8185 525.953 45.8185H523.214C523.214 46.4018 523.345 46.8274 523.583 47.0944C523.822 47.374 524.203 47.5081 524.715 47.5081C525.108 47.5081 525.477 47.4348 525.822 47.3013C525.894 47.2772 525.942 47.2646 525.965 47.2646C525.989 47.2646 526.001 47.2772 526.025 47.2892C526.037 47.3133 526.049 47.3253 526.049 47.362V47.4835C526.049 47.5688 526.025 47.6295 525.953 47.6536C525.584 47.8484 525.155 47.9452 524.691 47.9452ZM525.691 45.4421C525.691 45.3688 525.703 45.2719 525.703 45.1745C525.703 44.7735 525.608 44.4819 525.417 44.2751C525.227 44.0688 524.953 43.9714 524.584 43.9714C523.726 43.9714 523.274 44.4698 523.226 45.4541H525.691V45.4421ZM527.287 47.8238C527.204 47.8238 527.168 47.7876 527.168 47.7023V43.7892C527.168 43.7039 527.204 43.6677 527.287 43.6677H527.442C527.525 43.6677 527.573 43.7039 527.585 43.7892L527.621 44.2751C527.823 44.0442 528.026 43.874 528.228 43.7892C528.43 43.6918 528.645 43.6431 528.895 43.6431C528.978 43.6431 529.05 43.6431 529.109 43.6552C529.193 43.6552 529.228 43.7039 529.228 43.7892V43.9955C529.228 44.0201 529.217 44.0442 529.204 44.0562C529.193 44.0808 529.169 44.0808 529.145 44.0808C529.097 44.0808 529.062 44.0808 529.026 44.0808C528.99 44.0808 528.931 44.0808 528.859 44.0808C528.609 44.0808 528.395 44.1295 528.204 44.2264C528.014 44.3237 527.823 44.4698 527.656 44.6761V47.7143C527.656 47.7997 527.621 47.8358 527.537 47.8358H527.287V47.8238Z" fill="black"/>
<path d="M470.378 46.6184C470.313 46.6184 470.285 46.5914 470.285 46.5288V42.7184H468.922C468.857 42.7184 468.829 42.6914 468.829 42.6284V42.4851C468.829 42.4226 468.857 42.3955 468.922 42.3955H472.022C472.087 42.3955 472.115 42.4226 472.115 42.4851V42.6284C472.115 42.6914 472.087 42.7184 472.022 42.7184H470.658V46.5288C470.658 46.5914 470.63 46.6184 470.565 46.6184H470.378ZM474.075 46.7081C473.571 46.7081 473.198 46.5736 472.936 46.2955C472.684 46.0178 472.554 45.6142 472.554 45.0761C472.554 44.5651 472.684 44.1707 472.936 43.8838C473.198 43.5968 473.552 43.4624 474.01 43.4624C474.393 43.4624 474.691 43.5701 474.897 43.7764C475.102 43.9915 475.205 44.2874 475.205 44.6818C475.205 44.8432 475.195 44.9688 475.177 45.0495C475.167 45.1121 475.13 45.1391 475.065 45.1391H472.918C472.918 45.5694 473.02 45.883 473.207 46.0804C473.394 46.2867 473.693 46.3851 474.094 46.3851C474.402 46.3851 474.691 46.3315 474.962 46.233C475.018 46.2148 475.055 46.2059 475.074 46.2059C475.093 46.2059 475.102 46.2148 475.121 46.2237C475.13 46.2418 475.14 46.2507 475.14 46.2778V46.3674C475.14 46.43 475.121 46.4748 475.065 46.4929C474.775 46.6362 474.439 46.7081 474.075 46.7081ZM474.859 44.861C474.859 44.8073 474.869 44.7355 474.869 44.664C474.869 44.3681 474.794 44.153 474.645 44.0004C474.495 43.8478 474.281 43.7764 473.991 43.7764C473.319 43.7764 472.964 44.1437 472.927 44.8699H474.859V44.861ZM477.342 46.6899C476.857 46.6899 476.484 46.5555 476.222 46.2867C475.97 46.0178 475.839 45.6142 475.839 45.0943C475.839 44.574 475.97 44.1796 476.222 43.9019C476.484 43.6238 476.857 43.4894 477.342 43.4894C477.576 43.4894 477.8 43.5253 478.005 43.606C478.052 43.6238 478.08 43.6686 478.08 43.7316V43.8212C478.08 43.8749 478.052 43.9019 478.005 43.9019C477.996 43.9019 477.977 43.9019 477.959 43.8926C477.94 43.8838 477.912 43.8838 477.866 43.8749C477.697 43.839 477.529 43.8119 477.361 43.8119C476.96 43.8119 476.67 43.9108 476.493 44.1078C476.316 44.3052 476.222 44.6192 476.222 45.0584V45.1302C476.222 45.5516 476.316 45.8653 476.493 46.0626C476.67 46.2596 476.96 46.3674 477.352 46.3674C477.52 46.3674 477.697 46.3403 477.903 46.2867C477.949 46.2778 477.977 46.2689 477.996 46.2596C478.015 46.2507 478.033 46.2507 478.043 46.2507C478.089 46.2507 478.117 46.2778 478.117 46.3315V46.4211C478.117 46.484 478.099 46.5288 478.052 46.5466C477.837 46.6362 477.595 46.6899 477.342 46.6899ZM478.976 46.6184C478.911 46.6184 478.883 46.5914 478.883 46.5288V42.1981C478.883 42.1356 478.911 42.1085 478.976 42.1085H479.144C479.21 42.1085 479.237 42.1356 479.237 42.1981V43.9019C479.443 43.7671 479.658 43.6597 479.891 43.579C480.115 43.4983 480.339 43.4624 480.554 43.4624C480.862 43.4624 481.095 43.5431 481.264 43.6957C481.431 43.8478 481.506 44.0811 481.506 44.3859V46.5288C481.506 46.5914 481.478 46.6184 481.413 46.6184H481.245C481.18 46.6184 481.151 46.5914 481.151 46.5288V44.5385C481.151 44.2781 481.095 44.0811 480.993 43.9645C480.89 43.8478 480.722 43.7853 480.489 43.7853C480.068 43.7853 479.658 43.9108 479.256 44.1708V46.5288C479.256 46.5914 479.228 46.6184 479.163 46.6184H478.976ZM482.58 46.6184C482.514 46.6184 482.486 46.5914 482.486 46.5288V43.6416C482.486 43.579 482.514 43.552 482.58 43.552H482.71C482.776 43.552 482.813 43.579 482.822 43.6416L482.85 43.9019C483.056 43.7582 483.28 43.6508 483.504 43.5701C483.728 43.4894 483.952 43.4535 484.167 43.4535C484.475 43.4535 484.708 43.5342 484.876 43.6864C485.044 43.839 485.119 44.0723 485.119 44.377V46.5288C485.119 46.5914 485.091 46.6184 485.026 46.6184H484.858C484.792 46.6184 484.764 46.5914 484.764 46.5288V44.5385C484.764 44.2781 484.708 44.0811 484.605 43.9645C484.503 43.8478 484.335 43.7853 484.101 43.7853C483.681 43.7853 483.271 43.9108 482.869 44.1708V46.5288C482.869 46.5914 482.841 46.6184 482.776 46.6184H482.58ZM487.397 46.7081C486.93 46.7081 486.566 46.5648 486.314 46.2778C486.052 45.9908 485.931 45.5871 485.931 45.0761C485.931 44.5651 486.062 44.1707 486.314 43.8838C486.575 43.5968 486.939 43.4535 487.397 43.4535C487.863 43.4535 488.227 43.5968 488.479 43.8838C488.741 44.1707 488.871 44.5651 488.871 45.0761C488.871 45.5871 488.741 45.9908 488.479 46.2778C488.227 46.5648 487.863 46.7081 487.397 46.7081ZM487.397 46.394C488.125 46.394 488.498 45.9549 488.498 45.0854C488.498 44.2156 488.134 43.7853 487.397 43.7853C486.669 43.7853 486.295 44.2156 486.295 45.0854C486.295 45.9549 486.659 46.394 487.397 46.394ZM490.235 46.6362C490.067 46.6362 489.936 46.5914 489.843 46.4929C489.749 46.3944 489.702 46.2689 489.702 46.0893V42.1893C489.702 42.1267 489.73 42.0997 489.796 42.0997H489.964C490.029 42.0997 490.057 42.1267 490.057 42.1893V46.0804C490.057 46.17 490.076 46.233 490.113 46.2689C490.151 46.3044 490.216 46.3226 490.309 46.3226C490.337 46.3226 490.365 46.3226 490.393 46.3137C490.421 46.3137 490.449 46.3044 490.468 46.3044C490.524 46.3044 490.561 46.3315 490.561 46.394V46.5107C490.561 46.5648 490.534 46.5914 490.477 46.6003C490.403 46.6273 490.328 46.6362 490.235 46.6362ZM492.587 46.7081C492.12 46.7081 491.756 46.5648 491.504 46.2778C491.243 45.9908 491.121 45.5871 491.121 45.0761C491.121 44.5651 491.252 44.1707 491.504 43.8838C491.766 43.5968 492.13 43.4535 492.587 43.4535C493.054 43.4535 493.418 43.5968 493.67 43.8838C493.932 44.1707 494.062 44.5651 494.062 45.0761C494.062 45.5871 493.932 45.9908 493.67 46.2778C493.418 46.5648 493.054 46.7081 492.587 46.7081ZM492.587 46.394C493.315 46.394 493.688 45.9549 493.688 45.0854C493.688 44.2156 493.324 43.7853 492.587 43.7853C491.859 43.7853 491.486 44.2156 491.486 45.0854C491.495 45.9549 491.859 46.394 492.587 46.394ZM496.013 47.9452C495.836 47.9452 495.658 47.9275 495.49 47.8915C495.322 47.8556 495.173 47.8108 495.042 47.7482C494.996 47.7301 494.968 47.6853 494.968 47.6227V47.5327C494.968 47.479 494.986 47.4524 495.042 47.4524C495.052 47.4524 495.07 47.4524 495.08 47.4613C495.098 47.4613 495.126 47.4701 495.164 47.4879C495.462 47.5775 495.742 47.6316 495.985 47.6316C496.377 47.6316 496.667 47.542 496.853 47.3535C497.04 47.1654 497.133 46.8695 497.133 46.4659V46.17C496.975 46.2955 496.806 46.394 496.61 46.4659C496.424 46.5377 496.237 46.5736 496.069 46.5736C495.658 46.5736 495.341 46.43 495.089 46.1522C494.846 45.8741 494.725 45.5068 494.725 45.0495C494.725 44.5562 494.846 44.1707 495.089 43.8838C495.332 43.5968 495.668 43.4535 496.088 43.4535C496.489 43.4535 496.835 43.5879 497.143 43.8571L497.171 43.6327C497.18 43.5701 497.217 43.5431 497.283 43.5431H497.414C497.479 43.5431 497.507 43.5701 497.507 43.6327V46.4659C497.507 46.941 497.376 47.3087 497.124 47.5598C496.872 47.8108 496.489 47.9452 496.013 47.9452ZM496.153 46.2596C496.471 46.2596 496.797 46.1341 497.133 45.8741V44.1796C496.956 44.0452 496.797 43.9375 496.629 43.8749C496.471 43.8119 496.293 43.7764 496.116 43.7764C495.78 43.7764 495.518 43.8838 495.351 44.09C495.182 44.3052 495.098 44.6099 495.098 45.0313C495.098 45.4261 495.192 45.7308 495.369 45.946C495.547 46.1611 495.808 46.2596 496.153 46.2596ZM498.599 47.9452C498.496 47.9452 498.403 47.9275 498.31 47.9004C498.244 47.8827 498.216 47.8467 498.216 47.7749V47.6853C498.216 47.6316 498.244 47.6046 498.291 47.6046C498.319 47.6046 498.338 47.6046 498.356 47.6134C498.375 47.6134 498.403 47.6227 498.44 47.6227C498.478 47.6227 498.515 47.6227 498.571 47.6227C498.711 47.6227 498.823 47.5868 498.907 47.5149C498.991 47.4431 499.066 47.3176 499.141 47.1384L499.355 46.6273L498.104 43.6775C498.086 43.6416 498.076 43.6149 498.076 43.5968C498.076 43.552 498.104 43.5253 498.151 43.5253H498.356C498.412 43.5253 498.45 43.552 498.469 43.606L499.532 46.2237L500.606 43.606C500.625 43.552 500.662 43.5253 500.718 43.5253H500.905C500.951 43.5253 500.979 43.5431 500.979 43.5968C500.979 43.606 500.97 43.6327 500.951 43.6775L499.458 47.2461C499.355 47.4972 499.234 47.6675 499.103 47.7749C498.972 47.9004 498.804 47.9452 498.599 47.9452Z" fill="black"/>
<path d="M504.017 47.8238C503.933 47.8238 503.898 47.7876 503.898 47.7023V42.2211C503.898 42.1363 503.933 42.0997 504.017 42.0997H505.827C506.339 42.0997 506.744 42.2578 507.054 42.5614C507.363 42.8656 507.506 43.2787 507.506 43.8012C507.506 44.3117 507.351 44.7248 507.054 45.0285C506.744 45.3327 506.339 45.4902 505.827 45.4902H504.362V47.7023C504.362 47.7876 504.326 47.8238 504.243 47.8238H504.017ZM505.815 45.0531C506.613 45.0531 507.018 44.64 507.018 43.8012C507.018 42.9625 506.613 42.5373 505.815 42.5373H504.362V45.0531H505.815ZM509.495 47.9212C509.126 47.9212 508.828 47.8117 508.601 47.5929C508.387 47.374 508.268 47.0824 508.268 46.718C508.268 46.317 508.399 46.0007 508.673 45.7698C508.947 45.5389 509.316 45.4175 509.781 45.4175C510.138 45.4175 510.531 45.4782 510.936 45.6122V44.9196C510.936 44.5792 510.852 44.3484 510.698 44.2023C510.543 44.0562 510.281 43.9834 509.924 43.9834C509.554 43.9834 509.161 44.0562 508.744 44.1902C508.697 44.2023 508.649 44.2143 508.626 44.2143C508.578 44.2143 508.542 44.1782 508.542 44.1049V43.9714C508.542 43.9227 508.554 43.8986 508.566 43.874C508.578 43.8499 508.614 43.8253 508.649 43.8133C509.078 43.6431 509.531 43.5583 510.007 43.5583C510.483 43.5583 510.829 43.6552 511.067 43.862C511.305 44.0688 511.412 44.3724 511.412 44.7855V47.7023C511.412 47.7876 511.376 47.8238 511.293 47.8238H511.126C511.043 47.8238 511.007 47.7876 510.995 47.7023L510.96 47.3499C510.483 47.7264 509.995 47.9212 509.495 47.9212ZM509.554 47.4835C509.757 47.4835 509.983 47.4473 510.221 47.362C510.459 47.2772 510.698 47.1557 510.948 46.9976V45.9646C510.591 45.8672 510.233 45.8185 509.9 45.8185C509.149 45.8185 508.769 46.1102 508.769 46.706C508.769 46.9609 508.84 47.1557 508.971 47.2892C509.09 47.4227 509.292 47.4835 509.554 47.4835ZM512.77 47.8238C512.686 47.8238 512.651 47.7876 512.651 47.7023V43.7892C512.651 43.7039 512.686 43.6677 512.77 43.6677H512.925C513.008 43.6677 513.056 43.7039 513.068 43.7892L513.103 44.2751C513.306 44.0442 513.508 43.874 513.711 43.7892C513.913 43.6918 514.127 43.6431 514.378 43.6431C514.461 43.6431 514.532 43.6431 514.592 43.6552C514.675 43.6552 514.711 43.7039 514.711 43.7892V43.9955C514.711 44.0201 514.699 44.0442 514.687 44.0562C514.675 44.0808 514.651 44.0808 514.628 44.0808C514.58 44.0808 514.544 44.0808 514.509 44.0808C514.473 44.0808 514.413 44.0808 514.342 44.0808C514.092 44.0808 513.877 44.1295 513.687 44.2264C513.497 44.3237 513.306 44.4698 513.139 44.6761V47.7143C513.139 47.7997 513.103 47.8358 513.02 47.8358H512.77V47.8238ZM516.688 47.8725C516.367 47.8725 516.128 47.7876 515.961 47.6175C515.795 47.4473 515.712 47.1918 515.712 46.8636V44.0929H515.068C514.985 44.0929 514.949 44.0562 514.949 43.9714V43.8866C514.949 43.8379 514.961 43.8133 514.973 43.7892C514.985 43.7646 515.021 43.7525 515.068 43.7525L515.723 43.6918L515.783 42.5981C515.783 42.5494 515.795 42.5253 515.819 42.5007C515.842 42.4766 515.866 42.4766 515.902 42.4766H516.045C516.128 42.4766 516.164 42.5133 516.164 42.5981V43.6798H517.343C517.427 43.6798 517.462 43.7164 517.462 43.8012V43.9714C517.462 44.0562 517.427 44.0929 517.343 44.0929H516.164V46.8395C516.164 47.0704 516.211 47.2285 516.307 47.3133C516.402 47.4107 516.557 47.4594 516.783 47.4594C516.938 47.4594 517.081 47.4473 517.2 47.4227C517.259 47.4107 517.307 47.3986 517.343 47.3986C517.379 47.3866 517.402 47.3866 517.427 47.3866C517.486 47.3866 517.521 47.4227 517.521 47.4835V47.6049C517.521 47.7023 517.498 47.751 517.427 47.7751C517.212 47.8358 516.962 47.8725 516.688 47.8725ZM518.486 47.8238C518.403 47.8238 518.367 47.7876 518.367 47.7023V43.7892C518.367 43.7039 518.403 43.6677 518.486 43.6677H518.653C518.737 43.6677 518.784 43.7039 518.796 43.7892L518.831 44.1415C519.094 43.9473 519.379 43.8012 519.665 43.6918C519.951 43.5824 520.237 43.5337 520.511 43.5337C520.904 43.5337 521.202 43.6431 521.416 43.8499C521.63 44.0562 521.726 44.3724 521.726 44.7855V47.7023C521.726 47.7876 521.69 47.8238 521.607 47.8238H521.392C521.309 47.8238 521.273 47.7876 521.273 47.7023V45.0044C521.273 44.652 521.202 44.3845 521.071 44.2264C520.939 44.0688 520.725 43.9834 520.427 43.9834C519.892 43.9834 519.367 44.1536 518.855 44.5059V47.7023C518.855 47.7876 518.82 47.8238 518.737 47.8238H518.486ZM524.691 47.9452C524.048 47.9452 523.572 47.763 523.238 47.3866C522.917 47.0096 522.75 46.4625 522.75 45.7337C522.75 45.041 522.917 44.506 523.238 44.1175C523.572 43.7285 524.024 43.5463 524.608 43.5463C525.096 43.5463 525.477 43.6918 525.739 43.9714C526.001 44.263 526.132 44.6641 526.132 45.1986C526.132 45.4175 526.12 45.5876 526.096 45.6971C526.085 45.7824 526.037 45.8185 525.953 45.8185H523.214C523.214 46.4018 523.345 46.8274 523.583 47.0944C523.822 47.374 524.203 47.5081 524.715 47.5081C525.108 47.5081 525.477 47.4348 525.822 47.3013C525.894 47.2772 525.942 47.2646 525.965 47.2646C525.989 47.2646 526.001 47.2772 526.025 47.2892C526.037 47.3133 526.049 47.3253 526.049 47.362V47.4835C526.049 47.5688 526.025 47.6295 525.953 47.6536C525.584 47.8484 525.155 47.9452 524.691 47.9452ZM525.691 45.4421C525.691 45.3688 525.703 45.2719 525.703 45.1745C525.703 44.7735 525.608 44.4819 525.417 44.2751C525.227 44.0688 524.953 43.9714 524.584 43.9714C523.726 43.9714 523.274 44.4698 523.226 45.4541H525.691V45.4421ZM527.287 47.8238C527.204 47.8238 527.168 47.7876 527.168 47.7023V43.7892C527.168 43.7039 527.204 43.6677 527.287 43.6677H527.442C527.525 43.6677 527.573 43.7039 527.585 43.7892L527.621 44.2751C527.823 44.0442 528.026 43.874 528.228 43.7892C528.43 43.6918 528.645 43.6431 528.895 43.6431C528.978 43.6431 529.05 43.6431 529.109 43.6552C529.193 43.6552 529.228 43.7039 529.228 43.7892V43.9955C529.228 44.0201 529.217 44.0442 529.204 44.0562C529.193 44.0808 529.169 44.0808 529.145 44.0808C529.097 44.0808 529.062 44.0808 529.026 44.0808C528.99 44.0808 528.931 44.0808 528.859 44.0808C528.609 44.0808 528.395 44.1295 528.204 44.2264C528.014 44.3237 527.823 44.4698 527.656 44.6761V47.7143C527.656 47.7997 527.621 47.8358 527.537 47.8358H527.287V47.8238Z" fill="black"/>
<path d="M194.547 30.0815C195.086 30.0815 195.56 30.1852 195.966 30.3927C196.381 30.6002 196.705 30.899 196.937 31.289C197.17 31.6791 197.286 32.1563 197.286 32.7207C197.286 33.3431 197.161 33.8784 196.912 34.3266C196.663 34.7748 196.298 35.1192 195.817 35.3599C195.344 35.6005 194.763 35.7209 194.074 35.7209C193.634 35.7209 193.223 35.6794 192.841 35.5964C192.46 35.5134 192.132 35.3931 191.858 35.2354V34.0278C192.14 34.2021 192.485 34.3432 192.891 34.4511C193.298 34.559 193.68 34.6129 194.037 34.6129C194.418 34.6129 194.746 34.5507 195.02 34.4262C195.302 34.2934 195.518 34.0984 195.667 33.8411C195.825 33.5755 195.904 33.2435 195.904 32.8452C195.904 32.3057 195.75 31.8949 195.443 31.6127C195.136 31.3222 194.655 31.177 193.999 31.177C193.775 31.177 193.534 31.1978 193.277 31.2393C193.02 31.2807 192.808 31.3222 192.642 31.3637L192.045 31.0027L192.356 26.7078H196.701V27.878H193.526L193.352 30.206C193.485 30.1811 193.647 30.1562 193.837 30.1313C194.037 30.0981 194.273 30.0815 194.547 30.0815ZM198.656 34.8619C198.656 34.5382 198.735 34.31 198.892 34.1772C199.058 34.0444 199.262 33.978 199.502 33.978C199.735 33.978 199.934 34.0444 200.1 34.1772C200.274 34.31 200.361 34.5382 200.361 34.8619C200.361 35.1856 200.274 35.418 200.1 35.5591C199.934 35.7001 199.735 35.7707 199.502 35.7707C199.262 35.7707 199.058 35.7001 198.892 35.5591C198.735 35.418 198.656 35.1856 198.656 34.8619ZM207.305 31.1397C207.305 31.8617 207.256 32.5049 207.156 33.0693C207.056 33.6336 206.89 34.115 206.658 34.5133C206.434 34.9034 206.139 35.2022 205.774 35.4097C205.417 35.6171 204.977 35.7209 204.455 35.7209C203.815 35.7209 203.284 35.5383 202.861 35.1731C202.446 34.808 202.135 34.2851 201.927 33.6046C201.728 32.9157 201.629 32.0941 201.629 31.1397C201.629 30.1769 201.72 29.3553 201.902 28.6748C202.093 27.9942 202.396 27.4755 202.811 27.1186C203.226 26.7535 203.778 26.5709 204.467 26.5709C205.114 26.5709 205.645 26.7535 206.06 27.1186C206.484 27.4755 206.795 27.9942 206.994 28.6748C207.202 29.3553 207.305 30.1769 207.305 31.1397ZM202.986 31.1397C202.986 31.9115 203.031 32.5547 203.122 33.0693C203.222 33.5838 203.38 33.9697 203.596 34.227C203.82 34.4843 204.11 34.6129 204.467 34.6129C204.832 34.6129 205.118 34.4884 205.326 34.2395C205.542 33.9822 205.699 33.5963 205.799 33.0817C205.899 32.5588 205.948 31.9115 205.948 31.1397C205.948 30.3678 205.899 29.7288 205.799 29.2225C205.699 28.708 205.542 28.322 205.326 28.0648C205.118 27.8075 204.832 27.6788 204.467 27.6788C204.11 27.6788 203.82 27.8075 203.596 28.0648C203.38 28.322 203.222 28.708 203.122 29.2225C203.031 29.7288 202.986 30.3678 202.986 31.1397Z" fill="#777777"/>
<path d="M119.908 3.08666C120.464 3.08666 120.922 3.16089 121.283 3.30936C121.645 3.45782 121.913 3.68052 122.087 3.97745C122.268 4.26793 122.358 4.63587 122.358 5.08126C122.358 5.43629 122.297 5.73645 122.174 5.98174C122.058 6.22058 121.903 6.41746 121.709 6.57238C121.522 6.72084 121.319 6.84026 121.099 6.93063L122.929 10H121.709L120.17 7.20174H119.115V10H118.04V3.08666H119.908ZM119.86 3.97745H119.115V6.33031H119.879C120.196 6.33031 120.454 6.28513 120.654 6.19476C120.861 6.10439 121.012 5.96883 121.109 5.78809C121.212 5.60735 121.264 5.38465 121.264 5.11999C121.264 4.84243 121.212 4.62296 121.109 4.46158C121.012 4.29375 120.857 4.1711 120.644 4.09364C120.438 4.01618 120.176 3.97745 119.86 3.97745ZM125.714 4.68428C126.327 4.68428 126.789 4.82952 127.099 5.11999C127.415 5.40402 127.573 5.85264 127.573 6.46587V10H126.828L126.624 9.27381H126.586C126.437 9.461 126.289 9.61593 126.14 9.73857C125.998 9.86122 125.83 9.95159 125.637 10.0097C125.45 10.0678 125.217 10.0968 124.94 10.0968C124.649 10.0968 124.388 10.042 124.155 9.93222C123.923 9.81603 123.739 9.64175 123.603 9.40936C123.468 9.17053 123.4 8.8736 123.4 8.51857C123.4 7.98926 123.587 7.58582 123.962 7.30825C124.343 7.03068 124.92 6.87899 125.695 6.85317L126.528 6.82412V6.53365C126.528 6.14635 126.447 5.87523 126.286 5.72031C126.131 5.56539 125.911 5.48793 125.627 5.48793C125.388 5.48793 125.153 5.52666 124.92 5.60412C124.688 5.68158 124.462 5.77518 124.242 5.88492L123.923 5.13936C124.162 5.01026 124.433 4.90375 124.736 4.81984C125.046 4.72947 125.372 4.68428 125.714 4.68428ZM125.898 7.51158C125.369 7.5374 125.001 7.63746 124.794 7.81174C124.588 7.97957 124.485 8.21841 124.485 8.52825C124.485 8.79936 124.556 8.99624 124.698 9.11889C124.846 9.24153 125.036 9.30286 125.269 9.30286C125.624 9.30286 125.921 9.18989 126.16 8.96397C126.405 8.73804 126.528 8.39915 126.528 7.9473V7.49222L125.898 7.51158ZM130.865 9.26413C131 9.26413 131.132 9.25122 131.262 9.2254C131.391 9.19958 131.504 9.17053 131.6 9.13825V9.91286C131.491 9.9645 131.345 10.0065 131.165 10.0387C130.99 10.0775 130.806 10.0968 130.613 10.0968C130.342 10.0968 130.093 10.0484 129.867 9.95159C129.641 9.85476 129.461 9.68693 129.325 9.44809C129.19 9.20926 129.122 8.87682 129.122 8.45079V5.56539H128.454V5.10063L129.17 4.71333L129.528 3.60952H130.177V4.78111H131.562V5.56539H130.177V8.43143C130.177 8.71545 130.242 8.92524 130.371 9.06079C130.5 9.19635 130.664 9.26413 130.865 9.26413ZM134.546 4.68428C134.978 4.68428 135.353 4.78111 135.669 4.97476C135.985 5.16195 136.227 5.43306 136.395 5.78809C136.569 6.14312 136.657 6.56269 136.657 7.04682V7.60841H133.374C133.387 8.14418 133.516 8.55407 133.761 8.83809C134.007 9.12212 134.352 9.26413 134.798 9.26413C135.114 9.26413 135.395 9.23508 135.64 9.17698C135.892 9.11243 136.147 9.01883 136.405 8.89619V9.74825C136.16 9.86444 135.908 9.95159 135.65 10.0097C135.398 10.0678 135.091 10.0968 134.73 10.0968C134.259 10.0968 133.839 9.99677 133.471 9.79667C133.103 9.59656 132.816 9.29963 132.609 8.90587C132.403 8.50566 132.299 8.01508 132.299 7.43412C132.299 6.84672 132.393 6.34968 132.58 5.94301C132.767 5.53634 133.029 5.2265 133.365 5.01349C133.707 4.79402 134.1 4.68428 134.546 4.68428ZM134.546 5.47825C134.217 5.47825 133.952 5.59767 133.752 5.8365C133.552 6.07534 133.436 6.41423 133.403 6.85317H135.621C135.621 6.58206 135.582 6.34322 135.504 6.13666C135.427 5.9301 135.307 5.76873 135.146 5.65253C134.991 5.53634 134.791 5.47825 134.546 5.47825ZM144.578 7.38571C144.578 7.8182 144.523 8.20227 144.413 8.53793C144.304 8.8736 144.145 9.15762 143.939 9.39C143.739 9.62238 143.494 9.79989 143.203 9.92254C142.913 10.0387 142.587 10.0968 142.225 10.0968C141.896 10.0968 141.589 10.0387 141.305 9.92254C141.021 9.79989 140.776 9.62238 140.569 9.39C140.363 9.15762 140.201 8.8736 140.085 8.53793C139.976 8.20227 139.921 7.81497 139.921 7.37603C139.921 6.80153 140.014 6.31418 140.201 5.91396C140.389 5.51375 140.657 5.21037 141.005 5.0038C141.36 4.79079 141.78 4.68428 142.264 4.68428C142.716 4.68428 143.116 4.79079 143.464 5.0038C143.813 5.21037 144.084 5.51375 144.278 5.91396C144.478 6.31418 144.578 6.80476 144.578 7.38571ZM141.005 7.38571C141.005 7.77301 141.047 8.10868 141.131 8.3927C141.221 8.67026 141.357 8.88328 141.538 9.03175C141.725 9.18021 141.96 9.25444 142.244 9.25444C142.535 9.25444 142.771 9.18021 142.951 9.03175C143.138 8.88328 143.274 8.67026 143.358 8.3927C143.448 8.10868 143.494 7.77301 143.494 7.38571C143.494 6.9855 143.448 6.64984 143.358 6.37873C143.268 6.10762 143.132 5.90105 142.951 5.75904C142.771 5.61058 142.532 5.53634 142.235 5.53634C141.802 5.53634 141.489 5.69772 141.296 6.02047C141.102 6.34322 141.005 6.7983 141.005 7.38571ZM148.327 4.68428C148.895 4.68428 149.331 4.83597 149.634 5.13936C149.944 5.44275 150.099 5.9301 150.099 6.60143V10H149.053V6.74666C149.053 6.34 148.972 6.03661 148.811 5.8365C148.656 5.62994 148.414 5.52666 148.085 5.52666C147.601 5.52666 147.268 5.68481 147.087 6.00111C146.907 6.3174 146.816 6.77248 146.816 7.36635V10H145.771V4.78111H146.594L146.739 5.47825H146.797C146.907 5.29751 147.039 5.14904 147.194 5.03285C147.349 4.91666 147.523 4.82952 147.717 4.77142C147.91 4.71333 148.114 4.68428 148.327 4.68428Z" fill="#777777"/>
<path d="M136.302 16.5987H139.456V36.0687H136.302V16.5987Z" fill="black"/>
<path d="M150.429 29.8993C150.429 32.9158 147.961 33.1901 147.138 33.1901C145.219 33.1901 144.945 31.4076 144.945 30.4478V22.9066H141.791V30.3107C141.791 32.0932 142.339 33.7385 143.436 34.6983C144.396 35.6581 145.63 36.0694 147.138 36.0694C148.235 36.0694 149.606 35.7952 150.429 34.9725V36.0694H153.583V22.9066H150.429V29.8993Z" fill="black"/>
<path d="M159.751 18.107H156.598V22.9059H154.267V25.9224H156.598V36.0688H159.751V25.9224H162.082V22.9059H159.751V18.107Z" fill="black"/>
<path d="M171.955 32.0923C171.269 32.6407 170.309 33.0521 169.35 33.0521C167.156 33.0521 165.648 31.4067 165.648 29.2129C165.648 27.0191 167.156 25.5109 169.35 25.5109C170.309 25.5109 171.269 25.7851 171.955 26.4706L172.366 26.882L174.56 24.8253L174.011 24.414C172.777 23.3171 171.132 22.6315 169.35 22.6315C165.51 22.6315 162.631 25.5109 162.631 29.35C162.631 33.1892 165.51 36.0686 169.35 36.0686C171.132 36.0686 172.777 35.383 174.011 34.2861L174.56 33.8747L172.366 31.6809L171.955 32.0923Z" fill="black"/>
<path d="M185.663 24.0028C184.703 23.043 183.743 22.6316 182.235 22.6316C181.138 22.6316 180.041 22.9059 179.218 23.7285V16.5987H176.065V36.0687H179.218V28.8017C179.218 25.7852 181.275 25.511 182.098 25.511C184.017 25.511 183.88 27.2935 183.88 28.2533V35.9316H187.034V28.3904C187.034 26.6079 186.623 24.9626 185.663 24.0028Z" fill="black"/>
<path d="M169.213 31.5444C170.425 31.5444 171.407 30.5622 171.407 29.3506C171.407 28.139 170.425 27.1568 169.213 27.1568C168.001 27.1568 167.019 28.139 167.019 29.3506C167.019 30.5622 168.001 31.5444 169.213 31.5444Z" fill="#EF4335"/>
<path d="M131.917 31.2705C130.82 32.3674 129.175 33.053 127.393 33.053C123.965 33.053 121.497 30.3107 121.497 26.6087C121.497 22.9066 123.965 20.1644 127.53 20.1644C129.175 20.1644 130.82 20.8499 132.054 22.084L132.466 22.4953L134.522 20.4386L134.111 20.0273C132.329 18.2448 129.998 17.285 127.53 17.285C122.319 17.1479 118.48 21.2613 118.48 26.6087C118.48 31.9561 122.319 36.0695 127.393 36.0695C129.861 36.0695 132.329 35.1097 133.974 33.3272L134.385 32.9159L132.329 30.8592L131.917 31.2705Z" fill="black"/>
<path d="M141.476 43.9756L140.211 46.5505C140.147 46.6815 140.051 46.7949 139.934 46.8808C139.816 46.9666 139.679 47.0225 139.535 47.0435L136.707 47.4566C136.575 47.4758 136.45 47.532 136.348 47.6187C136.245 47.7054 136.169 47.8192 136.128 47.9471C136.086 48.0751 136.082 48.2121 136.114 48.3427C136.146 48.4734 136.214 48.5923 136.31 48.6861L138.357 50.6906C138.461 50.7925 138.539 50.9182 138.584 51.0569C138.629 51.1956 138.639 51.3433 138.615 51.4871L138.132 54.3176C138.109 54.4501 138.124 54.5862 138.175 54.7107C138.225 54.8351 138.309 54.9429 138.418 55.0218C138.526 55.1007 138.654 55.1476 138.788 55.1572C138.921 55.1668 139.055 55.1387 139.173 55.0761L141.703 53.7399C141.832 53.672 141.975 53.6364 142.12 53.6364C142.266 53.6364 142.409 53.672 142.538 53.7399L145.067 55.0761C145.186 55.1387 145.319 55.1668 145.453 55.1572C145.586 55.1476 145.714 55.1007 145.823 55.0218C145.931 54.9429 146.015 54.8351 146.066 54.7107C146.116 54.5862 146.131 54.4501 146.109 54.3176L145.625 51.4871C145.601 51.3433 145.612 51.1956 145.657 51.0569C145.702 50.9182 145.779 50.7924 145.883 50.6906L147.931 48.6861C148.027 48.5923 148.095 48.4734 148.127 48.3427C148.159 48.2121 148.154 48.0751 148.113 47.9471C148.071 47.8192 147.995 47.7054 147.893 47.6187C147.79 47.532 147.666 47.4758 147.533 47.4566L144.704 47.0435C144.56 47.0225 144.423 46.9666 144.305 46.8808C144.188 46.7949 144.093 46.6815 144.028 46.5505L142.763 43.9756C142.704 43.855 142.612 43.7534 142.498 43.6824C142.385 43.6114 142.254 43.5738 142.12 43.5738C141.986 43.5738 141.855 43.6114 141.741 43.6824C141.627 43.7534 141.535 43.855 141.476 43.9756V43.9756Z" fill="#FFAF00"/>
<path d="M159.069 43.9768L157.804 46.5517C157.739 46.6827 157.644 46.7961 157.527 46.882C157.409 46.9679 157.272 47.0237 157.128 47.0447L154.299 47.4578C154.166 47.477 154.042 47.5332 153.939 47.6199C153.837 47.7066 153.761 47.8204 153.719 47.9483C153.678 48.0763 153.673 48.2133 153.705 48.344C153.737 48.4746 153.805 48.5935 153.901 48.6874L155.949 50.6918C156.053 50.7937 156.13 50.9194 156.175 51.0581C156.22 51.1968 156.231 51.3445 156.207 51.4883L155.723 54.3188C155.701 54.4513 155.716 54.5874 155.766 54.7119C155.817 54.8363 155.901 54.9441 156.009 55.023C156.118 55.1019 156.246 55.1488 156.379 55.1584C156.513 55.168 156.646 55.1399 156.765 55.0773L159.294 53.7411C159.423 53.6732 159.566 53.6377 159.712 53.6377C159.857 53.6377 160 53.6732 160.129 53.7411L162.659 55.0773C162.777 55.1399 162.911 55.168 163.044 55.1584C163.178 55.1488 163.306 55.1019 163.414 55.023C163.523 54.9441 163.607 54.8363 163.657 54.7119C163.708 54.5874 163.723 54.4513 163.7 54.3188L163.217 51.4883C163.193 51.3445 163.203 51.1968 163.248 51.0581C163.293 50.9194 163.371 50.7937 163.475 50.6918L165.522 48.6874C165.618 48.5935 165.686 48.4746 165.718 48.344C165.75 48.2133 165.746 48.0763 165.704 47.9483C165.663 47.8204 165.587 47.7066 165.484 47.6199C165.382 47.5332 165.257 47.477 165.125 47.4578L162.295 47.0447C162.151 47.0237 162.015 46.9679 161.897 46.882C161.779 46.7961 161.684 46.6827 161.62 46.5517L160.355 43.9768C160.295 43.8565 160.204 43.7552 160.09 43.6844C159.976 43.6136 159.845 43.5761 159.712 43.5761C159.578 43.5761 159.447 43.6136 159.334 43.6844C159.22 43.7552 159.128 43.8565 159.069 43.9768Z" fill="#FFAF00"/>
<path d="M176.657 43.9756L175.391 46.5505C175.327 46.6815 175.232 46.7949 175.114 46.8808C174.996 46.9666 174.86 47.0225 174.716 47.0435L171.887 47.4566C171.754 47.4758 171.63 47.532 171.527 47.6187C171.425 47.7054 171.349 47.8192 171.307 47.9471C171.266 48.0751 171.261 48.2121 171.293 48.3427C171.325 48.4734 171.393 48.5923 171.489 48.6861L173.537 50.6906C173.641 50.7925 173.718 50.9182 173.763 51.0569C173.808 51.1956 173.819 51.3433 173.794 51.4871L173.311 54.3176C173.289 54.4501 173.304 54.5862 173.354 54.7107C173.405 54.8351 173.489 54.9429 173.597 55.0218C173.706 55.1007 173.834 55.1476 173.967 55.1572C174.101 55.1668 174.234 55.1387 174.353 55.0761L176.882 53.7399C177.011 53.672 177.154 53.6364 177.3 53.6364C177.445 53.6364 177.588 53.672 177.717 53.7399L180.247 55.0761C180.365 55.1387 180.499 55.1668 180.632 55.1572C180.766 55.1476 180.894 55.1007 181.002 55.0218C181.111 54.9429 181.195 54.8351 181.245 54.7107C181.296 54.5862 181.311 54.4501 181.288 54.3176L180.805 51.4871C180.781 51.3433 180.791 51.1956 180.836 51.0569C180.881 50.9182 180.959 50.7924 181.063 50.6906L183.11 48.6861C183.206 48.5923 183.274 48.4734 183.306 48.3427C183.338 48.2121 183.334 48.0751 183.292 47.9471C183.251 47.8192 183.175 47.7054 183.072 47.6187C182.97 47.532 182.845 47.4758 182.713 47.4566L179.883 47.0435C179.739 47.0225 179.603 46.9666 179.485 46.8808C179.367 46.7949 179.272 46.6815 179.208 46.5505L177.943 43.9756C177.884 43.855 177.792 43.7534 177.679 43.6824C177.565 43.6114 177.434 43.5738 177.3 43.5738C177.166 43.5738 177.035 43.6114 176.921 43.6824C176.807 43.7534 176.716 43.855 176.657 43.9756V43.9756Z" fill="#FFAF00"/>
<path d="M195.527 43.976L196.793 46.5508C196.857 46.6819 196.952 46.7952 197.07 46.8811C197.188 46.967 197.324 47.0229 197.468 47.0439L200.297 47.4569C200.43 47.4762 200.554 47.5323 200.657 47.619C200.759 47.7057 200.835 47.8195 200.877 47.9475C200.918 48.0754 200.923 48.2125 200.891 48.3431C200.859 48.4737 200.791 48.5927 200.695 48.6865L198.647 50.6909C198.543 50.7928 198.466 50.9185 198.421 51.0572C198.376 51.196 198.365 51.3436 198.39 51.4874L198.873 54.3179C198.895 54.4504 198.88 54.5866 198.83 54.711C198.779 54.8355 198.695 54.9432 198.587 55.0221C198.478 55.101 198.35 55.1479 198.217 55.1575C198.083 55.1671 197.95 55.139 197.831 55.0764L195.302 53.7403C195.173 53.6723 195.03 53.6368 194.884 53.6368C194.739 53.6368 194.596 53.6723 194.467 53.7403L191.937 55.0764C191.819 55.139 191.685 55.1671 191.552 55.1575C191.418 55.1479 191.29 55.101 191.182 55.0221C191.073 54.9432 190.989 54.8355 190.939 54.711C190.888 54.5866 190.873 54.4504 190.896 54.3179L191.379 51.4874C191.403 51.3436 191.393 51.196 191.348 51.0572C191.303 50.9185 191.225 50.7928 191.121 50.6909L189.074 48.6865C188.978 48.5927 188.91 48.4737 188.878 48.3431C188.846 48.2125 188.85 48.0754 188.892 47.9475C188.933 47.8195 189.009 47.7057 189.112 47.619C189.214 47.5323 189.339 47.4762 189.471 47.4569L192.301 47.0439C192.445 47.0229 192.581 46.967 192.699 46.8811C192.817 46.7952 192.912 46.6819 192.976 46.5508L194.238 43.976C194.297 43.8546 194.389 43.7524 194.503 43.6808C194.617 43.6093 194.748 43.5714 194.883 43.5714C195.017 43.5714 195.149 43.6093 195.263 43.6808C195.377 43.7524 195.468 43.8546 195.527 43.976V43.976Z" fill="#FFAF00"/>
<path d="M123.903 43.9765L122.637 46.5518C122.573 46.6828 122.478 46.7961 122.36 46.882C122.243 46.9679 122.106 47.0238 121.962 47.0448L119.133 47.4578C119 47.4771 118.876 47.5333 118.773 47.62C118.671 47.7067 118.594 47.8204 118.553 47.9484C118.512 48.0764 118.507 48.2134 118.539 48.344C118.571 48.4746 118.639 48.5936 118.735 48.6874L120.782 50.6919C120.886 50.7937 120.964 50.9195 121.009 51.0582C121.054 51.1969 121.065 51.3445 121.04 51.4883L120.557 54.3188C120.534 54.4513 120.549 54.5875 120.6 54.712C120.65 54.8364 120.735 54.9442 120.843 55.0231C120.951 55.102 121.079 55.1489 121.213 55.1585C121.346 55.1681 121.48 55.14 121.598 55.0774L124.128 53.7412C124.257 53.6732 124.4 53.6377 124.545 53.6377C124.691 53.6377 124.834 53.6732 124.963 53.7412L127.493 55.0774C127.611 55.14 127.745 55.1681 127.878 55.1585C128.011 55.1489 128.14 55.102 128.248 55.0231C128.356 54.9442 128.44 54.8364 128.491 54.712C128.542 54.5875 128.556 54.4513 128.534 54.3188L128.051 51.4883C128.026 51.3445 128.037 51.1969 128.082 51.0582C128.127 50.9194 128.205 50.7937 128.309 50.6919L130.356 48.6874C130.452 48.5936 130.52 48.4746 130.552 48.344C130.584 48.2134 130.579 48.0764 130.538 47.9484C130.496 47.8204 130.42 47.7067 130.318 47.62C130.215 47.5333 130.091 47.4771 129.958 47.4578L127.131 47.0444C126.987 47.0234 126.85 46.9676 126.732 46.8817C126.615 46.7958 126.519 46.6824 126.455 46.5514L125.19 43.9765C125.131 43.8558 125.039 43.7541 124.925 43.683C124.811 43.612 124.68 43.5743 124.546 43.5743C124.412 43.5743 124.281 43.612 124.167 43.683C124.053 43.7541 123.962 43.8558 123.903 43.9765V43.9765Z" fill="#E2E2E2"/>
<path d="M125.166 43.9749L126.432 46.5497C126.496 46.6808 126.591 46.7941 126.709 46.88C126.826 46.9659 126.963 47.0218 127.107 47.0428L129.936 47.4558C130.069 47.4751 130.193 47.5312 130.296 47.6179C130.398 47.7046 130.474 47.8184 130.516 47.9464C130.557 48.0743 130.562 48.2114 130.53 48.342C130.498 48.4726 130.43 48.5916 130.334 48.6854L128.287 50.6898C128.183 50.7917 128.105 50.9174 128.06 51.0561C128.015 51.1949 128.004 51.3425 128.029 51.4863L128.512 54.3168C128.534 54.4493 128.52 54.5855 128.469 54.7099C128.418 54.8344 128.334 54.9421 128.226 55.021C128.118 55.0999 127.989 55.1468 127.856 55.1564C127.723 55.166 127.589 55.1379 127.471 55.0753L124.941 53.7392C124.812 53.6712 124.669 53.6357 124.523 53.6357C124.378 53.6357 124.235 53.6712 124.106 53.7392L121.576 55.0753C121.458 55.1379 121.324 55.166 121.191 55.1564C121.057 55.1468 120.929 55.0999 120.821 55.021C120.713 54.9421 120.628 54.8344 120.578 54.7099C120.527 54.5855 120.512 54.4493 120.535 54.3168L121.018 51.4863C121.043 51.3425 121.032 51.1949 120.987 51.0561C120.942 50.9174 120.864 50.7917 120.76 50.6898L118.713 48.6854C118.617 48.5916 118.549 48.4726 118.517 48.342C118.485 48.2114 118.49 48.0743 118.531 47.9464C118.572 47.8184 118.649 47.7046 118.751 47.6179C118.854 47.5312 118.978 47.4751 119.111 47.4558L121.94 47.0428C122.084 47.0218 122.22 46.9659 122.338 46.88C122.456 46.7941 122.551 46.6808 122.615 46.5497L123.881 43.9749C123.94 43.8545 124.032 43.7533 124.145 43.6825C124.259 43.6117 124.39 43.5742 124.523 43.5742C124.657 43.5742 124.788 43.6117 124.902 43.6825C125.015 43.7533 125.107 43.8545 125.166 43.9749V43.9749Z" fill="#FFAF00"/>
<path d="M299.192 29.0004L295.411 17.7162H295.334C295.347 17.9734 295.366 18.3399 295.392 18.8157C295.417 19.2787 295.437 19.7866 295.45 20.3396C295.475 20.8797 295.488 21.3876 295.488 21.8634V29.0004H293.27V15.2279H296.703L300.33 26.0491H300.407L304.188 15.2279H307.621V29.0004H305.268V21.7477C305.268 21.3104 305.274 20.8346 305.287 20.3203C305.313 19.793 305.332 19.2979 305.345 18.835C305.371 18.3592 305.39 17.9927 305.403 17.7355H305.326L301.391 29.0004H299.192ZM313.383 18.5457V29.0004H310.952V18.5457H313.383ZM312.168 14.5142C312.528 14.5142 312.843 14.6107 313.113 14.8036C313.383 14.9836 313.518 15.3115 313.518 15.7873C313.518 16.2503 313.383 16.5846 313.113 16.7904C312.843 16.9833 312.528 17.0797 312.168 17.0797C311.795 17.0797 311.473 16.9833 311.203 16.7904C310.946 16.5846 310.817 16.2503 310.817 15.7873C310.817 15.3115 310.946 14.9836 311.203 14.8036C311.473 14.6107 311.795 14.5142 312.168 14.5142ZM320.715 29.1933C319.725 29.1933 318.863 29.0068 318.13 28.6339C317.41 28.2481 316.851 27.663 316.452 26.8786C316.066 26.0813 315.873 25.0654 315.873 23.8309C315.873 22.545 316.085 21.5033 316.51 20.7061C316.947 19.8959 317.545 19.3044 318.304 18.9315C319.062 18.5457 319.93 18.3528 320.908 18.3528C321.564 18.3528 322.149 18.4171 322.663 18.5457C323.177 18.6743 323.615 18.8286 323.975 19.0086L323.261 20.9182C322.862 20.7639 322.464 20.6353 322.065 20.5325C321.666 20.4167 321.281 20.3589 320.908 20.3589C320.329 20.3589 319.847 20.4874 319.461 20.7446C319.088 21.0018 318.812 21.3876 318.632 21.902C318.452 22.4035 318.362 23.04 318.362 23.8116C318.362 24.5575 318.452 25.1811 318.632 25.6827C318.825 26.1842 319.107 26.5635 319.48 26.8207C319.853 27.065 320.316 27.1872 320.869 27.1872C321.461 27.1872 321.982 27.1165 322.432 26.975C322.882 26.8336 323.306 26.6407 323.705 26.3964V28.4989C323.306 28.7432 322.875 28.9168 322.412 29.0197C321.962 29.1354 321.396 29.1933 320.715 29.1933ZM331.632 18.3528C331.786 18.3528 331.966 18.3592 332.172 18.3721C332.378 18.3849 332.552 18.4106 332.693 18.4492L332.481 20.7061C332.365 20.6803 332.211 20.661 332.018 20.6482C331.838 20.6225 331.677 20.6096 331.536 20.6096C331.15 20.6096 330.777 20.6739 330.417 20.8025C330.07 20.9182 329.755 21.0983 329.472 21.3426C329.202 21.5741 328.983 21.8763 328.816 22.2492C328.662 22.6221 328.584 23.0658 328.584 23.5801V29.0004H326.154V18.5457H328.025L328.372 20.3589H328.488C328.694 19.9859 328.951 19.6516 329.26 19.3558C329.568 19.0472 329.922 18.8029 330.32 18.6228C330.732 18.4428 331.169 18.3528 331.632 18.3528ZM343.59 23.7537C343.59 24.6282 343.474 25.3997 343.243 26.0684C343.011 26.7371 342.677 27.3094 342.24 27.7852C341.815 28.2481 341.288 28.6017 340.658 28.8461C340.041 29.0775 339.353 29.1933 338.594 29.1933C337.874 29.1933 337.212 29.0775 336.607 28.8461C336.003 28.6017 335.476 28.2481 335.025 27.7852C334.588 27.3094 334.247 26.7371 334.003 26.0684C333.759 25.3997 333.637 24.6282 333.637 23.7537C333.637 22.5964 333.836 21.6191 334.235 20.8218C334.633 20.0116 335.205 19.4008 335.951 18.9893C336.71 18.565 337.604 18.3528 338.633 18.3528C339.61 18.3528 340.465 18.565 341.198 18.9893C341.944 19.4008 342.529 20.0116 342.953 20.8218C343.378 21.6191 343.59 22.5964 343.59 23.7537ZM336.125 23.7537C336.125 24.4867 336.209 25.1168 336.376 25.6441C336.556 26.1585 336.826 26.5507 337.186 26.8207C337.559 27.0908 338.035 27.2258 338.613 27.2258C339.205 27.2258 339.681 27.0908 340.041 26.8207C340.414 26.5507 340.684 26.1585 340.851 25.6441C341.018 25.1168 341.102 24.4867 341.102 23.7537C341.102 23.0079 341.012 22.3842 340.831 21.8827C340.664 21.3683 340.394 20.9825 340.021 20.7253C339.661 20.4553 339.192 20.3203 338.613 20.3203C337.739 20.3203 337.102 20.616 336.704 21.2076C336.318 21.7991 336.125 22.6478 336.125 23.7537ZM353.22 25.972C353.22 26.6664 353.053 27.2579 352.719 27.7466C352.384 28.2224 351.889 28.5825 351.233 28.8268C350.59 29.0711 349.799 29.1933 348.861 29.1933C348.128 29.1933 347.498 29.1418 346.97 29.039C346.443 28.9361 345.942 28.7753 345.466 28.5567V26.4928C345.98 26.7371 346.552 26.9429 347.183 27.1101C347.813 27.2772 348.398 27.3608 348.938 27.3608C349.607 27.3608 350.089 27.2579 350.385 27.0522C350.68 26.8464 350.828 26.57 350.828 26.2228C350.828 26.017 350.77 25.8305 350.655 25.6634C350.539 25.4962 350.314 25.3226 349.98 25.1426C349.645 24.9497 349.137 24.7118 348.456 24.4289C347.787 24.1588 347.228 23.8888 346.778 23.6187C346.34 23.3487 346.006 23.0272 345.774 22.6543C345.556 22.2685 345.447 21.7862 345.447 21.2076C345.447 20.2688 345.819 19.5616 346.565 19.0858C347.311 18.5971 348.295 18.3528 349.517 18.3528C350.16 18.3528 350.764 18.4171 351.33 18.5457C351.908 18.6614 352.487 18.8543 353.066 19.1243L352.294 20.9182C351.973 20.7768 351.651 20.6546 351.33 20.5517C351.021 20.436 350.706 20.346 350.385 20.2817C350.076 20.2174 349.761 20.1852 349.439 20.1852C348.912 20.1852 348.514 20.2688 348.243 20.436C347.973 20.5903 347.838 20.8089 347.838 21.0918C347.838 21.3104 347.903 21.5033 348.031 21.6705C348.173 21.8248 348.411 21.9856 348.745 22.1527C349.092 22.3071 349.581 22.5128 350.211 22.77C350.841 23.0143 351.375 23.2715 351.812 23.5416C352.262 23.7987 352.609 24.1202 352.854 24.506C353.098 24.8918 353.22 25.3805 353.22 25.972ZM364.895 23.7537C364.895 24.6282 364.779 25.3997 364.547 26.0684C364.316 26.7371 363.982 27.3094 363.544 27.7852C363.12 28.2481 362.593 28.6017 361.963 28.8461C361.345 29.0775 360.657 29.1933 359.899 29.1933C359.179 29.1933 358.516 29.0775 357.912 28.8461C357.307 28.6017 356.78 28.2481 356.33 27.7852C355.893 27.3094 355.552 26.7371 355.308 26.0684C355.064 25.3997 354.941 24.6282 354.941 23.7537C354.941 22.5964 355.141 21.6191 355.539 20.8218C355.938 20.0116 356.51 19.4008 357.256 18.9893C358.015 18.565 358.908 18.3528 359.937 18.3528C360.915 18.3528 361.77 18.565 362.503 18.9893C363.249 19.4008 363.834 20.0116 364.258 20.8218C364.682 21.6191 364.895 22.5964 364.895 23.7537ZM357.43 23.7537C357.43 24.4867 357.513 25.1168 357.68 25.6441C357.86 26.1585 358.13 26.5507 358.491 26.8207C358.863 27.0908 359.339 27.2258 359.918 27.2258C360.509 27.2258 360.985 27.0908 361.345 26.8207C361.718 26.5507 361.988 26.1585 362.155 25.6441C362.323 25.1168 362.406 24.4867 362.406 23.7537C362.406 23.0079 362.316 22.3842 362.136 21.8827C361.969 21.3683 361.699 20.9825 361.326 20.7253C360.966 20.4553 360.497 20.3203 359.918 20.3203C359.044 20.3203 358.407 20.616 358.008 21.2076C357.623 21.7991 357.43 22.6478 357.43 23.7537ZM372.827 20.3781H370.3V29.0004H367.87V20.3781H366.192V19.2208L367.87 18.5264V17.8127C367.87 16.9125 368.012 16.2053 368.294 15.6909C368.577 15.1765 368.989 14.81 369.529 14.5914C370.069 14.3599 370.706 14.2442 371.439 14.2442C371.953 14.2442 372.416 14.2892 372.827 14.3792C373.239 14.4564 373.58 14.5464 373.85 14.6493L373.232 16.4624C373.014 16.3981 372.769 16.3403 372.499 16.2888C372.242 16.2245 371.959 16.1924 371.651 16.1924C371.188 16.1924 370.847 16.3403 370.628 16.636C370.41 16.9318 370.3 17.3433 370.3 17.8706V18.5457H372.827V20.3781ZM378.616 27.2451C378.925 27.2451 379.22 27.2194 379.503 27.1679C379.786 27.1036 380.05 27.0329 380.294 26.9557V28.7689C380.037 28.8847 379.703 28.9811 379.291 29.0583C378.88 29.1483 378.449 29.1933 377.999 29.1933C377.407 29.1933 376.867 29.0968 376.378 28.9039C375.903 28.6982 375.517 28.351 375.221 27.8623C374.938 27.3737 374.797 26.6921 374.797 25.8177V20.3781H373.389V19.3172L374.932 18.4685L375.703 16.2503H377.227V18.5457H380.198V20.3781H377.227V25.7984C377.227 26.287 377.356 26.6535 377.613 26.8979C377.87 27.1293 378.204 27.2451 378.616 27.2451Z" fill="#808080"/>
<path d="M298.633 39.7298C298.633 40.336 298.486 40.8523 298.193 41.2786C297.899 41.7048 297.477 42.0364 296.928 42.2732C296.379 42.5005 295.725 42.6142 294.967 42.6142C294.598 42.6142 294.243 42.5905 293.902 42.5432C293.561 42.5053 293.243 42.4484 292.95 42.3726C292.656 42.2969 292.395 42.2021 292.168 42.0885V40.6392C292.547 40.8097 292.992 40.966 293.504 41.108C294.015 41.2407 294.536 41.307 295.067 41.307C295.521 41.307 295.9 41.2454 296.203 41.1223C296.507 40.9991 296.734 40.8286 296.885 40.6107C297.037 40.3929 297.113 40.1371 297.113 39.8434C297.113 39.5309 297.032 39.2704 296.871 39.062C296.72 38.8441 296.478 38.6452 296.147 38.4652C295.824 38.2757 295.389 38.0768 294.839 37.8684C294.46 37.7263 294.115 37.57 293.802 37.3995C293.499 37.2195 293.229 37.0111 292.992 36.7743C292.765 36.5375 292.59 36.2628 292.466 35.9502C292.343 35.6376 292.282 35.2729 292.282 34.8561C292.282 34.2972 292.419 33.8188 292.694 33.421C292.978 33.0231 293.366 32.72 293.859 32.5116C294.352 32.2937 294.925 32.1848 295.578 32.1848C296.128 32.1848 296.634 32.2416 297.099 32.3553C297.572 32.4595 298.022 32.6063 298.448 32.7958L297.965 34.0604C297.577 33.8994 297.184 33.7667 296.786 33.6625C296.388 33.5583 295.971 33.5062 295.536 33.5062C295.157 33.5062 294.839 33.5631 294.584 33.6768C294.328 33.7904 294.134 33.9467 294.001 34.1457C293.878 34.3446 293.816 34.5767 293.816 34.8419C293.816 35.1545 293.887 35.415 294.029 35.6234C294.172 35.8318 294.399 36.026 294.711 36.206C295.024 36.3765 295.436 36.5659 295.948 36.7743C296.516 36.9922 296.999 37.229 297.397 37.4848C297.804 37.7405 298.112 38.0484 298.321 38.4083C298.529 38.7588 298.633 39.1993 298.633 39.7298ZM301.955 34.8135V42.4721H300.449V34.8135H301.955ZM301.216 31.9006C301.444 31.9006 301.643 31.9669 301.813 32.0996C301.984 32.2322 302.069 32.4548 302.069 32.7674C302.069 33.0705 301.984 33.2931 301.813 33.4352C301.643 33.5678 301.444 33.6341 301.216 33.6341C300.97 33.6341 300.762 33.5678 300.591 33.4352C300.43 33.2931 300.35 33.0705 300.35 32.7674C300.35 32.4548 300.43 32.2322 300.591 32.0996C300.762 31.9669 300.97 31.9006 301.216 31.9006ZM305.827 42.4721H304.321V31.6733H305.827V42.4721ZM309.911 42.4721L307.013 34.8135H308.604L310.195 39.2893C310.262 39.4788 310.328 39.6919 310.394 39.9287C310.47 40.1655 310.536 40.3929 310.593 40.6107C310.65 40.8286 310.688 41.0181 310.707 41.1791H310.764C310.792 41.0181 310.835 40.8286 310.892 40.6107C310.958 40.3834 311.029 40.156 311.105 39.9287C311.181 39.6919 311.247 39.4788 311.304 39.2893L312.895 34.8135H314.486L311.574 42.4721H309.911ZM318.683 34.6714C319.356 34.6714 319.934 34.8135 320.417 35.0977C320.9 35.3724 321.269 35.7702 321.525 36.2912C321.79 36.8122 321.923 37.4279 321.923 38.1384V38.9625H316.779C316.798 39.7487 317.002 40.3502 317.39 40.767C317.788 41.1838 318.342 41.3922 319.053 41.3922C319.545 41.3922 319.981 41.3496 320.36 41.2643C320.748 41.1696 321.146 41.0323 321.554 40.8523V42.1027C321.175 42.2732 320.786 42.4011 320.388 42.4863C320 42.5716 319.536 42.6142 318.996 42.6142C318.257 42.6142 317.603 42.4674 317.035 42.1737C316.467 41.8801 316.022 41.4443 315.699 40.8665C315.387 40.2792 315.231 39.5593 315.231 38.7067C315.231 37.8447 315.373 37.1153 315.657 36.5185C315.95 35.9218 316.353 35.4671 316.865 35.1545C317.386 34.8324 317.992 34.6714 318.683 34.6714ZM318.683 35.8365C318.143 35.8365 317.708 36.0118 317.376 36.3623C317.054 36.7127 316.865 37.2101 316.808 37.8542H320.417C320.417 37.4563 320.355 37.1059 320.232 36.8027C320.109 36.4996 319.92 36.2628 319.664 36.0923C319.408 35.9218 319.081 35.8365 318.683 35.8365ZM327.582 34.6714C327.715 34.6714 327.861 34.6809 328.022 34.6998C328.183 34.7093 328.316 34.7235 328.42 34.7424L328.264 36.1491C328.16 36.1207 328.037 36.097 327.895 36.0781C327.752 36.0591 327.62 36.0497 327.497 36.0497C327.212 36.0497 326.938 36.1065 326.673 36.2202C326.417 36.3244 326.185 36.4807 325.976 36.6891C325.768 36.888 325.602 37.1343 325.479 37.4279C325.365 37.7216 325.308 38.0579 325.308 38.4368V42.4721H323.802V34.8135H324.996L325.195 36.1775H325.252C325.413 35.9028 325.607 35.6518 325.834 35.4245C326.062 35.1971 326.322 35.0171 326.616 34.8845C326.909 34.7424 327.231 34.6714 327.582 34.6714Z" fill="#B0B0B0"/>
<path d="M336.542 32.3269C337.868 32.3269 338.834 32.5969 339.44 33.1368C340.047 33.6673 340.35 34.4109 340.35 35.3676C340.35 35.7939 340.279 36.2012 340.137 36.5896C340.004 36.978 339.781 37.3285 339.469 37.6411C339.156 37.9442 338.739 38.1857 338.218 38.3657C337.707 38.5362 337.077 38.6215 336.329 38.6215H335.234V42.4721H333.7V32.3269H336.542ZM336.428 33.6199H335.234V37.3285H336.158C336.736 37.3285 337.219 37.2669 337.607 37.1437C337.996 37.0111 338.285 36.8075 338.474 36.5328C338.673 36.2486 338.772 35.8791 338.772 35.4245C338.772 34.8182 338.583 34.3683 338.204 34.0746C337.835 33.7715 337.243 33.6199 336.428 33.6199ZM345.199 34.6714C346.165 34.6714 346.885 34.8845 347.359 35.3108C347.833 35.7276 348.069 36.3859 348.069 37.2858V42.4721H347.004L346.705 41.4064H346.649C346.431 41.6811 346.203 41.9085 345.967 42.0885C345.739 42.2684 345.474 42.4011 345.171 42.4863C344.877 42.5716 344.517 42.6142 344.091 42.6142C343.636 42.6142 343.224 42.5337 342.855 42.3726C342.495 42.2021 342.211 41.9464 342.002 41.6054C341.794 41.2549 341.69 40.8191 341.69 40.2981C341.69 39.5214 341.983 38.9293 342.571 38.522C343.167 38.1147 344.072 37.8921 345.285 37.8542L346.592 37.8116V37.3853C346.592 36.8169 346.464 36.4191 346.208 36.1917C345.952 35.9644 345.592 35.8507 345.128 35.8507C344.73 35.8507 344.351 35.9076 343.992 36.0212C343.632 36.1349 343.291 36.2723 342.968 36.4333L342.485 35.3392C342.845 35.1498 343.257 34.9935 343.722 34.8703C344.195 34.7377 344.688 34.6714 345.199 34.6714ZM345.554 38.8204C344.683 38.8583 344.077 39.0051 343.736 39.2609C343.404 39.5072 343.238 39.8577 343.238 40.3123C343.238 40.7102 343.357 40.9991 343.594 41.1791C343.84 41.3591 344.148 41.4491 344.517 41.4491C345.114 41.4491 345.607 41.2833 345.995 40.9517C346.383 40.6202 346.578 40.1229 346.578 39.4598V38.792L345.554 38.8204ZM354.168 34.6714C354.301 34.6714 354.448 34.6809 354.609 34.6998C354.77 34.7093 354.902 34.7235 355.007 34.7424L354.85 36.1491C354.746 36.1207 354.623 36.097 354.481 36.0781C354.339 36.0591 354.206 36.0497 354.083 36.0497C353.799 36.0497 353.524 36.1065 353.259 36.2202C353.003 36.3244 352.771 36.4807 352.563 36.6891C352.354 36.888 352.188 37.1343 352.065 37.4279C351.952 37.7216 351.895 38.0579 351.895 38.4368V42.4721H350.389V34.8135H351.582L351.781 36.1775H351.838C351.999 35.9028 352.193 35.6518 352.421 35.4245C352.648 35.1971 352.908 35.0171 353.202 34.8845C353.496 34.7424 353.818 34.6714 354.168 34.6714ZM359.181 41.3922C359.38 41.3922 359.584 41.3733 359.792 41.3354C360.001 41.2975 360.181 41.2549 360.332 41.2075V42.3442C360.171 42.42 359.953 42.4816 359.679 42.5289C359.404 42.5858 359.129 42.6142 358.854 42.6142C358.438 42.6142 358.054 42.5432 357.704 42.4011C357.362 42.259 357.088 42.0127 356.879 41.6622C356.671 41.3117 356.567 40.8239 356.567 40.1987V35.9644H355.501V35.2824L356.624 34.714L357.149 33.0942H358.073V34.8135H360.261V35.9644H358.073V40.1703C358.073 40.5871 358.172 40.8949 358.371 41.0938C358.58 41.2928 358.85 41.3922 359.181 41.3922ZM365.743 34.6714C366.634 34.6714 367.316 34.894 367.789 35.3392C368.263 35.7844 368.5 36.4996 368.5 37.4848V42.4721H367.008V37.6979C367.008 37.1011 366.88 36.6559 366.624 36.3623C366.378 36.0591 365.98 35.9076 365.431 35.9076C364.654 35.9076 364.114 36.1396 363.811 36.6038C363.517 37.068 363.37 37.7358 363.37 38.6073V42.4721H361.864V34.8135H363.058L363.271 35.8365H363.356C363.527 35.5713 363.735 35.3534 363.981 35.1829C364.227 35.0124 364.502 34.8845 364.805 34.7993C365.108 34.714 365.421 34.6714 365.743 34.6714ZM373.826 34.6714C374.499 34.6714 375.077 34.8135 375.56 35.0977C376.043 35.3724 376.412 35.7702 376.668 36.2912C376.933 36.8122 377.066 37.4279 377.066 38.1384V38.9625H371.922C371.941 39.7487 372.145 40.3502 372.533 40.767C372.931 41.1838 373.485 41.3922 374.196 41.3922C374.688 41.3922 375.124 41.3496 375.503 41.2643C375.891 41.1696 376.289 41.0323 376.697 40.8523V42.1027C376.318 42.2732 375.929 42.4011 375.531 42.4863C375.143 42.5716 374.679 42.6142 374.139 42.6142C373.4 42.6142 372.746 42.4674 372.178 42.1737C371.61 41.8801 371.165 41.4443 370.842 40.8665C370.53 40.2792 370.374 39.5593 370.374 38.7067C370.374 37.8447 370.516 37.1153 370.8 36.5185C371.094 35.9218 371.496 35.4671 372.008 35.1545C372.529 34.8324 373.135 34.6714 373.826 34.6714ZM373.826 35.8365C373.286 35.8365 372.851 36.0118 372.519 36.3623C372.197 36.7127 372.008 37.2101 371.951 37.8542H375.56C375.56 37.4563 375.498 37.1059 375.375 36.8027C375.252 36.4996 375.063 36.2628 374.807 36.0923C374.551 35.9218 374.224 35.8365 373.826 35.8365ZM382.725 34.6714C382.858 34.6714 383.004 34.6809 383.165 34.6998C383.326 34.7093 383.459 34.7235 383.563 34.7424L383.407 36.1491C383.303 36.1207 383.18 36.097 383.038 36.0781C382.895 36.0591 382.763 36.0497 382.64 36.0497C382.356 36.0497 382.081 36.1065 381.816 36.2202C381.56 36.3244 381.328 36.4807 381.119 36.6891C380.911 36.888 380.745 37.1343 380.622 37.4279C380.508 37.7216 380.452 38.0579 380.452 38.4368V42.4721H378.945V34.8135H380.139L380.338 36.1775H380.395C380.556 35.9028 380.75 35.6518 380.977 35.4245C381.205 35.1971 381.465 35.0171 381.759 34.8845C382.052 34.7424 382.374 34.6714 382.725 34.6714Z" fill="#808080"/>
<rect x="258.003" y="13.7036" width="14.1121" height="14.1121" fill="#EB5321"/>
<rect x="274.466" y="13.7039" width="14.1121" height="14.1121" fill="#7FBA00"/>
<rect x="274.466" y="30.1683" width="14.1121" height="14.1121" fill="#FCBB01"/>
<rect x="258.003" y="30.1683" width="14.1121" height="14.1121" fill="#08A1EF"/>
<path d="M14.9074 26.962H10.7065C10.7367 26.6556 10.7166 26.3794 10.6461 26.1334C10.5755 25.8875 10.4546 25.676 10.2834 25.4991C10.1121 25.3179 9.88798 25.1798 9.61095 25.0848C9.33391 24.9899 9.00399 24.9424 8.62118 24.9424C7.88578 24.9424 7.22845 25.0999 6.6492 25.4149C6.06994 25.7256 5.58891 26.1723 5.20609 26.7548C4.82328 27.3331 4.55128 28.0235 4.3901 28.8262C4.24906 29.6029 4.24403 30.2481 4.37499 30.7616C4.51099 31.2751 4.77543 31.6592 5.16832 31.9138C5.56624 32.1684 6.08253 32.2957 6.71719 32.2957C7.1403 32.2957 7.52815 32.2525 7.88074 32.1662C8.23837 32.0799 8.5557 31.9569 8.83273 31.7973C9.11481 31.6333 9.35406 31.4391 9.55051 31.2147C9.75199 30.986 9.90562 30.7335 10.0114 30.4574H14.2425C14.0813 31.0183 13.7942 31.5923 13.3811 32.1792C12.9681 32.7617 12.4342 33.299 11.7794 33.7909C11.1246 34.2785 10.3539 34.6734 9.4674 34.9755C8.58088 35.2775 7.58356 35.4286 6.47542 35.4286C5.02476 35.4286 3.77307 35.1567 2.72033 34.613C1.67264 34.0693 0.912052 33.2752 0.438574 32.2309C-0.029867 31.1866 -0.123052 29.9136 0.15902 28.4119C0.441092 26.962 0.997681 25.7472 1.82879 24.7677C2.65989 23.7881 3.66981 23.0502 4.85854 22.5539C6.04727 22.0577 7.31156 21.8095 8.6514 21.8095C9.66384 21.8095 10.5705 21.9239 11.3714 22.1526C12.1773 22.3813 12.8548 22.7157 13.4038 23.1559C13.9579 23.5917 14.3659 24.129 14.6278 24.7677C14.8897 25.4063 14.9829 26.1378 14.9074 26.962Z" fill="black"/>
<path d="M17.7954 21.9908H23.0238L25.1696 29.4994H25.3509L30.398 21.9908H35.6264L33.0576 35.2473H28.9474L30.4282 27.5834H30.3074L25.4114 35.1438H22.9332L20.9688 27.5316H20.8479L19.3368 35.2473H15.2266L17.7954 21.9908Z" fill="black"/>
<path d="M37.6173 21.9908H42.8457L44.9915 29.4994H45.1728L50.2199 21.9908H55.4483L52.8794 35.2473H48.7692L50.2501 27.5834H50.1292L45.2332 35.1438H42.755L40.7906 27.5316H40.6697L39.1586 35.2473H35.0484L37.6173 21.9908Z" fill="black"/>
<path d="M61.64 21.9908L59.0711 35.2473H54.8703L57.4391 21.9908H61.64Z" fill="black"/>
<path d="M62.98 17.4762C62.98 19.1856 61.4802 20.5714 59.63 20.5714C57.7798 20.5714 56.28 19.1856 56.28 17.4762C56.28 15.7667 57.7798 14.381 59.63 14.381C61.4802 14.381 62.98 15.7667 62.98 17.4762Z" fill="#00B5F0"/>
<path d="M12.06 19.7499C22.78 10.6706 47.436 -3.15482 60.3 14.1785C56.5033 3.86085 41.54 -9.46959 12.06 19.7499Z" fill="url(#paint0_linear_1_77)"/>
<path d="M52.26 39.1429C41.7 47.4376 20.712 56.6756 8.04 40.8402C11.78 50.2662 23.22 65.8372 52.26 39.1429Z" fill="url(#paint1_linear_1_77)"/>
<path d="M45.9667 36.6667L45.1914 41.5476H44.22L44.9953 36.6667H45.9667Z" fill="black"/>
<path d="M47.5567 41.619C47.1979 41.619 46.9007 41.5428 46.6651 41.3903C46.4294 41.2361 46.2637 41.0185 46.168 40.7372C46.0737 40.4544 46.0578 40.12 46.1201 39.7339C46.1809 39.3574 46.3033 39.0269 46.4872 38.7425C46.6727 38.4581 46.9053 38.2364 47.185 38.0775C47.4647 37.9187 47.7764 37.8392 48.1199 37.8392C48.351 37.8392 48.56 37.8781 48.747 37.956C48.9355 38.0323 49.0921 38.1483 49.2168 38.304C49.3414 38.4581 49.4265 38.6511 49.4722 38.8831C49.5193 39.1151 49.5185 39.3867 49.4699 39.6982L49.4265 39.977H46.4712L46.5647 39.3478H48.6079C48.6307 39.2016 48.6216 39.0722 48.5805 38.9593C48.5395 38.8465 48.4711 38.7584 48.3753 38.6948C48.2795 38.6297 48.1617 38.5971 48.0219 38.5971C47.879 38.5971 47.7452 38.6336 47.6205 38.7067C47.4959 38.7798 47.391 38.8759 47.3058 38.9951C47.2222 39.1127 47.1683 39.2406 47.1439 39.3788L47.0368 40.0032C47.0064 40.1955 47.0124 40.3551 47.055 40.4822C47.0991 40.6093 47.1751 40.7047 47.283 40.7682C47.391 40.8302 47.5278 40.8612 47.6935 40.8612C47.8014 40.8612 47.9025 40.8453 47.9968 40.8135C48.0926 40.7817 48.1777 40.7349 48.2522 40.6729C48.3267 40.6093 48.3875 40.5307 48.4346 40.437L49.3217 40.4989C49.2396 40.7245 49.1149 40.9216 48.9477 41.09C48.7805 41.2568 48.579 41.3871 48.3434 41.4808C48.1093 41.573 47.847 41.619 47.5567 41.619Z" fill="black"/>
<path d="M53.5687 37.8869L51.7605 41.5476H50.6659L50.0251 37.8869H51.0148L51.3249 40.5061H51.3614L52.5038 37.8869H53.5687Z" fill="black"/>
<path d="M54.9563 41.619C54.5976 41.619 54.3004 41.5428 54.0647 41.3903C53.8291 41.2361 53.6634 41.0185 53.5676 40.7372C53.4734 40.4544 53.4574 40.12 53.5197 39.7339C53.5805 39.3574 53.7029 39.0269 53.8869 38.7425C54.0723 38.4581 54.3049 38.2364 54.5846 38.0775C54.8644 37.9187 55.176 37.8392 55.5196 37.8392C55.7506 37.8392 55.9597 37.8781 56.1467 37.956C56.3352 38.0323 56.4917 38.1483 56.6164 38.304C56.7411 38.4581 56.8262 38.6511 56.8718 38.8831C56.9189 39.1151 56.9182 39.3867 56.8695 39.6982L56.8262 39.977H53.8709L53.9644 39.3478H56.0076C56.0304 39.2016 56.0212 39.0722 55.9802 38.9593C55.9391 38.8465 55.8707 38.7584 55.775 38.6948C55.6792 38.6297 55.5614 38.5971 55.4215 38.5971C55.2786 38.5971 55.1448 38.6336 55.0202 38.7067C54.8955 38.7798 54.7906 38.8759 54.7055 38.9951C54.6219 39.1127 54.5679 39.2406 54.5436 39.3788L54.4364 40.0032C54.406 40.1955 54.4121 40.3551 54.4547 40.4822C54.4987 40.6093 54.5748 40.7047 54.6827 40.7682C54.7906 40.8302 54.9274 40.8612 55.0931 40.8612C55.2011 40.8612 55.3022 40.8453 55.3964 40.8135C55.4922 40.7817 55.5773 40.7349 55.6518 40.6729C55.7263 40.6093 55.7871 40.5307 55.8343 40.437L56.7213 40.4989C56.6392 40.7245 56.5145 40.9216 56.3473 41.09C56.1801 41.2568 55.9787 41.3871 55.743 41.4808C55.5089 41.573 55.2467 41.619 54.9563 41.619Z" fill="black"/>
<path d="M58.96 36.6667L58.1847 41.5476H57.2133L57.9886 36.6667H58.96Z" fill="black"/>
<path d="M63.6102 40.381C62.9683 40.381 62.398 40.267 61.8994 40.0391C61.4034 39.8084 61.0135 39.4912 60.7297 39.0875C60.4459 38.6839 60.3027 38.2198 60.3 37.6953H62.528C62.5306 37.8573 62.5784 38.0028 62.6712 38.1319C62.7667 38.2582 62.8967 38.3571 63.0611 38.4285C63.2256 38.4999 63.4139 38.5356 63.6261 38.5356C63.8303 38.5356 64.0107 38.4985 64.1672 38.4244C64.3236 38.3475 64.4456 38.2417 64.5332 38.1072C64.6207 37.9726 64.6631 37.8188 64.6605 37.6458C64.6631 37.4756 64.6128 37.3246 64.5093 37.1927C64.4085 37.0609 64.2666 36.958 64.0836 36.8838C63.9006 36.8097 63.6897 36.7726 63.451 36.7726H62.6235V35.1908H63.451C63.6712 35.1908 63.8648 35.1538 64.0319 35.0796C64.2016 35.0055 64.3329 34.9025 64.4258 34.7707C64.5212 34.6389 64.5677 34.4878 64.565 34.3176C64.5677 34.1528 64.5292 34.0073 64.4496 33.881C64.3701 33.7546 64.2587 33.6558 64.1154 33.5844C63.9749 33.513 63.8117 33.4773 63.6261 33.4773C63.4245 33.4773 63.2441 33.5143 63.085 33.5885C62.9285 33.6626 62.8052 33.7656 62.715 33.8974C62.6248 34.0292 62.5784 34.1803 62.5757 34.3505H60.4591C60.4618 33.8343 60.5984 33.3784 60.8689 32.983C61.1421 32.5875 61.5161 32.2772 61.9909 32.0521C62.4657 31.8269 63.0107 31.7143 63.6261 31.7143C64.2282 31.7143 64.76 31.82 65.2215 32.0315C65.6856 32.2429 66.0477 32.534 66.3076 32.9047C66.5702 33.2727 66.7002 33.6942 66.6975 34.1693C66.7028 34.6416 66.5463 35.0288 66.228 35.3309C65.9124 35.633 65.5119 35.8115 65.0265 35.8664V35.9323C65.6843 36.0064 66.179 36.2151 66.5105 36.5584C66.8421 36.8989 67.0052 37.3273 66.9999 37.8436C67.0025 38.3379 66.8593 38.7759 66.5702 39.1576C66.2837 39.5393 65.8846 39.8386 65.3727 40.0555C64.8634 40.2725 64.2759 40.381 63.6102 40.381Z" fill="#00AEEF"/>
<defs>
<linearGradient id="paint0_linear_1_77" x1="2.79167" y1="60.0337" x2="82.9469" y2="58.1208" gradientUnits="userSpaceOnUse">
<stop offset="0.469461" stop-color="#00B7F1"/>
<stop offset="0.603003" stop-color="#97E2F9"/>
<stop offset="1" stop-color="white"/>
</linearGradient>
<linearGradient id="paint1_linear_1_77" x1="-2" y1="72.4644" x2="84.1385" y2="70.4404" gradientUnits="userSpaceOnUse">
<stop offset="0.469461" stop-color="#00B7F1"/>
<stop offset="1" stop-color="#F9FAFB"/>
</linearGradient>
</defs>
</svg>
