<svg width="109" height="28" viewBox="0 0 109 28" fill="none" xmlns="http://www.w3.org/2000/svg">
<path d="M0.935974 1.12831V0.17749H4.7795V4.23536L0.935974 1.12831Z" fill="#F76600"/>
<path d="M0.935974 8.98248V17.8631H4.7795V4.2359L0.935974 8.98248Z" fill="#05164D"/>
<path d="M8.23584 6.16471C8.55613 5.99628 8.97757 5.82784 9.50016 5.65941C10.0227 5.47413 10.5959 5.31412 11.2196 5.17937C11.8434 5.04462 12.4671 4.93514 13.0908 4.85092C13.7314 4.76671 14.3214 4.7246 14.8609 4.7246C16.0072 4.7246 16.9849 4.87619 17.7941 5.17937C18.6032 5.46571 19.2185 5.93733 19.64 6.59422C20.0783 7.25111 20.2974 8.14381 20.2974 9.27232V17.8625H16.5298V10.0303C16.5298 9.71025 16.4792 9.41549 16.378 9.146C16.2938 8.8765 16.1589 8.64912 15.9735 8.46384C15.788 8.26172 15.5352 8.11013 15.2149 8.00907C14.8946 7.89116 14.5069 7.83221 14.0517 7.83221C13.664 7.83221 13.2763 7.88274 12.8885 7.9838C12.5008 8.06802 12.2058 8.16066 12.0035 8.26172V17.8625H8.23584V6.16471Z" fill="#05164D"/>
<path d="M27.3748 17.8625L22.0394 5.07831H26.1358L30.0046 14.9317L29.0943 14.957L32.5333 5.07831H36.5032L31.1678 17.8625H27.3748Z" fill="#05164D"/>
<path d="M43.7817 18.2414C41.624 18.2414 39.9972 17.6688 38.9015 16.5234C37.8226 15.3612 37.2831 13.66 37.2831 11.4199C37.2831 9.01125 37.831 7.2848 38.9268 6.24051C40.0394 5.17937 41.6577 4.6488 43.7817 4.6488C45.2146 4.6488 46.4115 4.89303 47.3724 5.38149C48.3501 5.85311 49.0834 6.5858 49.5723 7.57956C50.078 8.57332 50.3309 9.85342 50.3309 11.4199C50.3309 13.66 49.7662 15.3612 48.6367 16.5234C47.5073 17.6688 45.8889 18.2414 43.7817 18.2414ZM43.7817 15.2349C44.4055 15.2349 44.9196 15.0917 45.3242 14.8054C45.7456 14.5022 46.0575 14.0727 46.2598 13.5169C46.4789 12.9442 46.5885 12.2452 46.5885 11.4199C46.5885 10.4766 46.4789 9.73552 46.2598 9.19653C46.0575 8.6407 45.7456 8.24487 45.3242 8.00907C44.9028 7.75641 44.3886 7.63009 43.7817 7.63009C43.1411 7.63009 42.6186 7.75641 42.214 8.00907C41.8094 8.26172 41.506 8.66596 41.3037 9.22179C41.1182 9.76078 41.0255 10.4935 41.0255 11.4199C41.0255 12.7 41.2447 13.66 41.683 14.3001C42.1381 14.9233 42.8377 15.2349 43.7817 15.2349Z" fill="#05164D"/>
<path d="M53.0073 17.8625V5.25517H56.775L56.8003 17.8625H53.0073Z" fill="#05164D"/>
<path d="M66.1596 18.1909C65.2493 18.1909 64.3895 18.0562 63.5804 17.7867C62.7712 17.5172 62.0547 17.1129 61.431 16.5739C60.8073 16.035 60.3184 15.3528 59.9644 14.5275C59.6104 13.7021 59.4334 12.7421 59.4334 11.6472C59.4334 10.4851 59.602 9.47444 59.9391 8.61543C60.2763 7.73957 60.7399 7.0153 61.3299 6.44263C61.9367 5.86995 62.6448 5.44044 63.4539 5.15411C64.2631 4.86777 65.1565 4.7246 66.1343 4.7246C66.8254 4.7246 67.5335 4.80039 68.2583 4.95198C69.0001 5.08673 69.6491 5.28043 70.2054 5.53308V8.76702C69.6154 8.49753 69.0338 8.27856 68.4606 8.11013C67.9043 7.92485 67.3312 7.83221 66.7411 7.83221C65.6791 7.83221 64.8194 8.10171 64.1619 8.6407C63.5214 9.16284 63.2011 10.0219 63.2011 11.2177C63.2011 12.481 63.4876 13.4326 64.0608 14.0727C64.634 14.7128 65.5864 15.0328 66.9182 15.0328C67.5419 15.0328 68.1403 14.9233 68.7135 14.7043C69.3035 14.4854 69.8092 14.258 70.2307 14.0222V17.2308C69.6407 17.534 69.0254 17.7698 68.3848 17.9383C67.7442 18.1067 67.0024 18.1909 66.1596 18.1909Z" fill="#05164D"/>
<path d="M78.6498 18.2414C77.3687 18.2414 76.2308 17.9804 75.2362 17.4582C74.2584 16.9192 73.4914 16.1613 72.9351 15.1844C72.3957 14.1906 72.126 13.0116 72.126 11.6472C72.126 9.42391 72.6738 7.70589 73.7696 6.49316C74.8822 5.26359 76.4668 4.6488 78.5234 4.6488C79.9394 4.6488 81.0773 4.95198 81.9371 5.55835C82.8137 6.16471 83.4542 7.04899 83.8588 8.21119C84.2634 9.37338 84.4573 10.7882 84.4404 12.4557H74.7052L74.3006 10.0555H81.3302L80.7739 11.243C80.757 9.87869 80.5632 8.91861 80.1923 8.36278C79.8214 7.80695 79.2146 7.52903 78.3717 7.52903C77.8997 7.52903 77.4698 7.64693 77.0821 7.88274C76.7112 8.11855 76.4162 8.51437 76.1971 9.0702C75.9948 9.60919 75.8936 10.3587 75.8936 11.3188C75.8936 12.5315 76.1802 13.4663 76.7534 14.1232C77.3434 14.7801 78.279 15.1086 79.5602 15.1086C80.0322 15.1086 80.4957 15.058 80.9509 14.957C81.4229 14.8391 81.8612 14.7043 82.2658 14.5527C82.6704 14.4011 83.016 14.2664 83.3025 14.1485V17.3824C82.6957 17.6351 82.0129 17.8372 81.2543 17.9888C80.5126 18.1572 79.6444 18.2414 78.6498 18.2414Z" fill="#05164D"/>
<path d="M87.0581 17.8625V6.41736C87.2942 6.21524 87.7156 5.98786 88.3225 5.7352C88.9293 5.46571 89.6205 5.2299 90.3959 5.02778C91.1882 4.80882 91.9806 4.69933 92.7729 4.69933C93.5652 4.69933 94.1889 4.75829 94.6441 4.87619C95.0992 4.99409 95.4448 5.14568 95.6808 5.33096V8.08486C95.3942 8.01749 95.0318 7.96696 94.5935 7.93327C94.1552 7.89958 93.7 7.88274 93.228 7.88274C92.756 7.8659 92.3093 7.8659 91.8878 7.88274C91.4664 7.89958 91.1124 7.93327 90.8258 7.9838V17.8625H87.0581Z" fill="#05164D"/>
<path d="M102.805 18.2414C102.029 18.2414 101.296 18.1657 100.605 18.0141C99.9306 17.8793 99.3322 17.6519 98.8096 17.3319C98.3039 16.995 97.9077 16.5487 97.6211 15.9929C97.3345 15.4202 97.1913 14.7128 97.1913 13.8706C97.1913 13.0789 97.3514 12.3884 97.6717 11.7988C98.0089 11.2093 98.5146 10.7545 99.1889 10.4345C99.8632 10.1145 100.714 9.95448 101.743 9.95448C102.316 9.95448 102.872 10.0134 103.412 10.1313C103.951 10.2492 104.432 10.4093 104.853 10.6114C105.291 10.8135 105.637 11.0325 105.89 11.2683L106.041 13.0874C105.704 12.8852 105.3 12.7252 104.828 12.6073C104.356 12.4894 103.85 12.4305 103.311 12.4305C102.485 12.4305 101.878 12.5568 101.49 12.8094C101.119 13.0453 100.934 13.4242 100.934 13.9464C100.934 14.2664 101.026 14.5527 101.212 14.8054C101.397 15.058 101.642 15.2517 101.945 15.3865C102.265 15.5212 102.594 15.5886 102.931 15.5886C103.791 15.5886 104.389 15.5297 104.727 15.4118C105.081 15.2938 105.258 15.058 105.258 14.7043V10.005C105.258 9.23021 105.005 8.67438 104.499 8.33751C104.01 7.9838 103.311 7.80695 102.4 7.80695C101.659 7.80695 100.908 7.94169 100.15 8.21119C99.408 8.46384 98.8012 8.77544 98.3291 9.146V5.811C98.7674 5.5415 99.4417 5.28885 100.352 5.05305C101.279 4.81724 102.316 4.69933 103.462 4.69933C103.867 4.69933 104.314 4.73302 104.802 4.80039C105.291 4.86777 105.78 4.99409 106.269 5.17937C106.758 5.34781 107.205 5.60046 107.609 5.93732C108.031 6.27419 108.368 6.7037 108.621 7.22585C108.874 7.74799 109 8.39647 109 9.17126L108.975 15.2096C108.975 15.9339 108.73 16.5234 108.241 16.9782C107.753 17.4161 107.045 17.7361 106.117 17.9383C105.207 18.1404 104.103 18.2414 102.805 18.2414Z" fill="#05164D"/>
<path d="M49.9945 26.7235C49.9945 27.5661 49.3857 27.9874 48.1681 27.9874C47.5824 27.9874 47.1483 27.9078 46.8657 27.7485C46.5831 27.5892 46.4418 27.299 46.4418 26.8777C46.4418 26.6876 46.4881 26.5232 46.5805 26.3844C46.673 26.2509 46.822 26.1044 47.0275 25.9452C46.858 25.8321 46.7732 25.6446 46.7732 25.3826C46.7732 25.2798 46.8426 25.1129 46.9813 24.8817L47.0506 24.7661C46.6807 24.5452 46.4958 24.1598 46.4958 23.6101C46.4958 23.1477 46.6345 22.8086 46.9119 22.5928C47.1894 22.3771 47.5644 22.2692 48.0371 22.2692C48.2631 22.2692 48.4866 22.2949 48.7076 22.3462L48.8231 22.3694L50.0177 22.3385V23.0167L49.378 22.9782C49.5167 23.158 49.5861 23.3686 49.5861 23.6101C49.5861 24.1136 49.4576 24.463 49.2008 24.6582C48.949 24.8483 48.5534 24.9433 48.014 24.9433C47.8804 24.9433 47.7674 24.9331 47.6749 24.9125C47.6029 25.0872 47.567 25.2233 47.567 25.3209C47.567 25.4134 47.6132 25.4776 47.7057 25.5136C47.8033 25.5496 48.0345 25.5701 48.3993 25.5753C49.0107 25.5804 49.4294 25.6626 49.6554 25.8219C49.8815 25.9811 49.9945 26.2817 49.9945 26.7235ZM47.2664 26.8006C47.2664 26.9804 47.3384 27.1089 47.4822 27.1859C47.6261 27.263 47.8727 27.3015 48.222 27.3015C48.8437 27.3015 49.1545 27.1243 49.1545 26.7698C49.1545 26.5694 49.098 26.441 48.985 26.3844C48.8771 26.3331 48.6587 26.3048 48.3299 26.2997L47.5747 26.2534C47.4617 26.3459 47.382 26.4307 47.3358 26.5078C47.2896 26.59 47.2664 26.6876 47.2664 26.8006ZM47.3281 23.6101C47.3281 23.8464 47.3846 24.0211 47.4976 24.1341C47.6107 24.242 47.793 24.296 48.0448 24.296C48.2965 24.296 48.4764 24.242 48.5842 24.1341C48.6973 24.0211 48.7538 23.8464 48.7538 23.6101C48.7538 23.3738 48.6973 23.2017 48.5842 23.0938C48.4712 22.9807 48.2888 22.9242 48.0371 22.9242C47.5644 22.9242 47.3281 23.1528 47.3281 23.6101Z" fill="#F76600"/>
<path d="M43.2598 26.1995H42.4198V22.3462H43.2521V22.5851C43.6272 22.3694 43.9817 22.2615 44.3156 22.2615C44.8294 22.2615 45.1787 22.4079 45.3637 22.7007C45.5538 22.9885 45.6488 23.4663 45.6488 24.1342V26.1995H44.8165V24.1573C44.8165 23.7411 44.7703 23.4457 44.6778 23.271C44.5905 23.0963 44.4081 23.009 44.1306 23.009C43.8686 23.009 43.6169 23.0604 43.3754 23.1631L43.2598 23.2094V26.1995Z" fill="#F76600"/>
<path d="M40.561 26.1995V22.3462H41.401V26.1995H40.561ZM40.561 21.6912V20.8049H41.401V21.6912H40.561Z" fill="#F76600"/>
<path d="M38.658 26.1995V20.7433H39.498V26.1995H38.658Z" fill="#F76600"/>
<path d="M36.7087 26.1995V20.7433H37.5488V26.1995H36.7087Z" fill="#F76600"/>
<path d="M34.8036 26.1995V22.3462H35.6437V26.1995H34.8036ZM34.8036 21.6912V20.8049H35.6437V21.6912H34.8036Z" fill="#F76600"/>
<path d="M30.1851 20.9205H32.1888C32.7282 20.9205 33.1315 21.031 33.3987 21.2519C33.6658 21.4677 33.7994 21.8145 33.7994 22.2923C33.7994 22.6057 33.748 22.8523 33.6453 23.0321C33.5477 23.2119 33.391 23.3609 33.1752 23.4791C33.6787 23.6743 33.9304 24.0828 33.9304 24.7044C33.9304 25.7011 33.3704 26.1995 32.2504 26.1995H30.1851V20.9205ZM32.1888 23.8952H31.0405V25.4597H32.2042C32.4867 25.4597 32.6974 25.4006 32.8361 25.2824C32.98 25.1643 33.0519 24.9613 33.0519 24.6736C33.0519 24.3859 32.9697 24.1855 32.8053 24.0725C32.6409 23.9543 32.4354 23.8952 32.1888 23.8952ZM32.1425 21.6604H31.0405V23.1708H32.1733C32.6768 23.1708 32.9286 22.9114 32.9286 22.3925C32.9286 21.9044 32.6666 21.6604 32.1425 21.6604Z" fill="#F76600"/>
<path d="M27.4533 23.14C26.8471 23.0578 26.4078 23.0167 26.1355 23.0167C25.8632 23.0167 25.6731 23.0501 25.5652 23.1169C25.4625 23.1785 25.4111 23.2787 25.4111 23.4174C25.4111 23.5562 25.4676 23.6538 25.5806 23.7103C25.6988 23.7668 25.9711 23.8336 26.3975 23.9107C26.8291 23.9826 27.1348 24.0982 27.3146 24.2574C27.4944 24.4167 27.5843 24.6993 27.5843 25.1052C27.5843 25.511 27.4533 25.809 27.1913 25.9991C26.9344 26.1892 26.5568 26.2843 26.0584 26.2843C25.7451 26.2843 25.3494 26.2406 24.8716 26.1533L24.6327 26.1147L24.6636 25.4134C25.2801 25.4956 25.7245 25.5367 25.9968 25.5367C26.2691 25.5367 26.4618 25.5033 26.5748 25.4365C26.693 25.3698 26.752 25.2593 26.752 25.1052C26.752 24.951 26.6955 24.8457 26.5825 24.7892C26.4746 24.7275 26.21 24.6633 25.7887 24.5965C25.3726 24.5246 25.0669 24.4141 24.8716 24.2652C24.6764 24.1162 24.5788 23.8439 24.5788 23.4483C24.5788 23.0527 24.7124 22.7572 24.9795 22.562C25.2518 22.3668 25.5986 22.2692 26.0199 22.2692C26.3487 22.2692 26.752 22.3103 27.2298 22.3925L27.4687 22.4387L27.4533 23.14Z" fill="#F76600"/>
<path d="M23.8409 23.14C23.2347 23.0578 22.7954 23.0167 22.5231 23.0167C22.2508 23.0167 22.0607 23.0501 21.9528 23.1169C21.8501 23.1785 21.7987 23.2787 21.7987 23.4174C21.7987 23.5562 21.8552 23.6538 21.9682 23.7103C22.0864 23.7668 22.3587 23.8336 22.7851 23.9107C23.2167 23.9826 23.5224 24.0982 23.7022 24.2574C23.882 24.4167 23.9719 24.6993 23.9719 25.1052C23.9719 25.511 23.8409 25.809 23.5789 25.9991C23.322 26.1892 22.9444 26.2843 22.446 26.2843C22.1326 26.2843 21.737 26.2406 21.2592 26.1533L21.0203 26.1147L21.0511 25.4134C21.6677 25.4956 22.1121 25.5367 22.3844 25.5367C22.6567 25.5367 22.8493 25.5033 22.9624 25.4365C23.0805 25.3698 23.1396 25.2593 23.1396 25.1052C23.1396 24.951 23.0831 24.8457 22.9701 24.7892C22.8622 24.7275 22.5976 24.6633 22.1763 24.5965C21.7601 24.5246 21.4544 24.4141 21.2592 24.2652C21.064 24.1162 20.9664 23.8439 20.9664 23.4483C20.9664 23.0527 21.0999 22.7572 21.3671 22.562C21.6394 22.3668 21.9862 22.2692 22.4075 22.2692C22.7363 22.2692 23.1396 22.3103 23.6174 22.3925L23.8563 22.4387L23.8409 23.14Z" fill="#F76600"/>
<path d="M19.9968 25.5059L20.2126 25.4828L20.228 26.107C19.6423 26.2252 19.1234 26.2843 18.6713 26.2843C18.101 26.2843 17.69 26.1276 17.4382 25.8142C17.1916 25.5008 17.0683 24.9999 17.0683 24.3114C17.0683 22.9448 17.6257 22.2615 18.7406 22.2615C19.8195 22.2615 20.359 22.8497 20.359 24.0263L20.305 24.6274H17.916C17.9212 24.9459 17.9905 25.1797 18.1241 25.3287C18.2577 25.4777 18.5068 25.5522 18.8716 25.5522C19.2364 25.5522 19.6115 25.5367 19.9968 25.5059ZM19.5344 23.98C19.5344 23.5998 19.4727 23.3352 19.3494 23.1863C19.2313 23.0321 19.0283 22.9551 18.7406 22.9551C18.4529 22.9551 18.2423 23.0347 18.1087 23.194C17.9802 23.3532 17.9134 23.6153 17.9083 23.98H19.5344Z" fill="#F76600"/>
<path d="M15.3503 26.1995V20.7433H16.1903V26.1995H15.3503Z" fill="#F76600"/>
<path d="M11.9371 26.1995H11.097V22.3462H11.9294V22.5851C12.3044 22.3694 12.6589 22.2615 12.9928 22.2615C13.5066 22.2615 13.856 22.4079 14.0409 22.7007C14.231 22.9885 14.3261 23.4663 14.3261 24.1342V26.1995H13.4938V24.1573C13.4938 23.7411 13.4475 23.4457 13.3551 23.271C13.2677 23.0963 13.0853 23.009 12.8079 23.009C12.5459 23.009 12.2941 23.0604 12.0527 23.1631L11.9371 23.2094V26.1995Z" fill="#F76600"/>
<path d="M9.23816 26.1995V22.3462H10.0782V26.1995H9.23816ZM9.23816 21.6912V20.8049H10.0782V21.6912H9.23816Z" fill="#F76600"/>
<path d="M8.18365 23.5331V25.2901C8.18879 25.4032 8.21705 25.4879 8.26842 25.5445C8.32494 25.5958 8.40971 25.6292 8.52274 25.6446L8.49962 26.2843C8.05778 26.2843 7.71612 26.1892 7.47465 25.9991C7.06364 26.1892 6.65006 26.2843 6.2339 26.2843C5.46839 26.2843 5.08563 25.8758 5.08563 25.0589C5.08563 24.6685 5.18839 24.3859 5.39389 24.2112C5.60454 24.0365 5.92564 23.9312 6.35721 23.8953L7.35135 23.8105V23.5331C7.35135 23.3275 7.30511 23.1837 7.21263 23.1015C7.12529 23.0193 6.99428 22.9782 6.8196 22.9782C6.49079 22.9782 6.07977 22.9987 5.58656 23.0398L5.33995 23.0552L5.30912 22.4618C5.86913 22.3283 6.3829 22.2615 6.85043 22.2615C7.32309 22.2615 7.66218 22.3642 7.86769 22.5697C8.07833 22.7701 8.18365 23.0912 8.18365 23.5331ZM6.45739 24.4887C6.10289 24.5195 5.92564 24.7121 5.92564 25.0666C5.92564 25.4211 6.08234 25.5984 6.39574 25.5984C6.65262 25.5984 6.92492 25.5573 7.21263 25.4751L7.35135 25.4289V24.4039L6.45739 24.4887Z" fill="#F76600"/>
<path d="M2.85121 24.558H1.77229V26.1995H0.91687V20.9205H2.85121C4.04829 20.9205 4.64683 21.5114 4.64683 22.693C4.64683 23.2993 4.49526 23.7617 4.19214 24.0802C3.89416 24.3987 3.44718 24.558 2.85121 24.558ZM1.77229 23.8182H2.8435C3.46002 23.8182 3.76828 23.4431 3.76828 22.693C3.76828 22.3334 3.69379 22.0714 3.54479 21.907C3.3958 21.7426 3.16204 21.6604 2.8435 21.6604H1.77229V23.8182Z" fill="#F76600"/>
</svg>
