<svg width="22" height="22" viewBox="0 0 22 22" fill="none" xmlns="http://www.w3.org/2000/svg">
<path d="M11.0041 22C8.4592 22.001 5.99267 21.1199 4.02482 19.5061C2.05697 17.8923 0.709542 15.646 0.212151 13.1501C-0.28524 10.6543 0.0981794 8.0628 1.29706 5.81794C2.49594 3.57309 4.43611 1.81344 6.78699 0.838716C9.13786 -0.136005 11.754 -0.265305 14.1896 0.472622C16.6252 1.21055 18.7295 2.77081 20.1441 4.88638C21.5587 7.00195 22.196 9.54144 21.9474 12.0742C21.6988 14.607 20.5797 16.9755 18.7807 18.7756C17.7621 19.8007 16.5503 20.6129 15.2154 21.1664C13.8806 21.7199 12.4492 22.0036 11.0041 22ZM8.1723 8.93233V10.9914H9.45709V16.9589H12.0311V10.9914H13.7488L13.9794 8.93233H12.0346V7.89764C12.0346 7.37492 12.0742 7.07779 12.89 7.07779H13.9601V5.01872H12.2458C10.3433 5.01872 9.45709 5.86962 9.45709 7.69826V8.92889L8.1723 8.93233Z" fill="white"/>
</svg>
