<svg width="22" height="22" viewBox="0 0 22 22" fill="none" xmlns="http://www.w3.org/2000/svg">
<path d="M11.0024 22C8.45748 22.0005 5.99106 21.1185 4.02346 19.5044C2.05585 17.8903 0.708789 15.6444 0.211832 13.1485C-0.285125 10.6525 0.0987731 8.06094 1.29808 5.81628C2.49739 3.57162 4.43792 1.81306 6.78901 0.838785C9.1401 -0.135492 11.7563 -0.265733 14.1917 0.472691C16.6272 1.21112 18.7313 2.77227 20.1455 4.88815C21.5597 7.00404 22.1964 9.54494 21.9472 12.0777C21.6981 14.6104 20.5784 16.9776 18.779 18.7774C17.7602 19.802 16.5483 20.615 15.2135 21.1681C13.8786 21.7213 12.4474 22.0037 11.0024 22ZM13.3107 11.1771C14.1159 11.1771 14.5427 11.7035 14.5427 12.7102V16.3522H16.968V12.4489C16.968 10.5305 15.9243 9.38784 14.1757 9.38784C13.7445 9.36465 13.3149 9.45541 12.9307 9.65252C12.5466 9.84964 12.2216 10.1447 11.9889 10.5085V9.5408H9.56012C9.59444 10.1735 9.56012 16.2872 9.56012 16.3488H11.9889V12.5452C11.9785 12.3608 12.0051 12.176 12.0672 12.0021C12.1683 11.7555 12.3408 11.5448 12.5626 11.3971C12.7843 11.2493 13.0451 11.1719 13.3116 11.1736L13.3107 11.1771ZM5.78843 9.54424V16.3522H8.21724V9.54424H5.78843ZM7.02042 6.27518C6.85239 6.24856 6.68062 6.25706 6.51672 6.30268C6.35282 6.34831 6.20065 6.43026 6.07054 6.53987C5.94043 6.64948 5.83543 6.78485 5.76264 6.93862C5.68986 7.09239 5.65099 7.26007 5.6487 7.43018C5.6464 7.60029 5.68071 7.7695 5.74932 7.92518C5.81794 8.08086 5.91924 8.21944 6.04635 8.33252C6.17345 8.44561 6.32339 8.53 6.486 8.58002C6.6486 8.63005 6.82007 8.64507 6.98876 8.62299H7.0046C7.17334 8.64951 7.34578 8.63829 7.51021 8.59206C7.67464 8.54582 7.82717 8.46544 7.95735 8.35487C8.08754 8.2443 8.19231 8.10745 8.26455 7.95268C8.3368 7.79791 8.3748 7.62848 8.37595 7.45768C8.3771 7.28688 8.34139 7.11841 8.27124 6.96268C8.20109 6.80695 8.09818 6.66765 7.96949 6.55534C7.84081 6.44302 7.68939 6.35973 7.5256 6.31128C7.36181 6.26283 7.1895 6.25095 7.02042 6.27518Z" fill="white"/>
</svg>
