<svg width="22" height="22" viewBox="0 0 22 22" fill="none" xmlns="http://www.w3.org/2000/svg">
<path d="M6.10352e-05 10.9952C0.00110521 8.81984 0.647143 6.69335 1.85648 4.88515C3.06581 3.07694 4.78413 1.6676 6.79421 0.83587C8.80429 0.00413638 11.0159 -0.213044 13.1493 0.211979C15.2827 0.637002 17.2423 1.68632 18.7801 3.22487C20.318 4.76342 21.3651 6.72349 21.7891 8.85708C22.2131 10.9907 21.995 13.2015 21.1623 15.2111C20.3295 17.2208 18.9196 18.9388 17.1108 20.1473C15.302 21.3557 13.1755 22 11.0001 22C8.08307 21.9958 5.2868 20.8354 3.22466 18.7723C1.16251 16.7092 0.00285433 13.9121 6.10352e-05 10.9952ZM4.74503 7.15212V14.8347C4.74549 15.4756 5.00037 16.0901 5.45364 16.5431C5.90691 16.9962 6.5215 17.251 7.1624 17.2512H14.8369C15.1543 17.2514 15.4686 17.1887 15.7619 17.0673C16.0552 16.946 16.3217 16.7675 16.5462 16.5431C16.7707 16.3187 16.9487 16.0526 17.0702 15.7594C17.1917 15.4662 17.2542 15.1521 17.2542 14.8347V7.15212C17.2538 6.51124 16.9989 5.89682 16.5457 5.44373C16.0924 4.99063 15.4778 4.73585 14.8369 4.73562H7.1624C6.52187 4.73678 5.90788 4.99253 5.45495 5.44544C5.00203 5.89836 4.74708 6.5116 4.74591 7.15212H4.74503ZM7.1624 16.0327C6.84467 16.0327 6.53994 15.9066 6.31519 15.6821C6.09044 15.4575 5.96407 15.1525 5.96384 14.8347V9.70612H7.83032C7.61749 10.226 7.53586 10.7903 7.59265 11.3492C7.64944 11.9081 7.84289 12.4451 8.15595 12.9115C8.469 13.3779 8.89206 13.7609 9.38776 14.0252C9.88345 14.2895 10.4366 14.4274 10.9983 14.4274C11.5601 14.4274 12.1132 14.2895 12.6089 14.0252C13.1046 13.7609 13.5276 13.3779 13.8407 12.9115C14.1538 12.4451 14.3472 11.9081 14.404 11.3492C14.4608 10.7903 14.3792 10.226 14.1663 9.70612H16.0328V14.8347C16.0327 14.9921 16.0016 15.1483 15.9412 15.2936C15.8809 15.439 15.7925 15.5709 15.6811 15.6821C15.5698 15.7933 15.4376 15.8815 15.2921 15.9416C15.1466 16.0017 14.9908 16.0328 14.8334 16.0327H7.1624ZM8.79919 10.9952C8.80082 10.4122 9.03313 9.85366 9.44536 9.44144C9.85759 9.02922 10.4162 8.79683 10.9992 8.79521C11.4343 8.79521 11.8597 8.92471 12.2215 9.16645C12.5833 9.40818 12.8652 9.751 13.0317 10.153C13.1982 10.555 13.2418 10.9981 13.1569 11.4248C13.072 11.8516 12.8625 12.2429 12.5548 12.5506C12.2471 12.8583 11.8552 13.0672 11.4284 13.1521C11.0016 13.237 10.5593 13.1949 10.1573 13.0284C9.7553 12.8619 9.4117 12.5789 9.16996 12.2172C8.92822 11.8554 8.79919 11.4303 8.79919 10.9952ZM13.685 6.18449L15.533 6.17933H15.8102V8.30022H13.6982L13.685 6.18449Z" fill="white"/>
</svg>
