<svg width="22" height="22" viewBox="0 0 22 22" fill="none" xmlns="http://www.w3.org/2000/svg">
<path d="M11.0001 3.05176e-05C17.075 3.05176e-05 22 4.92511 22.0001 11C22.0001 17.075 17.075 22 11.0001 22C4.92514 22 6.10352e-05 17.075 6.10352e-05 11C7.19539e-05 4.92511 4.92514 4.1436e-05 11.0001 3.05176e-05ZM9.61432 11.7178L4.67584 17.458H5.79108L10.1094 12.4385L13.5577 17.458H17.3243L12.2032 10.0049L16.9122 4.5303H15.7969L11.7081 9.28323L8.44244 4.5303H4.67584L9.61432 11.7178ZM15.7969 16.6563H14.0831L6.19342 5.37112H7.90729L15.7969 16.6563Z" fill="white"/>
</svg>
