<svg width="22" height="22" viewBox="0 0 22 22" fill="none" xmlns="http://www.w3.org/2000/svg">
<path d="M0.00012207 11C0.000122411 8.8246 0.645103 6.69857 1.85353 4.88975C3.06195 3.08093 4.77956 1.66966 6.78919 0.836904C8.79882 0.00415298 11.0103 -0.212667 13.1439 0.211274C15.2775 0.635216 17.2375 1.68134 18.7761 3.21911C20.3148 4.75688 21.3629 6.71638 21.788 8.84978C22.2132 10.9832 21.9962 13.1957 21.1646 15.2058C20.333 17.2159 18.924 18.9343 17.1159 20.1438C15.3077 21.3532 13.1816 21.9988 11.0063 22C9.56125 22.0008 8.13018 21.7172 6.79488 21.1647C5.45959 20.6123 4.24622 19.8023 3.22412 18.7808C2.20203 17.7593 1.39125 16.5459 0.838067 15.2109C0.28488 13.8759 0.000121844 12.445 0.00012207 11ZM6.40919 9.88791C6.08986 9.92595 5.79035 10.0618 5.55233 10.2781C5.31432 10.4943 5.14963 10.7803 5.08123 11.0945C4.90387 12.0497 4.83191 13.0214 4.86655 13.9923C4.82976 14.9633 4.90174 15.9352 5.08123 16.8902C5.14856 17.2035 5.31189 17.4869 5.54847 17.7031C5.78504 17.9194 6.0831 18.0578 6.40124 18.0967C9.46141 18.3259 12.5345 18.3259 15.5946 18.0967C15.9142 18.0593 16.214 17.9229 16.4522 17.7066C16.6903 17.4902 16.8548 17.2047 16.9226 16.8902C17.2064 14.9687 17.2064 13.016 16.9226 11.0945C16.8542 10.7803 16.6895 10.4943 16.4515 10.2781C16.2135 10.0618 15.9139 9.92595 15.5946 9.88791C12.5345 9.65876 9.46141 9.65876 6.40124 9.88791H6.40919ZM12.2286 8.41493C12.2194 8.62242 12.2417 8.82942 12.2946 9.03025C12.3287 9.12877 12.3951 9.21296 12.4829 9.26916C12.5707 9.32536 12.6749 9.34992 12.7786 9.33963C12.9494 9.32008 13.1141 9.26467 13.2616 9.17634C13.4091 9.08802 13.5361 8.96879 13.634 8.82744V9.28635H14.3838V5.14241H13.634V8.31009C13.4659 8.54417 13.3101 8.66243 13.1614 8.66243C13.0602 8.66243 13.0013 8.60332 12.9855 8.4854C12.9714 8.38691 12.9676 8.28733 12.974 8.18806V5.14241H12.2277L12.2286 8.41493ZM9.63174 5.52053C9.4515 5.8112 9.36945 6.15251 9.39766 6.49336V7.94055C9.37024 8.28245 9.45221 8.62455 9.63174 8.91681C9.73586 9.04866 9.8685 9.15465 10.0197 9.22791C10.1709 9.30116 10.3367 9.33963 10.5047 9.33963C10.6727 9.33963 10.8385 9.30116 10.9897 9.22791C11.1409 9.15465 11.2735 9.04866 11.3777 8.91681C11.5572 8.62455 11.6392 8.28245 11.6117 7.94055V6.49336C11.6405 6.15247 11.5584 5.81101 11.3777 5.52053C11.2733 5.38912 11.1405 5.2824 10.9894 5.20944C10.8382 5.13648 10.6725 5.09944 10.5047 5.09944C10.3369 5.09944 10.1712 5.13648 10.02 5.20944C9.86886 5.2824 9.73615 5.38912 9.63174 5.52053ZM7.0498 5.27475C7.25841 5.84935 7.42807 6.43735 7.55758 7.03477V9.28463H8.38919V7.03477L9.38886 3.7313H8.54935L7.98351 5.91069L7.39392 3.7313H6.51919C6.69079 4.24347 6.8738 4.76435 7.0498 5.27475ZM14.2438 16.1717C14.0636 15.8825 13.9801 15.5438 14.0054 15.204V13.7758C13.9754 13.4366 14.0562 13.0973 14.2359 12.8081C14.3378 12.6708 14.472 12.5599 14.6265 12.4867C14.7811 12.4135 14.9513 12.3789 15.1221 12.387C15.2912 12.3794 15.4596 12.4152 15.6122 12.4884C15.7648 12.5616 15.8969 12.6714 15.9968 12.8081C16.1747 13.098 16.2554 13.4368 16.2273 13.7758V14.6231H14.7437V15.345C14.7437 15.7287 14.8686 15.9139 15.1221 15.9139C15.2052 15.9171 15.2862 15.8886 15.3481 15.8331C15.4101 15.7776 15.448 15.6995 15.4538 15.6166C15.4684 15.4504 15.4737 15.2849 15.4697 15.1181H16.2273V15.2247C16.2273 15.4623 16.2194 15.6304 16.2115 15.7008C16.19 15.8613 16.1296 16.0141 16.0355 16.1459C15.9376 16.2911 15.8038 16.4082 15.6472 16.4862C15.4905 16.5643 15.3162 16.6005 15.1414 16.5911C14.9691 16.5991 14.7974 16.5644 14.641 16.4914C14.4847 16.4184 14.3484 16.3089 14.2438 16.1717ZM14.7437 13.6193V14.0026H15.4855V13.6193C15.4855 13.2409 15.3605 13.0573 15.1141 13.0573C14.8677 13.0573 14.7437 13.2427 14.7437 13.6211V13.6193ZM11.9945 16.1356V16.5292H11.2527V11.0378H11.9945V12.8339C12.0785 12.705 12.1915 12.5984 12.3245 12.5211C12.4574 12.4437 12.6066 12.398 12.7601 12.3887C12.8971 12.383 13.0318 12.4253 13.1404 12.509C13.249 12.5927 13.3247 12.712 13.3541 12.8459C13.415 13.1175 13.4399 13.3963 13.4281 13.6743V15.3037C13.439 15.5803 13.4141 15.8568 13.3541 16.127C13.3246 16.2611 13.249 16.3815 13.1405 16.4656C13.0319 16.5497 12.8973 16.5925 12.7601 16.5877C12.6064 16.5768 12.4573 16.53 12.3244 16.4519C12.1916 16.3737 12.0787 16.2665 11.9945 16.1373V16.1356ZM11.9945 13.2361V15.7317C12.0406 15.7847 12.0968 15.8279 12.1599 15.8589C12.2229 15.8899 12.2914 15.908 12.3615 15.9122C12.5762 15.9122 12.6854 15.7319 12.6854 15.357V13.6125C12.6854 13.2411 12.5762 13.0573 12.3615 13.0573C12.2914 13.0615 12.2229 13.0796 12.1599 13.1106C12.0968 13.1416 12.0406 13.1848 11.9945 13.2378V13.2361ZM8.54232 16.2834C8.49074 16.0824 8.4685 15.8756 8.47631 15.6681V12.4351H9.21816V15.4498C9.21386 15.5461 9.21649 15.6427 9.22606 15.7386C9.2419 15.8521 9.29999 15.9139 9.40207 15.9139C9.55079 15.9139 9.70657 15.8007 9.87113 15.5701V12.4386H10.6129V16.5292H9.87113V16.0841C9.77463 16.2242 9.64891 16.3426 9.50262 16.4295C9.35632 16.5164 9.19291 16.57 9.02367 16.5877C8.92085 16.5996 8.81701 16.5757 8.72934 16.5206C8.64166 16.4656 8.57535 16.3829 8.5414 16.2852L8.54232 16.2834ZM6.65556 16.5292V11.8112H5.78087V11.0378H8.3698V11.8112H7.47927V16.5292H6.65556ZM10.1474 8.08149V6.33867C10.1474 5.95498 10.2645 5.76632 10.4994 5.76632C10.7344 5.76632 10.8584 5.95586 10.8584 6.33867V8.08149C10.8584 8.46782 10.7414 8.65384 10.4994 8.65384C10.2574 8.65384 10.1474 8.46953 10.1474 8.08321V8.08149Z" fill="white"/>
</svg>
