<svg width="12" height="13" viewBox="0 0 12 13" fill="none" xmlns="http://www.w3.org/2000/svg">
<path d="M0.999756 5.75C0.585542 5.75 0.249756 6.08579 0.249756 6.5C0.249756 6.91421 0.585542 7.25 0.999756 7.25L0.999756 5.75ZM11.5301 7.03033C11.823 6.73744 11.823 6.26256 11.5301 5.96967L6.75712 1.1967C6.46422 0.903806 5.98935 0.903806 5.69646 1.1967C5.40356 1.48959 5.40356 1.96447 5.69646 2.25736L9.9391 6.5L5.69645 10.7426C5.40356 11.0355 5.40356 11.5104 5.69645 11.8033C5.98935 12.0962 6.46422 12.0962 6.75711 11.8033L11.5301 7.03033ZM0.999756 7.25L10.9998 7.25L10.9998 5.75L0.999756 5.75L0.999756 7.25Z" fill="black"/>
</svg>
