<svg width="19" height="20" viewBox="0 0 19 20" fill="none" xmlns="http://www.w3.org/2000/svg">
<path d="M17.9942 11.213C17.603 11.213 17.3236 11.5511 17.3236 11.8892V16.3404C17.3236 17.1292 16.8207 17.749 16.206 17.749H2.45884C1.84413 17.749 1.34129 17.1292 1.34129 16.3404V11.8891C1.34129 11.4947 1.00605 11.2129 0.670643 11.2129C0.335406 11.2129 0 11.5509 0 11.8891L0.000194904 16.3404C0.000194904 17.918 1.11775 19.1576 2.51482 19.1576H16.2061C17.6032 19.1576 18.7207 17.918 18.7207 16.3404V11.8891C18.7209 11.5511 18.3857 11.213 17.9945 11.213H17.9942Z" fill="white"/>
<path d="M8.60593 14.8187C8.71761 14.9877 8.94116 15.1005 9.1647 15.1005C9.33232 15.1005 9.49994 15.0441 9.66755 14.8751L14.4175 10.0858C14.697 9.80403 14.697 9.3534 14.4175 9.07162C14.138 8.78982 13.6911 8.78982 13.4116 9.07162L9.83515 12.6777V0.676192C9.83515 0.281786 9.49991 0 9.1645 0C8.82927 0 8.49386 0.338011 8.49386 0.676192V12.6777L4.86163 9.01543C4.58214 8.73362 4.1352 8.73362 3.85574 9.01543C3.57624 9.29724 3.57624 9.74786 3.85574 10.0296L8.60593 14.8187Z" fill="white"/>
</svg>
