<svg width="15" height="15" viewBox="0 0 15 15" fill="none" xmlns="http://www.w3.org/2000/svg">
<path d="M10.3783 5.00664L6.50678 8.6958L4.6622 6.79038C4.41902 6.5472 4.0338 6.5472 3.81085 6.77015C3.56767 7.01334 3.56767 7.39855 3.79062 7.6215L6.06088 9.95259C6.18254 10.0742 6.34466 10.1351 6.48655 10.1351C6.62844 10.1351 6.79056 10.0742 6.91222 9.97296L11.2296 5.87834C11.4728 5.65539 11.4932 5.27016 11.2498 5.02699C11.0065 4.78367 10.6214 4.78368 10.3783 5.00664Z" fill="black"/>
<path d="M7.5 0C3.36494 0 0 3.36477 0 7.5C0 11.6351 3.36477 15 7.5 15C11.6351 15 15 11.6352 15 7.5C15 3.36494 11.6351 0 7.5 0ZM7.5 13.7836C4.03378 13.7836 1.21636 10.966 1.21636 7.5C1.21636 4.03396 4.03396 1.21636 7.5 1.21636C10.966 1.21636 13.7836 4.03396 13.7836 7.5C13.7836 10.966 10.966 13.7836 7.5 13.7836Z" fill="black"/>
</svg>
