<svg width="185" height="32" viewBox="0 0 185 32" fill="none" xmlns="http://www.w3.org/2000/svg">
<path fill-rule="evenodd" clip-rule="evenodd" d="M0.000244141 1.8342C0.0350811 1.76965 0.00411485 1.39671 0.0234687 1.32499C0.0621764 1.14928 0.155075 0.991502 0.275069 0.85165C0.476349 0.614979 0.727948 0.442854 1.01439 0.306589C1.30856 0.166737 1.6221 0.105777 1.94724 0.0699173C2.09433 0.0555736 2.24529 0.0555736 2.39238 0.0735032C2.43109 0.0806751 2.46979 0.084261 2.5085 0.0914329C2.98074 0.184667 3.30588 0.442854 3.49168 0.848064C3.53426 0.944885 3.57296 1.04529 3.60393 1.14211C4.41292 3.56261 5.23739 5.97595 6.02703 8.40362C6.6928 10.4584 7.40502 12.5023 8.09402 14.5499C8.11725 14.6145 8.12886 14.679 8.17144 14.74C8.22563 14.6718 8.23724 14.5894 8.26433 14.5141C8.67464 13.2733 9.08107 12.0326 9.49137 10.7919C10.3468 8.20998 11.2061 5.6317 12.0654 3.05341C12.2783 2.41153 12.4912 1.77323 12.7041 1.13135C12.7622 0.955642 12.8357 0.783518 12.948 0.629323C13.1183 0.389065 13.3467 0.21694 13.6408 0.127292C13.7299 0.102191 13.8228 0.087847 13.9118 0.0699173C14.0744 0.0484017 14.2331 0.0663314 14.3956 0.0735032C14.6937 0.112948 14.984 0.159566 15.2666 0.263558C15.4098 0.317347 15.5452 0.378307 15.673 0.453612C16.2033 0.776346 16.3968 1.23535 16.3117 1.80551C16.2923 1.92026 16.2613 2.03501 16.2226 2.14617C14.6008 7.01945 12.9789 11.8891 11.3609 16.7624C11.0474 17.7019 10.7378 18.645 10.4242 19.5846C10.3971 19.6599 10.3739 19.7388 10.3391 19.8105C10.1688 20.1476 9.89006 20.3699 9.51072 20.481C9.26299 20.5528 9.00752 20.5922 8.74818 20.6209C8.14047 20.689 7.5405 20.6388 6.95214 20.4775C6.60765 20.3806 6.3096 20.2193 6.08122 19.9539C5.99219 19.8535 5.92639 19.7423 5.88768 19.6132C5.04386 16.9453 4.14971 14.2917 3.26717 11.6345C2.43883 9.14232 1.58726 6.65727 0.751173 4.16864C0.518927 3.48014 0.294423 2.79523 0.0660472 2.10673C0.0428226 2.01349 0.0234688 1.92384 0.000244141 1.8342Z" fill="black"/>
<path fill-rule="evenodd" clip-rule="evenodd" d="M134.49 10.2966C134.49 12.2725 134.49 14.2519 134.49 16.2278C134.49 16.6868 134.432 17.135 134.3 17.5761C134.068 18.3399 133.615 18.9602 132.93 19.43C132.365 19.8173 131.75 20.1185 131.076 20.305C130.677 20.4161 130.275 20.4735 129.861 20.4735C128.39 20.4735 126.923 20.4735 125.452 20.4735C125.305 20.4735 125.158 20.4627 125.018 20.4197C124.767 20.3444 124.577 20.1974 124.438 19.993C124.271 19.7527 124.194 19.4874 124.171 19.2077C124.151 18.9746 124.151 18.7415 124.202 18.5084C124.248 18.2932 124.325 18.0924 124.473 17.9203C124.658 17.7016 124.902 17.5761 125.192 17.5223C125.328 17.4972 125.467 17.4864 125.607 17.4864C126.795 17.4864 127.987 17.4864 129.176 17.4864C129.361 17.4864 129.547 17.4828 129.729 17.447C129.861 17.4183 129.985 17.3824 130.104 17.3215C130.217 17.2641 130.321 17.196 130.399 17.1027C130.619 16.8302 130.759 16.529 130.786 16.1883C130.793 16.1022 130.793 16.0162 130.793 15.9301C130.793 12.1685 130.793 8.40325 130.797 4.6416C130.797 4.27225 130.712 3.93517 130.499 3.6232C130.348 3.40446 130.143 3.25743 129.88 3.18571C129.714 3.14268 129.543 3.114 129.369 3.10682C129.276 3.10324 129.183 3.10324 129.09 3.10324C127.198 3.10324 125.301 3.10324 123.408 3.10324C123.137 3.10324 123.164 3.07814 123.164 3.33274C123.16 5.74248 123.156 8.14865 123.153 10.5584C123.149 13.4092 123.141 16.26 123.133 19.1144C123.133 19.2435 123.133 19.3726 123.102 19.5017C123.029 19.8101 122.855 20.0539 122.584 20.2476C122.359 20.4089 122.107 20.5129 121.829 20.5667C121.329 20.6635 120.838 20.6384 120.358 20.4807C120.044 20.3767 119.804 20.1938 119.642 19.9213C119.522 19.7169 119.479 19.4945 119.464 19.265C119.46 19.2041 119.464 19.1431 119.464 19.0786C119.464 13.3698 119.464 7.66096 119.464 1.95215C119.464 1.70472 119.479 1.46088 119.541 1.22062C119.619 0.930163 119.766 0.679148 120.029 0.499851C120.184 0.392273 120.362 0.320554 120.544 0.259594C120.822 0.166359 121.113 0.141258 121.407 0.1305C121.465 0.126914 121.527 0.1305 121.585 0.1305C124.298 0.1305 127.012 0.134086 129.721 0.1305C130.368 0.1305 130.987 0.241664 131.583 0.47475C132.005 0.639702 132.419 0.826171 132.802 1.05926C133.155 1.27441 133.453 1.54336 133.704 1.86251C134.08 2.33943 134.308 2.87374 134.417 3.45107C134.475 3.76664 134.498 4.08578 134.498 4.40852C134.49 6.36644 134.49 8.33153 134.49 10.2966Z" fill="#FFB81D"/>
<path fill-rule="evenodd" clip-rule="evenodd" d="M177.463 20.4771C176.534 20.4771 175.601 20.4735 174.672 20.4771C174.091 20.4807 173.538 20.3839 172.996 20.1938C172.427 19.993 171.901 19.7169 171.421 19.3726C170.763 18.8993 170.341 18.2789 170.12 17.5366C170.016 17.178 169.954 16.8159 169.954 16.4429C169.95 15.7975 169.95 15.1484 169.95 14.5029C169.95 14.3487 169.977 14.1981 170.031 14.0511C170.136 13.7642 170.333 13.5491 170.615 13.3985C170.79 13.3052 170.979 13.2479 171.177 13.2156C171.626 13.1403 172.075 13.1439 172.524 13.2443C172.744 13.2945 172.953 13.3734 173.135 13.506C173.433 13.7248 173.588 14.0153 173.627 14.3631C173.639 14.4491 173.635 14.5352 173.635 14.6213C173.635 15.0695 173.635 15.5213 173.635 15.9696C173.635 16.1381 173.658 16.2995 173.697 16.4644C173.735 16.6222 173.809 16.7657 173.886 16.9091C174.064 17.2211 174.347 17.3932 174.715 17.4577C174.877 17.4864 175.044 17.4972 175.21 17.4972C175.783 17.4972 176.352 17.4972 176.925 17.4972C177.85 17.4972 178.775 17.4972 179.696 17.4972C179.874 17.4972 180.052 17.49 180.23 17.4577C180.583 17.3896 180.858 17.2318 181.036 16.9378C181.179 16.6975 181.276 16.4465 181.291 16.1704C181.295 16.1166 181.295 16.0592 181.295 16.0054C181.295 15.0086 181.295 14.0081 181.295 13.0112C181.295 12.8319 181.276 12.6562 181.218 12.4841C181.156 12.3012 181.063 12.1291 180.947 11.9713C180.819 11.7956 180.641 11.6844 180.428 11.6163C180.199 11.541 179.96 11.5194 179.723 11.5159C179.058 11.5123 178.392 11.5159 177.73 11.5159C176.693 11.5159 175.655 11.5087 174.618 11.5194C173.898 11.5266 173.22 11.376 172.574 11.0999C172.222 10.9529 171.885 10.7807 171.572 10.5692C171.014 10.1998 170.596 9.7193 170.321 9.1348C170.147 8.76545 170.043 8.37817 169.988 7.98013C169.961 7.77214 169.95 7.56416 169.95 7.35259C169.95 6.33777 169.95 5.31937 169.95 4.30455C169.95 3.76307 170.035 3.23594 170.236 2.73032C170.476 2.13506 170.859 1.63303 171.393 1.2314C171.56 1.1059 171.738 1.0019 171.924 0.905085C172.357 0.675585 172.806 0.481945 173.282 0.334922C173.716 0.202242 174.161 0.137695 174.614 0.137695C176.515 0.137695 178.419 0.137695 180.319 0.137695C180.865 0.137695 181.388 0.23093 181.899 0.410226C182.348 0.568007 182.777 0.761647 183.184 0.994733C183.873 1.38919 184.364 1.94142 184.67 2.63709C184.825 2.9921 184.918 3.36503 184.964 3.74514C184.995 3.97823 184.999 4.21131 184.999 4.4444C184.999 4.90698 184.999 5.36957 184.999 5.82857C184.999 5.9469 184.988 6.06165 184.964 6.1764C184.879 6.54934 184.655 6.82546 184.295 7.00475C184.136 7.08364 183.966 7.13743 183.788 7.16612C183.327 7.24501 182.863 7.24501 182.402 7.14461C182.266 7.11592 182.135 7.0693 182.011 7.00834C181.605 6.80753 181.38 6.48838 181.326 6.06883C181.307 5.92897 181.303 5.78554 181.303 5.64569C181.299 5.28351 181.299 4.91774 181.303 4.55556C181.303 4.24717 181.21 3.96388 181.051 3.69135C180.865 3.37938 180.579 3.21801 180.215 3.15346C180.056 3.12478 179.901 3.11402 179.739 3.11402C178.229 3.11402 176.72 3.11402 175.21 3.11402C175.001 3.11402 174.8 3.13553 174.599 3.18574C174.316 3.25387 174.095 3.40089 173.94 3.63039C173.747 3.91368 173.642 4.22207 173.642 4.55556C173.639 5.4126 173.639 6.26964 173.642 7.12309C173.646 7.48168 173.755 7.81517 173.979 8.11281C174.095 8.26342 174.242 8.37099 174.424 8.43913C174.587 8.50009 174.753 8.53953 174.928 8.54671C175.078 8.55388 175.233 8.55746 175.384 8.55746C176.998 8.55746 178.616 8.56105 180.23 8.55746C180.858 8.55746 181.457 8.65787 182.038 8.8802C182.506 9.05949 182.955 9.27465 183.37 9.54359C184.008 9.95598 184.461 10.5118 184.721 11.1931C184.895 11.6485 184.992 12.1219 184.995 12.6024C185.003 13.1797 184.999 13.7606 184.999 14.338C184.999 15.005 184.999 15.6684 184.999 16.3353C184.999 16.7298 184.945 17.1207 184.837 17.5044C184.663 18.1247 184.341 18.6698 183.842 19.1216C183.579 19.3619 183.281 19.5519 182.967 19.7312C182.437 20.0324 181.876 20.2655 181.264 20.391C180.985 20.4484 180.703 20.4807 180.416 20.4807C179.433 20.4771 178.446 20.4771 177.463 20.4771Z" fill="#FFB81D"/>
<path fill-rule="evenodd" clip-rule="evenodd" d="M152.377 10.4869C152.377 7.64682 152.377 4.80676 152.377 1.9667C152.377 1.73362 152.392 1.50053 152.446 1.26745C152.477 1.1276 152.528 0.994916 152.601 0.869409C152.702 0.697284 152.837 0.557433 153.015 0.453441C153.313 0.281316 153.638 0.18091 153.987 0.148637C154.2 0.127121 154.413 0.123535 154.625 0.123535C157.087 0.123535 159.545 0.127121 162.007 0.123535C162.653 0.123535 163.273 0.238285 163.869 0.47137C164.206 0.60405 164.535 0.754659 164.848 0.923198C165.603 1.32841 166.129 1.90933 166.451 2.6552C166.606 3.01738 166.695 3.3939 166.737 3.78477C166.76 4.0071 166.768 4.22584 166.768 4.44817C166.768 5.64228 166.768 6.8364 166.768 8.0341C166.768 8.52178 166.698 9.0023 166.536 9.47206C166.277 10.2251 165.793 10.8275 165.088 11.2758C164.829 11.4407 164.558 11.5842 164.283 11.7204C164.237 11.7455 164.19 11.767 164.144 11.7922C164.109 11.8101 164.097 11.8352 164.117 11.8675C164.136 11.8997 164.155 11.932 164.179 11.9643C165.278 13.6461 166.373 15.3243 167.473 17.0061C167.713 17.3754 167.956 17.7448 168.196 18.1106C168.316 18.2899 168.413 18.4763 168.487 18.6771C168.587 18.9568 168.56 19.2222 168.425 19.484C168.351 19.6238 168.254 19.7493 168.142 19.8605C168.003 20.0003 167.852 20.1366 167.674 20.2334C167.329 20.4199 166.985 20.6064 166.582 20.6709C166.056 20.757 165.63 20.5956 165.289 20.2227C165.197 20.1223 165.139 20.0075 165.065 19.8964C164.829 19.527 164.589 19.1541 164.349 18.7847C162.99 16.6726 161.635 14.5641 160.277 12.452C160.238 12.3946 160.199 12.3372 160.165 12.2763C160.134 12.2296 160.095 12.2045 160.033 12.2081C159.987 12.2081 159.94 12.2081 159.894 12.2081C159.336 12.2081 158.775 12.2081 158.218 12.2081C158.098 12.2081 157.981 12.2045 157.861 12.1758C157.637 12.1185 157.451 12.0037 157.308 11.8316C157.13 11.6236 157.037 11.3798 156.994 11.1216C156.944 10.8096 156.948 10.494 157.029 10.1857C157.049 10.1068 157.072 10.0315 157.107 9.95616C157.304 9.50433 157.676 9.27483 158.194 9.24256C158.287 9.23538 158.38 9.23897 158.473 9.23897C159.464 9.23897 160.455 9.23897 161.446 9.23897C161.659 9.23897 161.872 9.22104 162.077 9.17442C162.398 9.10271 162.638 8.93417 162.804 8.66881C162.963 8.40703 163.064 8.13092 163.064 7.82611C163.064 6.72523 163.064 5.62077 163.064 4.51989C163.064 4.21508 162.963 3.93896 162.804 3.67719C162.619 3.37597 162.336 3.21461 161.98 3.15365C161.821 3.12854 161.666 3.1142 161.504 3.1142C159.75 3.1142 157.993 3.1142 156.24 3.1142C156.205 3.1142 156.174 3.1142 156.139 3.1142C156.073 3.11779 156.054 3.13213 156.05 3.18951C156.046 3.24329 156.05 3.30067 156.05 3.35446C156.05 5.18328 156.05 7.01211 156.05 8.84452C156.05 12.2619 156.05 15.6829 156.05 19.1003C156.05 19.2652 156.05 19.4302 156.011 19.5951C155.903 20.0326 155.616 20.3231 155.171 20.488C154.97 20.5633 154.761 20.5992 154.552 20.6171C154.153 20.6494 153.755 20.6315 153.367 20.5203C152.775 20.3482 152.45 19.9286 152.404 19.4158C152.392 19.2796 152.384 19.1469 152.384 19.0106C152.377 16.167 152.377 13.3269 152.377 10.4869Z" fill="#FFB81D"/>
<path fill-rule="evenodd" clip-rule="evenodd" d="M116.499 10.3005C116.499 12.2728 116.499 14.2414 116.499 16.2137C116.499 16.6763 116.441 17.1353 116.306 17.5835C116.077 18.3402 115.628 18.9569 114.947 19.4231C114.382 19.8104 113.77 20.1152 113.093 20.3052C112.69 20.4164 112.28 20.4774 111.858 20.4774C109.977 20.4774 108.096 20.4738 106.215 20.481C105.529 20.4845 104.883 20.3626 104.26 20.108C103.745 19.9 103.261 19.6418 102.835 19.3048C102.197 18.8027 101.782 18.168 101.585 17.415C101.508 17.1209 101.461 16.8233 101.457 16.5185C101.453 16.3715 101.45 16.2245 101.45 16.0738C101.45 12.2118 101.45 8.34974 101.45 4.48769C101.45 4.2833 101.45 4.0789 101.465 3.87809C101.531 3.10711 101.782 2.3971 102.301 1.77673C102.464 1.5795 102.657 1.41096 102.859 1.2496C103.021 1.11692 103.199 1.01293 103.381 0.916106C103.915 0.636404 104.465 0.39256 105.061 0.249123C105.39 0.170232 105.727 0.127201 106.067 0.127201C108.003 0.123615 109.938 0.123615 111.874 0.127201C112.466 0.127201 113.031 0.252709 113.577 0.464279C114.006 0.632818 114.424 0.819286 114.815 1.05954C115.16 1.27111 115.458 1.53647 115.706 1.84845C116.089 2.32896 116.317 2.86685 116.426 3.45495C116.484 3.77051 116.507 4.08966 116.507 4.41239C116.495 6.37389 116.499 8.33899 116.499 10.3005ZM112.799 10.2969C112.799 8.45374 112.799 6.61415 112.799 4.77098C112.799 4.68492 112.799 4.59886 112.799 4.5128C112.795 4.19723 112.69 3.91036 112.516 3.64141C112.361 3.40833 112.148 3.25772 111.866 3.186C111.661 3.13221 111.448 3.1107 111.235 3.1107C109.725 3.1107 108.216 3.1107 106.706 3.1107C106.547 3.1107 106.389 3.12504 106.23 3.15014C105.855 3.2111 105.564 3.38323 105.382 3.70596C105.278 3.89243 105.193 4.08607 105.158 4.29405C105.135 4.43032 105.131 4.563 105.131 4.69926C105.131 8.42505 105.131 12.1508 105.131 15.8802C105.131 15.9412 105.131 16.0021 105.131 16.0667C105.142 16.3751 105.231 16.6583 105.394 16.9273C105.572 17.2213 105.847 17.3827 106.195 17.4544C106.385 17.4939 106.578 17.4939 106.772 17.4939C107.987 17.4939 109.207 17.4939 110.422 17.4939C110.716 17.4939 111.007 17.4939 111.301 17.4939C111.456 17.4939 111.606 17.4831 111.757 17.4508C112.009 17.3971 112.241 17.3038 112.404 17.1102C112.57 16.9165 112.683 16.6942 112.748 16.4504C112.795 16.2747 112.799 16.0954 112.799 15.9196C112.799 14.0442 112.799 12.1723 112.799 10.2969Z" fill="#FFB81D"/>
<path fill-rule="evenodd" clip-rule="evenodd" d="M52.1088 0.00855663C52.2675 0.00855663 52.4262 0.0049707 52.5849 0.00855663C52.8326 0.0121426 53.0765 0.0444159 53.3087 0.116135C53.3784 0.13765 53.4481 0.159166 53.5139 0.187853C53.9861 0.385079 54.2377 0.732915 54.2997 1.20267C54.3151 1.33177 54.3113 1.46086 54.3113 1.58995C54.3113 6.3449 54.3113 11.0963 54.3113 15.8512C54.3113 15.9875 54.3151 16.1201 54.3306 16.2564C54.3693 16.5576 54.4893 16.8266 54.679 17.0704C54.8493 17.2892 55.0893 17.3932 55.3641 17.4505C55.5538 17.49 55.7473 17.4936 55.9409 17.4936C57.0363 17.4936 58.1356 17.4936 59.231 17.4936C59.6413 17.4936 60.0555 17.4936 60.4658 17.4936C60.6671 17.4936 60.8645 17.472 61.0542 17.4183C61.329 17.3429 61.538 17.1995 61.689 16.97C61.8825 16.6796 61.9754 16.364 61.9831 16.0233C61.987 15.9373 61.9831 15.8512 61.9831 15.7651C61.9831 11.0245 61.9831 6.28035 61.9831 1.53975C61.9831 1.36045 61.9831 1.18474 62.0335 1.00903C62.138 0.625337 62.3818 0.352806 62.765 0.184267C63.0399 0.0659315 63.334 0.0193144 63.636 0.00497069C63.7947 -0.00220117 63.9534 0.00138476 64.1121 0.00138476C64.2475 0.0264863 64.3869 0.0444159 64.5224 0.0731034C64.6114 0.091033 64.7004 0.116135 64.7894 0.148408C65.3352 0.345634 65.6139 0.725743 65.6681 1.25646C65.6759 1.32818 65.672 1.40348 65.672 1.47879C65.672 6.3951 65.672 11.3078 65.672 16.2241C65.672 16.7441 65.6062 17.2569 65.4281 17.7517C65.1765 18.451 64.7314 19.0212 64.085 19.4515C63.4889 19.8495 62.8425 20.1651 62.1302 20.3408C61.7741 20.4304 61.4141 20.4735 61.0464 20.4735C59.1536 20.4735 57.2569 20.4699 55.3641 20.4771C54.6674 20.4806 54.0094 20.3444 53.3746 20.079C52.9681 19.9105 52.581 19.7061 52.2211 19.4586C51.4546 18.9315 50.9631 18.2323 50.7502 17.3716C50.6689 17.0525 50.6263 16.7298 50.6263 16.4034C50.6263 16.3102 50.6224 16.217 50.6224 16.1273C50.6224 11.2684 50.6224 6.40944 50.6224 1.55051C50.6224 1.37838 50.6224 1.20626 50.665 1.03772C50.7618 0.654024 50.9979 0.374322 51.3811 0.198611C51.5553 0.11972 51.7411 0.0695174 51.9308 0.0444159C51.9927 0.0336581 52.0546 0.0372441 52.1088 0.00855663Z" fill="black"/>
<path fill-rule="evenodd" clip-rule="evenodd" d="M83.5935 10.2972C83.5935 8.3142 83.5935 6.33118 83.5935 4.34816C83.5935 3.89633 83.6477 3.45168 83.7831 3.01778C84.0038 2.31135 84.4025 1.71609 85.0179 1.24633C85.2347 1.08138 85.4708 0.9487 85.7185 0.823192C86.2527 0.554247 86.8023 0.328334 87.3984 0.209998C87.6733 0.156209 87.952 0.131107 88.2306 0.131107C90.1583 0.127521 92.0859 0.127521 94.0136 0.131107C94.5787 0.131107 95.1206 0.238685 95.6432 0.435912C96.038 0.586521 96.4212 0.755059 96.785 0.959458C97.3502 1.27143 97.7953 1.69816 98.1127 2.22888C98.3604 2.64126 98.5153 3.08591 98.5888 3.55209C98.6353 3.83896 98.6546 4.12583 98.6546 4.41629C98.6546 4.95777 98.6546 5.49925 98.6546 6.04072C98.6546 6.21285 98.6314 6.38497 98.5772 6.54992C98.4727 6.86549 98.2637 7.10216 97.9501 7.25994C97.8147 7.32807 97.6715 7.38186 97.5244 7.41055C97.0096 7.51454 96.4947 7.51813 95.9877 7.38903C95.887 7.36393 95.7864 7.32448 95.6935 7.28145C95.3142 7.10216 95.0858 6.81528 94.9968 6.428C94.9697 6.30249 94.9542 6.1734 94.958 6.04431C94.958 5.53869 94.958 5.03307 94.958 4.52746C94.958 4.22624 94.8613 3.94654 94.7026 3.68476C94.5168 3.37637 94.2342 3.20784 93.8665 3.14329C93.7233 3.11819 93.5762 3.10384 93.4291 3.10384C91.8924 3.10384 90.3557 3.10384 88.8229 3.10384C88.6216 3.10384 88.4242 3.12895 88.2306 3.17915C87.9558 3.24728 87.7429 3.3943 87.5881 3.61663C87.3946 3.89992 87.2901 4.20472 87.2901 4.5418C87.2901 4.59201 87.2901 4.63862 87.2901 4.68883C87.2901 8.42178 87.2901 12.1547 87.2901 15.8877C87.2901 16.0491 87.2901 16.2068 87.3249 16.3646C87.3791 16.612 87.4836 16.8344 87.6346 17.0388C87.7623 17.2145 87.9442 17.3256 88.1571 17.3938C88.3158 17.444 88.4784 17.4763 88.6448 17.4798C88.699 17.4798 88.7493 17.4834 88.8035 17.4834C90.3441 17.4834 91.8885 17.4834 93.4291 17.4834C93.6226 17.4834 93.8123 17.4619 94.002 17.4153C94.2845 17.3436 94.5013 17.1966 94.6561 16.9671C94.8458 16.6838 94.9503 16.3754 94.9503 16.0419C94.9503 15.5506 94.9542 15.0558 94.9503 14.5645C94.9503 14.421 94.9658 14.2812 95.0045 14.1449C95.1051 13.7756 95.3451 13.5102 95.7167 13.3453C95.8677 13.2771 96.0264 13.2341 96.1889 13.2054C96.6341 13.1337 97.0754 13.1373 97.5166 13.2305C97.6715 13.2628 97.8224 13.313 97.9618 13.3847C98.3217 13.5676 98.5385 13.8545 98.6121 14.2238C98.6353 14.3386 98.6508 14.4533 98.6508 14.5717C98.6469 15.1382 98.6546 15.7048 98.6469 16.2714C98.6391 16.7842 98.5656 17.2898 98.3837 17.7775C98.1398 18.4229 97.7334 18.9608 97.1489 19.3732C96.5993 19.7605 96.0032 20.0653 95.3451 20.2625C94.9077 20.3952 94.4548 20.4633 93.9942 20.4633C92.1053 20.4633 90.2164 20.4597 88.3313 20.4633C87.6694 20.4669 87.0385 20.3414 86.4346 20.1012C86.0127 19.9326 85.614 19.7246 85.2386 19.4736C84.4102 18.9178 83.8993 18.1719 83.698 17.2432C83.6206 16.8846 83.5896 16.526 83.5896 16.1602C83.5935 14.2166 83.5935 12.2587 83.5935 10.2972Z" fill="#FFB81D"/>
<path fill-rule="evenodd" clip-rule="evenodd" d="M25.0868 3.58719C25.0248 3.60512 25.0248 3.65174 25.0132 3.69477C24.8158 4.25059 24.6223 4.80641 24.4249 5.36223C23.1282 9.05215 21.8315 12.7421 20.5348 16.432C20.167 17.4719 19.8032 18.5154 19.4355 19.5553C19.3348 19.8386 19.1761 20.0932 18.9516 20.312C18.6961 20.5558 18.3903 20.6777 18.0226 20.6742C17.473 20.667 16.962 20.5343 16.4859 20.2797C16.4163 20.2438 16.3505 20.2008 16.2885 20.1542C15.8356 19.8243 15.6769 19.394 15.7892 18.8776C15.8395 18.6409 15.9363 18.4186 16.0176 18.1891C17.8059 13.1401 19.598 8.09829 21.3863 3.05647C21.5915 2.48272 21.7928 1.91256 21.994 1.33881C22.0947 1.05193 22.2534 0.80092 22.4895 0.592936C22.7334 0.381366 23.0159 0.241514 23.3449 0.184139C23.8094 0.101663 24.2778 0.047874 24.7462 0.0156006C25.0055 -0.00232909 25.2648 0.00125684 25.5242 0.0263584C25.8532 0.0586317 26.1861 0.0909051 26.5151 0.119593C26.8596 0.14828 27.1576 0.266616 27.417 0.471014C27.6066 0.618037 27.7731 0.786576 27.9202 0.969458C28.0518 1.13083 28.1524 1.30654 28.2221 1.50376C29.7394 5.79971 31.2607 10.0957 32.778 14.3916C33.2735 15.7901 33.7612 17.185 34.2566 18.5836C34.3302 18.7915 34.3728 18.9995 34.365 19.2183C34.3573 19.5231 34.2334 19.7813 34.0128 20C33.9237 20.0896 33.8192 20.1685 33.707 20.2367C33.2309 20.5164 32.7045 20.6562 32.1432 20.6706C31.8451 20.6777 31.5819 20.5845 31.3458 20.4231C31.1329 20.2761 30.9703 20.0896 30.862 19.8709C30.8078 19.7669 30.7613 19.6557 30.7226 19.5446C28.8646 14.284 27.0067 9.02346 25.1448 3.76648C25.1294 3.70194 25.1061 3.64456 25.0868 3.58719Z" fill="black"/>
<path fill-rule="evenodd" clip-rule="evenodd" d="M137.487 10.2926C137.487 7.50273 137.487 4.71287 137.487 1.92302C137.487 1.66842 137.521 1.42099 137.61 1.17714C137.665 1.03012 137.742 0.893854 137.827 0.764761C137.982 0.528089 138.207 0.370308 138.481 0.273488C138.675 0.205355 138.876 0.16591 139.081 0.14798C139.314 0.130051 139.546 0.126465 139.778 0.126465C142.735 0.126465 145.696 0.126465 148.654 0.126465C148.781 0.126465 148.905 0.130051 149.033 0.144395C149.401 0.191012 149.679 0.355964 149.865 0.653597C149.966 0.814964 150.028 0.990674 150.067 1.17356C150.14 1.53932 150.152 1.90867 150.051 2.27085C150.005 2.43939 149.927 2.59717 149.807 2.72985C149.583 2.97728 149.289 3.08127 148.948 3.10279C148.847 3.10996 148.747 3.10637 148.65 3.10637C146.242 3.10637 143.835 3.10637 141.431 3.10637C141.373 3.10637 141.311 3.10637 141.253 3.10637C141.179 3.10996 141.164 3.1243 141.164 3.19961C141.16 3.24981 141.164 3.29643 141.164 3.34663C141.164 7.97966 141.164 12.6091 141.164 17.2421C141.164 17.5218 141.125 17.486 141.431 17.486C144.024 17.486 146.618 17.486 149.211 17.486C149.339 17.486 149.463 17.4895 149.587 17.5111C149.978 17.5756 150.248 17.7836 150.415 18.1135C150.5 18.282 150.547 18.4613 150.566 18.6478C150.597 18.949 150.608 19.2502 150.539 19.5479C150.5 19.7236 150.434 19.8921 150.318 20.0391C150.163 20.24 149.958 20.3655 149.707 20.4264C149.587 20.4551 149.459 20.4766 149.331 20.473C149.296 20.473 149.265 20.473 149.23 20.473C145.979 20.473 142.728 20.473 139.476 20.473C139.19 20.473 138.907 20.4479 138.628 20.3726C138.268 20.2722 137.994 20.0786 137.804 19.7738C137.607 19.4582 137.506 19.1176 137.494 18.7554C137.49 18.6693 137.494 18.5833 137.494 18.4972C137.487 15.7611 137.487 13.0286 137.487 10.2926Z" fill="#FFB81D"/>
<path fill-rule="evenodd" clip-rule="evenodd" d="M68.7333 10.2825C68.7333 7.51771 68.7333 4.75296 68.7333 1.98462C68.7333 1.80174 68.7333 1.61527 68.7759 1.43238C68.8262 1.21364 68.9152 1.00924 69.0352 0.815604C69.2055 0.543074 69.4532 0.360191 69.7745 0.256199C70.0493 0.166551 70.3319 0.145035 70.6183 0.134277C70.6648 0.134277 70.7112 0.134277 70.7577 0.134277C73.8156 0.134277 76.8735 0.134277 79.9314 0.134277C80.0437 0.134277 80.1559 0.137863 80.2682 0.148621C80.6049 0.18448 80.8681 0.33509 81.0617 0.593277C81.1584 0.72237 81.2242 0.862221 81.263 1.01283C81.3675 1.40011 81.3868 1.79098 81.3094 2.18543C81.3017 2.23205 81.2862 2.28225 81.2707 2.32887C81.1507 2.70898 80.8527 3.0604 80.2062 3.1106C80.1133 3.11777 80.0204 3.11419 79.9275 3.11419C77.5083 3.11419 75.0891 3.11419 72.666 3.11419C72.6079 3.11419 72.546 3.11419 72.4879 3.11419C72.4144 3.11777 72.3989 3.12853 72.3989 3.20383C72.3989 3.25404 72.3989 3.30065 72.3989 3.35086C72.3989 7.98388 72.3989 12.6133 72.3989 17.2463C72.3989 17.3252 72.3641 17.4185 72.426 17.4758C72.4802 17.526 72.577 17.4938 72.6582 17.4938C75.2517 17.4938 77.8451 17.4938 80.4385 17.4938C80.5662 17.4938 80.6901 17.4974 80.8139 17.5189C81.1623 17.5762 81.4255 17.7484 81.5958 18.0352C81.7004 18.211 81.7584 18.3974 81.7855 18.5947C81.8242 18.8708 81.8358 19.1469 81.7933 19.423C81.7662 19.588 81.7236 19.7493 81.6423 19.8999C81.4797 20.2011 81.2204 20.384 80.8643 20.4486C80.7481 20.4701 80.6281 20.4809 80.5082 20.4809C77.2296 20.4809 73.9511 20.4809 70.6764 20.4809C70.3977 20.4809 70.119 20.4522 69.8519 20.3769C69.4919 20.2765 69.2171 20.0756 69.0313 19.7708C68.8533 19.4768 68.7449 19.1612 68.7372 18.8242C68.7333 18.7309 68.7333 18.6377 68.7333 18.548C68.7333 15.7869 68.7333 13.0329 68.7333 10.2825Z" fill="black"/>
<path fill-rule="evenodd" clip-rule="evenodd" d="M35.6232 10.078C35.6232 7.23432 35.6232 4.38709 35.6232 1.54345C35.6232 1.37849 35.6232 1.21354 35.6619 1.04859C35.7664 0.607518 36.0451 0.313472 36.4902 0.144933C36.6915 0.0696284 36.8967 0.033769 37.1095 0.0158394C37.4695 -0.016434 37.8256 -0.00209027 38.1779 0.0839721C38.294 0.11266 38.4063 0.148519 38.5146 0.195136C38.9482 0.388776 39.1959 0.715096 39.2617 1.15258C39.2849 1.29243 39.2888 1.43587 39.2888 1.57572C39.2888 6.79325 39.2888 12.0072 39.2888 17.2247C39.2888 17.2857 39.2888 17.3466 39.2888 17.4112C39.2927 17.4865 39.2965 17.4901 39.3856 17.4901C39.4436 17.4901 39.5055 17.4901 39.5636 17.4901C42.3544 17.4901 45.1491 17.4901 47.94 17.4901C48.0677 17.4901 48.1916 17.4937 48.3154 17.5152C48.6289 17.569 48.8651 17.716 49.0315 17.967C49.0934 18.0638 49.1438 18.1642 49.1747 18.2718C49.3025 18.738 49.3102 19.2077 49.1902 19.6775C49.1825 19.7026 49.1747 19.7241 49.167 19.7492C49.0315 20.1257 48.7412 20.4341 48.1451 20.47C48.087 20.4736 48.0251 20.4736 47.967 20.4736C44.5105 20.4736 41.0539 20.4736 37.5973 20.4736C37.3495 20.4736 37.1057 20.4557 36.8657 20.4019C36.7147 20.3696 36.5715 20.323 36.4399 20.2513C36.2735 20.1652 36.1341 20.0576 36.0257 19.9142C35.7857 19.595 35.6464 19.24 35.627 18.8492C35.6232 18.7523 35.6232 18.6519 35.6232 18.5551C35.6232 15.7294 35.6232 12.9037 35.6232 10.078Z" fill="black"/>
<path fill-rule="evenodd" clip-rule="evenodd" d="M76.7997 12.1974C75.4953 12.2118 74.334 11.2149 74.3379 9.88452C74.3418 8.57924 75.4759 7.58594 76.7997 7.58594C78.1661 7.58594 79.3157 8.59717 79.3118 9.90245C79.3041 11.2113 78.1467 12.2118 76.7997 12.1974Z" fill="black"/>
<path fill-rule="evenodd" clip-rule="evenodd" d="M148.061 9.89455C148.1 11.1066 146.993 12.2039 145.545 12.1967C144.171 12.1931 143.095 11.1209 143.099 9.88379C143.103 8.65023 144.182 7.57086 145.576 7.58162C147.004 7.59238 148.104 8.67892 148.061 9.89455Z" fill="#FFB81D"/>
<path fill-rule="evenodd" clip-rule="evenodd" d="M25.0075 12.0715C26.3082 12.0536 27.3341 13.0614 27.3418 14.2054C27.3495 15.3746 26.3198 16.3644 25.0424 16.3752C23.7649 16.3895 22.7274 15.4284 22.7197 14.2377C22.7081 13.0398 23.7417 12.0608 25.0075 12.0715Z" fill="black"/>
<path d="M57.3601 28.7988V29.1238C57.3601 29.5707 57.2973 29.9715 57.1716 30.3263C57.0458 30.6811 56.866 30.9831 56.6322 31.2323C56.4012 31.4815 56.1235 31.6724 55.799 31.8052C55.4745 31.9352 55.1149 32.0002 54.7202 32.0002C54.3285 32.0002 53.9703 31.9352 53.6458 31.8052C53.3242 31.6724 53.045 31.4815 52.8082 31.2323C52.5714 30.9831 52.3873 30.6811 52.2557 30.3263C52.1271 29.9715 52.0627 29.5707 52.0627 29.1238V28.7988C52.0627 28.3519 52.1271 27.9524 52.2557 27.6003C52.3843 27.2455 52.5656 26.9435 52.7995 26.6943C53.0363 26.4424 53.3155 26.2514 53.637 26.1214C53.9616 25.9887 54.3197 25.9224 54.7114 25.9224C55.1061 25.9224 55.4657 25.9887 55.7902 26.1214C56.1147 26.2514 56.3939 26.4424 56.6278 26.6943C56.8617 26.9435 57.0415 27.2455 57.1672 27.6003C57.2958 27.9524 57.3601 28.3519 57.3601 28.7988ZM56.2594 29.1238V28.7906C56.2594 28.4602 56.2243 28.169 56.1542 27.9172C56.0869 27.6626 55.9861 27.4499 55.8516 27.2793C55.72 27.106 55.5578 26.976 55.3648 26.8893C55.1719 26.7999 54.9541 26.7552 54.7114 26.7552C54.4688 26.7552 54.2524 26.7999 54.0624 26.8893C53.8724 26.976 53.7101 27.106 53.5757 27.2793C53.4441 27.4499 53.3432 27.6626 53.2731 27.9172C53.2029 28.169 53.1678 28.4602 53.1678 28.7906V29.1238C53.1678 29.4542 53.2029 29.7467 53.2731 30.0013C53.3432 30.2559 53.4456 30.4712 53.58 30.6473C53.7174 30.8206 53.8812 30.952 54.0712 31.0414C54.2612 31.128 54.4776 31.1714 54.7202 31.1714C54.9658 31.1714 55.1836 31.128 55.3736 31.0414C55.5636 30.952 55.7244 30.8206 55.856 30.6473C55.9875 30.4712 56.0869 30.2559 56.1542 30.0013C56.2243 29.7467 56.2594 29.4542 56.2594 29.1238Z" fill="black"/>
<path d="M63.5258 26.0036V31.9189H62.4251L59.5615 27.6815V31.9189H58.4608V26.0036H59.5615L62.4338 30.2491V26.0036H63.5258Z" fill="black"/>
<path d="M66.8586 29.0019V29.7819H64.5388V29.0019H66.8586Z" fill="black"/>
<path d="M69.7441 31.9189H68.3802L68.389 31.1104H69.7441C70.1387 31.1104 70.4691 31.0305 70.7351 30.8707C71.0041 30.7109 71.2058 30.4821 71.3403 30.1841C71.4777 29.8862 71.5464 29.5314 71.5464 29.1197V28.7988C71.5464 28.4792 71.5069 28.1961 71.428 27.9497C71.352 27.7032 71.238 27.496 71.0859 27.3281C70.9368 27.1601 70.7527 27.0328 70.5334 26.9462C70.3171 26.8595 70.0671 26.8162 69.7835 26.8162H68.3539V26.0036H69.7835C70.2074 26.0036 70.5948 26.07 70.9456 26.2027C71.2964 26.3327 71.599 26.5209 71.8534 26.7674C72.1106 27.0139 72.308 27.3091 72.4454 27.6531C72.5828 27.9971 72.6515 28.3817 72.6515 28.8069V29.1197C72.6515 29.5449 72.5828 29.9295 72.4454 30.2735C72.308 30.6175 72.1106 30.9127 71.8534 31.1592C71.5961 31.403 71.2891 31.5912 70.9325 31.7239C70.5787 31.8539 70.1826 31.9189 69.7441 31.9189ZM68.9898 26.0036V31.9189H67.8891V26.0036H68.9898Z" fill="black"/>
<path d="M77.9357 31.1104V31.9189H74.5459V31.1104H77.9357ZM74.8572 26.0036V31.9189H73.7565V26.0036H74.8572ZM77.4928 28.4737V29.27H74.5459V28.4737H77.4928ZM77.9138 26.0036V26.8162H74.5459V26.0036H77.9138Z" fill="black"/>
<path d="M79.282 26.0036H80.2643L82.1104 30.566L83.9522 26.0036H84.9345L82.4963 31.9189H81.7158L79.282 26.0036ZM78.8347 26.0036H79.7687L79.931 29.9526V31.9189H78.8347V26.0036ZM84.4478 26.0036H85.3862V31.9189H84.2855V29.9526L84.4478 26.0036Z" fill="black"/>
<path d="M89.2584 26.7918L87.3508 31.9189H86.1975L88.6006 26.0036H89.3373L89.2584 26.7918ZM90.8546 31.9189L88.9426 26.7918L88.8593 26.0036H89.6004L92.0123 31.9189H90.8546ZM90.7625 29.7251V30.5335H87.2894V29.7251H90.7625Z" fill="black"/>
<path d="M97.7921 26.0036V31.9189H96.6914L93.8278 27.6815V31.9189H92.7271V26.0036H93.8278L96.7001 30.2491V26.0036H97.7921Z" fill="black"/>
<path d="M100.958 31.9189H99.5944L99.6032 31.1104H100.958C101.353 31.1104 101.683 31.0305 101.949 30.8707C102.218 30.7109 102.42 30.4821 102.554 30.1841C102.692 29.8862 102.761 29.5314 102.761 29.1197V28.7988C102.761 28.4792 102.721 28.1961 102.642 27.9497C102.566 27.7032 102.452 27.496 102.3 27.3281C102.151 27.1601 101.967 27.0328 101.748 26.9462C101.531 26.8595 101.281 26.8162 100.998 26.8162H99.5681V26.0036H100.998C101.422 26.0036 101.809 26.07 102.16 26.2027C102.511 26.3327 102.813 26.5209 103.068 26.7674C103.325 27.0139 103.522 27.3091 103.66 27.6531C103.797 27.9971 103.866 28.3817 103.866 28.8069V29.1197C103.866 29.5449 103.797 29.9295 103.66 30.2735C103.522 30.6175 103.325 30.9127 103.068 31.1592C102.81 31.403 102.503 31.5912 102.147 31.7239C101.793 31.8539 101.397 31.9189 100.958 31.9189ZM100.204 26.0036V31.9189H99.1033V26.0036H100.204Z" fill="black"/>
<path d="M110.566 30.3954C110.566 30.2735 110.546 30.1652 110.505 30.0704C110.467 29.9756 110.398 29.8889 110.299 29.8104C110.199 29.7318 110.059 29.656 109.878 29.5829C109.699 29.507 109.471 29.4298 109.194 29.3513C108.89 29.2646 108.609 29.1685 108.352 29.0628C108.097 28.9545 107.875 28.8299 107.685 28.6891C107.495 28.5455 107.348 28.3817 107.242 28.1975C107.137 28.0106 107.084 27.7953 107.084 27.5515C107.084 27.3105 107.138 27.0911 107.247 26.8934C107.358 26.6956 107.514 26.525 107.716 26.3814C107.921 26.2352 108.162 26.1228 108.439 26.0442C108.717 25.963 109.024 25.9224 109.36 25.9224C109.834 25.9224 110.242 26.0036 110.584 26.1661C110.929 26.3286 111.193 26.5467 111.378 26.8202C111.565 27.0938 111.658 27.3958 111.658 27.7262H110.566C110.566 27.5312 110.521 27.3592 110.43 27.2102C110.343 27.0586 110.208 26.9394 110.027 26.8527C109.849 26.7661 109.622 26.7227 109.347 26.7227C109.087 26.7227 108.871 26.7593 108.698 26.8324C108.526 26.9055 108.397 27.0044 108.312 27.129C108.227 27.2536 108.185 27.3944 108.185 27.5515C108.185 27.6626 108.213 27.7641 108.268 27.8562C108.324 27.9456 108.409 28.0296 108.523 28.1081C108.637 28.1839 108.78 28.2557 108.953 28.3234C109.125 28.3911 109.328 28.4561 109.562 28.5184C109.916 28.6159 110.224 28.7243 110.487 28.8435C110.75 28.9599 110.97 29.0926 111.145 29.2416C111.321 29.3906 111.452 29.5598 111.54 29.7494C111.628 29.9363 111.671 30.1489 111.671 30.3873C111.671 30.6365 111.617 30.8613 111.509 31.0617C111.401 31.2594 111.246 31.4287 111.044 31.5695C110.845 31.7077 110.606 31.8146 110.325 31.8905C110.047 31.9636 109.737 32.0002 109.395 32.0002C109.088 32.0002 108.786 31.9623 108.488 31.8864C108.192 31.8106 107.923 31.6955 107.681 31.5411C107.438 31.384 107.245 31.189 107.102 30.9561C106.959 30.7204 106.887 30.4455 106.887 30.1313H107.988C107.988 30.3236 108.023 30.4875 108.093 30.6229C108.166 30.7583 108.267 30.8694 108.396 30.9561C108.524 31.04 108.673 31.1023 108.843 31.1429C109.015 31.1836 109.2 31.2039 109.395 31.2039C109.653 31.2039 109.868 31.17 110.04 31.1023C110.215 31.0346 110.347 30.9398 110.435 30.8179C110.522 30.696 110.566 30.5552 110.566 30.3954Z" fill="black"/>
<path d="M117.736 28.7988V29.1238C117.736 29.5707 117.673 29.9715 117.548 30.3263C117.422 30.6811 117.242 30.9831 117.008 31.2323C116.777 31.4815 116.5 31.6724 116.175 31.8052C115.851 31.9352 115.491 32.0002 115.096 32.0002C114.705 32.0002 114.346 31.9352 114.022 31.8052C113.7 31.6724 113.421 31.4815 113.184 31.2323C112.947 30.9831 112.763 30.6811 112.632 30.3263C112.503 29.9715 112.439 29.5707 112.439 29.1238V28.7988C112.439 28.3519 112.503 27.9524 112.632 27.6003C112.76 27.2455 112.942 26.9435 113.176 26.6943C113.412 26.4424 113.692 26.2514 114.013 26.1214C114.338 25.9887 114.696 25.9224 115.087 25.9224C115.482 25.9224 115.842 25.9887 116.166 26.1214C116.491 26.2514 116.77 26.4424 117.004 26.6943C117.238 26.9435 117.418 27.2455 117.543 27.6003C117.672 27.9524 117.736 28.3519 117.736 28.7988ZM116.635 29.1238V28.7906C116.635 28.4602 116.6 28.169 116.53 27.9172C116.463 27.6626 116.362 27.4499 116.228 27.2793C116.096 27.106 115.934 26.976 115.741 26.8893C115.548 26.7999 115.33 26.7552 115.087 26.7552C114.845 26.7552 114.628 26.7999 114.438 26.8893C114.248 26.976 114.086 27.106 113.952 27.2793C113.82 27.4499 113.719 27.6626 113.649 27.9172C113.579 28.169 113.544 28.4602 113.544 28.7906V29.1238C113.544 29.4542 113.579 29.7467 113.649 30.0013C113.719 30.2559 113.822 30.4712 113.956 30.6473C114.093 30.8206 114.257 30.952 114.447 31.0414C114.637 31.128 114.854 31.1714 115.096 31.1714C115.342 31.1714 115.56 31.128 115.75 31.0414C115.94 30.952 116.1 30.8206 116.232 30.6473C116.364 30.4712 116.463 30.2559 116.53 30.0013C116.6 29.7467 116.635 29.4542 116.635 29.1238Z" fill="black"/>
<path d="M119.938 26.0036V31.9189H118.837V26.0036H119.938ZM122.542 28.5916V29.4H119.657V28.5916H122.542ZM122.906 26.0036V26.8162H119.657V26.0036H122.906Z" fill="black"/>
<path d="M126.498 26.0036V31.9189H125.406V26.0036H126.498ZM128.502 26.0036V26.8162H123.419V26.0036H128.502Z" fill="black"/>
<path d="M131.015 30.5904L132.286 26.0036H132.953L132.878 27.1859L131.519 31.9189H130.826L131.015 30.5904ZM130.063 26.0036L131.094 30.5539L131.186 31.9189H130.449L128.971 26.0036H130.063ZM134.396 30.5417L135.413 26.0036H136.509L135.032 31.9189H134.295L134.396 30.5417ZM133.212 26.0036L134.47 30.6026L134.654 31.9189H133.962L132.624 27.1859L132.554 26.0036H133.212Z" fill="black"/>
<path d="M139.619 26.7918L137.711 31.9189H136.558L138.961 26.0036H139.697L139.619 26.7918ZM141.215 31.9189L139.303 26.7918L139.219 26.0036H139.961L142.372 31.9189H141.215ZM141.123 29.7251V30.5335H137.65V29.7251H141.123Z" fill="black"/>
<path d="M143.087 26.0036H145.346C145.831 26.0036 146.245 26.0713 146.587 26.2068C146.929 26.3422 147.19 26.5426 147.372 26.808C147.556 27.0708 147.648 27.3958 147.648 27.7831C147.648 28.0783 147.589 28.3383 147.473 28.5631C147.356 28.7879 147.19 28.9775 146.977 29.1319C146.764 29.2836 146.509 29.4014 146.214 29.4854L145.881 29.6357H143.85L143.842 28.8272H145.363C145.626 28.8272 145.846 28.7839 146.021 28.6972C146.196 28.6105 146.328 28.4927 146.416 28.3437C146.506 28.1921 146.552 28.0214 146.552 27.8318C146.552 27.626 146.508 27.4472 146.42 27.2956C146.335 27.1412 146.204 27.0234 146.025 26.9421C145.847 26.8581 145.62 26.8162 145.346 26.8162H144.188V31.9189H143.087V26.0036ZM146.731 31.9189L145.232 29.2619L146.385 29.2578L147.907 31.8661V31.9189H146.731Z" fill="black"/>
<path d="M152.923 31.1104V31.9189H149.534V31.1104H152.923ZM149.845 26.0036V31.9189H148.744V26.0036H149.845ZM152.48 28.4737V29.27H149.534V28.4737H152.48ZM152.901 26.0036V26.8162H149.534V26.0036H152.901Z" fill="black"/>
<path d="M158.475 26.0036V31.9189H157.383V26.0036H158.475ZM160.479 26.0036V26.8162H155.397V26.0036H160.479Z" fill="black"/>
<path d="M165.5 31.1104V31.9189H162.11V31.1104H165.5ZM162.422 26.0036V31.9189H161.321V26.0036H162.422ZM165.057 28.4737V29.27H162.11V28.4737H165.057ZM165.478 26.0036V26.8162H162.11V26.0036H165.478Z" fill="black"/>
<path d="M168.886 26.7918L166.978 31.9189H165.825L168.228 26.0036H168.965L168.886 26.7918ZM170.482 31.9189L168.57 26.7918L168.487 26.0036H169.228L171.64 31.9189H170.482ZM170.39 29.7251V30.5335H166.917V29.7251H170.39Z" fill="black"/>
<path d="M172.802 26.0036H173.784L175.63 30.566L177.472 26.0036H178.454L176.016 31.9189H175.235L172.802 26.0036ZM172.354 26.0036H173.288L173.451 29.9526V31.9189H172.354V26.0036ZM177.967 26.0036H178.906V31.9189H177.805V29.9526L177.967 26.0036Z" fill="black"/>
<path d="M183.572 30.3954C183.572 30.2735 183.551 30.1652 183.51 30.0704C183.472 29.9756 183.404 29.8889 183.304 29.8104C183.205 29.7318 183.065 29.656 182.883 29.5829C182.705 29.507 182.477 29.4298 182.199 29.3513C181.895 29.2646 181.615 29.1685 181.357 29.0628C181.103 28.9545 180.881 28.8299 180.691 28.6891C180.501 28.5455 180.353 28.3817 180.248 28.1975C180.143 28.0106 180.09 27.7953 180.09 27.5515C180.09 27.3105 180.144 27.0911 180.252 26.8934C180.363 26.6956 180.52 26.525 180.721 26.3814C180.926 26.2352 181.167 26.1228 181.445 26.0442C181.723 25.963 182.03 25.9224 182.366 25.9224C182.84 25.9224 183.247 26.0036 183.589 26.1661C183.934 26.3286 184.199 26.5467 184.383 26.8202C184.57 27.0938 184.664 27.3958 184.664 27.7262H183.572C183.572 27.5312 183.527 27.3592 183.436 27.2102C183.348 27.0586 183.214 26.9394 183.032 26.8527C182.854 26.7661 182.628 26.7227 182.353 26.7227C182.093 26.7227 181.876 26.7593 181.704 26.8324C181.531 26.9055 181.403 27.0044 181.318 27.129C181.233 27.2536 181.191 27.3944 181.191 27.5515C181.191 27.6626 181.218 27.7641 181.274 27.8562C181.33 27.9456 181.414 28.0296 181.528 28.1081C181.642 28.1839 181.786 28.2557 181.958 28.3234C182.131 28.3911 182.334 28.4561 182.568 28.5184C182.921 28.6159 183.23 28.7243 183.493 28.8435C183.756 28.9599 183.975 29.0926 184.151 29.2416C184.326 29.3906 184.458 29.5598 184.545 29.7494C184.633 29.9363 184.677 30.1489 184.677 30.3873C184.677 30.6365 184.623 30.8613 184.515 31.0617C184.406 31.2594 184.252 31.4287 184.05 31.5695C183.851 31.7077 183.611 31.8146 183.331 31.8905C183.053 31.9636 182.743 32.0002 182.401 32.0002C182.094 32.0002 181.791 31.9623 181.493 31.8864C181.198 31.8106 180.929 31.6955 180.686 31.5411C180.444 31.384 180.251 31.189 180.107 30.9561C179.964 30.7204 179.893 30.4455 179.893 30.1313H180.993C180.993 30.3236 181.028 30.4875 181.099 30.6229C181.172 30.7583 181.273 30.8694 181.401 30.9561C181.53 31.04 181.679 31.1023 181.848 31.1429C182.021 31.1836 182.205 31.2039 182.401 31.2039C182.658 31.2039 182.873 31.17 183.046 31.1023C183.221 31.0346 183.353 30.9398 183.44 30.8179C183.528 30.696 183.572 30.5552 183.572 30.3954Z" fill="black"/>
</svg>
