<svg width="18" height="17" viewBox="0 0 18 17" fill="none" xmlns="http://www.w3.org/2000/svg">
<path d="M8.68919 0C6.38474 0 4.17472 0.8955 2.54515 2.48956C0.91565 4.08363 0.000244141 6.24577 0.000244141 8.5C0.000244141 10.7542 0.91565 12.9163 2.54515 14.5104C4.17465 16.1045 6.38485 17 8.68919 17C10.9935 17 13.2037 16.1045 14.8332 14.5104C16.4627 12.9164 17.3781 10.7542 17.3781 8.5C17.3781 7.00797 16.9767 5.54214 16.2141 4.24982C15.4515 2.95771 14.3545 1.88462 13.0337 1.13855C11.7127 0.392596 10.2145 0 8.68919 0ZM13.6211 7.00167L8.40766 11.6766C8.24256 11.8248 8.02537 11.9047 7.80153 11.9C7.57766 11.8952 7.36427 11.8061 7.206 11.6511L4.59928 9.10111C4.43156 8.94273 4.33599 8.72516 4.33396 8.49719C4.33192 8.26908 4.42371 8.04995 4.58837 7.88871C4.75318 7.72748 4.97733 7.63784 5.21037 7.63969C5.44341 7.64168 5.66595 7.73517 5.82787 7.89924L7.84633 9.87381L12.4464 5.74858C12.6753 5.54338 12.9985 5.47308 13.2946 5.5643C13.5908 5.65537 13.8147 5.89415 13.882 6.1907C13.9494 6.48711 13.8498 6.79632 13.6211 7.00167Z" fill="#FFB81D"/>
</svg>
