<svg width="25" height="25" viewBox="0 0 25 25" fill="none" xmlns="http://www.w3.org/2000/svg">
<g clip-path="url(#clip0_839_6925)">
<path d="M0.0714141 0.0575156C0.0611682 0.0732019 0.891086 1.22876 1.91055 2.61961C2.93002 4.01046 5.09703 6.96993 6.72613 9.19216L9.68719 13.234L9.49764 13.4536C9.39006 13.5739 7.21281 15.9739 4.66158 18.7869C2.11035 21.6052 0.0150616 23.9268 0.00993868 23.9529C-0.000307221 23.9791 0.44539 24 1.08576 23.9948L2.17695 23.9895L2.53555 23.5869C2.73535 23.3673 4.58986 21.3229 6.65953 19.0379C8.7292 16.7529 10.4813 14.8183 10.553 14.7346L10.681 14.583L11.7056 15.9843C12.2692 16.7529 13.8214 18.8758 15.1534 20.6954L17.5817 24H21.2958C24.3849 24 25.0048 23.9895 24.9843 23.932C24.969 23.8902 24.0263 22.5935 22.889 21.0405C21.7517 19.4928 20.4505 17.715 19.9997 17.098C19.5438 16.481 18.2067 14.6458 17.0181 13.0301C15.8296 11.4091 14.8563 10.0601 14.8563 10.0392C14.8563 10.0026 21.137 3.04314 23.2733 0.716339L23.8829 0.0522869H22.761L21.6442 0.0575156L20.3378 1.50065C19.6206 2.29542 17.8634 4.24052 16.429 5.81438L13.8317 8.67974L10.681 4.3817L7.52531 0.0784307L3.81117 0.0522869C1.76711 0.0366006 0.08166 0.0418294 0.0714141 0.0575156ZM8.87264 4.6902C10.0868 6.35294 11.9618 8.9098 13.0376 10.3791C14.1134 11.8431 16.5007 15.1059 18.345 17.6209C20.1892 20.1412 21.7159 22.2275 21.7415 22.2641C21.7722 22.3111 21.4085 22.3268 20.0817 22.3268H18.386L15.0253 17.7359C7.26916 7.15817 3.35523 1.81438 3.30912 1.73595C3.27838 1.68889 3.62674 1.6732 4.96383 1.6732H6.65953L8.87264 4.6902Z" fill="#BBBBBB"/>
</g>
<defs>
<clipPath id="clip0_839_6925">
<rect width="25" height="24" fill="white"/>
</clipPath>
</defs>
</svg>
