<svg width="102" height="58" viewBox="0 0 102 58" fill="none" xmlns="http://www.w3.org/2000/svg">
<path d="M5.62688 0.532917C2.78929 0.532917 0.488972 2.83324 0.488972 5.67083V52.3791C0.488972 55.2167 2.78929 57.517 5.62688 57.517H96.241C99.0786 57.517 101.379 55.2167 101.379 52.3791V5.67083C101.379 2.83324 99.0786 0.532917 96.241 0.532917H5.62688Z" fill="#242345" stroke="#29284F" stroke-width="0.934166"/>
<path d="M39.54 23.7249C39.8275 23.9096 40.2728 24.0672 40.8229 24.1727C41.3731 24.3302 41.9491 24.3563 42.5523 24.3563C43.1283 24.3563 43.6525 24.2781 44.1238 24.1454C44.595 23.9879 45.0144 23.7781 45.3807 23.514C45.7212 23.251 46.0098 22.9359 46.1935 22.5142C46.3762 22.1197 46.481 21.6991 46.481 21.1992C46.481 20.6199 46.2984 20.0939 45.9579 19.6201C45.6175 19.1723 45.0403 18.8039 44.2286 18.5409L42.6571 18.0149C42.081 17.8312 41.6357 17.6204 41.399 17.3835C41.1904 17.1726 41.0585 16.9096 41.0585 16.5673C41.0585 16.1206 41.2423 15.7522 41.5827 15.5674C41.9491 15.3577 42.4215 15.2262 43.0765 15.2262C43.8881 15.2262 44.5691 15.3838 45.25 15.6729C45.4337 15.7522 45.5904 15.8316 45.6953 15.8316C45.879 15.8316 45.9579 15.7261 45.9579 15.4632V15.0154C45.9579 14.8578 45.9309 14.7263 45.8531 14.647C45.7742 14.5415 45.6693 14.4361 45.5126 14.3579C45.4078 14.2785 45.224 14.1992 45.0403 14.1731C44.8576 14.0949 44.648 14.0677 44.4124 13.9895C44.2027 13.9623 43.94 13.884 43.6785 13.884C43.4169 13.8047 43.1543 13.8047 42.9186 13.8047C42.3944 13.8047 41.9762 13.884 41.5309 13.9895C41.0856 14.147 40.6922 14.3307 40.3517 14.5676C40.0112 14.8306 39.7756 15.1208 39.54 15.4892C39.3303 15.8576 39.2514 16.2521 39.2514 16.7521C39.2514 17.3313 39.4352 17.8834 39.8016 18.3833C40.1679 18.9093 40.7451 19.2777 41.6087 19.5147L43.2332 20.0406C43.7833 20.2254 44.1497 20.4091 44.3594 20.6199C44.5691 20.8308 44.648 21.0938 44.648 21.3828C44.648 21.8306 44.4642 22.199 44.0719 22.462C43.6785 22.725 43.1543 22.8305 42.4215 22.8305C41.9762 22.8305 41.5309 22.8044 41.1115 22.6729C40.6662 22.5935 40.2728 22.462 39.8545 22.2773C39.7497 22.2512 39.6449 22.199 39.566 22.173C39.487 22.1458 39.4081 22.1458 39.3563 22.1458C39.1725 22.1458 39.0947 22.2512 39.0947 22.5142V23.0674C39.0947 23.1728 39.1207 23.2771 39.1725 23.4097C39.2514 23.5412 39.3563 23.6194 39.54 23.7249Z" fill="white"/>
<path d="M20.5765 18.2777C20.183 18.1984 19.7639 18.1983 19.3972 18.1983C18.2707 18.1983 17.3539 18.4886 16.6467 19.0939C15.9394 19.672 15.625 20.4622 15.625 21.4087C15.625 22.3303 15.887 23.04 16.4371 23.5932C16.9872 24.1453 17.7207 24.4082 18.6637 24.4082C19.9735 24.4082 21.0736 23.8823 21.9642 22.8563C22.0691 23.1193 22.1739 23.3302 22.3047 23.5138C22.4354 23.6986 22.5673 23.8823 22.6981 24.0398C22.803 24.1452 22.9078 24.1985 23.0386 24.1985C23.1164 24.1985 23.2212 24.1725 23.326 24.0931L24.034 23.6193C24.1907 23.5138 24.2437 23.4084 24.2437 23.2769C24.2437 23.1987 24.2166 23.1193 24.1648 23.0139C24.0081 22.7248 23.8762 22.4619 23.7984 22.1989C23.7195 21.9359 23.6936 21.6196 23.6936 21.199V17.5148C23.6936 16.3041 23.405 15.3836 22.7759 14.7522C22.148 14.1208 21.2044 13.8306 19.8425 13.8306C19.2138 13.8306 18.6375 13.9099 18.0874 14.0414C17.5635 14.199 17.092 14.3305 16.699 14.5674C16.5419 14.6468 16.4371 14.725 16.4109 14.7783C16.3323 14.8576 16.3323 14.9891 16.3323 15.1728V15.726C16.3323 15.9357 16.4109 16.0932 16.5419 16.0932C16.568 16.0932 16.6467 16.0933 16.7253 16.0672C16.8039 16.0411 16.9348 15.989 17.1182 15.9096C17.5111 15.752 17.9302 15.6205 18.3232 15.5412C18.716 15.4358 19.1352 15.3836 19.5282 15.3836C20.4187 15.3836 20.9947 15.5673 21.3622 15.9096C21.7286 16.2519 21.8853 16.8573 21.8853 17.7256V18.5407C21.4141 18.4353 21.0218 18.3571 20.5765 18.2777ZM21.8594 20.2774C21.8594 20.6458 21.8335 20.9882 21.7545 21.2251C21.6756 21.4881 21.5719 21.7511 21.3882 21.9358C21.0996 22.2771 20.7332 22.514 20.314 22.6455C19.921 22.8042 19.5019 22.8563 19.1352 22.8563C18.6113 22.8563 18.2183 22.6988 17.9564 22.4618C17.6944 22.1988 17.5635 21.8032 17.5635 21.2772C17.5635 20.7252 17.7469 20.2774 18.1136 19.9883C18.4803 19.6993 19.0305 19.5405 19.7639 19.5405C20.1045 19.5405 20.4716 19.5666 20.838 19.6199C21.2044 19.646 21.5449 19.7253 21.8594 19.8035V20.2774Z" fill="white"/>
<path d="M27.5165 23.5395C27.5943 23.7492 27.6732 23.9079 27.7262 23.9862C27.804 24.0655 27.9358 24.0916 28.1714 24.0916H29.1138C29.3235 24.0916 29.4802 24.0655 29.5591 23.9862C29.638 23.9079 29.7169 23.7764 29.7687 23.5395L31.4979 16.2772L33.253 23.5395C33.2789 23.7492 33.3567 23.9079 33.4615 23.9862C33.5404 24.0655 33.7242 24.0916 33.9068 24.0916H34.8503C35.034 24.0916 35.1907 24.0655 35.2955 23.9862C35.3744 23.9079 35.4793 23.7764 35.5052 23.5395L38.2286 14.8569C38.2556 14.7515 38.3075 14.6461 38.3075 14.5939C38.3075 14.5146 38.3334 14.4885 38.3334 14.4092C38.3334 14.2255 38.2557 14.1462 38.0719 14.1462H37.0506C36.841 14.1462 36.6843 14.1723 36.6054 14.2516C36.5265 14.3309 36.4476 14.4624 36.3957 14.6982L34.4569 22.2496L32.6499 14.6721C32.624 14.4624 32.5451 14.3037 32.4403 14.2255C32.3614 14.1462 32.1787 14.1201 31.995 14.1201H31.0786C30.8689 14.1201 30.7122 14.1462 30.6333 14.2255C30.5544 14.3037 30.4755 14.4352 30.4236 14.6721L28.6685 22.1181L26.8086 14.6721C26.7308 14.4624 26.6519 14.3037 26.5989 14.2255C26.5212 14.1462 26.3904 14.1201 26.1537 14.1201H25.0546C24.8709 14.1201 24.792 14.1983 24.792 14.3831C24.792 14.4624 24.8179 14.5939 24.8968 14.8308L27.5165 23.5395Z" fill="white"/>
<path d="M44.1246 28.9857C40.0114 30.7483 35.507 31.5905 31.4467 31.5905C25.3957 31.5905 19.529 29.9322 14.7881 27.1438C14.3953 26.8808 14.0547 27.3274 14.4214 27.6697C18.8218 31.6427 24.61 34.0366 31.0803 34.0366C35.6636 34.0366 41.0067 32.5903 44.7266 29.8268C45.2507 29.4063 44.7525 28.7488 44.1246 28.9857Z" fill="#FF9900"/>
<path d="M41.8189 27.4588C41.4784 27.6697 41.5574 28.012 41.8978 27.9848C43.0759 27.8272 45.7476 27.5121 46.1941 28.1435C46.6653 28.7217 45.6699 31.2485 45.2505 32.3798C45.0938 32.7222 45.4072 32.8537 45.7217 32.5895C47.7126 30.9322 48.2109 27.4327 47.8174 26.9589C47.3981 26.3796 43.9146 25.9851 41.8189 27.4588Z" fill="#FF9900"/>
<path d="M56.6167 21.7758C56.5389 21.7758 56.46 21.7498 56.46 21.6183V15.5399C56.46 15.4605 56.4859 15.3823 56.6167 15.3823H56.8004C56.9053 15.3823 56.9571 15.4084 56.9571 15.5399L56.9842 15.9083C57.2457 15.6974 57.5343 15.5399 57.7959 15.4344C58.0574 15.329 58.3201 15.2769 58.6075 15.2769C59.1847 15.2769 59.63 15.4877 59.9705 15.9083C60.3109 16.3028 60.4936 16.9081 60.4936 17.5928C60.4936 18.3297 60.3109 18.9078 59.9705 19.3556C59.603 19.8022 59.1577 20.0131 58.5297 20.0131C57.9796 20.0131 57.5073 19.8022 57.036 19.3816V21.5922C57.036 21.6704 57.0101 21.7498 56.8793 21.7498H56.6167V21.7758ZM58.4508 19.5664C58.9221 19.5664 59.2884 19.4077 59.5511 19.0926C59.8127 18.7502 59.9175 18.2764 59.9175 17.645C59.9175 16.3821 59.4463 15.7768 58.4768 15.7768C58.0055 15.7768 57.4813 15.9616 57.0101 16.3561V18.9611C57.2716 19.1708 57.4813 19.3295 57.7169 19.4338C57.9526 19.4871 58.2152 19.5664 58.4508 19.5664Z" fill="white"/>
<path d="M62.644 20.0131C62.2517 20.0131 61.9101 19.9077 61.6486 19.6447C61.3871 19.4338 61.2822 19.0926 61.2822 18.6981C61.2822 18.2503 61.4389 17.934 61.7275 17.671C62.015 17.408 62.4344 17.3026 62.9326 17.3026C63.325 17.3026 63.7443 17.382 64.2155 17.5135V16.7766C64.2155 16.4082 64.1378 16.1452 63.954 16.0137C63.7702 15.8561 63.5087 15.8029 63.1153 15.8029C62.7229 15.8029 62.2777 15.8822 61.8324 16.0137C61.8064 16.0137 61.7275 16.0398 61.6745 16.0398C61.5967 16.0398 61.5967 16.0137 61.5967 15.9343V15.7507C61.5967 15.7246 61.5968 15.6714 61.6227 15.6453C61.6486 15.6192 61.6486 15.6192 61.7016 15.5659C62.1728 15.3823 62.644 15.2769 63.1942 15.2769C63.7184 15.2769 64.1107 15.3823 64.3734 15.6192C64.6349 15.8289 64.7398 16.1713 64.7398 16.6191V19.7762C64.7398 19.8555 64.7138 19.9349 64.5831 19.9349H64.3993C64.3204 19.9349 64.2426 19.9076 64.2426 19.7762L64.2155 19.4077C63.7443 19.8294 63.1942 20.0131 62.644 20.0131ZM62.723 19.5664C62.9326 19.5664 63.1942 19.5392 63.4557 19.4077C63.7184 19.3023 63.9799 19.198 64.2685 19.0132V17.908C63.8751 17.8025 63.5087 17.7504 63.0893 17.7504C62.2517 17.7504 61.8324 18.0927 61.8324 18.6981C61.8324 18.9611 61.9101 19.1708 62.042 19.3295C62.1987 19.4871 62.4344 19.5664 62.723 19.5664Z" fill="white"/>
<path d="M66.2817 19.9354C66.2028 19.9354 66.125 19.9082 66.125 19.7767V15.5404C66.125 15.4622 66.1509 15.3828 66.2817 15.3828H66.4654C66.5703 15.3828 66.6221 15.4089 66.6221 15.5404L66.6481 16.0664C66.8578 15.8034 67.0934 15.6197 67.3031 15.5404C67.5127 15.435 67.7754 15.3828 68.037 15.3828C68.1418 15.3828 68.2207 15.3828 68.2466 15.3828C68.3244 15.3828 68.4033 15.4089 68.4033 15.5404V15.7512C68.4033 15.7773 68.4033 15.7773 68.3774 15.8295C68.3774 15.8567 68.3515 15.8567 68.2985 15.8567C68.2726 15.8567 68.1936 15.8567 68.1418 15.8567C68.1159 15.8567 68.0369 15.8567 67.958 15.8567C67.6965 15.8567 67.4338 15.8827 67.2253 16.0142C67.0156 16.1197 66.8318 16.2772 66.5962 16.4881V19.7767C66.5962 19.856 66.5703 19.9354 66.4384 19.9354H66.2817Z" fill="white"/>
<path d="M70.7354 19.9875C70.3679 19.9875 70.1064 19.882 69.9226 19.6984C69.74 19.5136 69.6352 19.2506 69.6352 18.8822V15.9087H68.9272C68.8494 15.9087 68.7705 15.8827 68.7705 15.7512V15.6718C68.7705 15.6457 68.7705 15.5936 68.7964 15.5664C68.7964 15.5403 68.8224 15.5403 68.9013 15.5403L69.6352 15.4621L69.713 14.2775C69.713 14.2514 69.74 14.1981 69.74 14.1721C69.7659 14.146 69.7659 14.146 69.8449 14.146H70.0016C70.0805 14.146 70.1583 14.1721 70.1583 14.3036V15.4882H71.4423C71.5212 15.4882 71.599 15.5143 71.599 15.6458V15.8305C71.599 15.9087 71.5731 15.9881 71.4423 15.9881H70.1583V18.9615C70.1583 19.2245 70.1853 19.356 70.3161 19.4875C70.4209 19.593 70.6036 19.6451 70.8403 19.6451C71.0229 19.6451 71.1807 19.6451 71.2856 19.619C71.3634 19.619 71.3893 19.593 71.4423 19.593C71.4682 19.593 71.5212 19.593 71.5212 19.593C71.599 19.593 71.626 19.619 71.626 19.6984V19.856C71.626 19.9614 71.599 20.0135 71.5212 20.0396C71.2856 19.9353 71.0488 19.9875 70.7354 19.9875Z" fill="white"/>
<path d="M72.7272 19.9346C72.6482 19.9346 72.5693 19.9074 72.5693 19.7759V15.5396C72.5693 15.4613 72.5964 15.382 72.7272 15.382H72.9109C73.0146 15.382 73.0676 15.4081 73.0676 15.5396L73.0936 15.908C73.3822 15.6971 73.6696 15.5396 74.0101 15.4341C74.3517 15.3287 74.6391 15.2505 74.9277 15.2505C75.373 15.2505 75.6875 15.3559 75.9232 15.5928C76.1328 15.8026 76.2636 16.1449 76.2636 16.6188V19.7498C76.2636 19.8291 76.2377 19.9073 76.1058 19.9073H75.8442C75.7653 19.9073 75.6875 19.8813 75.6875 19.7498V16.8817C75.6875 16.4872 75.6086 16.2243 75.4779 16.0395C75.32 15.8558 75.0844 15.7765 74.7699 15.7765C74.1938 15.7765 73.5918 15.9613 73.0417 16.3558V19.8291C73.0417 19.9073 73.0146 19.9867 72.8839 19.9867H72.7012V19.9346H72.7272Z" fill="white"/>
<path d="M79.5367 20.0391C78.8298 20.0391 78.2797 19.8555 77.9652 19.461C77.5977 19.0665 77.415 18.4612 77.415 17.645C77.415 16.9081 77.5977 16.3289 77.9652 15.9083C78.3316 15.5138 78.8558 15.2769 79.4578 15.2769C80.0079 15.2769 80.4013 15.4344 80.7159 15.7507C81.0033 16.0398 81.1612 16.4876 81.1612 17.0657C81.1612 17.2765 81.1612 17.4613 81.1341 17.6189C81.1341 17.6971 81.0563 17.7765 80.9774 17.7765H77.9652C77.9652 18.4079 78.1219 18.8817 78.3575 19.1708C78.6202 19.461 79.0655 19.6186 79.6156 19.6186C80.0609 19.6186 80.4532 19.5392 80.8207 19.4077C80.8985 19.3817 80.9774 19.3816 80.9774 19.3816C81.0033 19.3816 81.0033 19.3817 81.0563 19.4077C81.0563 19.4338 81.0822 19.4338 81.0822 19.4871V19.6447C81.0822 19.7501 81.0563 19.8022 80.9774 19.8294C80.5062 19.9349 80.0609 20.0391 79.5367 20.0391ZM80.6369 17.3559C80.6369 17.2765 80.6369 17.1711 80.6369 17.0657C80.6369 16.619 80.5321 16.3289 80.3483 16.1191C80.1387 15.9083 79.8253 15.7768 79.4318 15.7768C78.4882 15.7768 77.9911 16.3028 77.9392 17.3559H80.6369Z" fill="white"/>
<path d="M82.3667 19.9354C82.2877 19.9354 82.21 19.9082 82.21 19.7767V15.5404C82.21 15.4622 82.2359 15.3828 82.3667 15.3828H82.5504C82.6553 15.3828 82.7071 15.4089 82.7071 15.5404L82.733 16.0664C82.9427 15.8034 83.1783 15.6197 83.388 15.5404C83.5977 15.435 83.8604 15.3828 84.1219 15.3828C84.2268 15.3828 84.3057 15.3828 84.3316 15.3828C84.4105 15.3828 84.4883 15.4089 84.4883 15.5404V15.7512C84.4883 15.7773 84.4883 15.7773 84.4624 15.8295C84.4624 15.8567 84.4364 15.8567 84.3835 15.8567C84.3316 15.8567 84.2786 15.8567 84.2268 15.8567C84.2008 15.8567 84.1219 15.8567 84.043 15.8567C83.7815 15.8567 83.5199 15.8827 83.3102 16.0142C83.1006 16.1197 82.9168 16.2772 82.6812 16.4881V19.7767C82.6812 19.856 82.6552 19.9354 82.5245 19.9354H82.3667Z" fill="white"/>
<path d="M56.6167 29.8522C56.5389 29.8522 56.46 29.8261 56.46 29.6946V25.4844C56.46 25.4062 56.4859 25.3268 56.6167 25.3268H56.8004C56.9053 25.3268 56.9571 25.3529 56.9571 25.4844L56.9842 25.8528C57.2717 25.642 57.5602 25.4844 57.9007 25.379C58.2411 25.2735 58.5297 25.1953 58.8172 25.1953C59.2625 25.1953 59.577 25.3007 59.8126 25.5377C60.0223 25.7474 60.1531 26.0897 60.1531 26.5636V29.6946C60.1531 29.7739 60.1272 29.8522 59.9964 29.8522H59.7337C59.656 29.8522 59.577 29.8261 59.577 29.6946V26.7744C59.577 26.3788 59.4981 26.1158 59.3674 25.9321C59.2107 25.7474 58.9751 25.6692 58.6605 25.6692C58.0845 25.6692 57.4813 25.8528 56.9312 26.2473V29.7207C56.9312 29.8 56.9053 29.8794 56.7745 29.8794H56.5907V29.8522H56.6167Z" fill="white"/>
<path d="M63.4527 29.984C62.7447 29.984 62.1957 29.8003 61.8812 29.4058C61.5137 29.0113 61.3311 28.406 61.3311 27.5898C61.3311 26.8529 61.5137 26.2748 61.8812 25.8531C62.2476 25.4586 62.7718 25.2217 63.3738 25.2217C63.9239 25.2217 64.3174 25.3793 64.6319 25.6955C64.9194 25.9846 65.0772 26.4324 65.0772 27.0117C65.0772 27.2214 65.0772 27.4062 65.0501 27.5637C65.0501 27.6431 64.9723 27.7213 64.8934 27.7213H61.8812C61.8812 28.3527 62.0379 28.8265 62.2735 29.1156C62.5362 29.4058 62.9815 29.5634 63.5316 29.5634C63.9769 29.5634 64.3692 29.484 64.7356 29.3525C64.8145 29.3265 64.8934 29.3265 64.8934 29.3265C64.9194 29.3265 64.9194 29.3265 64.9723 29.3525C64.9723 29.3797 64.9983 29.3798 64.9983 29.4319V29.5895C64.9983 29.6949 64.9723 29.7482 64.8934 29.7743C64.4481 29.8797 63.9499 29.984 63.4527 29.984ZM64.553 27.2746C64.553 27.1953 64.553 27.0899 64.553 26.9844C64.553 26.5378 64.4481 26.2476 64.2644 26.0379C64.0547 25.827 63.7402 25.6955 63.3479 25.6955C62.4043 25.6955 61.9071 26.2215 61.8541 27.2746H64.553Z" fill="white"/>
<path d="M67.5646 29.9322C67.1971 29.9322 66.9355 29.8268 66.7517 29.6431C66.5691 29.4583 66.4643 29.1953 66.4643 28.8269V25.8013H65.7563C65.6785 25.8013 65.5996 25.7753 65.5996 25.6438V25.5644C65.5996 25.5383 65.5996 25.485 65.6255 25.459C65.6255 25.4329 65.6515 25.4329 65.7304 25.4329L66.4643 25.3535L66.5421 24.1701C66.5421 24.144 66.5691 24.0907 66.5691 24.0646C66.595 24.0386 66.5951 24.0386 66.6728 24.0386H66.8307C66.9096 24.0386 66.9874 24.0646 66.9874 24.1961V25.3808H68.2714C68.3503 25.3808 68.4281 25.4068 68.4281 25.5383V25.722C68.4281 25.8013 68.4022 25.8807 68.2714 25.8807H67.0144V28.8541C67.0144 29.1171 67.0403 29.2486 67.1711 29.3801C67.3019 29.5116 67.4597 29.5377 67.6953 29.5377C67.878 29.5377 68.0358 29.5377 68.1406 29.5116C68.2184 29.5116 68.2455 29.4855 68.2973 29.4855C68.3233 29.4855 68.3762 29.4855 68.3762 29.4855C68.4551 29.4855 68.4811 29.5116 68.4811 29.5898V29.7486C68.4811 29.854 68.4551 29.9061 68.3762 29.9322C68.1147 29.88 67.852 29.9322 67.5646 29.9322Z" fill="white"/>
<path d="M70.4461 29.8527C70.3672 29.8527 70.2894 29.8266 70.2623 29.7484L68.8746 25.5903C68.8486 25.511 68.8486 25.4849 68.8486 25.4328C68.8486 25.3795 68.8746 25.3534 68.9535 25.3534H69.241C69.3199 25.3534 69.3458 25.3795 69.3988 25.4588L70.6028 29.2485L71.6771 25.4588C71.703 25.3795 71.756 25.3534 71.8609 25.3534H72.2013C72.2802 25.3534 72.358 25.3795 72.3851 25.4588L73.4583 29.2485L74.7164 25.4067C74.7423 25.3273 74.7942 25.3013 74.8731 25.3013H75.1346C75.2136 25.3013 75.2395 25.3273 75.2395 25.3795C75.2395 25.4067 75.2395 25.4588 75.2136 25.5382L73.7469 29.6951C73.721 29.7745 73.668 29.8005 73.5631 29.8005H73.2757C73.1968 29.8005 73.1179 29.7745 73.0919 29.6951L72.0176 25.9066L70.9443 29.6951C70.9173 29.7745 70.8654 29.8005 70.7606 29.8005H70.4991V29.8527H70.4461Z" fill="white"/>
<path d="M77.835 29.9837C77.18 29.9837 76.6569 29.7739 76.2894 29.3522C75.923 28.9577 75.7393 28.3524 75.7393 27.5895C75.7393 26.8526 75.923 26.2745 76.2894 25.8267C76.6569 25.4322 77.18 25.1953 77.835 25.1953C78.4899 25.1953 79.0142 25.4062 79.3805 25.8267C79.7481 26.2212 79.9307 26.8266 79.9307 27.5895C79.9307 28.3263 79.7481 28.9056 79.3805 29.3522C78.9882 29.7739 78.4899 29.9837 77.835 29.9837ZM77.835 29.511C78.8575 29.511 79.3805 28.8795 79.3805 27.5895C79.3805 26.3006 78.8575 25.6692 77.835 25.6692C76.8136 25.6692 76.2894 26.3006 76.2894 27.5895C76.2894 28.8795 76.7877 29.511 77.835 29.511Z" fill="white"/>
<path d="M81.1861 29.852C81.1072 29.852 81.0283 29.8259 81.0283 29.6944V25.4842C81.0283 25.406 81.0554 25.3267 81.1861 25.3267H81.3688C81.4736 25.3267 81.5266 25.3527 81.5266 25.4842L81.5525 26.0102C81.7622 25.7472 81.9978 25.5636 82.2075 25.4842C82.4172 25.3788 82.6787 25.3267 82.9414 25.3267C83.0463 25.3267 83.124 25.3267 83.15 25.3267C83.2289 25.3267 83.3078 25.3527 83.3078 25.4842V25.6951C83.3078 25.7212 83.3078 25.7212 83.2819 25.7744C83.2548 25.8005 83.2548 25.8005 83.2029 25.8005C83.177 25.8005 83.0981 25.8005 83.0462 25.8005C83.0192 25.8005 82.9414 25.8005 82.8625 25.8005C82.6009 25.8005 82.3383 25.8266 82.1286 25.9581C81.9189 26.0635 81.7363 26.2211 81.5007 26.4319V29.7205C81.5007 29.7999 81.4736 29.8792 81.3429 29.8792H81.1602V29.852H81.1861Z" fill="white"/>
<path d="M84.2495 29.8528C84.1717 29.8528 84.0928 29.8268 84.0928 29.6953V23.3539C84.0928 23.2745 84.1187 23.1963 84.2495 23.1963H84.5122C84.5911 23.1963 84.6688 23.2224 84.6688 23.3539V27.3532L86.7905 25.4329C86.8694 25.3536 86.9483 25.3535 87.0002 25.3535H87.3406C87.4195 25.3535 87.4455 25.3796 87.4455 25.4329C87.4455 25.485 87.4195 25.5111 87.3406 25.5905L85.1671 27.5119L87.5244 29.6953C87.5503 29.7213 87.6033 29.7746 87.6033 29.8007C87.6033 29.88 87.5774 29.88 87.4985 29.88H87.1309C87.0532 29.88 86.9742 29.8528 86.9483 29.8007L84.6688 27.6695V29.7213C84.6688 29.8007 84.6429 29.88 84.5122 29.88H84.2495V29.8528Z" fill="white"/>
<path d="M16.0444 41.2479C15.5468 41.0631 15.1801 40.8273 14.9705 40.5632C14.761 40.3002 14.6562 39.9591 14.6562 39.5374C14.6562 39.0114 14.8395 38.5909 15.2325 38.2747C15.6253 37.9584 16.1493 37.8009 16.8041 37.8009C17.354 37.8009 17.878 37.9063 18.4018 38.1171V39.0636C17.8517 38.906 17.3541 38.8006 16.8826 38.8006C16.2278 38.8006 15.8873 39.0115 15.8873 39.432C15.8873 39.5907 15.9397 39.7222 16.0444 39.8264C16.1493 39.9319 16.385 40.0373 16.6992 40.1427L17.3279 40.3796C17.8517 40.5632 18.2184 40.8001 18.428 41.037C18.6375 41.3 18.7685 41.6162 18.7685 42.0368C18.7685 42.616 18.5589 43.0637 18.1398 43.4049C17.7207 43.7472 17.1708 43.9048 16.4374 43.9048C16.123 43.9048 15.8087 43.8787 15.4943 43.8266C15.1801 43.7733 14.9181 43.6951 14.6824 43.5897V42.616C14.9705 42.6953 15.2586 42.7736 15.573 42.8268C15.8873 42.879 16.1754 42.905 16.4374 42.905C16.7778 42.905 17.0136 42.8529 17.1969 42.7214C17.3803 42.5899 17.4589 42.4312 17.4589 42.1955C17.4589 42.0107 17.4065 41.8792 17.3017 41.7738C17.1969 41.6684 16.9612 41.563 16.6468 41.4315L16.0444 41.2479ZM20.6543 41.9586C20.6802 42.327 20.785 42.5899 20.9947 42.7736C21.2043 42.9311 21.5188 43.0105 21.9382 43.0105C22.3045 43.0105 22.7498 42.9311 23.248 42.7996V43.6158C23.0643 43.7212 22.8287 43.7994 22.5401 43.8527C22.2786 43.9048 21.99 43.932 21.7026 43.932C20.9947 43.932 20.4446 43.7472 20.0781 43.3528C19.7114 42.9583 19.5281 42.4052 19.5281 41.6423C19.5281 40.9316 19.7114 40.3796 20.0781 39.9591C20.4446 39.5635 20.9688 39.3538 21.6237 39.3538C22.1738 39.3538 22.5931 39.5113 22.9065 39.8264C23.195 40.1427 23.3517 40.5632 23.3517 41.1424C23.3517 41.2739 23.3517 41.4054 23.3258 41.563C23.2999 41.7217 23.2999 41.8531 23.2739 41.9586H20.6543ZM21.5448 40.222C21.2573 40.222 21.0477 40.3002 20.8898 40.4589C20.7332 40.6165 20.6542 40.8534 20.6283 41.1685H22.2786V41.037C22.2786 40.485 22.043 40.222 21.5448 40.222ZM26.1551 43.7212C25.9195 43.8266 25.6569 43.8527 25.3954 43.8527C24.6356 43.8527 24.2693 43.4321 24.2693 42.5899V37.564H25.5002V42.4845C25.5002 42.6421 25.5261 42.7475 25.5791 42.8268C25.631 42.879 25.7099 42.9311 25.8406 42.9311C25.9196 42.9311 26.0244 42.9311 26.1551 42.905V43.7212ZM27.9102 41.9586C27.9362 42.327 28.041 42.5899 28.2507 42.7736C28.4603 42.9311 28.7737 43.0105 29.193 43.0105C29.5605 43.0105 30.0058 42.9311 30.5029 42.7996V43.6158C30.3191 43.7212 30.0835 43.7994 29.7961 43.8527C29.5335 43.9048 29.246 43.932 28.9574 43.932C28.2507 43.932 27.7006 43.7472 27.3331 43.3528C26.9667 42.9583 26.783 42.4052 26.783 41.6423C26.783 40.9316 26.9667 40.3796 27.3331 39.9591C27.7006 39.5635 28.2236 39.3538 28.8785 39.3538C29.4286 39.3538 29.848 39.5113 30.1625 39.8264C30.451 40.1427 30.6077 40.5632 30.6077 41.1424C30.6077 41.2739 30.6077 41.4054 30.5818 41.563C30.5559 41.7217 30.5559 41.8531 30.5288 41.9586H27.9102ZM28.8267 40.222C28.5381 40.222 28.3284 40.3002 28.1718 40.4589C28.0151 40.6165 27.9362 40.8534 27.9102 41.1685H29.5605V41.037C29.5335 40.485 29.2979 40.222 28.8267 40.222ZM34.615 43.6158C34.4583 43.6951 34.2746 43.7733 34.0649 43.8266C33.8553 43.8787 33.6197 43.9048 33.41 43.9048C32.7292 43.9048 32.205 43.7212 31.8386 43.3267C31.4723 42.9311 31.2886 42.3791 31.2886 41.6684C31.2886 40.9588 31.4723 40.4057 31.8646 40.0112C32.258 39.6167 32.7821 39.4059 33.4371 39.4059C33.8553 39.4059 34.2227 39.4853 34.5632 39.6689V40.485C34.2227 40.3796 33.9342 40.3535 33.6456 40.3535C33.2533 40.3535 32.9647 40.4589 32.7821 40.6426C32.5984 40.8534 32.5195 41.1685 32.5195 41.5902V41.7217C32.5195 42.1422 32.5984 42.4584 32.7821 42.6681C32.9647 42.879 33.2533 42.9583 33.6197 42.9583C33.8823 42.9583 34.2227 42.905 34.5632 42.7996V43.6158H34.615ZM38.0204 43.6951C37.7059 43.7994 37.3914 43.8787 36.9991 43.8787C36.5268 43.8787 36.1605 43.7733 35.9508 43.5364C35.7152 43.2995 35.6104 42.9583 35.6104 42.4845V40.4057H34.9554V39.6428L35.6363 39.5113L35.82 38.3268H36.8154V39.4853H37.9674V40.4057H36.8154V42.4312C36.8154 42.616 36.8684 42.7475 36.9461 42.8268C37.025 42.905 37.1817 42.9311 37.3914 42.9311C37.5751 42.9311 37.7589 42.9051 37.9945 42.879V43.6951H38.0204Z" fill="white"/>
<path d="M41.0769 43.2335C41.0273 43.2335 41.0061 43.2129 41.0061 43.1652V40.2611H39.9731C39.9236 40.2611 39.9023 40.2405 39.9023 40.1926V40.0833C39.9023 40.0356 39.9236 40.015 39.9731 40.015H42.3223C42.3716 40.015 42.3929 40.0356 42.3929 40.0833V40.1926C42.3929 40.2405 42.3716 40.2611 42.3223 40.2611H41.2891V43.1652C41.2891 43.2129 41.2679 43.2335 41.2184 43.2335H41.0769ZM43.8789 43.3018C43.4967 43.3018 43.2136 43.1994 43.0156 42.9874C42.8244 42.7757 42.7254 42.4681 42.7254 42.058C42.7254 41.6686 42.8244 41.368 43.0156 41.1493C43.2136 40.9306 43.4824 40.8281 43.8292 40.8281C44.1194 40.8281 44.3457 40.9103 44.5013 41.0675C44.6572 41.2314 44.7348 41.4569 44.7348 41.7575C44.7348 41.8805 44.7278 41.9762 44.7135 42.0377C44.7065 42.0854 44.6782 42.106 44.6289 42.106H43.0013C43.0013 42.434 43.0793 42.673 43.2209 42.8234C43.3621 42.9806 43.5887 43.0557 43.8929 43.0557C44.1264 43.0557 44.3457 43.0148 44.5509 42.9397C44.5932 42.9259 44.6215 42.9191 44.6359 42.9191C44.6499 42.9191 44.6572 42.9259 44.6712 42.9326C44.6782 42.9465 44.6855 42.9533 44.6855 42.9739V43.0422C44.6855 43.0898 44.6712 43.124 44.6289 43.1378C44.4093 43.247 44.1548 43.3018 43.8789 43.3018ZM44.473 41.8941C44.473 41.8532 44.4803 41.7984 44.4803 41.7439C44.4803 41.5184 44.4236 41.3545 44.3104 41.2382C44.1971 41.1219 44.0345 41.0675 43.8149 41.0675C43.3055 41.0675 43.0366 41.3474 43.0083 41.9008H44.473V41.8941ZM46.355 43.288C45.9872 43.288 45.7043 43.1855 45.5061 42.9806C45.3152 42.7757 45.2159 42.4681 45.2159 42.0719C45.2159 41.6753 45.3152 41.3748 45.5061 41.1631C45.7043 40.9512 45.9872 40.8487 46.355 40.8487C46.532 40.8487 46.7019 40.8761 46.8575 40.9376C46.8928 40.9512 46.9141 40.9853 46.9141 41.0333V41.1016C46.9141 41.1425 46.8928 41.1631 46.8575 41.1631C46.8505 41.1631 46.8361 41.1631 46.8221 41.1561C46.8078 41.1493 46.7868 41.1493 46.7515 41.1425C46.6239 41.1151 46.4966 41.0945 46.3694 41.0945C46.0652 41.0945 45.8456 41.1699 45.7113 41.32C45.5768 41.4705 45.5061 41.7098 45.5061 42.0445V42.0993C45.5061 42.4204 45.5768 42.6595 45.7113 42.8099C45.8456 42.96 46.0652 43.0422 46.3623 43.0422C46.4896 43.0422 46.6239 43.0216 46.7798 42.9806C46.8151 42.9739 46.8361 42.9671 46.8505 42.96C46.8645 42.9533 46.8788 42.9533 46.8858 42.9533C46.9211 42.9533 46.9424 42.9739 46.9424 43.0148V43.0831C46.9424 43.1311 46.9281 43.1652 46.8928 43.1788C46.7302 43.247 46.5463 43.288 46.355 43.288ZM47.5934 43.2335C47.5438 43.2335 47.5225 43.2129 47.5225 43.1652V39.8646C47.5225 39.8169 47.5438 39.7963 47.5934 39.7963H47.7207C47.7703 39.7963 47.7914 39.8169 47.7914 39.8646V41.1631C47.9473 41.0604 48.1099 40.9785 48.2868 40.917C48.4567 40.8555 48.6263 40.8281 48.7892 40.8281C49.0224 40.8281 49.1993 40.8896 49.3269 41.0059C49.4542 41.1219 49.5108 41.2997 49.5108 41.532V43.1652C49.5108 43.2129 49.4895 43.2335 49.4399 43.2335H49.3126C49.2633 43.2335 49.242 43.2129 49.242 43.1652V41.6483C49.242 41.4499 49.1993 41.2997 49.1217 41.2108C49.0437 41.1219 48.9165 41.0742 48.7396 41.0742C48.421 41.0742 48.1099 41.1699 47.8057 41.368V43.1652C47.8057 43.2129 47.7843 43.2335 47.7347 43.2335H47.5934ZM50.3245 43.2335C50.2748 43.2335 50.2538 43.2129 50.2538 43.1652V40.9647C50.2538 40.917 50.2748 40.8964 50.3245 40.8964H50.4234C50.473 40.8964 50.5014 40.917 50.5084 40.9647L50.5297 41.1631C50.6853 41.0536 50.8552 40.9718 51.0248 40.9103C51.1947 40.8487 51.3646 40.8214 51.5272 40.8214C51.7608 40.8214 51.9377 40.8829 52.065 40.9989C52.1922 41.1151 52.2489 41.293 52.2489 41.5252V43.1652C52.2489 43.2129 52.2279 43.2335 52.1782 43.2335H52.0509C52.0013 43.2335 51.98 43.2129 51.98 43.1652V41.6483C51.98 41.4499 51.9377 41.2997 51.8597 41.2108C51.7821 41.1219 51.6545 41.0742 51.4779 41.0742C51.1594 41.0742 50.8482 41.1699 50.5437 41.368V43.1652C50.5437 43.2129 50.5227 43.2335 50.473 43.2335H50.3245ZM53.9754 43.3018C53.6215 43.3018 53.3457 43.1926 53.1547 42.9739C52.9565 42.7551 52.8646 42.4475 52.8646 42.058C52.8646 41.6686 52.9635 41.368 53.1547 41.1493C53.3527 40.9306 53.6285 40.8214 53.9754 40.8214C54.3292 40.8214 54.6051 40.9306 54.796 41.1493C54.9942 41.368 55.0932 41.6686 55.0932 42.058C55.0932 42.4475 54.9942 42.7551 54.796 42.9739C54.6051 43.1926 54.3292 43.3018 53.9754 43.3018ZM53.9754 43.0625C54.5271 43.0625 54.8103 42.7278 54.8103 42.0651C54.8103 41.4022 54.5344 41.0742 53.9754 41.0742C53.4236 41.0742 53.1404 41.4022 53.1404 42.0651C53.1404 42.7278 53.4163 43.0625 53.9754 43.0625ZM56.1263 43.247C55.999 43.247 55.8998 43.2129 55.8291 43.1378C55.7585 43.0628 55.7229 42.9671 55.7229 42.8302V39.8578C55.7229 39.8102 55.7442 39.7896 55.7938 39.7896H55.9211C55.9707 39.7896 55.9917 39.8102 55.9917 39.8578V42.8234C55.9917 42.8917 56.006 42.9397 56.0344 42.9671C56.0627 42.9942 56.112 43.008 56.183 43.008C56.2043 43.008 56.2253 43.008 56.2466 43.0012C56.2679 43.0012 56.2889 42.9942 56.3032 42.9942C56.3456 42.9942 56.3739 43.0148 56.3739 43.0625V43.1514C56.3739 43.1926 56.3529 43.2129 56.3102 43.2197C56.2536 43.2403 56.197 43.247 56.1263 43.247ZM57.9094 43.3018C57.5556 43.3018 57.2794 43.1926 57.0885 42.9739C56.8903 42.7551 56.7983 42.4475 56.7983 42.058C56.7983 41.6686 56.8976 41.368 57.0885 41.1493C57.2868 40.9306 57.5626 40.8214 57.9094 40.8214C58.263 40.8214 58.5392 40.9306 58.7301 41.1493C58.9283 41.368 59.0273 41.6686 59.0273 42.058C59.0273 42.4475 58.9283 42.7551 58.7301 42.9739C58.5392 43.1926 58.263 43.3018 57.9094 43.3018ZM57.9094 43.0625C58.4612 43.0625 58.7441 42.7278 58.7441 42.0651C58.7441 41.4022 58.4682 41.0742 57.9094 41.0742C57.3574 41.0742 57.0745 41.4022 57.0745 42.0651C57.0815 42.7278 57.3574 43.0625 57.9094 43.0625ZM60.5059 44.2447C60.3716 44.2447 60.237 44.2312 60.1097 44.2038C59.9825 44.1764 59.8692 44.1423 59.7702 44.0946C59.7349 44.0807 59.7136 44.0466 59.7136 43.9989V43.9303C59.7136 43.8894 59.7276 43.8691 59.7702 43.8691C59.7772 43.8691 59.7912 43.8691 59.7985 43.8758C59.8126 43.8758 59.8339 43.8826 59.8622 43.8962C60.0884 43.9645 60.3007 44.0057 60.4849 44.0057C60.7821 44.0057 61.0013 43.9374 61.1429 43.7937C61.2842 43.6503 61.3551 43.4249 61.3551 43.1172V42.8917C61.2349 42.9874 61.1073 43.0625 60.9587 43.1172C60.8174 43.172 60.6758 43.1994 60.5485 43.1994C60.237 43.1994 59.9965 43.0898 59.8055 42.8782C59.6216 42.6662 59.5297 42.3863 59.5297 42.0377C59.5297 41.6618 59.6216 41.368 59.8055 41.1493C59.9895 40.9306 60.2443 40.8214 60.5625 40.8214C60.8667 40.8214 61.1286 40.9238 61.3621 41.129L61.3834 40.9579C61.3904 40.9103 61.4188 40.8897 61.4681 40.8897H61.5674C61.6167 40.8897 61.638 40.9103 61.638 40.9579V43.1172C61.638 43.4793 61.539 43.7596 61.3478 43.9509C61.1569 44.1423 60.8667 44.2447 60.5059 44.2447ZM60.6122 42.96C60.8527 42.96 61.1003 42.8644 61.3551 42.6662V41.3748C61.2205 41.2723 61.1003 41.1902 60.973 41.1425C60.8527 41.0945 60.7181 41.0675 60.5838 41.0675C60.329 41.0675 60.1311 41.1493 60.0038 41.3065C59.8762 41.4705 59.8125 41.7027 59.8125 42.0239C59.8125 42.3248 59.8835 42.557 60.0178 42.721C60.1524 42.885 60.3503 42.96 60.6122 42.96ZM62.4659 44.2447C62.388 44.2447 62.3173 44.2312 62.2467 44.2106C62.1971 44.197 62.1757 44.1696 62.1757 44.1149V44.0466C62.1757 44.0057 62.1971 43.9851 62.2324 43.9851C62.2537 43.9851 62.2677 43.9851 62.282 43.9918C62.296 43.9918 62.3173 43.9989 62.3457 43.9989C62.374 43.9989 62.4023 43.9989 62.4446 43.9989C62.5509 43.9989 62.6358 43.9715 62.6995 43.9168C62.7631 43.862 62.8198 43.7663 62.8764 43.6297L63.039 43.2403L62.0908 40.9921C62.0768 40.9647 62.0698 40.9444 62.0698 40.9306C62.0698 40.8964 62.0908 40.8761 62.1261 40.8761H62.282C62.3243 40.8761 62.3527 40.8964 62.367 40.9376L63.1733 42.9326L63.9872 40.9376C64.0012 40.8964 64.0295 40.8761 64.0721 40.8761H64.2134C64.2488 40.8761 64.2701 40.8896 64.2701 40.9306C64.2701 40.9376 64.2631 40.9579 64.2488 40.9921L63.1169 43.7119C63.039 43.9032 62.947 44.033 62.8481 44.1149C62.7488 44.2106 62.6215 44.2447 62.4659 44.2447Z" fill="white"/>
<path d="M66.5747 44.1521C66.5114 44.1521 66.4844 44.1246 66.4844 44.0596V39.8821C66.4844 39.8175 66.5114 39.7896 66.5747 39.7896H67.9466C68.3346 39.7896 68.6415 39.9101 68.8765 40.1415C69.1111 40.3733 69.2195 40.6882 69.2195 41.0864C69.2195 41.4754 69.1022 41.7903 68.8765 42.0217C68.6415 42.2535 68.3346 42.3737 67.9466 42.3737H66.8364V44.0596C66.8364 44.1246 66.8093 44.1521 66.7462 44.1521H66.5747ZM67.9376 42.0405C68.5424 42.0405 68.8493 41.7256 68.8493 41.0864C68.8493 40.4471 68.5424 40.1231 67.9376 40.1231H66.8364V42.0405H67.9376ZM70.7267 44.2264C70.447 44.2264 70.2213 44.143 70.0496 43.9762C69.8872 43.8094 69.7971 43.5871 69.7971 43.3094C69.7971 43.0037 69.8962 42.7627 70.104 42.5867C70.3114 42.4108 70.5915 42.3182 70.9434 42.3182C71.2142 42.3182 71.5121 42.3645 71.819 42.4666V41.9387C71.819 41.6794 71.7557 41.5034 71.6384 41.3921C71.5211 41.2807 71.3226 41.2253 71.0518 41.2253C70.7717 41.2253 70.4738 41.2807 70.158 41.3829C70.1219 41.392 70.0857 41.4012 70.0679 41.4012C70.0317 41.4012 70.0046 41.3737 70.0046 41.3178V41.2161C70.0046 41.179 70.0135 41.1606 70.0228 41.1419C70.0317 41.1235 70.0589 41.1047 70.0857 41.0956C70.4109 40.9659 70.7539 40.9012 71.1147 40.9012C71.476 40.9012 71.7378 40.9751 71.9181 41.1327C72.0987 41.2903 72.1799 41.5217 72.1799 41.8366V44.0596C72.1799 44.1246 72.1527 44.1521 72.0898 44.1521H71.9631C71.9002 44.1521 71.873 44.1246 71.8641 44.0596L71.8369 43.791C71.476 44.0779 71.1058 44.2264 70.7267 44.2264ZM70.7717 43.8928C70.9252 43.8928 71.0969 43.8652 71.2771 43.8002C71.4577 43.7355 71.6384 43.643 71.8279 43.5225V42.7352C71.5572 42.661 71.2864 42.6238 71.0336 42.6238C70.4649 42.6238 70.1762 42.8461 70.1762 43.3002C70.1762 43.4945 70.2302 43.643 70.3297 43.7447C70.4198 43.8465 70.5732 43.8928 70.7717 43.8928ZM73.2089 44.1521C73.1456 44.1521 73.1188 44.1246 73.1188 44.0596V41.0772C73.1188 41.0122 73.1456 40.9846 73.2089 40.9846H73.3262C73.3895 40.9846 73.4256 41.0122 73.4346 41.0772L73.4618 41.4475C73.6152 41.2715 73.7686 41.1419 73.9221 41.0772C74.0755 41.003 74.2379 40.9659 74.4274 40.9659C74.4908 40.9659 74.5448 40.9659 74.5898 40.9751C74.6531 40.9751 74.6803 41.0122 74.6803 41.0772V41.2344C74.6803 41.2532 74.671 41.2715 74.6621 41.2807C74.6531 41.2995 74.6349 41.2995 74.617 41.2995C74.5809 41.2995 74.5537 41.2995 74.5269 41.2995C74.4997 41.2995 74.4546 41.2995 74.4003 41.2995C74.2107 41.2995 74.0483 41.3366 73.9038 41.4104C73.7597 41.4846 73.6152 41.596 73.4886 41.7532V44.0687C73.4886 44.1338 73.4618 44.1613 73.3984 44.1613H73.2089V44.1521ZM76.1786 44.1892C75.935 44.1892 75.7544 44.1246 75.6278 43.9949C75.5015 43.8652 75.4386 43.6705 75.4386 43.4203V41.3087H74.9511C74.8878 41.3087 74.8606 41.2807 74.8606 41.2161V41.1514C74.8606 41.1143 74.8699 41.0956 74.8788 41.0772C74.8878 41.0585 74.915 41.0493 74.9511 41.0493L75.4475 41.003L75.4926 40.1694C75.4926 40.1323 75.5015 40.114 75.5198 40.0952C75.5376 40.0769 75.5559 40.0769 75.5827 40.0769H75.6911C75.7544 40.0769 75.7816 40.1048 75.7816 40.1694V40.9938H76.675C76.7383 40.9938 76.7651 41.0218 76.7651 41.0864V41.2161C76.7651 41.2807 76.7383 41.3087 76.675 41.3087H75.7816V43.402C75.7816 43.5779 75.8173 43.6984 75.8896 43.7631C75.9618 43.8373 76.0791 43.8744 76.2508 43.8744C76.3681 43.8744 76.4765 43.8652 76.5666 43.8465C76.6117 43.8373 76.6478 43.8281 76.675 43.8281C76.7022 43.8189 76.7201 43.8189 76.7383 43.8189C76.7834 43.8189 76.8102 43.8465 76.8102 43.8928V43.9853C76.8102 44.0596 76.7923 44.0967 76.7383 44.115C76.5756 44.1613 76.386 44.1892 76.1786 44.1892ZM77.5417 44.1521C77.4783 44.1521 77.4511 44.1246 77.4511 44.0596V41.0772C77.4511 41.0122 77.4783 40.9846 77.5417 40.9846H77.6679C77.7312 40.9846 77.7673 41.0122 77.7763 41.0772L77.8031 41.3458C78.002 41.1977 78.2183 41.0864 78.4351 41.003C78.6518 40.9196 78.8682 40.8825 79.076 40.8825C79.374 40.8825 79.5997 40.9659 79.762 41.1235C79.9244 41.2807 79.9967 41.5217 79.9967 41.8366V44.0596C79.9967 44.1246 79.9695 44.1521 79.9065 44.1521H79.7438C79.6809 44.1521 79.6537 44.1246 79.6537 44.0596V42.0034C79.6537 41.7348 79.5997 41.5309 79.5002 41.4104C79.4008 41.2903 79.2384 41.2253 79.0127 41.2253C78.6068 41.2253 78.2094 41.3549 77.8213 41.6235V44.0596C77.8213 44.1246 77.7942 44.1521 77.7312 44.1521H77.5417ZM82.2442 44.2447C81.7567 44.2447 81.3959 44.1058 81.143 43.8189C80.8994 43.5316 80.7728 43.1147 80.7728 42.5592C80.7728 42.0313 80.8994 41.6235 81.143 41.3274C81.3959 41.0309 81.7389 40.8921 82.1809 40.8921C82.5511 40.8921 82.8397 41.003 83.0386 41.2161C83.2371 41.4383 83.3362 41.744 83.3362 42.1514C83.3362 42.3182 83.3272 42.4479 83.3094 42.5313C83.3004 42.5963 83.2643 42.6238 83.201 42.6238H81.1251C81.1251 43.0684 81.2242 43.3928 81.4048 43.5963C81.5854 43.8094 81.874 43.9115 82.2621 43.9115C82.5601 43.9115 82.8397 43.8557 83.1015 43.7539C83.1559 43.7355 83.1921 43.726 83.2099 43.726C83.2282 43.726 83.2371 43.7355 83.255 43.7447C83.2643 43.7631 83.2732 43.7723 83.2732 43.8002V43.8928C83.2732 43.9578 83.255 44.0041 83.201 44.0224C82.9213 44.1709 82.5962 44.2447 82.2442 44.2447ZM83.0025 42.3369C83.0025 42.2811 83.0114 42.2073 83.0114 42.133C83.0114 41.8274 82.9392 41.6051 82.7947 41.4475C82.6502 41.2903 82.4427 41.2161 82.1631 41.2161C81.5132 41.2161 81.1702 41.596 81.134 42.3461H83.0025V42.3369ZM84.2117 44.1521C84.1488 44.1521 84.1216 44.1246 84.1216 44.0596V41.0772C84.1216 41.0122 84.1488 40.9846 84.2117 40.9846H84.3291C84.3924 40.9846 84.4285 41.0122 84.4374 41.0772L84.4646 41.4475C84.6181 41.2715 84.7715 41.1419 84.9249 41.0772C85.0784 41.003 85.2407 40.9659 85.4303 40.9659C85.4936 40.9659 85.5476 40.9659 85.5931 40.9751C85.656 40.9751 85.6832 41.0122 85.6832 41.0772V41.2344C85.6832 41.2532 85.6743 41.2715 85.6649 41.2807C85.656 41.2995 85.6381 41.2995 85.6199 41.2995C85.5837 41.2995 85.5569 41.2995 85.5298 41.2995C85.5026 41.2995 85.4575 41.2995 85.4035 41.2995C85.2139 41.2995 85.0512 41.3366 84.9071 41.4104C84.7626 41.4846 84.6181 41.596 84.4918 41.7532V44.0687C84.4918 44.1338 84.4646 44.1613 84.4013 44.1613H84.2117V44.1521Z" fill="white"/>
</svg>
