<svg width="102" height="58" viewBox="0 0 102 58" fill="none" xmlns="http://www.w3.org/2000/svg">
<rect x="0.532917" y="0.532917" width="100.89" height="56.9841" rx="5.13791" fill="#242345" stroke="#29284F" stroke-width="0.934166"/>
<path d="M37.0255 30.4136L34.4959 22.8635H34.4442C34.4528 23.0356 34.4657 23.2808 34.4829 23.5992C34.5002 23.9089 34.5131 24.2488 34.5217 24.6187C34.5389 24.9801 34.5475 25.32 34.5475 25.6383V30.4136H33.0633V21.1986H35.3606L37.7869 28.4389H37.8385L40.3681 21.1986H42.6654V30.4136H41.0909V25.5609C41.0909 25.2683 41.0952 24.95 41.1038 24.6058C41.121 24.2531 41.1339 23.9218 41.1425 23.6121C41.1597 23.2937 41.1726 23.0485 41.1812 22.8764H41.1296L38.4967 30.4136H37.0255ZM46.5206 23.4185V30.4136H44.8944V23.4185H46.5206ZM45.7075 20.7211C45.9484 20.7211 46.1592 20.7856 46.3399 20.9147C46.5206 21.0351 46.611 21.2545 46.611 21.5729C46.611 21.8826 46.5206 22.1063 46.3399 22.244C46.1592 22.3731 45.9484 22.4376 45.7075 22.4376C45.458 22.4376 45.2429 22.3731 45.0622 22.244C44.8901 22.1063 44.8041 21.8826 44.8041 21.5729C44.8041 21.2545 44.8901 21.0351 45.0622 20.9147C45.2429 20.7856 45.458 20.7211 45.7075 20.7211ZM51.4263 30.5426C50.7638 30.5426 50.1874 30.4179 49.6969 30.1684C49.2151 29.9102 48.8408 29.5188 48.5741 28.9939C48.316 28.4605 48.1869 27.7807 48.1869 26.9547C48.1869 26.0943 48.3289 25.3974 48.6128 24.8639C48.9054 24.3219 49.3054 23.9261 49.8131 23.6766C50.3207 23.4185 50.9015 23.2894 51.5554 23.2894C51.9942 23.2894 52.3857 23.3324 52.7299 23.4185C53.074 23.5045 53.3666 23.6078 53.6075 23.7282L53.1299 25.0059C52.8632 24.9027 52.5965 24.8166 52.3298 24.7478C52.063 24.6704 51.8049 24.6316 51.5554 24.6316C51.1682 24.6316 50.8456 24.7177 50.5874 24.8898C50.3379 25.0618 50.1529 25.32 50.0325 25.6641C49.912 25.9997 49.8518 26.4256 49.8518 26.9418C49.8518 27.4409 49.912 27.8582 50.0325 28.1937C50.1615 28.5293 50.3508 28.7831 50.6004 28.9552C50.8499 29.1187 51.1596 29.2004 51.5296 29.2004C51.9254 29.2004 52.2738 29.1531 52.575 29.0584C52.8761 28.9638 53.1601 28.8347 53.4268 28.6713V30.078C53.1601 30.2415 52.8718 30.3576 52.5621 30.4265C52.2609 30.5039 51.8824 30.5426 51.4263 30.5426ZM58.7309 23.2894C58.8341 23.2894 58.9546 23.2937 59.0923 23.3023C59.2299 23.3109 59.3461 23.3281 59.4407 23.3539L59.2988 24.8639C59.2213 24.8467 59.1181 24.8338 58.989 24.8252C58.8686 24.808 58.761 24.7994 58.6664 24.7994C58.4082 24.7994 58.1587 24.8424 57.9178 24.9285C57.6855 25.0059 57.4747 25.1264 57.2854 25.2899C57.1047 25.4447 56.9585 25.6469 56.8466 25.8964C56.7434 26.146 56.6917 26.4428 56.6917 26.787V30.4136H55.0656V23.4185H56.3175L56.5498 24.6316H56.6272C56.7649 24.3821 56.9369 24.1584 57.1434 23.9605C57.3499 23.754 57.5866 23.5905 57.8533 23.4701C58.1286 23.3496 58.4212 23.2894 58.7309 23.2894ZM66.7317 26.9031C66.7317 27.4882 66.6542 28.0044 66.4994 28.4518C66.3445 28.8993 66.1208 29.2821 65.8282 29.6005C65.5443 29.9102 65.1915 30.1468 64.7699 30.3103C64.3569 30.4652 63.8966 30.5426 63.389 30.5426C62.9072 30.5426 62.4641 30.4652 62.0597 30.3103C61.6553 30.1468 61.3025 29.9102 61.0014 29.6005C60.7088 29.2821 60.4808 28.8993 60.3173 28.4518C60.1539 28.0044 60.0721 27.4882 60.0721 26.9031C60.0721 26.1287 60.2055 25.4748 60.4722 24.9414C60.7389 24.3993 61.1218 23.9906 61.6209 23.7153C62.1285 23.4314 62.7265 23.2894 63.4148 23.2894C64.0687 23.2894 64.6409 23.4314 65.1313 23.7153C65.6304 23.9906 66.0218 24.3993 66.3058 24.9414C66.5897 25.4748 66.7317 26.1287 66.7317 26.9031ZM61.737 26.9031C61.737 27.3935 61.7929 27.8151 61.9048 28.1679C62.0252 28.5121 62.2059 28.7745 62.4468 28.9552C62.6964 29.1359 63.0147 29.2262 63.4019 29.2262C63.7977 29.2262 64.116 29.1359 64.3569 28.9552C64.6065 28.7745 64.7872 28.5121 64.899 28.1679C65.0109 27.8151 65.0668 27.3935 65.0668 26.9031C65.0668 26.4041 65.0066 25.9868 64.8861 25.6512C64.7742 25.3071 64.5936 25.0489 64.344 24.8769C64.1031 24.6962 63.7891 24.6058 63.4019 24.6058C62.8168 24.6058 62.3909 24.8037 62.1242 25.1995C61.8661 25.5953 61.737 26.1632 61.737 26.9031ZM73.1751 28.3873C73.1751 28.8519 73.0633 29.2477 72.8396 29.5747C72.6159 29.893 72.2846 30.1339 71.8458 30.2974C71.4156 30.4609 70.8865 30.5426 70.2584 30.5426C69.7679 30.5426 69.3463 30.5082 68.9936 30.4394C68.6408 30.3706 68.3052 30.263 67.9869 30.1167V28.7358C68.3311 28.8993 68.7139 29.0369 69.1355 29.1488C69.5571 29.2606 69.9486 29.3166 70.31 29.3166C70.7574 29.3166 71.0801 29.2477 71.278 29.1101C71.4758 28.9724 71.5748 28.7874 71.5748 28.5551C71.5748 28.4174 71.5361 28.2927 71.4586 28.1808C71.3812 28.069 71.2306 27.9528 71.0069 27.8324C70.7832 27.7033 70.4434 27.5441 69.9873 27.3548C69.5399 27.1741 69.1657 26.9935 68.8645 26.8128C68.572 26.6321 68.3483 26.417 68.1934 26.1675C68.0471 25.9093 67.974 25.5867 67.974 25.1995C67.974 24.5714 68.2235 24.0982 68.7225 23.7798C69.2216 23.4529 69.8798 23.2894 70.6972 23.2894C71.1274 23.2894 71.5318 23.3324 71.9104 23.4185C72.2975 23.4959 72.6847 23.625 73.0719 23.8056L72.5557 25.0059C72.2373 24.8683 71.919 24.7521 71.6006 24.6575C71.2909 24.5628 70.9725 24.5155 70.6456 24.5155C70.2928 24.5155 70.0261 24.5714 69.8454 24.6833C69.6647 24.7865 69.5743 24.9328 69.5743 25.1221C69.5743 25.2683 69.6174 25.3974 69.7034 25.5093C69.7981 25.6125 69.9572 25.7201 70.1809 25.8319C70.4132 25.9352 70.7402 26.0728 71.1618 26.2449C71.5834 26.4084 71.9405 26.5805 72.233 26.7611C72.5341 26.9332 72.7665 27.1483 72.9299 27.4065C73.0934 27.6646 73.1751 27.9915 73.1751 28.3873ZM80.9864 26.9031C80.9864 27.4882 80.9089 28.0044 80.7541 28.4518C80.5992 28.8993 80.3755 29.2821 80.0829 29.6005C79.799 29.9102 79.4462 30.1468 79.0246 30.3103C78.6116 30.4652 78.1513 30.5426 77.6437 30.5426C77.1619 30.5426 76.7187 30.4652 76.3144 30.3103C75.91 30.1468 75.5572 29.9102 75.2561 29.6005C74.9635 29.2821 74.7355 28.8993 74.572 28.4518C74.4086 28.0044 74.3268 27.4882 74.3268 26.9031C74.3268 26.1287 74.4602 25.4748 74.7269 24.9414C74.9936 24.3993 75.3765 23.9906 75.8755 23.7153C76.3832 23.4314 76.9812 23.2894 77.6695 23.2894C78.3234 23.2894 78.8956 23.4314 79.386 23.7153C79.885 23.9906 80.2765 24.3993 80.5605 24.9414C80.8444 25.4748 80.9864 26.1287 80.9864 26.9031ZM75.9917 26.9031C75.9917 27.3935 76.0476 27.8151 76.1595 28.1679C76.2799 28.5121 76.4606 28.7745 76.7015 28.9552C76.9511 29.1359 77.2694 29.2262 77.6566 29.2262C78.0524 29.2262 78.3707 29.1359 78.6116 28.9552C78.8612 28.7745 79.0418 28.5121 79.1537 28.1679C79.2655 27.8151 79.3215 27.3935 79.3215 26.9031C79.3215 26.4041 79.2612 25.9868 79.1408 25.6512C79.0289 25.3071 78.8482 25.0489 78.5987 24.8769C78.3578 24.6962 78.0438 24.6058 77.6566 24.6058C77.0715 24.6058 76.6456 24.8037 76.3789 25.1995C76.1208 25.5953 75.9917 26.1632 75.9917 26.9031ZM86.2941 24.6445H84.6034V30.4136H82.9772V24.6445H81.8544V23.8702L82.9772 23.4056V22.928C82.9772 22.3257 83.0719 21.8525 83.2612 21.5084C83.4505 21.1642 83.7258 20.919 84.0872 20.7727C84.4485 20.6178 84.8744 20.5404 85.3649 20.5404C85.709 20.5404 86.0188 20.5705 86.2941 20.6307C86.5694 20.6824 86.7974 20.7426 86.9781 20.8114L86.5651 22.0246C86.4189 21.9816 86.2554 21.9429 86.0747 21.9085C85.9026 21.8654 85.7133 21.8439 85.5068 21.8439C85.1971 21.8439 84.9691 21.9429 84.8228 22.1408C84.6765 22.3387 84.6034 22.614 84.6034 22.9668V23.4185H86.2941V24.6445ZM90.1671 29.2391C90.3736 29.2391 90.5715 29.2219 90.7608 29.1875C90.9501 29.1445 91.1265 29.0972 91.29 29.0455V30.2587C91.1179 30.3361 90.8942 30.4007 90.6189 30.4523C90.3435 30.5125 90.0553 30.5426 89.7541 30.5426C89.3584 30.5426 88.997 30.4781 88.67 30.349C88.3517 30.2114 88.0936 29.9791 87.8957 29.6521C87.7064 29.3252 87.6117 28.8691 87.6117 28.2841V24.6445H86.6696V23.9347L87.7021 23.3668L88.2183 21.8826H89.2379V23.4185H91.2254V24.6445H89.2379V28.2712C89.2379 28.5981 89.3239 28.8433 89.496 29.0068C89.6681 29.1617 89.8918 29.2391 90.1671 29.2391Z" fill="#E8E8E8"/>
<path d="M36.6666 36.9381C36.6666 37.3437 36.5684 37.6891 36.3719 37.9744C36.1754 38.2596 35.8934 38.4814 35.5258 38.6399C35.1582 38.792 34.7209 38.868 34.2138 38.868C33.9666 38.868 33.729 38.8522 33.5008 38.8205C33.2726 38.7951 33.0603 38.7571 32.8638 38.7064C32.6673 38.6557 32.493 38.5923 32.3409 38.5163V37.5465C32.5945 37.6606 32.8923 37.7652 33.2346 37.8603C33.5768 37.949 33.9254 37.9934 34.2804 37.9934C34.5846 37.9934 34.8381 37.9522 35.0409 37.8698C35.2437 37.7874 35.3959 37.6733 35.4973 37.5275C35.5987 37.3818 35.6494 37.2106 35.6494 37.0141C35.6494 36.805 35.5955 36.6307 35.4878 36.4913C35.3864 36.3455 35.2247 36.2124 35.0029 36.092C34.7874 35.9652 34.4959 35.8321 34.1283 35.6927C33.8747 35.5976 33.6434 35.493 33.4342 35.3789C33.2314 35.2585 33.0508 35.1191 32.8923 34.9606C32.7402 34.8022 32.623 34.6184 32.5406 34.4092C32.4582 34.2001 32.417 33.9561 32.417 33.6772C32.417 33.3032 32.5089 32.9832 32.6927 32.717C32.8828 32.4508 33.1427 32.248 33.4723 32.1085C33.8018 31.9627 34.1853 31.8899 34.6226 31.8899C34.9902 31.8899 35.3293 31.9279 35.6399 32.0039C35.9568 32.0737 36.2578 32.1719 36.543 32.2987L36.2198 33.1448C35.9599 33.037 35.6969 32.9483 35.4307 32.8786C35.1645 32.8089 34.8857 32.774 34.5941 32.774C34.3406 32.774 34.1283 32.812 33.9571 32.8881C33.786 32.9642 33.6561 33.0687 33.5673 33.2018C33.4849 33.3349 33.4438 33.4902 33.4438 33.6677C33.4438 33.8768 33.4913 34.0511 33.5864 34.1906C33.6814 34.33 33.8335 34.4599 34.0427 34.5803C34.2518 34.6944 34.5276 34.8212 34.8698 34.9606C35.2501 35.1064 35.5733 35.2649 35.8395 35.436C36.1121 35.6071 36.318 35.8131 36.4575 36.0539C36.5969 36.2884 36.6666 36.5832 36.6666 36.9381ZM38.8894 33.6487V38.7729H37.8817V33.6487H38.8894ZM38.3951 31.6997C38.5472 31.6997 38.6803 31.7441 38.7944 31.8328C38.9084 31.9215 38.9655 32.0705 38.9655 32.2796C38.9655 32.4825 38.9084 32.6314 38.7944 32.7265C38.6803 32.8152 38.5472 32.8596 38.3951 32.8596C38.2303 32.8596 38.0908 32.8152 37.9767 32.7265C37.869 32.6314 37.8151 32.4825 37.8151 32.2796C37.8151 32.0705 37.869 31.9215 37.9767 31.8328C38.0908 31.7441 38.2303 31.6997 38.3951 31.6997ZM41.4797 38.7729H40.472V31.5476H41.4797V38.7729ZM44.2126 38.7729L42.2732 33.6487H43.338L44.4028 36.6434C44.4471 36.7701 44.4915 36.9127 44.5359 37.0712C44.5866 37.2296 44.6309 37.3818 44.669 37.5275C44.707 37.6733 44.7323 37.8001 44.745 37.9078H44.783C44.8021 37.8001 44.8306 37.6733 44.8686 37.5275C44.913 37.3754 44.9605 37.2233 45.0112 37.0712C45.0619 36.9127 45.1063 36.7701 45.1443 36.6434L46.2091 33.6487H47.2739L45.3249 38.7729H44.2126ZM50.0819 33.5536C50.5319 33.5536 50.9186 33.6487 51.2418 33.8388C51.565 34.0226 51.8122 34.2888 51.9834 34.6374C52.1608 34.986 52.2495 35.398 52.2495 35.8733V36.4247H48.808C48.8207 36.9508 48.9569 37.3532 49.2168 37.6321C49.483 37.911 49.8538 38.0504 50.3291 38.0504C50.6587 38.0504 50.9503 38.0219 51.2038 37.9649C51.4636 37.9015 51.7298 37.8096 52.0024 37.6891V38.5258C51.7488 38.6399 51.489 38.7254 51.2228 38.7825C50.9629 38.8395 50.6524 38.868 50.2911 38.868C49.7967 38.868 49.3594 38.7698 48.9791 38.5733C48.5988 38.3768 48.301 38.0853 48.0855 37.6987C47.8763 37.3057 47.7717 36.824 47.7717 36.2536C47.7717 35.6768 47.8668 35.1888 48.0569 34.7895C48.2534 34.3902 48.5228 34.086 48.865 33.8768C49.2136 33.6613 49.6193 33.5536 50.0819 33.5536ZM50.0819 34.3332C49.7207 34.3332 49.4291 34.4504 49.2073 34.6849C48.9918 34.9194 48.865 35.2522 48.827 35.6832H51.2418C51.2418 35.417 51.2006 35.1825 51.1182 34.9796C51.0358 34.7768 50.9091 34.6184 50.7379 34.5043C50.5668 34.3902 50.3481 34.3332 50.0819 34.3332ZM56.0359 33.5536C56.1246 33.5536 56.2228 33.5599 56.3306 33.5726C56.4383 33.5789 56.5271 33.5884 56.5968 33.6011L56.4922 34.5423C56.4225 34.5233 56.3401 34.5075 56.245 34.4948C56.15 34.4821 56.0612 34.4758 55.9788 34.4758C55.7887 34.4758 55.6049 34.5138 55.4274 34.5899C55.2563 34.6596 55.101 34.7642 54.9616 34.9036C54.8221 35.0367 54.7112 35.2015 54.6288 35.398C54.5528 35.5944 54.5147 35.8194 54.5147 36.073V38.7729H53.507V33.6487H54.3056L54.4387 34.5613H54.4767C54.5845 34.3775 54.7144 34.2096 54.8665 34.0575C55.0186 33.9053 55.1929 33.7849 55.3894 33.6962C55.5859 33.6011 55.8014 33.5536 56.0359 33.5536Z" fill="#C4C4C4"/>
<path d="M62.0307 31.9849C62.918 31.9849 63.5645 32.1656 63.9702 32.5268C64.3758 32.8818 64.5786 33.3793 64.5786 34.0194C64.5786 34.3046 64.5311 34.5772 64.436 34.837C64.3473 35.0969 64.1983 35.3314 63.9892 35.5406C63.78 35.7434 63.5011 35.905 63.1526 36.0254C62.8103 36.1395 62.3888 36.1965 61.8881 36.1965H61.1561V38.7729H60.1293V31.9849H62.0307ZM61.9547 32.8501H61.1561V35.3314H61.774C62.1607 35.3314 62.4839 35.2902 62.7437 35.2078C63.0036 35.1191 63.1969 34.9828 63.3237 34.799C63.4568 34.6089 63.5233 34.3617 63.5233 34.0575C63.5233 33.6518 63.3966 33.3508 63.143 33.1543C62.8959 32.9515 62.4997 32.8501 61.9547 32.8501ZM67.8234 33.5536C68.4699 33.5536 68.9516 33.6962 69.2685 33.9814C69.5854 34.2603 69.7438 34.7008 69.7438 35.3029V38.7729H69.0308L68.8311 38.0599H68.7931C68.6473 38.2437 68.4952 38.3958 68.3368 38.5163C68.1847 38.6367 68.0072 38.7254 67.8044 38.7825C67.6079 38.8395 67.3671 38.868 67.0819 38.868C66.7776 38.868 66.5019 38.8141 66.2547 38.7064C66.0139 38.5923 65.8238 38.4212 65.6843 38.193C65.5449 37.9585 65.4752 37.667 65.4752 37.3184C65.4752 36.7987 65.6716 36.4025 66.0646 36.13C66.4639 35.8575 67.0692 35.7085 67.8804 35.6832L68.7551 35.6546V35.3694C68.7551 34.9892 68.6695 34.723 68.4984 34.5708C68.3273 34.4187 68.0864 34.3427 67.7759 34.3427C67.5097 34.3427 67.2561 34.3807 67.0153 34.4568C66.7745 34.5328 66.5463 34.6247 66.3308 34.7325L66.0076 34.0004C66.2484 33.8737 66.5241 33.7691 66.8347 33.6867C67.1516 33.598 67.4811 33.5536 67.8234 33.5536ZM68.0611 36.3296C67.478 36.355 67.0723 36.4532 66.8442 36.6244C66.6223 36.7891 66.5114 37.0237 66.5114 37.3279C66.5114 37.5941 66.5907 37.7874 66.7491 37.9078C66.9139 38.0282 67.1199 38.0884 67.3671 38.0884C67.7664 38.0884 68.0959 37.9775 68.3558 37.7557C68.6157 37.5339 68.7456 37.2011 68.7456 36.7575V36.3106L68.0611 36.3296ZM73.8244 33.5536C73.9131 33.5536 74.0114 33.5599 74.1191 33.5726C74.2269 33.5789 74.3156 33.5884 74.3853 33.6011L74.2808 34.5423C74.211 34.5233 74.1286 34.5075 74.0336 34.4948C73.9385 34.4821 73.8498 34.4758 73.7674 34.4758C73.5772 34.4758 73.3934 34.5138 73.216 34.5899C73.0448 34.6596 72.8896 34.7642 72.7501 34.9036C72.6107 35.0367 72.4998 35.2015 72.4174 35.398C72.3413 35.5944 72.3033 35.8194 72.3033 36.073V38.7729H71.2955V33.6487H72.0941L72.2272 34.5613H72.2653C72.373 34.3775 72.5029 34.2096 72.6551 34.0575C72.8072 33.9053 72.9815 33.7849 73.1779 33.6962C73.3744 33.6011 73.5899 33.5536 73.8244 33.5536ZM77.1785 38.0504C77.3116 38.0504 77.4479 38.0377 77.5873 38.0124C77.7268 37.987 77.8472 37.9585 77.9486 37.9268V38.6874C77.8409 38.7381 77.6951 38.7793 77.5113 38.811C77.3275 38.849 77.1437 38.868 76.9599 38.868C76.681 38.868 76.4243 38.8205 76.1898 38.7254C75.9616 38.6303 75.7778 38.4656 75.6384 38.231C75.499 37.9965 75.4293 37.6701 75.4293 37.2518V34.4187H74.7162V33.9624L75.4673 33.5821L75.819 32.4983H76.437V33.6487H77.9011V34.4187H76.437V37.2328C76.437 37.5117 76.5035 37.7177 76.6366 37.8508C76.7761 37.9839 76.9567 38.0504 77.1785 38.0504ZM81.569 33.5536C82.1648 33.5536 82.6211 33.7025 82.938 34.0004C83.2549 34.2983 83.4134 34.7768 83.4134 35.436V38.7729H82.4151V35.5786C82.4151 35.1793 82.3296 34.8814 82.1584 34.6849C81.9937 34.4821 81.7275 34.3807 81.3599 34.3807C80.8401 34.3807 80.4789 34.536 80.276 34.8465C80.0796 35.1571 79.9813 35.6039 79.9813 36.187V38.7729H78.9736V33.6487H79.7722L79.9148 34.3332H79.9718C80.0859 34.1557 80.2253 34.0099 80.3901 33.8958C80.5549 33.7818 80.7387 33.6962 80.9415 33.6392C81.1444 33.5821 81.3535 33.5536 81.569 33.5536ZM86.9774 33.5536C87.4274 33.5536 87.814 33.6487 88.1373 33.8388C88.4605 34.0226 88.7077 34.2888 88.8788 34.6374C89.0563 34.986 89.145 35.398 89.145 35.8733V36.4247H85.7035C85.7161 36.9508 85.8524 37.3532 86.1123 37.6321C86.3785 37.911 86.7492 38.0504 87.2246 38.0504C87.5542 38.0504 87.8457 38.0219 88.0992 37.9649C88.3591 37.9015 88.6253 37.8096 88.8978 37.6891V38.5258C88.6443 38.6399 88.3844 38.7254 88.1182 38.7825C87.8584 38.8395 87.5478 38.868 87.1865 38.868C86.6922 38.868 86.2549 38.7698 85.8746 38.5733C85.4943 38.3768 85.1964 38.0853 84.9809 37.6987C84.7718 37.3057 84.6672 36.824 84.6672 36.2536C84.6672 35.6768 84.7623 35.1888 84.9524 34.7895C85.1489 34.3902 85.4182 34.086 85.7605 33.8768C86.1091 33.6613 86.5147 33.5536 86.9774 33.5536ZM86.9774 34.3332C86.6161 34.3332 86.3246 34.4504 86.1027 34.6849C85.8873 34.9194 85.7605 35.2522 85.7225 35.6832H88.1373C88.1373 35.417 88.0961 35.1825 88.0137 34.9796C87.9313 34.7768 87.8045 34.6184 87.6334 34.5043C87.4623 34.3902 87.2436 34.3332 86.9774 34.3332ZM92.9313 33.5536C93.0201 33.5536 93.1183 33.5599 93.226 33.5726C93.3338 33.5789 93.4225 33.5884 93.4922 33.6011L93.3877 34.5423C93.3179 34.5233 93.2355 34.5075 93.1405 34.4948C93.0454 34.4821 92.9567 34.4758 92.8743 34.4758C92.6841 34.4758 92.5003 34.5138 92.3229 34.5899C92.1517 34.6596 91.9965 34.7642 91.857 34.9036C91.7176 35.0367 91.6067 35.2015 91.5243 35.398C91.4482 35.5944 91.4102 35.8194 91.4102 36.073V38.7729H90.4024V33.6487H91.201L91.3341 34.5613H91.3722C91.4799 34.3775 91.6098 34.2096 91.762 34.0575C91.9141 33.9053 92.0884 33.7849 92.2848 33.6962C92.4813 33.6011 92.6968 33.5536 92.9313 33.5536Z" fill="#A2A2A2"/>
<rect x="8.94043" y="19.561" width="9.44308" height="9.44308" fill="#EB5321"/>
<rect x="19.9561" y="19.561" width="9.44308" height="9.44308" fill="#7FBA00"/>
<rect x="19.9561" y="30.5771" width="9.44308" height="9.44308" fill="#FCBB01"/>
<rect x="8.94043" y="30.5771" width="9.44308" height="9.44308" fill="#08A1EF"/>
</svg>
