<svg width="103" height="58" viewBox="0 0 103 58" fill="none" xmlns="http://www.w3.org/2000/svg">
<rect x="1.4001" y="0.532917" width="100.89" height="56.9841" rx="5.13791" fill="#242345" stroke="#29284F" stroke-width="0.934166"/>
<path d="M78.6222 33.726H77.7588V35.2251H76.7531V33.726H73.8403V32.929L76.7436 28.4223H77.7588V32.8721H78.6222V33.726ZM76.7531 31.0315C76.7531 30.8797 76.7531 30.7342 76.7531 30.595C76.7594 30.4559 76.7657 30.323 76.7721 30.1965C76.7784 30.0637 76.7816 29.9435 76.7816 29.836C76.7879 29.7221 76.7942 29.6209 76.8005 29.5324H76.7626C76.712 29.6589 76.6519 29.7885 76.5823 29.9214C76.5191 30.0542 76.4558 30.1712 76.3925 30.2724L74.7986 32.8721H76.7531V31.0315ZM79.3628 34.6653C79.3628 34.4186 79.4229 34.2447 79.5431 34.1435C79.6696 34.0423 79.8246 33.9917 80.008 33.9917C80.1851 33.9917 80.3369 34.0423 80.4634 34.1435C80.5963 34.2447 80.6627 34.4186 80.6627 34.6653C80.6627 34.912 80.5963 35.0891 80.4634 35.1966C80.3369 35.3042 80.1851 35.3579 80.008 35.3579C79.8246 35.3579 79.6696 35.3042 79.5431 35.1966C79.4229 35.0891 79.3628 34.912 79.3628 34.6653ZM83.8012 28.3559C84.1807 28.3559 84.5159 28.4191 84.8069 28.5456C85.1042 28.6658 85.335 28.8461 85.4995 29.0864C85.6703 29.3268 85.7557 29.6273 85.7557 29.9878C85.7557 30.2598 85.7019 30.497 85.5944 30.6994C85.4932 30.9018 85.3509 31.0821 85.1674 31.2402C84.9903 31.392 84.7942 31.5248 84.5792 31.6387C84.8259 31.7715 85.0536 31.9233 85.2623 32.0941C85.471 32.2586 85.6386 32.4515 85.7652 32.6729C85.898 32.8942 85.9644 33.1599 85.9644 33.4698C85.9644 33.8494 85.8758 34.1783 85.6987 34.4566C85.528 34.7286 85.2813 34.9405 84.9587 35.0923C84.6361 35.2441 84.2534 35.32 83.8107 35.32C83.3363 35.32 82.9346 35.2472 82.6057 35.1018C82.2831 34.9563 82.0396 34.7507 81.8751 34.485C81.7107 34.2131 81.6284 33.8841 81.6284 33.4983C81.6284 33.1884 81.6854 32.9195 81.7992 32.6918C81.9194 32.4641 82.0744 32.268 82.2641 32.1036C82.4602 31.9391 82.6753 31.8 82.9093 31.6861C82.7069 31.5596 82.5235 31.4173 82.359 31.2592C82.1946 31.0947 82.0649 30.9081 81.97 30.6994C81.8815 30.4907 81.8372 30.2503 81.8372 29.9783C81.8372 29.6241 81.9226 29.33 82.0933 29.0959C82.2641 28.8556 82.4982 28.6721 82.7955 28.5456C83.0927 28.4191 83.428 28.3559 83.8012 28.3559ZM82.6152 33.4793C82.6152 33.7893 82.7132 34.0454 82.9093 34.2478C83.1054 34.4439 83.3995 34.542 83.7917 34.542C84.0573 34.542 84.2756 34.4977 84.4463 34.4091C84.6171 34.3143 84.7468 34.1878 84.8353 34.0296C84.9302 33.8652 84.9777 33.6786 84.9777 33.4698C84.9777 33.2611 84.9271 33.0777 84.8259 32.9195C84.7247 32.7614 84.5855 32.6223 84.4084 32.5021C84.2376 32.3756 84.0415 32.2617 83.8201 32.1605L83.6968 32.1036C83.4691 32.2111 83.273 32.3313 83.1086 32.4641C82.9504 32.597 82.8271 32.7456 82.7385 32.9101C82.6563 33.0745 82.6152 33.2643 82.6152 33.4793ZM83.7822 29.1434C83.5039 29.1434 83.273 29.2193 83.0896 29.3711C82.9125 29.5229 82.8239 29.7443 82.8239 30.0352C82.8239 30.244 82.8682 30.4211 82.9567 30.5666C83.0516 30.712 83.1718 30.8385 83.3173 30.9461C83.4691 31.0473 83.6335 31.1453 83.8107 31.2402C83.9878 31.1516 84.1459 31.0568 84.285 30.9556C84.4305 30.848 84.5444 30.7215 84.6266 30.576C84.7152 30.4242 84.7594 30.244 84.7594 30.0352C84.7594 29.7443 84.6677 29.5229 84.4843 29.3711C84.3072 29.2193 84.0732 29.1434 83.7822 29.1434Z" fill="#F0F0F0"/>
<path d="M19.4411 10.736C19.8641 10.736 20.2134 10.7925 20.4889 10.9057C20.7644 11.0188 20.9686 11.1886 21.1014 11.4149C21.2392 11.6362 21.3081 11.9167 21.3081 12.2561C21.3081 12.5267 21.2613 12.7555 21.1678 12.9424C21.0793 13.1244 20.9612 13.2745 20.8136 13.3926C20.671 13.5057 20.516 13.5967 20.3487 13.6656L21.7434 16.0049H20.8136L19.6403 13.8722H18.8359V16.0049H18.0168V10.736H19.4411ZM19.4042 11.4149H18.8359V13.2081H19.4189C19.66 13.2081 19.8568 13.1736 20.0093 13.1048C20.1667 13.0359 20.2823 12.9326 20.3561 12.7948C20.4348 12.6571 20.4742 12.4873 20.4742 12.2856C20.4742 12.0741 20.4348 11.9068 20.3561 11.7838C20.2823 11.6559 20.1642 11.5625 20.0019 11.5034C19.8445 11.4444 19.6452 11.4149 19.4042 11.4149ZM23.8658 11.9536C24.3332 11.9536 24.685 12.0643 24.9211 12.2856C25.1622 12.5021 25.2827 12.844 25.2827 13.3114V16.0049H24.7145L24.5595 15.4514H24.53C24.4168 15.5941 24.3037 15.7122 24.1905 15.8056C24.0823 15.8991 23.9544 15.968 23.8068 16.0123C23.6641 16.0565 23.487 16.0787 23.2755 16.0787C23.0541 16.0787 22.8549 16.0369 22.6777 15.9532C22.5006 15.8647 22.3604 15.7318 22.2571 15.5547C22.1538 15.3727 22.1022 15.1464 22.1022 14.8758C22.1022 14.4724 22.2448 14.1649 22.5302 13.9534C22.8204 13.7419 23.2607 13.6262 23.8511 13.6066L24.4857 13.5844V13.363C24.4857 13.0679 24.4242 12.8612 24.3012 12.7432C24.1832 12.6251 24.0159 12.5661 23.7994 12.5661C23.6174 12.5661 23.4378 12.5956 23.2607 12.6546C23.0836 12.7136 22.9114 12.785 22.7442 12.8686L22.5006 12.3004C22.6827 12.202 22.8893 12.1208 23.1205 12.0569C23.3567 11.988 23.6051 11.9536 23.8658 11.9536ZM24.0061 14.1084C23.6026 14.128 23.3222 14.2043 23.1648 14.3371C23.0074 14.465 22.9287 14.6471 22.9287 14.8832C22.9287 15.0898 22.9828 15.2399 23.091 15.3334C23.2041 15.4268 23.3493 15.4736 23.5264 15.4736C23.797 15.4736 24.0233 15.3875 24.2053 15.2153C24.3922 15.0431 24.4857 14.7848 24.4857 14.4404V14.0936L24.0061 14.1084ZM27.7911 15.444C27.8944 15.444 27.9953 15.4342 28.0937 15.4145C28.1921 15.3948 28.2782 15.3727 28.352 15.3481V15.9385C28.2683 15.9778 28.1576 16.0098 28.0199 16.0344C27.8871 16.0639 27.7469 16.0787 27.5993 16.0787C27.3926 16.0787 27.2032 16.0418 27.0311 15.968C26.8589 15.8942 26.7211 15.7663 26.6178 15.5843C26.5145 15.4022 26.4628 15.1489 26.4628 14.8242V12.6251H25.9537V12.2709L26.4997 11.9757L26.7728 11.1344H27.2672V12.0274H28.3225V12.6251H27.2672V14.8094C27.2672 15.0259 27.3164 15.1858 27.4148 15.2891C27.5132 15.3924 27.6386 15.444 27.7911 15.444ZM30.5967 11.9536C30.9263 11.9536 31.2117 12.0274 31.4527 12.1749C31.6938 12.3176 31.8783 12.5242 32.0062 12.7948C32.139 13.0654 32.2054 13.3852 32.2054 13.7541V14.1822H29.7038C29.7136 14.5905 29.812 14.9029 29.999 15.1193C30.1859 15.3358 30.4491 15.444 30.7886 15.444C31.0296 15.444 31.2436 15.4219 31.4306 15.3776C31.6225 15.3284 31.8168 15.2571 32.0136 15.1636V15.813C31.8266 15.9016 31.6348 15.968 31.438 16.0123C31.2461 16.0565 31.0124 16.0787 30.7369 16.0787C30.3778 16.0787 30.058 16.0024 29.7776 15.8499C29.4972 15.6974 29.2782 15.4711 29.1208 15.171C28.9634 14.866 28.8847 14.4921 28.8847 14.0493C28.8847 13.6016 28.956 13.2228 29.0987 12.9129C29.2413 12.603 29.4406 12.3668 29.6964 12.2045C29.9572 12.0372 30.2573 11.9536 30.5967 11.9536ZM30.5967 12.5587C30.3458 12.5587 30.1441 12.6497 29.9916 12.8317C29.8391 13.0137 29.7505 13.272 29.7259 13.6066H31.4158C31.4158 13.3999 31.3863 13.2179 31.3273 13.0605C31.2682 12.9031 31.1772 12.7801 31.0542 12.6915C30.9362 12.603 30.7837 12.5587 30.5967 12.5587ZM38.2426 14.0124C38.2426 14.342 38.2008 14.6348 38.1172 14.8906C38.0335 15.1464 37.913 15.3629 37.7556 15.54C37.6031 15.7171 37.4161 15.8524 37.1947 15.9458C36.9734 16.0344 36.7249 16.0787 36.4494 16.0787C36.1985 16.0787 35.9648 16.0344 35.7484 15.9458C35.5319 15.8524 35.345 15.7171 35.1875 15.54C35.0301 15.3629 34.9071 15.1464 34.8186 14.8906C34.7349 14.6348 34.6931 14.3396 34.6931 14.0051C34.6931 13.5672 34.7644 13.1958 34.9071 12.8908C35.0498 12.5857 35.254 12.3545 35.5196 12.1971C35.7902 12.0347 36.11 11.9536 36.4789 11.9536C36.8233 11.9536 37.1283 12.0347 37.394 12.1971C37.6597 12.3545 37.8663 12.5857 38.0139 12.8908C38.1664 13.1958 38.2426 13.5697 38.2426 14.0124ZM35.5196 14.0124C35.5196 14.3076 35.5516 14.5634 35.6155 14.7799C35.6844 14.9914 35.7877 15.1538 35.9255 15.2669C36.0682 15.3801 36.2477 15.4367 36.4642 15.4367C36.6856 15.4367 36.8651 15.3801 37.0029 15.2669C37.1456 15.1538 37.2489 14.9914 37.3128 14.7799C37.3817 14.5634 37.4161 14.3076 37.4161 14.0124C37.4161 13.7074 37.3817 13.4516 37.3128 13.245C37.2439 13.0383 37.1406 12.8809 37.0029 12.7727C36.8651 12.6595 36.6831 12.603 36.4568 12.603C36.1272 12.603 35.8886 12.7259 35.741 12.9719C35.5934 13.2179 35.5196 13.5647 35.5196 14.0124ZM41.0997 11.9536C41.5327 11.9536 41.8648 12.0692 42.096 12.3004C42.3321 12.5316 42.4502 12.9031 42.4502 13.4147V16.0049H41.6532V13.5254C41.6532 13.2154 41.5917 12.9842 41.4687 12.8317C41.3507 12.6743 41.1662 12.5956 40.9153 12.5956C40.5463 12.5956 40.2929 12.7161 40.1552 12.9572C40.0174 13.1982 39.9486 13.5451 39.9486 13.9977V16.0049H39.1516V12.0274H39.7788L39.8895 12.5587H39.9338C40.0174 12.4209 40.1183 12.3078 40.2364 12.2192C40.3544 12.1307 40.4873 12.0643 40.6348 12.02C40.7824 11.9757 40.9374 11.9536 41.0997 11.9536Z" fill="#F0F0F0"/>
<path d="M32.0938 20.6553H34.4839V35.4929H32.0938V20.6553Z" fill="white"/>
<path d="M42.7986 30.7918C42.7986 33.091 40.9278 33.3001 40.3043 33.3001C38.8492 33.3001 38.6414 31.9414 38.6414 31.2099V25.4619H36.251V31.1054C36.251 32.464 36.6667 33.7181 37.4981 34.4496C38.2256 35.1812 39.161 35.4947 40.3043 35.4947C41.1357 35.4947 42.175 35.2857 42.7986 34.6587V35.4947H45.189V25.4619H42.7986V30.7918Z" fill="white"/>
<path d="M49.8639 21.8047H47.4737V25.4618H45.707V27.7606H47.4737V35.4929H49.8639V27.7606H51.6305V25.4618H49.8639V21.8047Z" fill="white"/>
<path d="M59.1141 32.4645C58.5945 32.8825 57.867 33.1961 57.1395 33.1961C55.4766 33.1961 54.3333 31.942 54.3333 30.2698C54.3333 28.5977 55.4766 27.4481 57.1395 27.4481C57.867 27.4481 58.5945 27.6571 59.1141 28.1797L59.4259 28.4932L61.0888 26.9256L60.6731 26.612C59.7377 25.776 58.4905 25.2534 57.1395 25.2534C54.2294 25.2534 52.0469 27.4481 52.0469 30.3743C52.0469 33.3006 54.2294 35.4953 57.1395 35.4953C58.4905 35.4953 59.7377 34.9727 60.6731 34.1366L61.0888 33.8231L59.4259 32.151L59.1141 32.4645Z" fill="white"/>
<path d="M69.5059 26.2977C68.7785 25.5663 68.051 25.2528 66.9079 25.2528C66.0765 25.2528 65.2451 25.4618 64.6216 26.0888V20.6553H62.2314V35.4929H64.6216V29.9549C64.6216 27.6561 66.1804 27.4471 66.804 27.4471C68.2589 27.4471 68.1549 28.8055 68.1549 29.5369V35.3884H70.5451V29.6414C70.5451 28.2831 70.2334 27.0292 69.5059 26.2977Z" fill="white"/>
<path d="M57.035 32.045C57.9533 32.045 58.6978 31.2963 58.6978 30.3728C58.6978 29.4493 57.9533 28.7007 57.035 28.7007C56.1166 28.7007 55.3721 29.4493 55.3721 30.3728C55.3721 31.2963 56.1166 32.045 57.035 32.045Z" fill="#EF4335"/>
<path d="M28.7682 31.8358C27.9369 32.6718 26.6898 33.1942 25.3388 33.1942C22.7408 33.1942 20.8702 31.1044 20.8702 28.2832C20.8702 25.4619 22.7408 23.3721 25.4428 23.3721C26.6898 23.3721 27.9369 23.8946 28.8721 24.835L29.1839 25.1485L30.7427 23.5811L30.431 23.2676C29.08 21.9093 27.3133 21.1778 25.4428 21.1778C21.4938 21.0733 18.584 24.208 18.584 28.2832C18.584 32.3583 21.4938 35.493 25.3388 35.493C27.2094 35.493 29.08 34.7616 30.327 33.4032L30.6388 33.0897L29.08 31.5224L28.7682 31.8358Z" fill="white"/>
<path d="M36.0142 41.5197L35.0552 43.4823C35.0064 43.5821 34.9343 43.6685 34.8451 43.734C34.7559 43.7995 34.6523 43.842 34.5432 43.8581L32.3995 44.1729C32.299 44.1876 32.2046 44.2304 32.127 44.2965C32.0493 44.3625 31.9916 44.4493 31.9602 44.5468C31.9288 44.6443 31.9251 44.7488 31.9495 44.8483C31.9739 44.9479 32.0254 45.0386 32.0981 45.1101L33.6499 46.6379C33.7287 46.7155 33.7877 46.8113 33.8217 46.9171C33.8558 47.0228 33.8639 47.1353 33.8454 47.245L33.479 49.4024C33.462 49.5034 33.4733 49.6072 33.5117 49.702C33.55 49.7969 33.6138 49.879 33.6959 49.9392C33.778 49.9993 33.8751 50.035 33.9763 50.0424C34.0775 50.0497 34.1786 50.0283 34.2684 49.9806L36.186 48.9621C36.2835 48.9103 36.3921 48.8832 36.5024 48.8832C36.6126 48.8832 36.7212 48.9103 36.8188 48.9621L38.7363 49.9806C38.8261 50.0283 38.9272 50.0497 39.0284 50.0424C39.1296 50.035 39.2267 49.9993 39.3088 49.9392C39.3909 49.879 39.4547 49.7969 39.4931 49.702C39.5314 49.6072 39.5427 49.5034 39.5257 49.4024L39.1593 47.245C39.1408 47.1353 39.1489 47.0228 39.183 46.9171C39.217 46.8113 39.276 46.7155 39.3548 46.6379L40.9066 45.1101C40.9794 45.0386 41.0308 44.9479 41.0552 44.8483C41.0796 44.7488 41.0759 44.6443 41.0445 44.5468C41.0132 44.4493 40.9554 44.3625 40.8777 44.2965C40.8001 44.2304 40.7057 44.1876 40.6052 44.1729L38.4607 43.8581C38.3516 43.842 38.248 43.7995 38.1588 43.734C38.0696 43.6685 37.9975 43.5821 37.9487 43.4823L36.9896 41.5197C36.9447 41.4277 36.8753 41.3503 36.7891 41.2962C36.7029 41.2421 36.6034 41.2134 36.5019 41.2134C36.4004 41.2134 36.301 41.2421 36.2148 41.2962C36.1286 41.3503 36.0591 41.4277 36.0142 41.5197Z" fill="#FFAF00"/>
<path d="M49.3452 41.5198L48.3861 43.4824C48.3373 43.5822 48.2652 43.6686 48.176 43.7341C48.0868 43.7996 47.9832 43.8421 47.8741 43.8582L45.7296 44.173C45.6291 44.1877 45.5347 44.2305 45.457 44.2966C45.3794 44.3626 45.3216 44.4494 45.2903 44.5469C45.2589 44.6444 45.2552 44.7489 45.2796 44.8484C45.304 44.948 45.3554 45.0387 45.4282 45.1102L46.98 46.638C47.0588 46.7156 47.1177 46.8114 47.1518 46.9172C47.1858 47.0229 47.194 47.1354 47.1755 47.2451L46.8091 49.4025C46.7921 49.5035 46.8034 49.6073 46.8417 49.7021C46.88 49.797 46.9439 49.8791 47.026 49.9393C47.1081 49.9994 47.2052 50.0351 47.3064 50.0425C47.4075 50.0498 47.5087 50.0284 47.5985 49.9807L49.516 48.9622C49.6136 48.9104 49.7222 48.8833 49.8324 48.8833C49.9427 48.8833 50.0513 48.9104 50.1488 48.9622L52.0664 49.9807C52.1561 50.0284 52.2573 50.0498 52.3585 50.0425C52.4597 50.0351 52.5568 49.9994 52.6389 49.9393C52.721 49.8791 52.7848 49.797 52.8231 49.7021C52.8615 49.6073 52.8728 49.5035 52.8557 49.4025L52.4894 47.2451C52.4709 47.1354 52.479 47.0229 52.513 46.9172C52.5471 46.8114 52.6061 46.7156 52.6849 46.638L54.2367 45.1102C54.3094 45.0387 54.3609 44.948 54.3853 44.8484C54.4097 44.7489 54.406 44.6444 54.3746 44.5469C54.3432 44.4494 54.2855 44.3626 54.2078 44.2966C54.1302 44.2305 54.0358 44.1877 53.9353 44.173L51.7908 43.8582C51.6817 43.8421 51.578 43.7996 51.4888 43.7341C51.3997 43.6686 51.3276 43.5822 51.2788 43.4824L50.3197 41.5198C50.2747 41.4281 50.2053 41.3509 50.1192 41.2969C50.0331 41.243 49.9338 41.2144 49.8324 41.2144C49.7311 41.2144 49.6318 41.243 49.5457 41.2969C49.4596 41.3509 49.3902 41.4281 49.3452 41.5198Z" fill="#FFAF00"/>
<path d="M62.675 41.5187L61.7159 43.4813C61.6671 43.5812 61.595 43.6676 61.5058 43.733C61.4166 43.7985 61.313 43.8411 61.2039 43.8571L59.0596 44.1719C58.9592 44.1866 58.8648 44.2294 58.7871 44.2955C58.7095 44.3616 58.6517 44.4483 58.6203 44.5458C58.589 44.6434 58.5853 44.7478 58.6097 44.8474C58.634 44.9469 58.6855 45.0376 58.7583 45.1091L60.3101 46.6369C60.3889 46.7146 60.4478 46.8104 60.4819 46.9161C60.5159 47.0219 60.524 47.1344 60.5055 47.244L60.1392 49.4014C60.1222 49.5024 60.1335 49.6062 60.1718 49.701C60.2101 49.7959 60.2739 49.878 60.3561 49.9382C60.4382 49.9983 60.5353 50.0341 60.6365 50.0414C60.7376 50.0487 60.8388 50.0273 60.9286 49.9796L62.8461 48.9611C62.9437 48.9093 63.0523 48.8823 63.1625 48.8823C63.2728 48.8823 63.3813 48.9093 63.4789 48.9611L65.3965 49.9796C65.4862 50.0273 65.5874 50.0487 65.6886 50.0414C65.7897 50.0341 65.8869 49.9983 65.969 49.9382C66.0511 49.878 66.1149 49.7959 66.1532 49.701C66.1915 49.6062 66.2028 49.5024 66.1858 49.4014L65.8195 47.244C65.801 47.1344 65.8091 47.0219 65.8431 46.9161C65.8772 46.8104 65.9361 46.7145 66.015 46.6369L67.5668 45.1091C67.6395 45.0376 67.691 44.9469 67.7154 44.8474C67.7397 44.7478 67.736 44.6434 67.7047 44.5458C67.6733 44.4483 67.6155 44.3616 67.5379 44.2955C67.4603 44.2294 67.3659 44.1866 67.2654 44.1719L65.1209 43.8571C65.0117 43.8411 64.9081 43.7985 64.8189 43.733C64.7297 43.6676 64.6576 43.5812 64.6088 43.4813L63.6503 41.5187C63.6055 41.4268 63.536 41.3493 63.4498 41.2952C63.3636 41.2411 63.2641 41.2124 63.1627 41.2124C63.0612 41.2124 62.9617 41.2411 62.8755 41.2952C62.7893 41.3493 62.7199 41.4268 62.675 41.5187Z" fill="#FFAF00"/>
<path d="M76.9832 41.5198L77.9423 43.4824C77.9911 43.5822 78.0632 43.6686 78.1524 43.7341C78.2416 43.7996 78.3452 43.8422 78.4543 43.8582L80.5986 44.173C80.699 44.1877 80.7934 44.2305 80.8711 44.2966C80.9487 44.3627 81.0065 44.4494 81.0379 44.5469C81.0692 44.6444 81.0729 44.7489 81.0485 44.8484C81.0242 44.948 80.9727 45.0387 80.8999 45.1102L79.3481 46.638C79.2693 46.7156 79.2104 46.8115 79.1763 46.9172C79.1423 47.0229 79.1342 47.1355 79.1527 47.2451L79.519 49.4025C79.536 49.5035 79.5247 49.6073 79.4864 49.7021C79.4481 49.797 79.3843 49.8791 79.3021 49.9393C79.22 49.9994 79.1229 50.0351 79.0217 50.0425C78.9206 50.0498 78.8194 50.0284 78.7297 49.9807L76.8121 48.9622C76.7145 48.9104 76.6059 48.8833 76.4957 48.8833C76.3855 48.8833 76.2769 48.9104 76.1793 48.9622L74.2617 49.9807C74.172 50.0284 74.0708 50.0498 73.9696 50.0425C73.8685 50.0351 73.7713 49.9994 73.6892 49.9393C73.6071 49.8791 73.5433 49.797 73.505 49.7021C73.4667 49.6073 73.4554 49.5035 73.4724 49.4025L73.8387 47.2451C73.8572 47.1355 73.8491 47.0229 73.8151 46.9172C73.781 46.8114 73.7221 46.7156 73.6432 46.638L72.0914 45.1102C72.0187 45.0387 71.9672 44.948 71.9428 44.8484C71.9185 44.7489 71.9222 44.6444 71.9535 44.5469C71.9849 44.4494 72.0427 44.3627 72.1203 44.2966C72.1979 44.2305 72.2923 44.1877 72.3928 44.173L74.5373 43.8582C74.6465 43.8422 74.7501 43.7996 74.8393 43.7341C74.9285 43.6686 75.0006 43.5822 75.0494 43.4824L76.0059 41.5198C76.0505 41.4273 76.12 41.3494 76.2064 41.2948C76.2928 41.2403 76.3927 41.2114 76.4945 41.2114C76.5964 41.2114 76.6962 41.2403 76.7827 41.2948C76.8691 41.3494 76.9386 41.4273 76.9832 41.5198Z" fill="#FFAF00"/>
<path d="M78.7297 49.9811L77.4237 49.2873V42.4204L77.942 43.4813C77.9908 43.5812 78.0629 43.6676 78.1521 43.7331C78.2413 43.7986 78.3449 43.8411 78.454 43.8572L80.5986 44.172C80.699 44.1867 80.7934 44.2295 80.8711 44.2955C80.9487 44.3616 81.0065 44.4483 81.0379 44.5459C81.0692 44.6434 81.0729 44.7479 81.0485 44.8474C81.0242 44.947 80.9727 45.0376 80.8999 45.1092L79.3481 46.637C79.2693 46.7146 79.2104 46.8104 79.1763 46.9162C79.1423 47.0219 79.1342 47.1344 79.1527 47.244L79.519 49.4015C79.5363 49.5026 79.5253 49.6066 79.4871 49.7016C79.4489 49.7967 79.3851 49.8791 79.3029 49.9394C79.2208 49.9998 79.1235 50.0357 79.0222 50.043C78.9209 50.0504 78.8195 50.0289 78.7297 49.9811Z" fill="#FDE3AC"/>
<path d="M22.686 41.5209L21.7269 43.4838C21.6781 43.5837 21.606 43.6701 21.5168 43.7356C21.4276 43.801 21.324 43.8436 21.2149 43.8596L19.0704 44.1744C18.9699 44.1891 18.8755 44.2319 18.7979 44.298C18.7202 44.3641 18.6625 44.4508 18.6311 44.5484C18.5997 44.6459 18.596 44.7503 18.6204 44.8499C18.6448 44.9494 18.6963 45.0401 18.769 45.1116L20.3208 46.6394C20.3996 46.7171 20.4586 46.8129 20.4926 46.9186C20.5267 47.0244 20.5348 47.1369 20.5163 47.2465L20.1499 49.4039C20.1329 49.5049 20.1442 49.6087 20.1826 49.7036C20.2209 49.7984 20.2847 49.8806 20.3668 49.9407C20.4489 50.0009 20.546 50.0366 20.6472 50.0439C20.7484 50.0512 20.8495 50.0298 20.9393 49.9821L22.8569 48.9637C22.9544 48.9119 23.063 48.8848 23.1733 48.8848C23.2835 48.8848 23.3921 48.9119 23.4897 48.9637L25.4072 49.9821C25.497 50.0298 25.5981 50.0512 25.6993 50.0439C25.8005 50.0366 25.8976 50.0009 25.9797 49.9407C26.0618 49.8806 26.1256 49.7984 26.164 49.7036C26.2023 49.6087 26.2136 49.5049 26.1966 49.4039L25.8302 47.2465C25.8117 47.1369 25.8198 47.0244 25.8539 46.9186C25.8879 46.8129 25.9469 46.7171 26.0257 46.6394L27.5775 45.1116C27.6503 45.0401 27.7017 44.9494 27.7261 44.8499C27.7505 44.7503 27.7468 44.6459 27.7154 44.5484C27.6841 44.4508 27.6263 44.3641 27.5486 44.298C27.471 44.2319 27.3766 44.1891 27.2761 44.1744L25.1327 43.8593C25.0236 43.8433 24.92 43.8007 24.8308 43.7353C24.7416 43.6698 24.6695 43.5834 24.6207 43.4835L23.6617 41.5209C23.6168 41.4289 23.5473 41.3514 23.4611 41.2973C23.3749 41.2431 23.2754 41.2144 23.1738 41.2144C23.0723 41.2144 22.9728 41.2431 22.8865 41.2973C22.8003 41.3514 22.7309 41.4289 22.686 41.5209Z" fill="#E2E2E2"/>
<path d="M23.642 41.5207L24.601 43.4833C24.6498 43.5832 24.7219 43.6696 24.8111 43.7351C24.9003 43.8005 25.0039 43.8431 25.113 43.8591L27.2576 44.174C27.358 44.1886 27.4525 44.2315 27.5301 44.2975C27.6077 44.3636 27.6655 44.4503 27.6969 44.5479C27.7282 44.6454 27.7319 44.7499 27.7076 44.8494C27.6832 44.949 27.6317 45.0396 27.5589 45.1112L26.0071 46.639C25.9283 46.7166 25.8694 46.8124 25.8353 46.9182C25.8013 47.0239 25.7932 47.1364 25.8117 47.246L26.178 49.4035C26.195 49.5045 26.1837 49.6082 26.1454 49.7031C26.1071 49.7979 26.0433 49.8801 25.9612 49.9402C25.8791 50.0004 25.7819 50.0361 25.6808 50.0434C25.5796 50.0507 25.4784 50.0293 25.3887 49.9816L23.4711 48.9632C23.3735 48.9114 23.2649 48.8843 23.1547 48.8843C23.0445 48.8843 22.9359 48.9114 22.8383 48.9632L20.9207 49.9816C20.831 50.0293 20.7298 50.0507 20.6286 50.0434C20.5275 50.0361 20.4304 50.0004 20.3482 49.9402C20.2661 49.8801 20.2023 49.7979 20.164 49.7031C20.1257 49.6082 20.1144 49.5045 20.1314 49.4035L20.4977 47.246C20.5163 47.1364 20.5081 47.0239 20.4741 46.9182C20.44 46.8124 20.3811 46.7166 20.3022 46.639L18.7505 45.1112C18.6777 45.0396 18.6262 44.949 18.6018 44.8494C18.5775 44.7499 18.5812 44.6454 18.6125 44.5479C18.6439 44.4503 18.7017 44.3636 18.7793 44.2975C18.8569 44.2315 18.9513 44.1886 19.0518 44.174L21.1964 43.8591C21.3055 43.8431 21.4091 43.8005 21.4983 43.7351C21.5875 43.6696 21.6596 43.5832 21.7084 43.4833L22.6674 41.5207C22.7124 41.429 22.7819 41.3519 22.868 41.2979C22.9541 41.2439 23.0534 41.2153 23.1547 41.2153C23.256 41.2153 23.3553 41.2439 23.4414 41.2979C23.5275 41.3519 23.597 41.429 23.642 41.5207Z" fill="#FFAF00"/>
</svg>
