<svg width="15" height="15" viewBox="0 0 15 15" fill="none" xmlns="http://www.w3.org/2000/svg">
<path fill-rule="evenodd" clip-rule="evenodd" d="M6.65905 0.80176C7.07377 0.387044 7.74615 0.387044 8.16087 0.80176L14.3556 6.99645C14.5547 7.19561 14.6666 7.46572 14.6666 7.74736C14.6666 8.02901 14.5547 8.29912 14.3556 8.49827L8.16087 14.693C7.74615 15.1077 7.07377 15.1077 6.65905 14.693C6.24433 14.2783 6.24433 13.6059 6.65905 13.1911L11.0409 8.80931H1.21527C0.62877 8.80931 0.15332 8.33386 0.15332 7.74736C0.15332 7.16087 0.62877 6.68542 1.21527 6.68542H11.0409L6.65905 2.30358C6.24433 1.88886 6.24433 1.21648 6.65905 0.80176Z" fill="#05164D"/>
</svg>
