<svg width="16" height="19" viewBox="0 0 16 19" fill="none" xmlns="http://www.w3.org/2000/svg">
<path d="M15.0891 14.4052C15.0917 15.3868 14.6912 16.3288 13.9761 17.0243C13.261 17.7191 12.291 18.1093 11.2787 18.1085H3.81041C2.79799 18.1093 1.82804 17.7191 1.11299 17.0243C0.397871 16.3288 -0.00256982 15.3867 2.64084e-05 14.4052C-0.00344078 13.5011 0.334608 12.628 0.950913 11.9502C1.56633 11.2723 2.41754 10.8374 3.34144 10.7272C4.74738 10.5632 6.16202 10.4825 7.57752 10.4842C8.97567 10.485 10.373 10.5666 11.7608 10.7272C12.683 10.8399 13.5308 11.2756 14.1444 11.9535C14.7573 12.6314 15.0934 13.5035 15.0891 14.4052Z" fill="#FFB81D"/>
<path d="M11.6607 4.88583C11.6607 7.09198 9.81786 8.88019 7.54421 8.88019C5.27055 8.88019 3.42773 7.09204 3.42773 4.88583C3.42773 2.67963 5.27055 0.891479 7.54421 0.891479C9.81786 0.891479 11.6607 2.67963 11.6607 4.88583Z" fill="#FFB81D"/>
</svg>
