<svg width="20" height="20" viewBox="0 0 20 20" fill="none" xmlns="http://www.w3.org/2000/svg">
<path fill-rule="evenodd" clip-rule="evenodd" d="M17.9994 10C17.9994 14.4183 14.4183 17.9994 10 17.9994C5.58177 17.9994 2.0006 14.4183 2.0006 10C2.0006 5.58174 5.58177 2.00058 10 2.00058C14.4183 2.00058 17.9994 5.58174 17.9994 10ZM20 10C20 15.5227 15.5227 20 10 20C4.4773 20 0 15.5227 0 10C0 4.4773 4.4773 0 10 0C15.5227 0 20 4.4773 20 10ZM6.50043 8.99971C7.32821 8.99971 8.00038 8.32848 8.00038 7.49976C8.00038 6.67198 7.32821 5.99981 6.50043 5.99981C5.67171 5.99981 5.00048 6.67198 5.00048 7.49976C5.00048 8.32848 5.67171 8.99971 6.50043 8.99971ZM14.9995 7.49976C14.9995 8.32848 14.3283 8.99971 13.4996 8.99971C12.6718 8.99971 11.9996 8.32848 11.9996 7.49976C11.9996 6.67198 12.6718 5.99981 13.4996 5.99981C14.3283 5.99981 14.9995 6.67198 14.9995 7.49976ZM6.78074 11.8748C6.43575 11.4436 5.80671 11.3742 5.37547 11.7192C4.94423 12.0642 4.87393 12.6932 5.21891 13.1245C7.61979 16.1244 12.3803 16.1244 14.7812 13.1245C15.1262 12.6932 15.0558 12.0642 14.6246 11.7192C14.1934 11.3742 13.5643 11.4436 13.2193 11.8748C11.6191 13.8744 8.38101 13.8744 6.78074 11.8748Z" fill="#23B147"/>
</svg>
