<svg width="13" height="15" viewBox="0 0 13 15" fill="none" xmlns="http://www.w3.org/2000/svg">
<path d="M12.8176 6.22434C12.7762 4.07099 12.476 2.48288 12.4801 2.48128C12.3552 2.2378 12.1363 2.03419 11.8682 1.93019C10.1092 1.24851 8.37954 0.597802 6.69296 0.0426116C6.52061 -0.0142039 6.33884 -0.0142039 6.1667 0.0426116C4.48061 0.596329 2.7512 1.24589 0.992252 1.92673C0.755614 2.01839 0.557206 2.1881 0.427871 2.39433C0.437818 2.39548 0.0664319 3.55419 0.00306478 6.11328C-0.0344194 8.6727 0.284518 9.43928 0.27393 9.44035C0.446592 10.0029 0.769716 10.575 1.23264 11.1568C1.75011 11.8066 2.44935 12.4778 3.294 13.1376C4.69215 14.2342 6.00078 14.8896 6.05546 14.9127C6.1742 14.9707 6.29995 15.0003 6.42958 15C6.55941 15 6.68527 14.9704 6.80369 14.9121C6.85877 14.889 8.16877 14.2316 9.56622 13.1352C10.4112 12.4749 11.1104 11.8037 11.6281 11.1541C12.1242 10.5309 12.4596 9.91957 12.6217 9.31898C12.6152 9.31814 12.8497 8.37823 12.8173 6.22467L12.8176 6.22434ZM7.12581 7.90389V9.26831C7.12581 9.65274 6.8142 9.96413 6.4295 9.96442C6.04479 9.96442 5.73289 9.65303 5.73289 9.2686V7.92323C5.23091 7.67389 4.8856 7.15648 4.8856 6.55862C4.8856 5.71717 5.56809 5.03486 6.41014 5.03486C7.2522 5.03486 7.93468 5.71685 7.935 6.5583C7.935 7.14132 7.60726 7.64784 7.12581 7.90386V7.90389Z" fill="#FFB81D"/>
</svg>
