<svg width="144" height="49" viewBox="0 0 144 49" fill="none" xmlns="http://www.w3.org/2000/svg">
<path d="M0.046875 0.000882969L143.29 0L126.779 49H16.9837L0.046875 0.000882969Z" fill="#F5F5F5"/>
<path d="M49.4819 14.3754C49.4819 15.9941 48.1463 17.3063 46.5 17.3063C44.8537 17.3063 43.5181 15.9941 43.5181 14.3754C43.5181 12.7556 44.8537 11.4435 46.5 11.4435C48.1463 11.4435 49.4819 12.7557 49.4819 14.3754Z" fill="#A8A8A8"/>
<path d="M49.6199 18.6102C49.5644 18.5556 49.5099 18.5283 49.4267 18.4748C47.4109 17.3347 45.2853 17.3347 43.3527 18.4748C43.2972 18.502 43.2427 18.5566 43.1872 18.5829C41.0615 20.3748 40.2608 23.2522 40.7305 27.3505C40.8138 27.9751 41.3935 28.4359 42.0277 28.3824C42.663 28.3005 43.1317 27.7305 43.0772 27.1069C42.8284 24.8268 42.9939 23.0621 43.6292 21.7596C43.3527 26.8089 43.4637 31.6671 43.5737 35.6584V36.2558C43.6014 36.9612 44.1812 37.5039 44.8709 37.5039H44.8986C45.6161 37.4766 46.168 36.9339 46.168 36.2285V36.1193L46.278 27.7045H46.4713L46.6378 36.2811H46.6656C46.6656 36.9592 47.2453 37.5292 47.935 37.5565H47.9628C48.6802 37.5565 49.26 36.9865 49.26 36.3084L49.2877 35.711C49.371 31.7482 49.481 26.916 49.2322 21.8941C49.8119 23.1696 49.9774 24.907 49.7287 27.1334C49.6753 27.7854 50.1162 28.3554 50.7793 28.4089H50.917C51.4967 28.4089 52.0209 27.9743 52.0765 27.377C52.5462 23.2787 51.7455 20.4014 49.6198 18.6105L49.6199 18.6102Z" fill="#A8A8A8"/>
<path d="M78.5484 14.3754C78.5484 15.9941 77.2128 17.3063 75.5665 17.3063C73.9202 17.3063 72.5846 15.9941 72.5846 14.3754C72.5846 12.7556 73.9202 11.4435 75.5665 11.4435C77.2128 11.4435 78.5484 12.7557 78.5484 14.3754Z" fill="#A8A8A8"/>
<path d="M78.6864 18.6102C78.6309 18.5556 78.5764 18.5283 78.4932 18.4747C76.4774 17.3347 74.3518 17.3347 72.4192 18.4747C72.3637 18.502 72.3092 18.5566 72.2537 18.5829C70.128 20.3748 69.3273 23.2522 69.797 27.3505C69.8803 27.9751 70.46 28.4359 71.0942 28.3824C71.7295 28.3005 72.1982 27.7305 72.1437 27.1069C71.8949 24.8268 72.0604 23.0621 72.6957 21.7595C72.4192 26.8089 72.5302 31.6671 72.6402 35.6584V36.2558C72.6679 36.9612 73.2477 37.5039 73.9374 37.5039H73.9651C74.6826 37.4766 75.2345 36.9339 75.2345 36.2285V36.1193L75.3445 27.7045H75.5378L75.7043 36.2811H75.7321C75.7321 36.9592 76.3118 37.5292 77.0015 37.5565H77.0293C77.7467 37.5565 78.3265 36.9865 78.3265 36.3084L78.3542 35.711C78.4375 31.7482 78.5475 26.916 78.2987 21.8941C78.8784 23.1696 79.0439 24.9069 78.7952 27.1334C78.7418 27.7854 79.1827 28.3554 79.8457 28.4089H79.9835C80.5632 28.4089 81.0874 27.9743 81.143 27.377C81.6127 23.2787 80.812 20.4014 78.6863 18.6105L78.6864 18.6102Z" fill="#A8A8A8"/>
<path d="M107.615 14.3754C107.615 15.9941 106.279 17.3063 104.633 17.3063C102.987 17.3063 101.651 15.9941 101.651 14.3754C101.651 12.7556 102.987 11.4435 104.633 11.4435C106.279 11.4435 107.615 12.7557 107.615 14.3754Z" fill="#A8A8A8"/>
<path d="M107.753 18.6102C107.697 18.5556 107.643 18.5283 107.56 18.4748C105.544 17.3347 103.418 17.3347 101.486 18.4748C101.43 18.502 101.376 18.5566 101.32 18.5829C99.1944 20.3748 98.3936 23.2522 98.8634 27.3505C98.9467 27.9751 99.5264 28.4359 100.161 28.3824C100.796 28.3005 101.265 27.7305 101.21 27.1069C100.961 24.8268 101.127 23.0621 101.762 21.7596C101.486 26.8089 101.597 31.6671 101.707 35.6584V36.2558C101.734 36.9612 102.314 37.5039 103.004 37.5039H103.031C103.749 37.4766 104.301 36.9339 104.301 36.2285V36.1193L104.411 27.7045H104.604L104.771 36.2811H104.798C104.798 36.9592 105.378 37.5292 106.068 37.5565H106.096C106.813 37.5565 107.393 36.9865 107.393 36.3084L107.421 35.711C107.504 31.7482 107.614 26.916 107.365 21.8941C107.945 23.1696 108.11 24.907 107.862 27.1334C107.808 27.7854 108.249 28.3554 108.912 28.4089H109.05C109.63 28.4089 110.154 27.9743 110.209 27.377C110.679 23.2787 109.878 20.4014 107.753 18.6105L107.753 18.6102Z" fill="#A8A8A8"/>
</svg>
