<svg width="183" height="49" viewBox="0 0 183 49" fill="none" xmlns="http://www.w3.org/2000/svg">
<path d="M0.719727 0H182.616L166.763 49H15.6726L0.719727 0Z" fill="#EBEBEB"/>
<path d="M54.357 14.5166C54.357 16.1128 53.04 17.4066 51.4167 17.4066C49.7934 17.4066 48.4764 16.1127 48.4764 14.5166C48.4764 12.9195 49.7934 11.6256 51.4167 11.6256C53.04 11.6256 54.357 12.9195 54.357 14.5166Z" fill="#A8A8A8"/>
<path d="M54.4931 18.6924C54.4383 18.6385 54.3846 18.6116 54.3025 18.5588C52.3149 17.4347 50.219 17.4347 48.3133 18.5588C48.2586 18.5857 48.2049 18.6396 48.1501 18.6654C46.0541 20.4324 45.2645 23.2696 45.7277 27.3107C45.8098 27.9266 46.3815 28.381 47.0068 28.3282C47.6332 28.2475 48.0954 27.6854 48.0417 27.0705C47.7964 24.8223 47.9596 23.0822 48.5859 21.7978C48.3133 26.7767 48.4228 31.5671 48.5312 35.5027V36.0917C48.5586 36.7873 49.1302 37.3225 49.8103 37.3225H49.8377C50.5451 37.2956 51.0894 36.7604 51.0894 36.0648V35.9572L51.1978 27.6598H51.3884L51.5526 36.1167H51.58C51.58 36.7854 52.1516 37.3474 52.8317 37.3743H52.8591C53.5665 37.3743 54.1382 36.8123 54.1382 36.1436L54.1655 35.5546C54.2476 31.6471 54.3561 26.8823 54.1108 21.9305C54.6824 23.1882 54.8456 24.9013 54.6003 27.0967C54.5477 27.7395 54.9825 28.3016 55.6362 28.3544H55.7721C56.3437 28.3544 56.8606 27.9258 56.9154 27.3369C57.3786 23.2958 56.589 20.4586 54.493 18.6927L54.4931 18.6924Z" fill="#A8A8A8"/>
<path d="M82.9667 14.5167C82.9667 16.1128 81.6497 17.4066 80.0264 17.4066C78.4031 17.4066 77.0861 16.1128 77.0861 14.5167C77.0861 12.9195 78.4031 11.6257 80.0264 11.6257C81.6497 11.6257 82.9667 12.9195 82.9667 14.5167Z" fill="#A8A8A8"/>
<path d="M83.1027 18.6924C83.048 18.6386 82.9943 18.6117 82.9122 18.5589C80.9246 17.4347 78.8286 17.4347 76.923 18.5589C76.8682 18.5858 76.8145 18.6396 76.7598 18.6655C74.6638 20.4324 73.8742 23.2697 74.3374 27.3107C74.4195 27.9266 74.9912 28.3811 75.6165 28.3282C76.2429 28.2475 76.705 27.6854 76.6513 27.0706C76.406 24.8223 76.5692 23.0822 77.1956 21.7978C76.9229 26.7767 77.0324 31.5672 77.1409 35.5028V36.0918C77.1682 36.7874 77.7399 37.3225 78.42 37.3225H78.4473C79.1548 37.2956 79.6991 36.7604 79.6991 36.0649V35.9572L79.8075 27.6599H79.998L80.1623 36.1167H80.1896C80.1896 36.7854 80.7613 37.3475 81.4414 37.3744H81.4687C82.1762 37.3744 82.7478 36.8123 82.7478 36.1436L82.7752 35.5547C82.8573 31.6471 82.9657 26.8824 82.7205 21.9305C83.2921 23.1882 83.4553 24.9013 83.21 27.0968C83.1573 27.7396 83.5921 28.3016 84.2459 28.3544H84.3817C84.9534 28.3544 85.4703 27.9259 85.525 27.3369C85.9882 23.2958 85.1987 20.4586 83.1026 18.6927L83.1027 18.6924Z" fill="#A8A8A8"/>
<path d="M111.577 14.5167C111.577 16.1128 110.26 17.4067 108.636 17.4067C107.013 17.4067 105.696 16.1128 105.696 14.5167C105.696 12.9195 107.013 11.6257 108.636 11.6257C110.26 11.6257 111.577 12.9195 111.577 14.5167Z" fill="#A8A8A8"/>
<path d="M111.713 18.6924C111.658 18.6386 111.604 18.6117 111.522 18.5589C109.534 17.4347 107.439 17.4347 105.533 18.5589C105.478 18.5858 105.424 18.6396 105.37 18.6655C103.274 20.4324 102.484 23.2697 102.947 27.3108C103.029 27.9266 103.601 28.3811 104.226 28.3283C104.853 28.2475 105.315 27.6854 105.261 27.0706C105.016 24.8223 105.179 23.0822 105.805 21.7978C105.533 26.7767 105.642 31.5672 105.751 35.5028V36.0918C105.778 36.7874 106.35 37.3225 107.03 37.3225H107.057C107.765 37.2956 108.309 36.7605 108.309 36.0649V35.9572L108.417 27.6599H108.608L108.772 36.1167H108.8C108.8 36.7854 109.371 37.3475 110.051 37.3744H110.079C110.786 37.3744 111.358 36.8123 111.358 36.1437L111.385 35.5547C111.467 31.6471 111.576 26.8824 111.33 21.9305C111.902 23.1882 112.065 24.9013 111.82 27.0968C111.767 27.7396 112.202 28.3016 112.856 28.3544H112.992C113.563 28.3544 114.08 27.9259 114.135 27.3369C114.598 23.2958 113.809 20.4586 111.712 18.6927L111.713 18.6924Z" fill="#A8A8A8"/>
<path d="M140.186 14.5167C140.186 16.1128 138.869 17.4067 137.245 17.4067C135.622 17.4067 134.305 16.1128 134.305 14.5167C134.305 12.9195 135.622 11.6257 137.245 11.6257C138.869 11.6257 140.186 12.9195 140.186 14.5167Z" fill="#A8A8A8"/>
<path d="M140.322 18.6924C140.267 18.6386 140.213 18.6117 140.131 18.5589C138.144 17.4347 136.048 17.4347 134.142 18.5589C134.087 18.5858 134.034 18.6396 133.979 18.6655C131.883 20.4324 131.093 23.2697 131.556 27.3108C131.639 27.9266 132.21 28.3811 132.836 28.3283C133.462 28.2475 133.924 27.6854 133.87 27.0706C133.625 24.8223 133.788 23.0822 134.415 21.7978C134.142 26.7767 134.252 31.5672 134.36 35.5028V36.0918C134.387 36.7874 134.959 37.3225 135.639 37.3225H135.666C136.374 37.2956 136.918 36.7605 136.918 36.0649V35.9572L137.027 27.6599H137.217L137.381 36.1167H137.409C137.409 36.7854 137.98 37.3475 138.66 37.3744H138.688C139.395 37.3744 139.967 36.8123 139.967 36.1437L139.994 35.5547C140.076 31.6471 140.185 26.8824 139.94 21.9305C140.511 23.1882 140.674 24.9013 140.429 27.0968C140.376 27.7396 140.811 28.3016 141.465 28.3544H141.601C142.172 28.3544 142.689 27.9259 142.744 27.3369C143.207 23.2958 142.418 20.4586 140.322 18.6927L140.322 18.6924Z" fill="#A8A8A8"/>
</svg>
