<svg width="222" height="49" viewBox="0 0 222 49" fill="none" xmlns="http://www.w3.org/2000/svg">
<path d="M0.256836 0L221.943 0.000142075L206.108 49H15.6516L0.256836 0Z" fill="#E7E7E7"/>
<path d="M56.7767 14.0393C56.7767 15.7117 55.3967 17.0674 53.6958 17.0674C51.9949 17.0674 50.6149 15.7117 50.6149 14.0393C50.6149 12.3658 51.9949 11.01 53.6958 11.01C55.3967 11.01 56.7767 12.3658 56.7767 14.0393Z" fill="#A8A8A8"/>
<path d="M56.9192 18.4146C56.8619 18.3582 56.8056 18.33 56.7196 18.2747C54.6369 17.0968 52.4408 17.0968 50.444 18.2747C50.3867 18.3029 50.3304 18.3593 50.273 18.3864C48.0768 20.2378 47.2495 23.2107 47.7348 27.445C47.8209 28.0903 48.4198 28.5665 49.0751 28.5111C49.7314 28.4265 50.2157 27.8376 50.1594 27.1933C49.9024 24.8376 50.0734 23.0143 50.7297 21.6685C50.444 26.8854 50.5587 31.9049 50.6723 36.0287V36.6458C50.701 37.3747 51.3 37.9354 52.0126 37.9354H52.0413C52.7825 37.9072 53.3528 37.3465 53.3528 36.6176V36.5048L53.4664 27.8108H53.6661L53.8382 36.672H53.8669C53.8669 37.3726 54.4658 37.9615 55.1784 37.9897H55.2071C55.9484 37.9897 56.5474 37.4008 56.5474 36.7002L56.576 36.083C56.6621 31.9887 56.7757 26.9961 56.5187 21.8075C57.1177 23.1253 57.2886 24.9203 57.0316 27.2207C56.9765 27.8943 57.432 28.4832 58.1171 28.5385H58.2594C58.8583 28.5385 59.4 28.0895 59.4573 27.4724C59.9427 23.2381 59.1154 20.2652 56.9191 18.4149L56.9192 18.4146Z" fill="#A8A8A8"/>
<path d="M86.808 14.0394C86.808 15.7118 85.4281 17.0675 83.7272 17.0675C82.0262 17.0675 80.6463 15.7118 80.6463 14.0394C80.6463 12.3659 82.0262 11.0102 83.7272 11.0102C85.4281 11.0102 86.808 12.3659 86.808 14.0394Z" fill="#A8A8A8"/>
<path d="M86.9506 18.4147C86.8932 18.3583 86.837 18.3301 86.7509 18.2748C84.6683 17.0969 82.4722 17.0969 80.4754 18.2748C80.418 18.303 80.3618 18.3594 80.3044 18.3865C78.1082 20.2379 77.2808 23.2108 77.7662 27.4451C77.8522 28.0904 78.4512 28.5666 79.1064 28.5112C79.7628 28.4266 80.2471 27.8377 80.1908 27.1934C79.9338 24.8377 80.1047 23.0144 80.7611 21.6686C80.4754 26.8855 80.5901 31.905 80.7037 36.0288V36.6459C80.7324 37.3748 81.3314 37.9355 82.044 37.9355H82.0726C82.8139 37.9073 83.3842 37.3466 83.3842 36.6177V36.5049L83.4978 27.8109H83.6975L83.8696 36.6721H83.8982C83.8982 37.3727 84.4972 37.9617 85.2098 37.9899H85.2385C85.9798 37.9899 86.5787 37.4009 86.5787 36.7003L86.6074 36.0831C86.6935 31.9888 86.8071 26.9962 86.5501 21.8077C87.149 23.1254 87.32 24.9205 87.063 27.2209C87.0078 27.8944 87.4634 28.4833 88.1484 28.5387H88.2907C88.8897 28.5387 89.4313 28.0896 89.4887 27.4725C89.9741 23.2382 89.1467 20.2654 86.9505 18.415L86.9506 18.4147Z" fill="#A8A8A8"/>
<path d="M116.839 14.0394C116.839 15.7118 115.459 17.0675 113.758 17.0675C112.057 17.0675 110.677 15.7118 110.677 14.0394C110.677 12.3659 112.057 11.0101 113.758 11.0101C115.459 11.0101 116.839 12.3659 116.839 14.0394Z" fill="#A8A8A8"/>
<path d="M116.982 18.4147C116.924 18.3583 116.868 18.3301 116.782 18.2748C114.699 17.0969 112.503 17.0969 110.506 18.2748C110.449 18.303 110.393 18.3594 110.335 18.3865C108.139 20.2379 107.312 23.2108 107.797 27.4451C107.883 28.0904 108.482 28.5666 109.137 28.5112C109.794 28.4266 110.278 27.8377 110.222 27.1934C109.965 24.8377 110.136 23.0144 110.792 21.6686C110.506 26.8855 110.621 31.905 110.735 36.0288V36.6459C110.763 37.3748 111.362 37.9355 112.075 37.9355H112.104C112.845 37.9073 113.415 37.3466 113.415 36.6177V36.5049L113.529 27.8109H113.728L113.901 36.6721H113.929C113.929 37.3727 114.528 37.9616 115.241 37.9898H115.269C116.011 37.9898 116.61 37.4009 116.61 36.7003L116.638 36.0831C116.724 31.9888 116.838 26.9962 116.581 21.8076C117.18 23.1254 117.351 24.9205 117.094 27.2208C117.039 27.8944 117.494 28.4833 118.179 28.5386H118.322C118.921 28.5386 119.462 28.0896 119.52 27.4725C120.005 23.2382 119.178 20.2653 116.981 18.415L116.982 18.4147Z" fill="#A8A8A8"/>
<path d="M146.87 14.0394C146.87 15.7118 145.49 17.0675 143.789 17.0675C142.088 17.0675 140.708 15.7118 140.708 14.0394C140.708 12.3659 142.088 11.0101 143.789 11.0101C145.49 11.0101 146.87 12.3659 146.87 14.0394Z" fill="#A8A8A8"/>
<path d="M147.013 18.4147C146.955 18.3583 146.899 18.3301 146.813 18.2748C144.73 17.0969 142.534 17.0969 140.538 18.2748C140.48 18.303 140.424 18.3594 140.367 18.3865C138.17 20.2379 137.343 23.2108 137.828 27.4451C137.914 28.0904 138.513 28.5666 139.169 28.5112C139.825 28.4266 140.309 27.8377 140.253 27.1934C139.996 24.8377 140.167 23.0144 140.823 21.6686C140.537 26.8855 140.652 31.905 140.766 36.0288V36.6459C140.795 37.3748 141.394 37.9355 142.106 37.9355H142.135C142.876 37.9073 143.446 37.3466 143.446 36.6177V36.5049L143.56 27.8109H143.76L143.932 36.6721H143.96C143.96 37.3727 144.559 37.9616 145.272 37.9898H145.301C146.042 37.9898 146.641 37.4009 146.641 36.7003L146.67 36.0831C146.756 31.9888 146.869 26.9962 146.612 21.8076C147.211 23.1254 147.382 24.9205 147.125 27.2208C147.07 27.8944 147.526 28.4833 148.211 28.5386H148.353C148.952 28.5386 149.493 28.0896 149.551 27.4725C150.036 23.2382 149.209 20.2653 147.013 18.415L147.013 18.4147Z" fill="#A8A8A8"/>
<path d="M176.901 14.0394C176.901 15.7118 175.521 17.0675 173.82 17.0675C172.119 17.0675 170.74 15.7118 170.74 14.0394C170.74 12.3659 172.119 11.0102 173.82 11.0102C175.521 11.0102 176.901 12.3659 176.901 14.0394Z" fill="#A8A8A8"/>
<path d="M177.044 18.4147C176.986 18.3583 176.93 18.3301 176.844 18.2748C174.762 17.0969 172.565 17.0969 170.569 18.2748C170.511 18.303 170.455 18.3594 170.398 18.3865C168.201 20.2379 167.374 23.2108 167.859 27.4451C167.945 28.0904 168.544 28.5666 169.2 28.5112C169.856 28.4266 170.34 27.8377 170.284 27.1934C170.027 24.8377 170.198 23.0144 170.854 21.6686C170.569 26.8855 170.683 31.905 170.797 36.0288V36.6459C170.826 37.3748 171.425 37.9355 172.137 37.9355H172.166C172.907 37.9073 173.477 37.3466 173.477 36.6177V36.5049L173.591 27.8109H173.791L173.963 36.6721H173.991C173.991 37.3727 174.59 37.9617 175.303 37.9899H175.332C176.073 37.9899 176.672 37.4009 176.672 36.7003L176.701 36.0831C176.787 31.9888 176.9 26.9962 176.643 21.8077C177.242 23.1254 177.413 24.9205 177.156 27.2209C177.101 27.8944 177.557 28.4833 178.242 28.5387H178.384C178.983 28.5387 179.525 28.0896 179.582 27.4725C180.067 23.2382 179.24 20.2654 177.044 18.415L177.044 18.4147Z" fill="#A8A8A8"/>
</svg>
