<svg width="304" height="50" viewBox="0 0 304 50" fill="none" xmlns="http://www.w3.org/2000/svg">
<path d="M0.330078 -0.00012207H303.869L287.726 49.9999H18.7207L0.330078 -0.00012207Z" fill="#ECECEC"/>
<path d="M59.3504 14.4544C59.3504 16.1405 57.9592 17.5072 56.2445 17.5072C54.5297 17.5072 53.1385 16.1404 53.1385 14.4544C53.1385 12.7672 54.5297 11.4005 56.2445 11.4005C57.9592 11.4005 59.3504 12.7673 59.3504 14.4544Z" fill="#A8A8A8"/>
<path d="M59.4942 18.8653C59.4363 18.8085 59.3796 18.7801 59.2929 18.7243C57.1933 17.5368 54.9792 17.5368 52.9662 18.7243C52.9084 18.7527 52.8517 18.8096 52.7938 18.8369C50.5797 20.7034 49.7456 23.7005 50.2349 27.9693C50.3217 28.6199 50.9255 29.0999 51.5861 29.0441C52.2478 28.9588 52.736 28.3651 52.6793 27.7156C52.4202 25.3406 52.5925 23.5025 53.2542 22.1458C52.9662 27.4052 53.0818 32.4655 53.1964 36.6229V37.2451C53.2253 37.9799 53.8292 38.5452 54.5475 38.5452H54.5765C55.3238 38.5167 55.8987 37.9514 55.8987 37.2166V37.1029L56.0132 28.3381H56.2145L56.388 37.2714H56.4169C56.4169 37.9778 57.0208 38.5715 57.7392 38.6H57.7681C58.5154 38.6 59.1193 38.0062 59.1193 37.2999L59.1482 36.6777C59.2349 32.55 59.3495 27.5168 59.0903 22.2859C59.6942 23.6144 59.8666 25.4241 59.6075 27.7432C59.5519 28.4223 60.0112 29.016 60.7018 29.0718H60.8452C61.4491 29.0718 61.9951 28.6191 62.0529 27.9969C62.5423 23.7281 61.7082 20.7311 59.494 18.8657L59.4942 18.8653Z" fill="#A8A8A8"/>
<path d="M91.4391 14.4542C91.4391 16.1402 90.0479 17.507 88.3331 17.507C86.6184 17.507 85.2272 16.1402 85.2272 14.4542C85.2272 12.767 86.6184 11.4003 88.3331 11.4003C90.0479 11.4003 91.4391 12.767 91.4391 14.4542Z" fill="#A8A8A8"/>
<path d="M91.5828 18.8651C91.525 18.8083 91.4683 18.7798 91.3816 18.7241C89.282 17.5366 87.0679 17.5366 85.0549 18.7241C84.997 18.7525 84.9403 18.8094 84.8825 18.8367C82.6684 20.7032 81.8343 23.7003 82.3236 27.9691C82.4103 28.6196 83.0142 29.0997 83.6748 29.0439C84.3365 28.9586 84.8247 28.3649 84.7679 27.7154C84.5088 25.3404 84.6812 23.5023 85.3429 22.1455C85.0548 27.4049 85.1705 32.4653 85.285 36.6227V37.2449C85.314 37.9796 85.9178 38.5449 86.6362 38.5449H86.6651C87.4124 38.5165 87.9874 37.9512 87.9874 37.2164V37.1027L88.1019 28.3379H88.3032L88.4767 37.2712H88.5056C88.5056 37.9776 89.1095 38.5713 89.8278 38.5997H89.8568C90.6041 38.5997 91.2079 38.006 91.2079 37.2996L91.2368 36.6775C91.3236 32.5498 91.4381 27.5166 91.179 22.2857C91.7829 23.6142 91.9553 25.4239 91.6961 27.743C91.6405 28.422 92.0998 29.0158 92.7904 29.0715H92.9339C93.5377 29.0715 94.0838 28.6188 94.1416 27.9967C94.6309 23.7279 93.7969 20.7308 91.5827 18.8655L91.5828 18.8651Z" fill="#A8A8A8"/>
<path d="M123.528 14.4542C123.528 16.1402 122.137 17.507 120.422 17.507C118.707 17.507 117.316 16.1402 117.316 14.4542C117.316 12.767 118.707 11.4003 120.422 11.4003C122.137 11.4003 123.528 12.767 123.528 14.4542Z" fill="#A8A8A8"/>
<path d="M123.672 18.8651C123.614 18.8083 123.557 18.7798 123.47 18.7241C121.371 17.5366 119.157 17.5366 117.144 18.7241C117.086 18.7525 117.029 18.8094 116.971 18.8367C114.757 20.7032 113.923 23.7003 114.412 27.9691C114.499 28.6196 115.103 29.0997 115.763 29.0439C116.425 28.9586 116.913 28.3649 116.857 27.7154C116.597 25.3404 116.77 23.5023 117.432 22.1455C117.144 27.4049 117.259 32.4653 117.374 36.6227V37.2449C117.403 37.9796 118.006 38.5449 118.725 38.5449H118.754C119.501 38.5165 120.076 37.9512 120.076 37.2164V37.1027L120.191 28.3379H120.392L120.565 37.2712H120.594C120.594 37.9776 121.198 38.5713 121.917 38.5997H121.945C122.693 38.5997 123.297 38.006 123.297 37.2996L123.326 36.6775C123.412 32.5498 123.527 27.5166 123.268 22.2857C123.872 23.6142 124.044 25.4239 123.785 27.743C123.729 28.422 124.188 29.0158 124.879 29.0715H125.023C125.626 29.0715 126.172 28.6188 126.23 27.9967C126.72 23.7279 125.886 20.7308 123.671 18.8655L123.672 18.8651Z" fill="#A8A8A8"/>
<path d="M155.617 14.4541C155.617 16.1402 154.225 17.5069 152.511 17.5069C150.796 17.5069 149.405 16.1402 149.405 14.4541C149.405 12.767 150.796 11.4002 152.511 11.4002C154.225 11.4002 155.617 12.767 155.617 14.4541Z" fill="#A8A8A8"/>
<path d="M155.76 18.8651C155.703 18.8082 155.646 18.7798 155.559 18.724C153.46 17.5366 151.245 17.5366 149.232 18.724C149.175 18.7525 149.118 18.8093 149.06 18.8367C146.846 20.7032 146.012 23.7003 146.501 27.969C146.588 28.6196 147.192 29.0997 147.852 29.0439C148.514 28.9586 149.002 28.3648 148.945 27.7153C148.686 25.3404 148.859 23.5023 149.52 22.1455C149.232 27.4049 149.348 32.4653 149.463 36.6227V37.2448C149.492 37.9796 150.095 38.5449 150.814 38.5449H150.843C151.59 38.5165 152.165 37.9512 152.165 37.2164V37.1027L152.279 28.3378H152.481L152.654 37.2712H152.683C152.683 37.9775 153.287 38.5713 154.005 38.5997H154.034C154.782 38.5997 155.385 38.006 155.385 37.2996L155.414 36.6774C155.501 32.5498 155.616 27.5165 155.357 22.2857C155.96 23.6142 156.133 25.4239 155.874 27.743C155.818 28.422 156.277 29.0157 156.968 29.0715H157.111C157.715 29.0715 158.261 28.6188 158.319 27.9967C158.808 23.7279 157.974 20.7308 155.76 18.8654L155.76 18.8651Z" fill="#A8A8A8"/>
<path d="M187.705 14.4541C187.705 16.1402 186.314 17.5069 184.599 17.5069C182.884 17.5069 181.493 16.1402 181.493 14.4541C181.493 12.767 182.884 11.4002 184.599 11.4002C186.314 11.4002 187.705 12.767 187.705 14.4541Z" fill="#A8A8A8"/>
<path d="M187.849 18.8651C187.791 18.8082 187.734 18.7798 187.647 18.724C185.548 17.5366 183.334 17.5366 181.321 18.724C181.263 18.7525 181.206 18.8093 181.148 18.8367C178.934 20.7032 178.1 23.7003 178.59 27.969C178.676 28.6196 179.28 29.0997 179.941 29.0439C180.602 28.9586 181.091 28.3648 181.034 27.7153C180.775 25.3404 180.947 23.5023 181.609 22.1455C181.321 27.4049 181.436 32.4653 181.551 36.6227V37.2448C181.58 37.9796 182.184 38.5449 182.902 38.5449H182.931C183.678 38.5165 184.253 37.9512 184.253 37.2164V37.1027L184.368 28.3378H184.569L184.743 37.2712H184.772C184.772 37.9775 185.375 38.5713 186.094 38.5997H186.123C186.87 38.5997 187.474 38.006 187.474 37.2996L187.503 36.6774C187.59 32.5498 187.704 27.5165 187.445 22.2857C188.049 23.6142 188.221 25.4239 187.962 27.743C187.906 28.422 188.366 29.0157 189.056 29.0715H189.2C189.804 29.0715 190.35 28.6188 190.408 27.9967C190.897 23.7279 190.063 20.7308 187.849 18.8654L187.849 18.8651Z" fill="#A8A8A8"/>
<path d="M219.794 14.4542C219.794 16.1402 218.403 17.507 216.688 17.507C214.973 17.507 213.582 16.1402 213.582 14.4542C213.582 12.767 214.973 11.4003 216.688 11.4003C218.403 11.4003 219.794 12.767 219.794 14.4542Z" fill="#A8A8A8"/>
<path d="M219.937 18.8651C219.88 18.8083 219.823 18.7798 219.736 18.7241C217.637 17.5366 215.423 17.5366 213.41 18.7241C213.352 18.7525 213.295 18.8094 213.237 18.8367C211.023 20.7032 210.189 23.7003 210.678 27.9691C210.765 28.6196 211.369 29.0997 212.029 29.0439C212.691 28.9586 213.179 28.3649 213.123 27.7154C212.863 25.3404 213.036 23.5023 213.698 22.1455C213.41 27.4049 213.525 32.4653 213.64 36.6227V37.2449C213.669 37.9796 214.272 38.5449 214.991 38.5449H215.02C215.767 38.5165 216.342 37.9512 216.342 37.2164V37.1027L216.457 28.3379H216.658L216.831 37.2712H216.86C216.86 37.9776 217.464 38.5713 218.183 38.5997H218.211C218.959 38.5997 219.563 38.006 219.563 37.2996L219.592 36.6775C219.678 32.5498 219.793 27.5166 219.534 22.2857C220.138 23.6142 220.31 25.4239 220.051 27.743C219.995 28.422 220.454 29.0158 221.145 29.0715H221.289C221.892 29.0715 222.438 28.6188 222.496 27.9967C222.986 23.7279 222.152 20.7308 219.937 18.8655L219.937 18.8651Z" fill="#A8A8A8"/>
<path d="M251.882 14.4542C251.882 16.1402 250.491 17.507 248.776 17.507C247.062 17.507 245.67 16.1402 245.67 14.4542C245.67 12.767 247.062 11.4003 248.776 11.4003C250.491 11.4003 251.882 12.767 251.882 14.4542Z" fill="#A8A8A8"/>
<path d="M252.026 18.8651C251.968 18.8083 251.912 18.7798 251.825 18.7241C249.725 17.5366 247.511 17.5366 245.498 18.7241C245.44 18.7525 245.384 18.8094 245.326 18.8367C243.112 20.7032 242.278 23.7003 242.767 27.9691C242.854 28.6196 243.458 29.0997 244.118 29.0439C244.78 28.9586 245.268 28.3649 245.211 27.7154C244.952 25.3404 245.125 23.5023 245.786 22.1455C245.498 27.4049 245.614 32.4653 245.728 36.6227V37.2449C245.757 37.9796 246.361 38.5449 247.08 38.5449H247.108C247.856 38.5165 248.431 37.9512 248.431 37.2164V37.1027L248.545 28.3379H248.747L248.92 37.2712H248.949C248.949 37.9776 249.553 38.5713 250.271 38.5997H250.3C251.047 38.5997 251.651 38.006 251.651 37.2996L251.68 36.6775C251.767 32.5498 251.881 27.5166 251.622 22.2857C252.226 23.6142 252.399 25.4239 252.139 27.743C252.084 28.422 252.543 29.0158 253.234 29.0715H253.377C253.981 29.0715 254.527 28.6188 254.585 27.9967C255.074 23.7279 254.24 20.7308 252.026 18.8655L252.026 18.8651Z" fill="#A8A8A8"/>
</svg>
