<svg width="264" height="49" viewBox="0 0 264 49" fill="none" xmlns="http://www.w3.org/2000/svg">
<path d="M0.792969 0H263.405L247.543 49H16.2149L0.792969 0Z" fill="#E8E8E8"/>
<path d="M60.7084 13.5473C60.7084 15.2984 59.2635 16.7179 57.4826 16.7179C55.7016 16.7179 54.2567 15.2983 54.2567 13.5473C54.2567 11.795 55.7016 10.3755 57.4826 10.3755C59.2635 10.3755 60.7084 11.7951 60.7084 13.5473Z" fill="#A8A8A8"/>
<path d="M60.8576 18.1284C60.7976 18.0694 60.7387 18.0399 60.6486 17.9819C58.468 16.7486 56.1685 16.7486 54.0778 17.9819C54.0177 18.0115 53.9588 18.0705 53.8988 18.0989C51.5992 20.0374 50.733 23.1502 51.2411 27.5836C51.3312 28.2593 51.9584 28.7579 52.6444 28.6999C53.3317 28.6114 53.8387 27.9947 53.7798 27.3202C53.5107 24.8536 53.6897 22.9445 54.3769 21.5354C54.0778 26.9978 54.1979 32.2534 54.3168 36.5712V37.2173C54.3469 37.9805 54.974 38.5676 55.7201 38.5676H55.7502C56.5263 38.5381 57.1234 37.9509 57.1234 37.1878V37.0697L57.2424 27.9667H57.4515L57.6316 37.2447H57.6617C57.6617 37.9783 58.2888 38.595 59.0349 38.6245H59.065C59.8411 38.6245 60.4683 38.0079 60.4683 37.2742L60.4983 36.6281C60.5884 32.3411 60.7073 27.1137 60.4382 21.681C61.0654 23.0608 61.2444 24.9403 60.9753 27.3489C60.9175 28.0541 61.3946 28.6707 62.1118 28.7287H62.2608C62.888 28.7287 63.4551 28.2585 63.5151 27.6123C64.0233 23.1789 63.1571 20.0661 60.8575 18.1288L60.8576 18.1284Z" fill="#A8A8A8"/>
<path d="M92.1523 13.5473C92.1523 15.2984 90.7074 16.7179 88.9265 16.7179C87.1455 16.7179 85.7007 15.2983 85.7007 13.5473C85.7007 11.795 87.1455 10.3755 88.9265 10.3755C90.7074 10.3755 92.1523 11.7951 92.1523 13.5473Z" fill="#A8A8A8"/>
<path d="M92.3016 18.1284C92.2415 18.0694 92.1826 18.0399 92.0925 17.9819C89.9119 16.7486 87.6124 16.7486 85.5217 17.9819C85.4616 18.0115 85.4027 18.0705 85.3427 18.0989C83.0431 20.0374 82.1769 23.1502 82.6851 27.5836C82.7751 28.2593 83.4023 28.7579 84.0884 28.6999C84.7756 28.6114 85.2826 27.9947 85.2237 27.3202C84.9546 24.8536 85.1336 22.9445 85.8208 21.5354C85.5217 26.9978 85.6418 32.2534 85.7608 36.5712V37.2173C85.7908 37.9805 86.418 38.5676 87.1641 38.5676H87.1941C87.9702 38.5381 88.5674 37.9509 88.5674 37.1878V37.0697L88.6863 27.9667H88.8954L89.0756 37.2447H89.1056C89.1056 37.9783 89.7327 38.595 90.4788 38.6245H90.5089C91.285 38.6245 91.9122 38.0079 91.9122 37.2742L91.9422 36.6281C92.0323 32.3411 92.1513 27.1137 91.8822 21.681C92.5093 23.0608 92.6883 24.9403 92.4192 27.3489C92.3615 28.0541 92.8385 28.6707 93.5557 28.7287H93.7047C94.3319 28.7287 94.899 28.2585 94.959 27.6123C95.4673 23.1789 94.601 20.0661 92.3014 18.1288L92.3016 18.1284Z" fill="#A8A8A8"/>
<path d="M123.596 13.5473C123.596 15.2984 122.151 16.7179 120.37 16.7179C118.59 16.7179 117.145 15.2983 117.145 13.5473C117.145 11.795 118.59 10.3755 120.37 10.3755C122.151 10.3755 123.596 11.7951 123.596 13.5473Z" fill="#A8A8A8"/>
<path d="M123.746 18.1284C123.685 18.0694 123.627 18.0399 123.537 17.9819C121.356 16.7486 119.056 16.7486 116.966 17.9819C116.906 18.0115 116.847 18.0705 116.787 18.0989C114.487 20.0374 113.621 23.1502 114.129 27.5836C114.219 28.2593 114.846 28.7579 115.532 28.6999C116.22 28.6114 116.727 27.9947 116.668 27.3202C116.399 24.8536 116.578 22.9445 117.265 21.5354C116.966 26.9978 117.086 32.2534 117.205 36.5712V37.2173C117.235 37.9805 117.862 38.5676 118.608 38.5676H118.638C119.414 38.5381 120.011 37.9509 120.011 37.1878V37.0697L120.13 27.9667H120.339L120.52 37.2447H120.55C120.55 37.9783 121.177 38.595 121.923 38.6245H121.953C122.729 38.6245 123.356 38.0079 123.356 37.2742L123.386 36.6281C123.476 32.3411 123.595 27.1137 123.326 21.681C123.953 23.0608 124.132 24.9403 123.863 27.3489C123.805 28.0541 124.282 28.6707 125 28.7287H125.149C125.776 28.7287 126.343 28.2585 126.403 27.6123C126.911 23.1789 126.045 20.0661 123.745 18.1288L123.746 18.1284Z" fill="#A8A8A8"/>
<path d="M155.04 13.5473C155.04 15.2984 153.595 16.7179 151.814 16.7179C150.033 16.7179 148.589 15.2983 148.589 13.5473C148.589 11.795 150.033 10.3755 151.814 10.3755C153.595 10.3755 155.04 11.7951 155.04 13.5473Z" fill="#A8A8A8"/>
<path d="M155.189 18.1284C155.129 18.0694 155.071 18.0399 154.98 17.9819C152.8 16.7486 150.5 16.7486 148.41 17.9819C148.35 18.0115 148.291 18.0705 148.231 18.0989C145.931 20.0374 145.065 23.1502 145.573 27.5836C145.663 28.2593 146.29 28.7579 146.976 28.6999C147.664 28.6114 148.171 27.9947 148.112 27.3202C147.843 24.8536 148.022 22.9445 148.709 21.5354C148.41 26.9978 148.53 32.2534 148.649 36.5712V37.2173C148.679 37.9805 149.306 38.5676 150.052 38.5676H150.082C150.858 38.5381 151.455 37.9509 151.455 37.1878V37.0697L151.574 27.9667H151.783L151.963 37.2447H151.994C151.994 37.9783 152.621 38.595 153.367 38.6245H153.397C154.173 38.6245 154.8 38.0079 154.8 37.2742L154.83 36.6281C154.92 32.3411 155.039 27.1137 154.77 21.681C155.397 23.0608 155.576 24.9403 155.307 27.3489C155.249 28.0541 155.726 28.6707 156.444 28.7287H156.593C157.22 28.7287 157.787 28.2585 157.847 27.6123C158.355 23.1789 157.489 20.0661 155.189 18.1288L155.189 18.1284Z" fill="#A8A8A8"/>
<path d="M186.484 13.5473C186.484 15.2984 185.039 16.7179 183.258 16.7179C181.477 16.7179 180.033 15.2983 180.033 13.5473C180.033 11.795 181.477 10.3755 183.258 10.3755C185.039 10.3755 186.484 11.7951 186.484 13.5473Z" fill="#A8A8A8"/>
<path d="M186.633 18.1284C186.573 18.0694 186.514 18.0399 186.424 17.9819C184.244 16.7486 181.944 16.7486 179.854 17.9819C179.794 18.0115 179.735 18.0705 179.675 18.0989C177.375 20.0374 176.509 23.1502 177.017 27.5836C177.107 28.2593 177.734 28.7579 178.42 28.6999C179.107 28.6114 179.615 27.9947 179.556 27.3202C179.286 24.8536 179.465 22.9445 180.153 21.5354C179.854 26.9978 179.974 32.2534 180.093 36.5712V37.2173C180.123 37.9805 180.75 38.5676 181.496 38.5676H181.526C182.302 38.5381 182.899 37.9509 182.899 37.1878V37.0697L183.018 27.9667H183.227L183.407 37.2447H183.437C183.437 37.9783 184.065 38.595 184.811 38.6245H184.841C185.617 38.6245 186.244 38.0079 186.244 37.2742L186.274 36.6281C186.364 32.3411 186.483 27.1137 186.214 21.681C186.841 23.0608 187.02 24.9403 186.751 27.3489C186.693 28.0541 187.17 28.6707 187.888 28.7287H188.037C188.664 28.7287 189.231 28.2585 189.291 27.6123C189.799 23.1789 188.933 20.0661 186.633 18.1288L186.633 18.1284Z" fill="#A8A8A8"/>
<path d="M217.928 13.5473C217.928 15.2984 216.483 16.7179 214.702 16.7179C212.921 16.7179 211.477 15.2983 211.477 13.5473C211.477 11.795 212.921 10.3755 214.702 10.3755C216.483 10.3755 217.928 11.7951 217.928 13.5473Z" fill="#A8A8A8"/>
<path d="M218.077 18.1284C218.017 18.0694 217.958 18.0399 217.868 17.9819C215.688 16.7486 213.388 16.7486 211.298 17.9819C211.238 18.0115 211.179 18.0705 211.119 18.0989C208.819 20.0374 207.953 23.1502 208.461 27.5836C208.551 28.2593 209.178 28.7579 209.864 28.6999C210.551 28.6114 211.058 27.9947 211 27.3202C210.73 24.8536 210.909 22.9445 211.597 21.5354C211.298 26.9978 211.418 32.2534 211.537 36.5712V37.2173C211.567 37.9805 212.194 38.5676 212.94 38.5676H212.97C213.746 38.5381 214.343 37.9509 214.343 37.1878V37.0697L214.462 27.9667H214.671L214.851 37.2447H214.881C214.881 37.9783 215.509 38.595 216.255 38.6245H216.285C217.061 38.6245 217.688 38.0079 217.688 37.2742L217.718 36.6281C217.808 32.3411 217.927 27.1137 217.658 21.681C218.285 23.0608 218.464 24.9403 218.195 27.3489C218.137 28.0541 218.614 28.6707 219.332 28.7287H219.481C220.108 28.7287 220.675 28.2585 220.735 27.6123C221.243 23.1789 220.377 20.0661 218.077 18.1288L218.077 18.1284Z" fill="#A8A8A8"/>
</svg>
