<svg width="22" height="22" viewBox="0 0 22 22" fill="none" xmlns="http://www.w3.org/2000/svg">
<path d="M7.42847 10.2858C8.21739 10.2858 8.85693 9.64622 8.85693 8.8573C8.85693 8.06838 8.21739 7.42883 7.42847 7.42883C6.63955 7.42883 6 8.06838 6 8.8573C6 9.64622 6.63955 10.2858 7.42847 10.2858Z" fill="#FF3B30" fill-opacity="0.8"/>
<path d="M7.42847 10.4358C8.30023 10.4358 9.00693 9.72906 9.00693 8.8573C9.00693 7.98554 8.30023 7.27883 7.42847 7.27883C6.5567 7.27883 5.85 7.98554 5.85 8.8573C5.85 9.72906 6.5567 10.4358 7.42847 10.4358Z" stroke="#FF3B30" stroke-opacity="0.8" stroke-width="0.3"/>
<path d="M14.5701 10.2858C15.359 10.2858 15.9985 9.64622 15.9985 8.8573C15.9985 8.06838 15.359 7.42883 14.5701 7.42883C13.7811 7.42883 13.1416 8.06838 13.1416 8.8573C13.1416 9.64622 13.7811 10.2858 14.5701 10.2858Z" fill="#FF3B30" fill-opacity="0.8"/>
<path d="M14.5701 10.4358C15.4418 10.4358 16.1485 9.72906 16.1485 8.8573C16.1485 7.98554 15.4418 7.27883 14.5701 7.27883C13.6983 7.27883 12.9916 7.98554 12.9916 8.8573C12.9916 9.72906 13.6983 10.4358 14.5701 10.4358Z" stroke="#FF3B30" stroke-opacity="0.8" stroke-width="0.3"/>
<path d="M10.9993 1.00073C5.47753 1.00073 1 5.47826 1 11C1 16.521 5.47753 20.9993 10.9993 20.9993C16.5203 20.9993 20.9985 16.521 20.9985 11C20.9985 5.47826 16.5203 1.00073 10.9993 1.00073ZM10.9993 19.5708C6.27319 19.5708 2.42847 15.7261 2.42847 11C2.42847 6.27392 6.27319 2.4292 10.9993 2.4292C15.7254 2.4292 19.5701 6.27392 19.5701 11C19.5701 15.7261 15.7254 19.5708 10.9993 19.5708Z" fill="#FF3B30" fill-opacity="0.8"/>
<path d="M10.9993 0.850732C5.39469 0.850732 0.85 5.39542 0.85 11C0.85 16.6039 5.39468 21.1493 10.9993 21.1493C16.6031 21.1493 21.1485 16.6039 21.1485 11C21.1485 5.39541 16.6031 0.850732 10.9993 0.850732ZM10.9993 19.4208C6.35603 19.4208 2.57847 15.6432 2.57847 11C2.57847 6.35676 6.35603 2.5792 10.9993 2.5792C15.6425 2.5792 19.4201 6.35676 19.4201 11C19.4201 15.6432 15.6425 19.4208 10.9993 19.4208Z" stroke="#FF3B30" stroke-opacity="0.8" stroke-width="0.3"/>
<path d="M6.95847 15.494C6.67921 15.7739 6.67921 16.2239 6.95847 16.5039C7.23774 16.7839 7.68913 16.7839 7.9684 16.5039C9.6397 14.8333 12.3581 14.8333 14.0287 16.5039C14.1687 16.6439 14.3508 16.7139 14.5343 16.7139C14.7172 16.7139 14.9 16.6439 15.0393 16.5046C15.3186 16.2253 15.3186 15.7739 15.0393 15.4947C12.8116 13.2663 9.18617 13.2663 6.95847 15.494Z" fill="#FF3B30" fill-opacity="0.8"/>
<path d="M6.85241 15.3879L6.85227 15.388C6.51461 15.7266 6.51461 16.2713 6.85227 16.6098C7.19009 16.9485 7.73655 16.9486 8.07444 16.61C9.68719 14.9979 12.3106 14.998 13.9226 16.61C14.0917 16.779 14.3123 16.8639 14.5343 16.8639C14.7554 16.8639 14.9769 16.7791 15.1454 16.6107C15.4832 16.2728 15.4832 15.7265 15.1454 15.3886C12.8591 13.1016 9.13868 13.1016 6.85241 15.3879Z" stroke="#FF3B30" stroke-opacity="0.8" stroke-width="0.3"/>
</svg>
