<svg width="16" height="16" viewBox="0 0 16 16" fill="none" xmlns="http://www.w3.org/2000/svg">
<path d="M7.52739 0.459961C5.531 0.459961 3.61642 1.25433 2.2047 2.66837C0.793033 4.08242 0 6.00038 0 8.00004C0 9.99969 0.793033 11.9176 2.2047 13.3317C3.61636 14.7457 5.5311 15.5401 7.52739 15.5401C9.52368 15.5401 11.4384 14.7457 12.8501 13.3317C14.2617 11.9177 15.0548 9.99969 15.0548 8.00004C15.0548 6.67651 14.707 5.37621 14.0464 4.22984C13.3857 3.08365 12.4353 2.13175 11.2911 1.46994C10.1467 0.80822 8.84876 0.459961 7.52739 0.459961ZM11.8 6.67092L7.2835 10.8179C7.14047 10.9493 6.95231 11.0203 6.75839 11.0161C6.56445 11.0118 6.37959 10.9328 6.24248 10.7953L3.98423 8.53326C3.83893 8.39277 3.75614 8.19977 3.75437 7.99754C3.75261 7.7952 3.83213 7.60081 3.97478 7.45778C4.11756 7.31476 4.31174 7.23524 4.51363 7.23688C4.71551 7.23865 4.9083 7.32158 5.04857 7.46713L6.7972 9.2187L10.7824 5.55934C10.9806 5.37732 11.2606 5.31496 11.5172 5.39587C11.7737 5.47666 11.9677 5.68848 12.026 5.95153C12.0844 6.21447 11.9981 6.48876 11.8 6.67092Z" fill="#FFB81D"/>
</svg>
