<svg width="190" height="50" viewBox="0 0 190 50" fill="none" xmlns="http://www.w3.org/2000/svg">
<path d="M164.03 0.707764H14.5559L0.404297 49.9999H164.03L189.9 26.1663L164.03 0.707764Z" fill="#FFB81D"/>
<path d="M90.4707 30H87.0809V18.5741H83.3919V15.7625H94.1597V18.5741H90.4707V30ZM104.841 24.4964C104.841 25.4137 104.714 26.2246 104.462 26.9292C104.223 27.6337 103.864 28.2319 103.385 28.7238C102.92 29.2157 102.355 29.5879 101.69 29.8405C101.039 30.0798 100.288 30.1994 99.4369 30.1994C98.6659 30.1994 97.948 30.0798 97.2834 29.8405C96.632 29.5879 96.067 29.2223 95.5884 28.7438C95.1231 28.2519 94.7576 27.6537 94.4917 26.9491C94.2258 26.2313 94.0929 25.4137 94.0929 24.4964C94.0929 23.2867 94.3056 22.2631 94.731 21.4256C95.1697 20.5881 95.7945 19.95 96.6054 19.5113C97.4163 19.0726 98.3801 18.8533 99.4967 18.8533C100.547 18.8533 101.471 19.0726 102.268 19.5113C103.066 19.95 103.691 20.5881 104.143 21.4256C104.608 22.2631 104.841 23.2867 104.841 24.4964ZM97.5027 24.4964C97.5027 25.1744 97.5692 25.746 97.7021 26.2113C97.835 26.6766 98.0477 27.0289 98.3402 27.2682C98.6327 27.4941 99.0115 27.6071 99.4768 27.6071C99.9554 27.6071 100.334 27.4941 100.613 27.2682C100.893 27.0289 101.099 26.6766 101.232 26.2113C101.365 25.746 101.431 25.1744 101.431 24.4964C101.431 23.8185 101.365 23.2535 101.232 22.8015C101.099 22.3495 100.886 22.0105 100.593 21.7845C100.314 21.5585 99.9354 21.4455 99.4569 21.4455C98.7789 21.4455 98.2804 21.7048 97.9613 22.2232C97.6556 22.7284 97.5027 23.4861 97.5027 24.4964ZM113.534 18.8533C114.757 18.8533 115.734 19.3385 116.465 20.3089C117.196 21.2661 117.562 22.6619 117.562 24.4964C117.562 25.746 117.382 26.7962 117.023 27.647C116.665 28.4978 116.173 29.1359 115.548 29.5613C114.936 29.9867 114.232 30.1994 113.434 30.1994C112.916 30.1994 112.47 30.1329 112.098 30C111.739 29.8671 111.427 29.7009 111.161 29.5015C110.908 29.2888 110.696 29.0761 110.523 28.8634H110.383C110.423 29.116 110.456 29.3818 110.483 29.661C110.51 29.9402 110.523 30.2393 110.523 30.5583V34.7857H107.153V19.0527H109.885L110.363 20.4485H110.523C110.709 20.1561 110.935 19.8902 111.201 19.6509C111.48 19.4116 111.812 19.2189 112.198 19.0726C112.583 18.9264 113.029 18.8533 113.534 18.8533ZM112.357 21.5054C111.905 21.5054 111.546 21.6051 111.281 21.8045C111.028 22.0039 110.842 22.303 110.722 22.7018C110.603 23.0873 110.536 23.5792 110.523 24.1774V24.4765C110.523 25.1279 110.576 25.6796 110.682 26.1316C110.802 26.5702 110.995 26.9092 111.261 27.1485C111.54 27.3745 111.919 27.4875 112.397 27.4875C112.783 27.4875 113.102 27.3812 113.354 27.1685C113.62 26.9425 113.813 26.6035 113.933 26.1515C114.066 25.6995 114.132 25.1345 114.132 24.4566C114.132 23.4329 113.986 22.6885 113.693 22.2232C113.401 21.7447 112.956 21.5054 112.357 21.5054ZM132.287 30H128.857V22.3229C128.857 22.1368 128.857 21.8776 128.857 21.5452C128.857 21.1996 128.864 20.834 128.877 20.4485C128.891 20.0497 128.904 19.7041 128.917 19.4116C128.811 19.5446 128.665 19.7041 128.478 19.8902C128.292 20.063 128.12 20.2159 127.96 20.3488L126.325 21.6848L124.63 19.5711L129.356 15.7625H132.287V30ZM139.109 15.5631C140.239 15.5631 141.11 15.9553 141.721 16.7396C142.346 17.5106 142.659 18.6007 142.659 20.0098C142.659 21.419 142.366 22.5223 141.781 23.3199C141.196 24.1043 140.312 24.4964 139.129 24.4964C138.039 24.4964 137.182 24.1043 136.557 23.3199C135.945 22.5223 135.64 21.419 135.64 20.0098C135.64 18.6007 135.925 17.5106 136.497 16.7396C137.069 15.9553 137.939 15.5631 139.109 15.5631ZM139.149 17.7566C138.843 17.7566 138.624 17.9493 138.491 18.3348C138.371 18.7203 138.312 19.2853 138.312 20.0298C138.312 20.7609 138.371 21.3325 138.491 21.7447C138.624 22.1435 138.843 22.3429 139.149 22.3429C139.455 22.3429 139.668 22.1435 139.787 21.7447C139.92 21.3458 139.987 20.7742 139.987 20.0298C139.987 19.2853 139.92 18.7203 139.787 18.3348C139.654 17.9493 139.442 17.7566 139.149 17.7566ZM149.558 15.7625L141.662 30H139.069L146.966 15.7625H149.558ZM149.478 21.2461C150.595 21.2461 151.466 21.6383 152.09 22.4226C152.715 23.1937 153.028 24.2837 153.028 25.6929C153.028 27.102 152.735 28.2054 152.15 29.003C151.565 29.7873 150.675 30.1795 149.478 30.1795C148.401 30.1795 147.551 29.7873 146.926 29.003C146.314 28.2054 146.009 27.102 146.009 25.6929C146.009 24.2837 146.294 23.1937 146.866 22.4226C147.438 21.6383 148.308 21.2461 149.478 21.2461ZM149.518 23.4196C149.212 23.4196 148.993 23.6191 148.86 24.0179C148.74 24.4034 148.681 24.9684 148.681 25.7128C148.681 26.444 148.74 27.0089 148.86 27.4077C148.993 27.8065 149.212 28.006 149.518 28.006C149.811 28.006 150.023 27.8132 150.156 27.4277C150.289 27.0289 150.356 26.4572 150.356 25.7128C150.356 24.9684 150.289 24.4034 150.156 24.0179C150.023 23.6191 149.811 23.4196 149.518 23.4196Z" fill="white"/>
<path d="M61.5785 16.4854C61.2666 15.8511 60.4979 15.6223 59.9223 15.9522C55.2891 18.5926 50.7997 18.5926 46.1665 15.9522C45.5668 15.6223 44.8223 15.8511 44.5103 16.4854C44.1984 17.1197 44.4147 17.9072 45.0144 18.2371C46.911 19.329 48.8315 20.0143 50.7515 20.3443C50.3199 24.3817 49.4314 28.4184 48.0872 32.3548C47.7753 33.2435 48.207 34.2587 49.0712 34.5896C49.2634 34.6662 49.4556 34.6908 49.6236 34.6908C50.2957 34.6908 50.9195 34.2587 51.1599 33.5478C51.9044 31.4151 52.5041 29.2313 52.9841 27.0477C53.464 29.3837 54.0879 31.5163 54.8565 33.5735C55.1202 34.2588 55.7208 34.6653 56.3929 34.6653C56.585 34.6653 56.8013 34.6143 56.9925 34.5387C57.8327 34.1832 58.2411 33.168 57.9283 32.2793C56.6324 28.7758 55.7922 24.9671 55.2882 20.3208C57.2331 20.0164 59.1769 19.3055 61.0976 18.2136C61.6741 17.9073 61.8904 17.1197 61.5785 16.4854Z" fill="white"/>
<path d="M55.8648 13.9973C55.8648 15.652 54.5967 16.9935 53.0325 16.9935C51.4683 16.9935 50.2002 15.6521 50.2002 13.9973C50.2002 12.3425 51.4683 11 53.0325 11C54.5967 11 55.8648 12.3425 55.8648 13.9973Z" fill="white"/>
<path d="M35.9404 13.2563C31.4821 14.58 34.1373 18.7067 34.1373 18.7067C34.1373 18.7067 37.292 17.6273 35.9404 13.2563Z" fill="white"/>
<path d="M35.4872 24.0494L35.4863 24.0476C35.6173 23.9901 38.7331 22.5852 37.6676 19.1349C37.6676 19.1349 34.4506 19.3602 35.0687 22.7558C34.5284 21.4994 33.3645 19.7283 31.0111 19.3467C30.7414 26.053 35.4872 24.0494 35.4872 24.0494Z" fill="white"/>
<path d="M38.3443 29.1871C38.4001 29.144 41.2527 26.9343 39.1094 23.5496C39.1094 23.5496 35.9322 24.6248 37.298 27.8525C36.3328 26.8732 34.7193 25.7616 32.527 26.0654C34.3095 32.5139 38.2761 29.2446 38.3443 29.1871Z" fill="white"/>
<path d="M41.8726 27.1263C41.8726 27.1263 39.2348 29.2446 41.7471 31.8313C40.3685 31.3489 38.2297 30.9993 36.2765 32.3582C41.0988 37.5156 43.21 32.5108 43.21 32.5108L43.2091 32.5095C43.6441 31.5832 44.4563 29.0965 41.8726 27.1263Z" fill="white"/>
<path d="M70.1503 13.2562C74.6086 14.5799 71.9534 18.7066 71.9534 18.7066C71.9534 18.7066 68.7991 17.6271 70.1503 13.2562Z" fill="white"/>
<path d="M70.6043 24.0492L70.6052 24.0474C70.4742 23.99 67.3579 22.5851 68.4234 19.1348C68.4234 19.1348 71.6404 19.3601 71.0227 22.7556C71.563 21.4993 72.7269 19.7281 75.0804 19.3466C75.3501 26.0529 70.6043 24.0492 70.6043 24.0492Z" fill="white"/>
<path d="M67.7476 29.187C67.6917 29.1439 64.8392 26.9341 66.9825 23.5494C66.9825 23.5494 70.1597 24.6247 68.7943 27.8523C69.759 26.8731 71.3721 25.7615 73.5653 26.0653C71.7828 32.5138 67.8163 29.2445 67.7476 29.187Z" fill="white"/>
<path d="M64.2175 27.1262C64.2175 27.1262 66.8548 29.2445 64.3425 31.8312C65.7216 31.3488 67.8603 30.9992 69.8131 32.3581C64.9908 37.5155 62.8796 32.5107 62.8796 32.5107L62.8805 32.5093C62.446 31.5831 61.6337 29.0964 64.2175 27.1262Z" fill="white"/>
</svg>
