<svg width="183" height="32" viewBox="0 0 183 32" fill="none" xmlns="http://www.w3.org/2000/svg">
<path fill-rule="evenodd" clip-rule="evenodd" d="M0 1.82437C0.03433 1.76016 0.00381439 1.38919 0.0228866 1.31785C0.0610311 1.14306 0.152578 0.986109 0.270826 0.846994C0.469177 0.611568 0.717116 0.440349 0.999385 0.304801C1.28928 0.165685 1.59825 0.105045 1.91867 0.0693746C2.06362 0.0551063 2.21238 0.0551063 2.35733 0.0729416C2.39547 0.0800758 2.43362 0.0836428 2.47176 0.0907769C2.93712 0.183521 3.25754 0.440349 3.44063 0.843427C3.48259 0.939738 3.52074 1.03962 3.55125 1.13593C4.34847 3.54369 5.16095 5.94433 5.93909 8.35923C6.59518 10.4032 7.29704 12.4364 7.97601 14.4732C7.9989 14.5374 8.01034 14.6016 8.0523 14.6622C8.1057 14.5944 8.11714 14.5124 8.14384 14.4375C8.54818 13.2033 8.94869 11.9691 9.35303 10.7349C10.196 8.1666 11.0428 5.60189 11.8896 3.03717C12.0994 2.39867 12.3092 1.76373 12.519 1.12522C12.5762 0.950439 12.6487 0.77922 12.7593 0.625836C12.9272 0.386843 13.1522 0.215624 13.4421 0.126448C13.5298 0.101478 13.6214 0.0872099 13.7091 0.0693746C13.8693 0.0479722 14.0257 0.0658075 14.1859 0.0729416C14.4796 0.112179 14.7657 0.158551 15.0442 0.261996C15.1853 0.315502 15.3188 0.376142 15.4447 0.45105C15.9673 0.772086 16.158 1.22867 16.0741 1.79583C16.055 1.90998 16.0245 2.02412 15.9863 2.1347C14.3881 6.98234 12.7898 11.8264 11.1954 16.674C10.8864 17.6086 10.5813 18.5468 10.2723 19.4813C10.2456 19.5562 10.2227 19.6347 10.1884 19.706C10.0206 20.0414 9.74591 20.2625 9.3721 20.3731C9.12797 20.4444 8.87622 20.4837 8.62065 20.5122C8.02178 20.58 7.43054 20.53 6.85075 20.3695C6.51126 20.2732 6.21755 20.1127 5.9925 19.8487C5.90476 19.7489 5.83992 19.6383 5.80177 19.5099C4.97022 16.856 4.08909 14.2163 3.21939 11.5731C2.4031 9.09404 1.56392 6.62207 0.740003 4.14653C0.511136 3.46165 0.289898 2.78034 0.0648456 2.09547C0.0419589 2.00272 0.0228867 1.91355 0 1.82437Z" fill="#05164D"/>
<path fill-rule="evenodd" clip-rule="evenodd" d="M132.533 10.2426C132.533 12.2081 132.533 14.1771 132.533 16.1425C132.533 16.5991 132.476 17.045 132.346 17.4838C132.117 18.2435 131.671 18.8606 130.996 19.3279C130.439 19.7132 129.832 20.0128 129.169 20.1983C128.776 20.3089 128.379 20.3659 127.971 20.3659C126.521 20.3659 125.076 20.3659 123.626 20.3659C123.481 20.3659 123.336 20.3552 123.199 20.3124C122.951 20.2375 122.764 20.0913 122.627 19.888C122.463 19.649 122.387 19.385 122.364 19.1068C122.345 18.8749 122.345 18.6431 122.394 18.4112C122.44 18.1972 122.516 17.9974 122.661 17.8262C122.844 17.6086 123.085 17.4838 123.371 17.4303C123.504 17.4053 123.642 17.3946 123.779 17.3946C124.95 17.3946 126.125 17.3946 127.296 17.3946C127.479 17.3946 127.662 17.391 127.841 17.3553C127.971 17.3268 128.093 17.2911 128.211 17.2305C128.322 17.1734 128.425 17.1057 128.501 17.0129C128.719 16.7418 128.856 16.4422 128.883 16.1033C128.89 16.0177 128.89 15.9321 128.89 15.8465C128.89 12.1046 128.89 8.35921 128.894 4.61737C128.894 4.24996 128.81 3.91466 128.6 3.60432C128.452 3.38673 128.249 3.24048 127.99 3.16914C127.826 3.12634 127.658 3.0978 127.486 3.09066C127.395 3.0871 127.303 3.0871 127.212 3.0871C125.347 3.0871 123.478 3.0871 121.612 3.0871C121.345 3.0871 121.372 3.06213 121.372 3.31539C121.368 5.71246 121.364 8.10595 121.36 10.503C121.357 13.3388 121.349 16.1746 121.341 19.014C121.341 19.1424 121.341 19.2709 121.311 19.3993C121.238 19.706 121.067 19.9486 120.8 20.1412C120.579 20.3017 120.331 20.4052 120.056 20.4587C119.564 20.555 119.079 20.53 118.606 20.3731C118.297 20.2696 118.061 20.0877 117.901 19.8166C117.783 19.6133 117.741 19.3921 117.725 19.1638C117.722 19.1032 117.725 19.0426 117.725 18.9784C117.725 13.2996 117.725 7.62083 117.725 1.94207C117.725 1.69594 117.741 1.45338 117.802 1.21439C117.878 0.925458 118.023 0.675764 118.282 0.497411C118.435 0.390399 118.61 0.319058 118.79 0.258418C119.064 0.165674 119.35 0.140705 119.64 0.130003C119.697 0.126436 119.758 0.130003 119.816 0.130003C122.49 0.130003 125.163 0.13357 127.834 0.130003C128.471 0.130003 129.081 0.240582 129.668 0.472441C130.084 0.636526 130.492 0.822013 130.87 1.05387C131.217 1.2679 131.511 1.53543 131.759 1.85289C132.129 2.32731 132.354 2.85881 132.461 3.4331C132.518 3.747 132.541 4.06447 132.541 4.38551C132.533 6.33312 132.533 8.28788 132.533 10.2426Z" fill="#FFB81D"/>
<path fill-rule="evenodd" clip-rule="evenodd" d="M174.88 20.3696C173.965 20.3696 173.046 20.366 172.13 20.3696C171.558 20.3731 171.013 20.2768 170.479 20.0878C169.918 19.888 169.399 19.6134 168.926 19.2709C168.278 18.8001 167.862 18.183 167.644 17.4446C167.541 17.0879 167.48 16.7276 167.48 16.3566C167.477 15.7146 167.477 15.0689 167.477 14.4269C167.477 14.2735 167.503 14.1237 167.557 13.9774C167.66 13.692 167.854 13.478 168.133 13.3282C168.304 13.2355 168.491 13.1784 168.686 13.1463C169.128 13.0714 169.571 13.0749 170.013 13.1748C170.231 13.2248 170.437 13.3032 170.616 13.4352C170.91 13.6528 171.062 13.9417 171.1 14.2877C171.112 14.3733 171.108 14.459 171.108 14.5446C171.108 14.9904 171.108 15.4399 171.108 15.8858C171.108 16.0534 171.131 16.214 171.169 16.378C171.207 16.535 171.28 16.6777 171.356 16.8204C171.531 17.1307 171.81 17.3019 172.172 17.3661C172.332 17.3946 172.496 17.4053 172.66 17.4053C173.225 17.4053 173.786 17.4053 174.35 17.4053C175.262 17.4053 176.173 17.4053 177.081 17.4053C177.257 17.4053 177.432 17.3982 177.608 17.3661C177.955 17.2983 178.226 17.1414 178.401 16.8489C178.542 16.6099 178.638 16.3602 178.653 16.0855C178.657 16.032 178.657 15.975 178.657 15.9215C178.657 14.9298 178.657 13.9346 178.657 12.943C178.657 12.7646 178.638 12.5898 178.58 12.4186C178.519 12.2367 178.428 12.0655 178.313 11.9085C178.188 11.7337 178.012 11.6231 177.802 11.5554C177.577 11.4805 177.341 11.4591 177.108 11.4555C176.452 11.4519 175.796 11.4555 175.144 11.4555C174.121 11.4555 173.099 11.4484 172.077 11.4591C171.367 11.4662 170.7 11.3164 170.063 11.0417C169.716 10.8955 169.384 10.7242 169.075 10.5138C168.526 10.1464 168.114 9.66839 167.843 9.08696C167.671 8.71955 167.568 8.33431 167.515 7.93837C167.488 7.73148 167.477 7.52459 167.477 7.31413C167.477 6.30466 167.477 5.29161 167.477 4.28213C167.477 3.74351 167.56 3.21915 167.759 2.71619C167.995 2.12406 168.373 1.62467 168.899 1.22516C169.063 1.10031 169.239 0.996869 169.422 0.900558C169.849 0.672266 170.292 0.479645 170.761 0.333395C171.188 0.201414 171.627 0.137207 172.073 0.137207C173.946 0.137207 175.823 0.137207 177.695 0.137207C178.233 0.137207 178.748 0.229951 179.252 0.408304C179.694 0.565254 180.118 0.757876 180.518 0.989735C181.197 1.38211 181.682 1.93144 181.983 2.62345C182.135 2.97659 182.227 3.34756 182.273 3.72567C182.303 3.95753 182.307 4.18939 182.307 4.42125C182.307 4.8814 182.307 5.34155 182.307 5.79813C182.307 5.91585 182.296 6.02999 182.273 6.14414C182.189 6.51511 181.968 6.78978 181.613 6.96813C181.457 7.0466 181.289 7.10011 181.113 7.12865C180.659 7.20712 180.202 7.20712 179.748 7.10724C179.614 7.07871 179.484 7.03234 179.362 6.9717C178.962 6.77194 178.741 6.45447 178.687 6.03713C178.668 5.89801 178.664 5.75533 178.664 5.61621C178.661 5.25594 178.661 4.8921 178.664 4.53183C178.664 4.22506 178.573 3.94326 178.416 3.67216C178.233 3.36183 177.951 3.20131 177.592 3.13711C177.436 3.10857 177.284 3.09787 177.123 3.09787C175.636 3.09787 174.148 3.09787 172.66 3.09787C172.454 3.09787 172.256 3.11927 172.058 3.16921C171.779 3.23698 171.562 3.38323 171.409 3.61152C171.219 3.89332 171.116 4.20009 171.116 4.53183C171.112 5.38435 171.112 6.23688 171.116 7.08584C171.119 7.44255 171.226 7.77428 171.447 8.07035C171.562 8.22017 171.707 8.32718 171.886 8.39495C172.046 8.45559 172.21 8.49483 172.382 8.50196C172.531 8.5091 172.683 8.51267 172.832 8.51267C174.423 8.51267 176.017 8.51623 177.608 8.51267C178.226 8.51267 178.817 8.61254 179.389 8.8337C179.851 9.01205 180.293 9.22608 180.701 9.49361C181.331 9.90382 181.777 10.4567 182.032 11.1345C182.204 11.5875 182.299 12.0583 182.303 12.5363C182.311 13.1106 182.307 13.6885 182.307 14.2628C182.307 14.9262 182.307 15.5861 182.307 16.2496C182.307 16.642 182.254 17.0308 182.147 17.4125C181.975 18.0296 181.659 18.5718 181.167 19.0212C180.907 19.2602 180.614 19.4493 180.305 19.6276C179.782 19.9273 179.229 20.1591 178.626 20.284C178.352 20.341 178.073 20.3731 177.791 20.3731C176.822 20.3696 175.849 20.3696 174.88 20.3696Z" fill="#FFB81D"/>
<path fill-rule="evenodd" clip-rule="evenodd" d="M150.159 10.4318C150.159 7.60674 150.159 4.78163 150.159 1.95652C150.159 1.72466 150.174 1.4928 150.228 1.26094C150.258 1.12182 150.308 0.989842 150.38 0.864995C150.48 0.693776 150.613 0.554661 150.789 0.451216C151.082 0.279998 151.403 0.18012 151.746 0.148016C151.956 0.126614 152.166 0.123047 152.375 0.123047C154.801 0.123047 157.224 0.126614 159.65 0.123047C160.287 0.123047 160.897 0.237193 161.484 0.469052C161.816 0.601033 162.14 0.750849 162.449 0.918501C163.193 1.32158 163.712 1.89944 164.029 2.64139C164.181 3.00166 164.269 3.37621 164.311 3.76501C164.334 3.98617 164.341 4.20376 164.341 4.42492C164.341 5.61275 164.341 6.80058 164.341 7.99198C164.341 8.4771 164.273 8.95509 164.112 9.42237C163.857 10.1715 163.38 10.7707 162.686 11.2166C162.43 11.3807 162.163 11.5234 161.892 11.6589C161.847 11.6839 161.801 11.7053 161.755 11.7303C161.721 11.7481 161.709 11.7731 161.728 11.8052C161.747 11.8373 161.767 11.8694 161.789 11.9015C162.873 13.5744 163.952 15.2438 165.036 16.9168C165.272 17.2842 165.512 17.6516 165.749 18.0154C165.867 18.1938 165.962 18.3793 166.035 18.579C166.134 18.8572 166.107 19.1212 165.974 19.3816C165.901 19.5207 165.806 19.6456 165.695 19.7561C165.558 19.8953 165.409 20.0308 165.234 20.1271C164.894 20.3126 164.555 20.4981 164.158 20.5623C163.639 20.6479 163.22 20.4874 162.884 20.1164C162.793 20.0165 162.735 19.9024 162.663 19.7918C162.43 19.4244 162.194 19.0534 161.957 18.686C160.618 16.585 159.283 14.4876 157.944 12.3866C157.906 12.3295 157.868 12.2725 157.834 12.2118C157.803 12.1654 157.765 12.1405 157.704 12.144C157.658 12.144 157.613 12.144 157.567 12.144C157.018 12.144 156.464 12.144 155.915 12.144C155.797 12.144 155.682 12.1405 155.564 12.1119C155.343 12.0549 155.16 11.9407 155.019 11.7695C154.843 11.5626 154.752 11.32 154.71 11.0632C154.66 10.7529 154.664 10.439 154.744 10.1322C154.763 10.0537 154.786 9.97883 154.82 9.90392C155.015 9.45448 155.381 9.22618 155.892 9.19408C155.984 9.18695 156.075 9.19051 156.167 9.19051C157.143 9.19051 158.12 9.19051 159.096 9.19051C159.306 9.19051 159.516 9.17268 159.718 9.12631C160.035 9.05497 160.271 8.88731 160.435 8.62335C160.592 8.36296 160.691 8.08829 160.691 7.78509C160.691 6.69 160.691 5.59135 160.691 4.49626C160.691 4.19306 160.592 3.9184 160.435 3.658C160.252 3.35837 159.974 3.19785 159.623 3.13721C159.466 3.11224 159.314 3.09797 159.154 3.09797C157.426 3.09797 155.694 3.09797 153.966 3.09797C153.932 3.09797 153.901 3.09797 153.867 3.09797C153.802 3.10154 153.783 3.11581 153.779 3.17288C153.775 3.22639 153.779 3.28346 153.779 3.33697C153.779 5.15617 153.779 6.97537 153.779 8.79814C153.779 12.1975 153.779 15.6005 153.779 18.9999C153.779 19.164 153.779 19.3281 153.741 19.4922C153.634 19.9274 153.352 20.2163 152.913 20.3804C152.715 20.4553 152.509 20.491 152.303 20.5088C151.91 20.5409 151.517 20.5231 151.136 20.4125C150.552 20.2413 150.232 19.8239 150.186 19.3138C150.174 19.1783 150.167 19.0463 150.167 18.9107C150.159 16.0821 150.159 13.257 150.159 10.4318Z" fill="#FFB81D"/>
<path fill-rule="evenodd" clip-rule="evenodd" d="M114.804 10.2465C114.804 12.2083 114.804 14.1667 114.804 16.1285C114.804 16.5887 114.747 17.0453 114.613 17.4912C114.388 18.2438 113.946 18.8573 113.275 19.3211C112.718 19.7063 112.115 20.0095 111.447 20.1986C111.051 20.3091 110.646 20.3698 110.231 20.3698C108.377 20.3698 106.523 20.3662 104.669 20.3733C103.994 20.3769 103.357 20.2556 102.743 20.0024C102.236 19.7955 101.759 19.5386 101.339 19.2033C100.71 18.704 100.302 18.0726 100.107 17.3235C100.031 17.031 99.9851 16.7349 99.9813 16.4317C99.9775 16.2855 99.9736 16.1392 99.9736 15.9894C99.9736 12.1477 99.9736 8.30597 99.9736 4.46425C99.9736 4.26092 99.9736 4.0576 99.9889 3.85785C100.054 3.09093 100.302 2.38465 100.813 1.76755C100.973 1.57136 101.164 1.40371 101.362 1.24319C101.522 1.11121 101.698 1.00776 101.877 0.911452C102.403 0.633222 102.945 0.390661 103.533 0.247979C103.857 0.169503 104.189 0.126699 104.524 0.126699C106.431 0.123132 108.339 0.123132 110.246 0.126699C110.83 0.126699 111.386 0.251546 111.924 0.462003C112.348 0.629654 112.76 0.815142 113.145 1.05413C113.484 1.26459 113.778 1.52855 114.022 1.83889C114.4 2.31687 114.625 2.85193 114.732 3.43693C114.789 3.75083 114.812 4.0683 114.812 4.38934C114.8 6.34052 114.804 8.29527 114.804 10.2465ZM111.158 10.2429C111.158 8.40942 111.158 6.57951 111.158 4.74604C111.158 4.66043 111.158 4.57482 111.158 4.48921C111.154 4.17531 111.051 3.88995 110.879 3.62242C110.727 3.39056 110.517 3.24074 110.238 3.1694C110.036 3.1159 109.826 3.09449 109.617 3.09449C108.129 3.09449 106.641 3.09449 105.154 3.09449C104.997 3.09449 104.841 3.10876 104.684 3.13373C104.314 3.19437 104.028 3.36559 103.849 3.68663C103.746 3.87211 103.662 4.06473 103.628 4.27162C103.605 4.40717 103.601 4.53915 103.601 4.6747C103.601 8.38088 103.601 12.0871 103.601 15.7968C103.601 15.8574 103.601 15.9181 103.601 15.9823C103.613 16.2891 103.7 16.5709 103.861 16.8384C104.036 17.1309 104.307 17.2914 104.65 17.3627C104.837 17.402 105.028 17.402 105.218 17.402C106.416 17.402 107.618 17.402 108.816 17.402C109.105 17.402 109.392 17.402 109.681 17.402C109.834 17.402 109.983 17.3913 110.132 17.3592C110.379 17.3057 110.608 17.2129 110.769 17.0203C110.933 16.8277 111.043 16.6065 111.108 16.364C111.154 16.1892 111.158 16.0108 111.158 15.836C111.158 13.9705 111.158 12.1085 111.158 10.2429Z" fill="#FFB81D"/>
<path fill-rule="evenodd" clip-rule="evenodd" d="M51.3505 0.00851417C51.5069 0.00851417 51.6633 0.00494711 51.8197 0.00851417C52.0638 0.0120812 52.3041 0.0441848 52.533 0.115526C52.6016 0.136928 52.6703 0.158331 52.7351 0.186867C53.2005 0.383056 53.4484 0.72906 53.5095 1.19635C53.5247 1.32476 53.5209 1.45317 53.5209 1.58159C53.5209 6.31151 53.5209 11.0379 53.5209 15.7678C53.5209 15.9033 53.5247 16.0353 53.54 16.1709C53.5781 16.4705 53.6964 16.738 53.8833 16.9806C54.0511 17.1982 54.2876 17.3016 54.5584 17.3587C54.7453 17.3979 54.9361 17.4015 55.1268 17.4015C56.2063 17.4015 57.2896 17.4015 58.3691 17.4015C58.7734 17.4015 59.1815 17.4015 59.5859 17.4015C59.7842 17.4015 59.9788 17.3801 60.1657 17.3266C60.4365 17.2517 60.6425 17.109 60.7912 16.8807C60.982 16.5918 61.0735 16.2779 61.0811 15.939C61.085 15.8534 61.0811 15.7678 61.0811 15.6822C61.0811 10.9665 61.0811 6.2473 61.0811 1.53165C61.0811 1.3533 61.0811 1.17851 61.1307 1.00372C61.2337 0.622049 61.474 0.350952 61.8517 0.1833C62.1225 0.0655871 62.4124 0.0192153 62.7099 0.00494711C62.8663 -0.00218701 63.0227 0.00138005 63.1791 0.00138005C63.3126 0.0263495 63.4499 0.0441848 63.5834 0.0727213C63.6712 0.0905566 63.7589 0.115526 63.8466 0.14763C64.3845 0.343818 64.6591 0.721926 64.7125 1.24985C64.7201 1.32119 64.7163 1.3961 64.7163 1.47101C64.7163 6.36145 64.7163 11.2483 64.7163 16.1388C64.7163 16.656 64.6515 17.1661 64.476 17.6583C64.2281 18.3539 63.7894 18.9211 63.1524 19.3491C62.565 19.7451 61.9279 20.059 61.2261 20.2337C60.8752 20.3229 60.5204 20.3657 60.158 20.3657C58.2928 20.3657 56.4237 20.3622 54.5584 20.3693C53.8718 20.3729 53.2234 20.2373 52.5978 19.9734C52.1973 19.8057 51.8158 19.6024 51.4611 19.3563C50.7058 18.8319 50.2214 18.1363 50.0116 17.2802C49.9315 16.9628 49.8896 16.6417 49.8896 16.3171C49.8896 16.2244 49.8857 16.1316 49.8857 16.0425C49.8857 11.2091 49.8857 6.37572 49.8857 1.54235C49.8857 1.37113 49.8857 1.19991 49.9277 1.03226C50.0231 0.650585 50.2557 0.372354 50.6334 0.197568C50.805 0.119093 50.9881 0.0691542 51.175 0.0441848C51.2361 0.0334836 51.2971 0.0370507 51.3505 0.00851417Z" fill="#05164D"/>
<path fill-rule="evenodd" clip-rule="evenodd" d="M82.3769 10.2427C82.3769 8.27015 82.3769 6.29756 82.3769 4.32498C82.3769 3.87553 82.4303 3.43321 82.5638 3.0016C82.7812 2.29889 83.1741 1.70676 83.7806 1.23947C83.9942 1.07539 84.2269 0.943406 84.471 0.818559C84.9974 0.55103 85.539 0.326305 86.1265 0.208592C86.3973 0.155086 86.6719 0.130117 86.9466 0.130117C88.8462 0.12655 90.7458 0.12655 92.6454 0.130117C93.2023 0.130117 93.7363 0.237129 94.2512 0.433317C94.6403 0.583133 95.0179 0.750785 95.3765 0.954108C95.9334 1.26444 96.3721 1.68892 96.6849 2.21685C96.929 2.62706 97.0816 3.06937 97.154 3.53309C97.1998 3.81846 97.2189 4.10382 97.2189 4.39275C97.2189 4.93138 97.2189 5.47001 97.2189 6.00863C97.2189 6.17985 97.196 6.35107 97.1426 6.51516C97.0396 6.82906 96.8336 7.06448 96.5246 7.22143C96.3911 7.28921 96.25 7.34271 96.1051 7.37125C95.5977 7.47469 95.0904 7.47826 94.5907 7.34985C94.4915 7.32488 94.3924 7.28564 94.3008 7.24284C93.927 7.06448 93.702 6.77912 93.6142 6.39388C93.5875 6.26903 93.5723 6.14061 93.5761 6.0122C93.5761 5.50924 93.5761 5.00629 93.5761 4.50333C93.5761 4.2037 93.4807 3.92547 93.3243 3.66507C93.1412 3.35831 92.8628 3.19065 92.5004 3.12645C92.3593 3.10148 92.2143 3.08721 92.0694 3.08721C90.555 3.08721 89.0407 3.08721 87.5302 3.08721C87.3318 3.08721 87.1373 3.11218 86.9466 3.16212C86.6757 3.22989 86.466 3.37614 86.3134 3.5973C86.1227 3.8791 86.0197 4.1823 86.0197 4.5176C86.0197 4.56754 86.0197 4.61391 86.0197 4.66385C86.0197 8.37716 86.0197 12.0905 86.0197 15.8038C86.0197 15.9643 86.0197 16.1212 86.054 16.2782C86.1074 16.5243 86.2104 16.7455 86.3591 16.9488C86.485 17.1236 86.6643 17.2342 86.8741 17.3019C87.0305 17.3519 87.1907 17.384 87.3547 17.3876C87.4081 17.3876 87.4577 17.3911 87.5111 17.3911C89.0293 17.3911 90.5512 17.3911 92.0694 17.3911C92.2601 17.3911 92.447 17.3697 92.6339 17.3233C92.9124 17.252 93.126 17.1058 93.2785 16.8775C93.4655 16.5957 93.5684 16.2889 93.5684 15.9572C93.5684 15.4685 93.5723 14.9762 93.5684 14.4875C93.5684 14.3449 93.5837 14.2057 93.6218 14.0702C93.721 13.7028 93.9575 13.4388 94.3237 13.2747C94.4725 13.207 94.6289 13.1642 94.7891 13.1356C95.2277 13.0643 95.6626 13.0678 96.0974 13.1606C96.25 13.1927 96.3988 13.2426 96.5361 13.314C96.8908 13.4959 97.1044 13.7813 97.1769 14.1487C97.1998 14.2628 97.2151 14.377 97.2151 14.4947C97.2113 15.0583 97.2189 15.6219 97.2112 16.1855C97.2036 16.6955 97.1311 17.1985 96.9519 17.6836C96.7116 18.3257 96.311 18.8608 95.7351 19.271C95.1934 19.6562 94.606 19.9594 93.9575 20.1556C93.5265 20.2876 93.0802 20.3553 92.6263 20.3553C90.7648 20.3553 88.9034 20.3518 87.0457 20.3553C86.3935 20.3589 85.7717 20.2341 85.1767 19.9951C84.7609 19.8274 84.368 19.6205 83.998 19.3708C83.1817 18.8179 82.6782 18.076 82.4799 17.1521C82.4036 16.7954 82.373 16.4387 82.373 16.0749C82.3769 14.1415 82.3769 12.1939 82.3769 10.2427Z" fill="#FFB81D"/>
<path fill-rule="evenodd" clip-rule="evenodd" d="M24.7209 3.56833C24.6599 3.58617 24.6599 3.63254 24.6484 3.67535C24.4539 4.22824 24.2632 4.78114 24.0686 5.33403C22.7908 9.00453 21.5129 12.675 20.2351 16.3455C19.8727 17.38 19.5142 18.418 19.1518 19.4525C19.0526 19.7343 18.8962 19.9875 18.675 20.2051C18.4232 20.4477 18.1219 20.5689 17.7595 20.5654C17.2179 20.5582 16.7144 20.4263 16.2452 20.173C16.1765 20.1373 16.1117 20.0945 16.0506 20.0482C15.6044 19.72 15.448 19.2919 15.5586 18.7783C15.6082 18.5429 15.7035 18.3217 15.7836 18.0934C17.5459 13.071 19.312 8.0557 21.0743 3.04041C21.2764 2.46968 21.4748 1.90252 21.6731 1.33179C21.7723 1.04642 21.9287 0.796728 22.1614 0.589838C22.4017 0.379382 22.6802 0.240266 23.0044 0.183193C23.4621 0.101151 23.9237 0.0476451 24.3852 0.0155416C24.6408 -0.00229371 24.8964 0.00127335 25.1519 0.0262428C25.4761 0.0583463 25.8042 0.0904499 26.1284 0.118986C26.4679 0.147523 26.7616 0.265236 27.0172 0.468558C27.2041 0.614808 27.3681 0.78246 27.5131 0.96438C27.6428 1.1249 27.7419 1.29968 27.8106 1.49587C29.3059 5.76921 30.8049 10.0425 32.3002 14.3159C32.7884 15.707 33.2691 17.0946 33.7573 18.4858C33.8298 18.6927 33.8717 18.8996 33.8641 19.1172C33.8565 19.4204 33.7344 19.6772 33.517 19.8948C33.4293 19.9839 33.3263 20.0624 33.2157 20.1302C32.7465 20.4084 32.2277 20.5475 31.6746 20.5618C31.3809 20.5689 31.1215 20.4762 30.8888 20.3157C30.6791 20.1694 30.5188 19.9839 30.412 19.7664C30.3586 19.6629 30.3129 19.5523 30.2747 19.4418C28.4438 14.2089 26.6129 8.976 24.7781 3.74669C24.7628 3.68248 24.74 3.62541 24.7209 3.56833Z" fill="#05164D"/>
<path fill-rule="evenodd" clip-rule="evenodd" d="M135.486 10.2386C135.486 7.46342 135.486 4.68825 135.486 1.91307C135.486 1.65981 135.521 1.41369 135.608 1.17113C135.662 1.02488 135.738 0.889328 135.822 0.760913C135.975 0.525487 136.196 0.368537 136.467 0.272226C136.657 0.204452 136.856 0.165214 137.058 0.147379C137.287 0.129544 137.516 0.125977 137.744 0.125977C140.659 0.125977 143.577 0.125977 146.491 0.125977C146.617 0.125977 146.739 0.129544 146.865 0.143812C147.227 0.190184 147.502 0.354269 147.685 0.650335C147.784 0.810852 147.845 0.985638 147.883 1.16756C147.956 1.5314 147.967 1.89881 147.868 2.25908C147.822 2.42673 147.746 2.58368 147.628 2.71566C147.406 2.96179 147.117 3.06523 146.781 3.08664C146.682 3.09377 146.583 3.0902 146.487 3.0902C144.115 3.0902 141.742 3.0902 139.373 3.0902C139.316 3.0902 139.255 3.0902 139.198 3.0902C139.125 3.09377 139.11 3.10804 139.11 3.18295C139.106 3.23289 139.11 3.27926 139.11 3.3292C139.11 7.93784 139.11 12.5429 139.11 17.1516C139.11 17.4298 139.072 17.3941 139.373 17.3941C141.929 17.3941 144.485 17.3941 147.04 17.3941C147.166 17.3941 147.288 17.3977 147.41 17.4191C147.796 17.4833 148.063 17.6902 148.227 18.0184C148.311 18.186 148.356 18.3644 148.375 18.5498C148.406 18.8495 148.417 19.1491 148.349 19.4452C148.311 19.62 148.246 19.7876 148.131 19.9339C147.979 20.1336 147.776 20.2585 147.529 20.3191C147.41 20.3476 147.284 20.369 147.159 20.3655C147.124 20.3655 147.094 20.3655 147.059 20.3655C143.855 20.3655 140.651 20.3655 137.447 20.3655C137.165 20.3655 136.886 20.3405 136.612 20.2656C136.257 20.1657 135.986 19.9731 135.799 19.6699C135.605 19.356 135.505 19.0171 135.494 18.6569C135.49 18.5713 135.494 18.4856 135.494 18.4C135.486 15.6784 135.486 12.9603 135.486 10.2386Z" fill="#FFB81D"/>
<path fill-rule="evenodd" clip-rule="evenodd" d="M67.7324 10.2286C67.7324 7.47837 67.7324 4.72816 67.7324 1.97439C67.7324 1.79247 67.7324 1.60699 67.7744 1.42507C67.824 1.20747 67.9117 1.00415 68.03 0.811531C68.1978 0.540434 68.4419 0.358514 68.7585 0.255069C69.0293 0.165893 69.3078 0.14449 69.5901 0.133789C69.6358 0.133789 69.6816 0.133789 69.7274 0.133789C72.7408 0.133789 75.7542 0.133789 78.7676 0.133789C78.8782 0.133789 78.9889 0.137356 79.0995 0.148057C79.4313 0.183728 79.6907 0.333544 79.8814 0.590373C79.9768 0.718787 80.0416 0.857902 80.0798 1.00772C80.1828 1.39296 80.2019 1.78177 80.1256 2.17415C80.1179 2.22052 80.1027 2.27046 80.0874 2.31683C79.9692 2.69494 79.6755 3.04451 79.0384 3.09445C78.9469 3.10158 78.8553 3.09802 78.7638 3.09802C76.3798 3.09802 73.9957 3.09802 71.6079 3.09802C71.5507 3.09802 71.4897 3.09802 71.4324 3.09802C71.36 3.10158 71.3447 3.11229 71.3447 3.18719C71.3447 3.23713 71.3447 3.2835 71.3447 3.33344C71.3447 7.94209 71.3447 12.5472 71.3447 17.1558C71.3447 17.2343 71.3104 17.327 71.3714 17.3841C71.4248 17.434 71.5202 17.4019 71.6003 17.4019C74.156 17.4019 76.7116 17.4019 79.2673 17.4019C79.3932 17.4019 79.5153 17.4055 79.6373 17.4269C79.9806 17.484 80.24 17.6552 80.4078 17.9406C80.5108 18.1153 80.568 18.3008 80.5947 18.497C80.6329 18.7717 80.6443 19.0463 80.6024 19.321C80.5757 19.4851 80.5337 19.6456 80.4536 19.7954C80.2934 20.0951 80.0378 20.277 79.6869 20.3412C79.5725 20.3626 79.4542 20.3733 79.336 20.3733C76.1051 20.3733 72.8743 20.3733 69.6473 20.3733C69.3726 20.3733 69.098 20.3448 68.8348 20.2698C68.4801 20.17 68.2092 19.9702 68.0261 19.667C67.8507 19.3745 67.7439 19.0606 67.7362 18.7253C67.7324 18.6326 67.7324 18.5398 67.7324 18.4506C67.7324 15.704 67.7324 12.9645 67.7324 10.2286Z" fill="#05164D"/>
<path fill-rule="evenodd" clip-rule="evenodd" d="M35.1035 10.0249C35.1035 7.19625 35.1035 4.364 35.1035 1.53532C35.1035 1.37124 35.1035 1.20715 35.1417 1.04307C35.2447 0.604321 35.5193 0.311822 35.958 0.14417C36.1563 0.069262 36.3585 0.0335913 36.5683 0.015756C36.923 -0.0163475 37.2739 -0.00207927 37.6211 0.0835302C37.7355 0.112067 37.8461 0.147737 37.9529 0.194109C38.3801 0.38673 38.6243 0.711333 38.6891 1.14651C38.712 1.28563 38.7158 1.42831 38.7158 1.56743C38.7158 6.7575 38.7158 11.944 38.7158 17.1341C38.7158 17.1947 38.7158 17.2554 38.7158 17.3196C38.7196 17.3945 38.7234 17.398 38.8112 17.398C38.8684 17.398 38.9294 17.398 38.9866 17.398C41.7368 17.398 44.4909 17.398 47.2411 17.398C47.367 17.398 47.489 17.4016 47.6111 17.423C47.9201 17.4765 48.1527 17.6228 48.3168 17.8725C48.3778 17.9688 48.4274 18.0687 48.4579 18.1757C48.5838 18.6394 48.5914 19.1067 48.4732 19.574C48.4655 19.5989 48.4579 19.6203 48.4503 19.6453C48.3168 20.0198 48.0307 20.3266 47.4433 20.3623C47.386 20.3658 47.325 20.3658 47.2678 20.3658C43.8615 20.3658 40.4552 20.3658 37.0489 20.3658C36.8048 20.3658 36.5645 20.348 36.328 20.2945C36.1792 20.2624 36.0381 20.216 35.9084 20.1447C35.7443 20.0591 35.607 19.9521 35.5002 19.8094C35.2637 19.4919 35.1264 19.1388 35.1073 18.75C35.1035 18.6536 35.1035 18.5538 35.1035 18.4575C35.1035 15.6466 35.1035 12.8358 35.1035 10.0249Z" fill="#05164D"/>
<path fill-rule="evenodd" clip-rule="evenodd" d="M75.6828 12.1339C74.3974 12.1482 73.253 11.1564 73.2568 9.83276C73.2607 8.53414 74.3783 7.5459 75.6828 7.5459C77.0293 7.5459 78.1622 8.55198 78.1584 9.8506C78.1508 11.1528 77.0103 12.1482 75.6828 12.1339Z" fill="#05164D"/>
<path fill-rule="evenodd" clip-rule="evenodd" d="M145.907 9.84321C145.945 11.0491 144.854 12.1408 143.427 12.1336C142.073 12.1301 141.013 11.0633 141.017 9.8325C141.02 8.60523 142.085 7.53137 143.458 7.54207C144.865 7.55277 145.949 8.63377 145.907 9.84321Z" fill="#FFB81D"/>
<path fill-rule="evenodd" clip-rule="evenodd" d="M24.6433 12.008C25.9251 11.9902 26.936 12.9928 26.9436 14.1311C26.9512 15.2943 25.9365 16.2791 24.6776 16.2898C23.4188 16.304 22.3964 15.3478 22.3888 14.1632C22.3773 12.9714 23.3959 11.9973 24.6433 12.008Z" fill="#05164D"/>
<path d="M56.525 28.6472V28.9706C56.525 29.4152 56.463 29.8139 56.3392 30.1669C56.2153 30.5199 56.0381 30.8203 55.8076 31.0682C55.58 31.3161 55.3063 31.5061 54.9866 31.6381C54.6668 31.7675 54.3124 31.8321 53.9235 31.8321C53.5374 31.8321 53.1845 31.7675 52.8647 31.6381C52.5478 31.5061 52.2727 31.3161 52.0393 31.0682C51.806 30.8203 51.6245 30.5199 51.4948 30.1669C51.3681 29.8139 51.3047 29.4152 51.3047 28.9706V28.6472C51.3047 28.2026 51.3681 27.8052 51.4948 27.4549C51.6216 27.1019 51.8002 26.8015 52.0307 26.5536C52.264 26.303 52.5392 26.113 52.8561 25.9837C53.1759 25.8517 53.5288 25.7856 53.9148 25.7856C54.3038 25.7856 54.6581 25.8517 54.9779 25.9837C55.2977 26.113 55.5728 26.303 55.8033 26.5536C56.0338 26.8015 56.211 27.1019 56.3348 27.4549C56.4616 27.8052 56.525 28.2026 56.525 28.6472ZM55.4403 28.9706V28.6391C55.4403 28.3104 55.4057 28.0207 55.3366 27.7702C55.2703 27.5169 55.1709 27.3054 55.0384 27.1356C54.9088 26.9631 54.7489 26.8338 54.5587 26.7476C54.3686 26.6587 54.154 26.6142 53.9148 26.6142C53.6757 26.6142 53.4625 26.6587 53.2753 26.7476C53.088 26.8338 52.9281 26.9631 52.7956 27.1356C52.6659 27.3054 52.5665 27.5169 52.4974 27.7702C52.4283 28.0207 52.3937 28.3104 52.3937 28.6391V28.9706C52.3937 29.2993 52.4283 29.5903 52.4974 29.8436C52.5665 30.0969 52.6674 30.3111 52.7999 30.4862C52.9353 30.6587 53.0966 30.7894 53.2839 30.8783C53.4712 30.9645 53.6844 31.0076 53.9235 31.0076C54.1655 31.0076 54.3801 30.9645 54.5674 30.8783C54.7546 30.7894 54.9131 30.6587 55.0427 30.4862C55.1724 30.3111 55.2703 30.0969 55.3366 29.8436C55.4057 29.5903 55.4403 29.2993 55.4403 28.9706Z" fill="#05164D"/>
<path d="M62.6009 25.8665V31.7513H61.5162L58.6943 27.5357V31.7513H57.6097V25.8665H58.6943L61.5249 30.0901V25.8665H62.6009Z" fill="#05164D"/>
<path d="M65.8852 28.8493V29.6253H63.5992V28.8493H65.8852Z" fill="#05164D"/>
<path d="M68.7287 31.7513H67.3848L67.3934 30.947H68.7287C69.1177 30.947 69.4432 30.8675 69.7054 30.7085C69.9704 30.5495 70.1692 30.3219 70.3017 30.0255C70.4371 29.7291 70.5048 29.3761 70.5048 28.9665V28.6472C70.5048 28.3293 70.4659 28.0477 70.3882 27.8025C70.3132 27.5573 70.2009 27.3512 70.0511 27.1841C69.9042 27.017 69.7227 26.8904 69.5066 26.8042C69.2934 26.7179 69.0471 26.6748 68.7676 26.6748H67.3588V25.8665H68.7676C69.1854 25.8665 69.5671 25.9325 69.9128 26.0645C70.2585 26.1939 70.5567 26.3811 70.8073 26.6263C71.0609 26.8715 71.2553 27.1652 71.3907 27.5074C71.5261 27.8496 71.5938 28.2323 71.5938 28.6553V28.9665C71.5938 29.3896 71.5261 29.7722 71.3907 30.1144C71.2553 30.4566 71.0609 30.7503 70.8073 30.9955C70.5538 31.238 70.2513 31.4253 69.8998 31.5573C69.5512 31.6866 69.1609 31.7513 68.7287 31.7513ZM67.9854 25.8665V31.7513H66.9008V25.8665H67.9854Z" fill="#05164D"/>
<path d="M76.8012 30.947V31.7513H73.4607V30.947H76.8012ZM73.7675 25.8665V31.7513H72.6828V25.8665H73.7675ZM76.3647 28.3239V29.1161H73.4607V28.3239H76.3647ZM76.7796 25.8665V26.6748H73.4607V25.8665H76.7796Z" fill="#05164D"/>
<path d="M78.1278 25.8665H79.0958L80.9152 30.4054L82.7302 25.8665H83.6982L81.2955 31.7513H80.5262L78.1278 25.8665ZM77.6871 25.8665H78.6075L78.7674 29.7951V31.7513H77.6871V25.8665ZM83.2185 25.8665H84.1433V31.7513H83.0586V29.7951L83.2185 25.8665Z" fill="#05164D"/>
<path d="M87.9591 26.6506L86.0793 31.7513H84.9428L87.3109 25.8665H88.0369L87.9591 26.6506ZM89.5321 31.7513L87.648 26.6506L87.5659 25.8665H88.2962L90.673 31.7513H89.5321ZM89.4414 29.5687V30.3731H86.0188V29.5687H89.4414Z" fill="#05164D"/>
<path d="M96.3686 25.8665V31.7513H95.284L92.4621 27.5357V31.7513H91.3774V25.8665H92.4621L95.2926 30.0901V25.8665H96.3686Z" fill="#05164D"/>
<path d="M99.4887 31.7513H98.1447L98.1534 30.947H99.4887C99.8776 30.947 100.203 30.8675 100.465 30.7085C100.73 30.5495 100.929 30.3219 101.062 30.0255C101.197 29.7291 101.265 29.3761 101.265 28.9665V28.6472C101.265 28.3293 101.226 28.0477 101.148 27.8025C101.073 27.5573 100.961 27.3512 100.811 27.1841C100.664 27.017 100.483 26.8904 100.267 26.8042C100.053 26.7179 99.8071 26.6748 99.5276 26.6748H98.1188V25.8665H99.5276C99.9453 25.8665 100.327 25.9325 100.673 26.0645C101.019 26.1939 101.317 26.3811 101.567 26.6263C101.821 26.8715 102.015 27.1652 102.151 27.5074C102.286 27.8496 102.354 28.2323 102.354 28.6553V28.9665C102.354 29.3896 102.286 29.7722 102.151 30.1144C102.015 30.4566 101.821 30.7503 101.567 30.9955C101.314 31.238 101.011 31.4253 100.66 31.5573C100.311 31.6866 99.9209 31.7513 99.4887 31.7513ZM98.7454 25.8665V31.7513H97.6607V25.8665H98.7454Z" fill="#05164D"/>
<path d="M108.957 30.2356C108.957 30.1144 108.937 30.0066 108.896 29.9123C108.859 29.818 108.791 29.7318 108.693 29.6536C108.595 29.5755 108.457 29.5 108.279 29.4273C108.103 29.3518 107.878 29.275 107.604 29.1969C107.305 29.1107 107.028 29.015 106.775 28.9099C106.524 28.8022 106.305 28.6782 106.118 28.5381C105.931 28.3953 105.785 28.2323 105.681 28.049C105.578 27.8631 105.526 27.6489 105.526 27.4064C105.526 27.1666 105.579 26.9483 105.686 26.7516C105.795 26.5549 105.949 26.3852 106.148 26.2424C106.35 26.0969 106.587 25.985 106.861 25.9069C107.135 25.8261 107.437 25.7856 107.769 25.7856C108.235 25.7856 108.637 25.8665 108.974 26.0282C109.314 26.1898 109.575 26.4067 109.756 26.6789C109.941 26.951 110.033 27.2515 110.033 27.5802H108.957C108.957 27.3862 108.912 27.2151 108.823 27.0669C108.737 26.916 108.604 26.7974 108.425 26.7112C108.25 26.625 108.026 26.5819 107.756 26.5819C107.499 26.5819 107.286 26.6183 107.116 26.691C106.946 26.7638 106.819 26.8621 106.736 26.9861C106.652 27.11 106.61 27.2501 106.61 27.4064C106.61 27.5169 106.638 27.6179 106.693 27.7095C106.747 27.7984 106.831 27.882 106.943 27.9601C107.056 28.0356 107.197 28.107 107.367 28.1743C107.537 28.2417 107.737 28.3064 107.967 28.3683C108.316 28.4653 108.62 28.5731 108.879 28.6917C109.138 28.8075 109.355 28.9396 109.527 29.0878C109.7 29.236 109.83 29.4044 109.916 29.593C110.003 29.7789 110.046 29.9904 110.046 30.2276C110.046 30.4754 109.993 30.6991 109.886 30.8985C109.779 31.0952 109.627 31.2636 109.428 31.4037C109.232 31.5411 108.996 31.6476 108.719 31.723C108.446 31.7958 108.14 31.8321 107.803 31.8321C107.501 31.8321 107.202 31.7944 106.909 31.719C106.618 31.6435 106.353 31.529 106.113 31.3754C105.874 31.2191 105.684 31.0251 105.543 30.7934C105.402 30.559 105.331 30.2855 105.331 29.9729H106.416C106.416 30.1642 106.451 30.3273 106.52 30.462C106.592 30.5967 106.691 30.7072 106.818 30.7934C106.945 30.8769 107.092 30.9389 107.259 30.9793C107.429 31.0197 107.61 31.04 107.803 31.04C108.057 31.04 108.268 31.0063 108.438 30.9389C108.611 30.8715 108.741 30.7772 108.827 30.656C108.914 30.5347 108.957 30.3946 108.957 30.2356Z" fill="#05164D"/>
<path d="M116.023 28.6472V28.9706C116.023 29.4152 115.961 29.8139 115.837 30.1669C115.713 30.5199 115.536 30.8203 115.305 31.0682C115.078 31.3161 114.804 31.5061 114.484 31.6381C114.164 31.7675 113.81 31.8321 113.421 31.8321C113.035 31.8321 112.682 31.7675 112.362 31.6381C112.045 31.5061 111.77 31.3161 111.537 31.0682C111.304 30.8203 111.122 30.5199 110.992 30.1669C110.866 29.8139 110.802 29.4152 110.802 28.9706V28.6472C110.802 28.2026 110.866 27.8052 110.992 27.4549C111.119 27.1019 111.298 26.8015 111.528 26.5536C111.762 26.303 112.037 26.113 112.354 25.9837C112.673 25.8517 113.026 25.7856 113.412 25.7856C113.801 25.7856 114.156 25.8517 114.475 25.9837C114.795 26.113 115.07 26.303 115.301 26.5536C115.531 26.8015 115.709 27.1019 115.832 27.4549C115.959 27.8052 116.023 28.2026 116.023 28.6472ZM114.938 28.9706V28.6391C114.938 28.3104 114.903 28.0207 114.834 27.7702C114.768 27.5169 114.668 27.3054 114.536 27.1356C114.406 26.9631 114.246 26.8338 114.056 26.7476C113.866 26.6587 113.652 26.6142 113.412 26.6142C113.173 26.6142 112.96 26.6587 112.773 26.7476C112.586 26.8338 112.426 26.9631 112.293 27.1356C112.163 27.3054 112.064 27.5169 111.995 27.7702C111.926 28.0207 111.891 28.3104 111.891 28.6391V28.9706C111.891 29.2993 111.926 29.5903 111.995 29.8436C112.064 30.0969 112.165 30.3111 112.297 30.4862C112.433 30.6587 112.594 30.7894 112.781 30.8783C112.969 30.9645 113.182 31.0076 113.421 31.0076C113.663 31.0076 113.878 30.9645 114.065 30.8783C114.252 30.7894 114.411 30.6587 114.54 30.4862C114.67 30.3111 114.768 30.0969 114.834 29.8436C114.903 29.5903 114.938 29.2993 114.938 28.9706Z" fill="#05164D"/>
<path d="M118.192 25.8665V31.7513H117.107V25.8665H118.192ZM120.759 28.4411V29.2454H117.915V28.4411H120.759ZM121.118 25.8665V26.6748H117.915V25.8665H121.118Z" fill="#05164D"/>
<path d="M124.657 25.8665V31.7513H123.581V25.8665H124.657ZM126.632 25.8665V26.6748H121.623V25.8665H126.632Z" fill="#05164D"/>
<path d="M129.108 30.4296L130.361 25.8665H131.018L130.944 27.0426L129.605 31.7513H128.922L129.108 30.4296ZM128.17 25.8665L129.186 30.3933L129.276 31.7513H128.55L127.094 25.8665H128.17ZM132.44 30.3811L133.442 25.8665H134.523L133.066 31.7513H132.34L132.44 30.3811ZM131.273 25.8665L132.513 30.4418L132.695 31.7513H132.012L130.694 27.0426L130.625 25.8665H131.273Z" fill="#05164D"/>
<path d="M137.587 26.6506L135.707 31.7513H134.57L136.938 25.8665H137.664L137.587 26.6506ZM139.16 31.7513L137.275 26.6506L137.193 25.8665H137.924L140.3 31.7513H139.16ZM139.069 29.5687V30.3731H135.646V29.5687H139.069Z" fill="#05164D"/>
<path d="M141.005 25.8665H143.23C143.709 25.8665 144.116 25.9338 144.453 26.0686C144.79 26.2033 145.048 26.4027 145.227 26.6668C145.408 26.9281 145.499 27.2515 145.499 27.6368C145.499 27.9305 145.441 28.1892 145.326 28.4128C145.211 28.6364 145.048 28.8251 144.838 28.9786C144.628 29.1295 144.377 29.2468 144.086 29.3303L143.758 29.4798H141.757L141.748 28.6755H143.248C143.507 28.6755 143.723 28.6324 143.896 28.5462C144.069 28.46 144.198 28.3427 144.285 28.1945C144.374 28.0436 144.419 27.8739 144.419 27.6853C144.419 27.4805 144.375 27.3027 144.289 27.1518C144.206 26.9982 144.076 26.881 143.9 26.8001C143.724 26.7166 143.501 26.6748 143.23 26.6748H142.089V31.7513H141.005V25.8665ZM144.596 31.7513L143.118 29.108L144.254 29.1039L145.754 31.6988V31.7513H144.596Z" fill="#05164D"/>
<path d="M150.698 30.947V31.7513H147.357V30.947H150.698ZM147.664 25.8665V31.7513H146.579V25.8665H147.664ZM150.261 28.3239V29.1161H147.357V28.3239H150.261ZM150.676 25.8665V26.6748H147.357V25.8665H150.676Z" fill="#05164D"/>
<path d="M156.169 25.8665V31.7513H155.093V25.8665H156.169ZM158.144 25.8665V26.6748H153.135V25.8665H158.144Z" fill="#05164D"/>
<path d="M163.092 30.947V31.7513H159.751V30.947H163.092ZM160.058 25.8665V31.7513H158.973V25.8665H160.058ZM162.655 28.3239V29.1161H159.751V28.3239H162.655ZM163.07 25.8665V26.6748H159.751V25.8665H163.07Z" fill="#05164D"/>
<path d="M166.428 26.6506L164.548 31.7513H163.411L165.78 25.8665H166.506L166.428 26.6506ZM168.001 31.7513L166.117 26.6506L166.035 25.8665H166.765L169.142 31.7513H168.001ZM167.91 29.5687V30.3731H164.487V29.5687H167.91Z" fill="#05164D"/>
<path d="M170.287 25.8665H171.255L173.074 30.4054L174.889 25.8665H175.857L173.454 31.7513H172.685L170.287 25.8665ZM169.846 25.8665H170.766L170.926 29.7951V31.7513H169.846V25.8665ZM175.377 25.8665H176.302V31.7513H175.218V29.7951L175.377 25.8665Z" fill="#05164D"/>
<path d="M180.9 30.2356C180.9 30.1144 180.88 30.0066 180.84 29.9123C180.802 29.818 180.735 29.7318 180.637 29.6536C180.539 29.5755 180.4 29.5 180.222 29.4273C180.046 29.3518 179.821 29.275 179.548 29.1969C179.248 29.1107 178.971 29.015 178.718 28.9099C178.467 28.8022 178.248 28.6782 178.061 28.5381C177.874 28.3953 177.728 28.2323 177.625 28.049C177.521 27.8631 177.469 27.6489 177.469 27.4064C177.469 27.1666 177.522 26.9483 177.629 26.7516C177.738 26.5549 177.893 26.3852 178.091 26.2424C178.293 26.0969 178.531 25.985 178.804 25.9069C179.078 25.8261 179.381 25.7856 179.712 25.7856C180.179 25.7856 180.58 25.8665 180.918 26.0282C181.258 26.1898 181.518 26.4067 181.7 26.6789C181.884 26.951 181.976 27.2515 181.976 27.5802H180.9C180.9 27.3862 180.856 27.2151 180.766 27.0669C180.68 26.916 180.547 26.7974 180.369 26.7112C180.193 26.625 179.97 26.5819 179.699 26.5819C179.443 26.5819 179.229 26.6183 179.059 26.691C178.889 26.7638 178.763 26.8621 178.679 26.9861C178.596 27.11 178.554 27.2501 178.554 27.4064C178.554 27.5169 178.581 27.6179 178.636 27.7095C178.691 27.7984 178.774 27.882 178.886 27.9601C178.999 28.0356 179.14 28.107 179.31 28.1743C179.48 28.2417 179.68 28.3064 179.911 28.3683C180.259 28.4653 180.563 28.5731 180.822 28.6917C181.082 28.8075 181.298 28.9396 181.471 29.0878C181.644 29.236 181.773 29.4044 181.86 29.593C181.946 29.7789 181.989 29.9904 181.989 30.2276C181.989 30.4754 181.936 30.6991 181.829 30.8985C181.723 31.0952 181.57 31.2636 181.371 31.4037C181.175 31.5411 180.939 31.6476 180.663 31.723C180.389 31.7958 180.084 31.8321 179.746 31.8321C179.444 31.8321 179.146 31.7944 178.852 31.719C178.561 31.6435 178.296 31.529 178.057 31.3754C177.818 31.2191 177.627 31.0251 177.486 30.7934C177.345 30.559 177.275 30.2855 177.275 29.9729H178.359C178.359 30.1642 178.394 30.3273 178.463 30.462C178.535 30.5967 178.634 30.7072 178.761 30.7934C178.888 30.8769 179.035 30.9389 179.202 30.9793C179.372 31.0197 179.553 31.04 179.746 31.04C180 31.04 180.212 31.0063 180.382 30.9389C180.555 30.8715 180.684 30.7772 180.771 30.656C180.857 30.5347 180.9 30.3946 180.9 30.2356Z" fill="#05164D"/>
</svg>
