<svg width="108" height="61" viewBox="0 0 108 61" fill="none" xmlns="http://www.w3.org/2000/svg">
<rect width="107.892" height="60.8325" rx="5.73892" fill="#110302"/>
<path d="M25.5953 38.5486V45.0271H23.5469V29.0244H28.972C30.35 29.0244 31.5169 29.4863 32.4853 30.41C33.466 31.3337 33.9502 32.4571 33.9502 33.7803C33.9502 35.1409 33.466 36.2643 32.4853 37.1755C31.5418 38.0868 30.3624 38.5362 28.972 38.5362H25.5953V38.5486ZM25.5953 30.9967V36.5889H29.0216C29.841 36.5889 30.5114 36.3142 31.0452 35.765C31.5914 35.2158 31.8645 34.5542 31.8645 33.7928C31.8645 33.0438 31.5914 32.3947 31.0452 31.8455C30.5114 31.2838 29.841 30.9967 29.0216 30.9967H25.5953Z" fill="white"/>
<path d="M39.4257 33.7178C40.9402 33.7178 42.132 34.1298 43.001 34.9411C43.87 35.7525 44.317 36.8634 44.317 38.2865V45.0395H42.3555V43.5167H42.2686C41.4244 44.7649 40.2947 45.3891 38.8919 45.3891C37.6877 45.3891 36.6821 45.0271 35.8752 44.3156C35.0683 43.604 34.6586 42.7053 34.6586 41.6318C34.6586 40.4959 35.0807 39.5971 35.9373 38.9231C36.7939 38.249 37.9236 37.912 39.3512 37.912C40.5678 37.912 41.561 38.1367 42.3555 38.586V38.1117C42.3555 37.4002 42.07 36.7885 41.5113 36.2892C40.9527 35.7899 40.2823 35.5403 39.5374 35.5403C38.3953 35.5403 37.4891 36.0271 36.8311 36.9883L35.031 35.8523C36.0117 34.4418 37.4766 33.7178 39.4257 33.7178ZM36.7814 41.6817C36.7814 42.2185 37.0049 42.6679 37.4642 43.0174C37.9111 43.3794 38.445 43.5541 39.0533 43.5541C39.9099 43.5541 40.6795 43.2296 41.3499 42.593C42.0203 41.9563 42.3555 41.1949 42.3555 40.3336C41.7224 39.8218 40.8285 39.5722 39.6864 39.5722C38.8546 39.5722 38.1594 39.7719 37.6132 40.1713C37.0546 40.5833 36.7814 41.0826 36.7814 41.6817Z" fill="white"/>
<path d="M46.6253 34.0798H48.5867V35.8648H48.6736C49.2819 34.4668 50.5358 33.7677 52.4352 33.7677L52.8573 33.8177V35.9647L51.951 35.8773C51.0075 35.8773 50.2254 36.1769 49.6047 36.7636C48.984 37.3502 48.6861 38.0992 48.6861 39.0104V45.052H46.6377V34.0798H46.6253ZM59.3872 45.2143C58.4934 45.2143 57.761 44.9397 57.1775 44.3904C56.594 43.8412 56.2961 43.0673 56.2712 42.0936V35.9647H54.3594V34.0923H56.2712V30.7345H58.3196V34.0923H60.9887V35.9647H58.3196V41.4196C58.3196 42.1561 58.4562 42.6429 58.7417 42.905C59.0272 43.1671 59.3376 43.292 59.6976 43.292C59.859 43.292 60.0204 43.2795 60.1818 43.242C60.3432 43.2046 60.4797 43.1547 60.6163 43.0922L61.2618 44.9272C60.7156 45.1144 60.0949 45.2143 59.3872 45.2143Z" fill="white"/>
<path d="M63.0491 34.0797H65.0106V35.6026H65.0975C65.4079 35.0659 65.892 34.6165 66.5376 34.267C67.1831 33.905 67.8535 33.7302 68.5487 33.7302C69.8771 33.7302 70.9074 34.1172 71.6275 34.8786C72.3475 35.6401 72.7075 36.7385 72.7075 38.1491V45.0395H70.6592V38.2864C70.6095 36.5014 69.7157 35.6026 67.9652 35.6026C67.1459 35.6026 66.4631 35.9396 65.9169 36.6012C65.3706 37.2628 65.0975 38.0617 65.0975 38.9854V45.0395H63.0491V34.0797Z" fill="white"/>
<path d="M79.9957 45.3891C78.3942 45.3891 77.0783 44.8398 76.0355 43.7289C74.9927 42.6304 74.4837 41.2324 74.4837 39.5472C74.4837 37.8745 74.9927 36.489 75.9982 35.378C77.0038 34.2671 78.2949 33.7178 79.8715 33.7178C81.4854 33.7178 82.7765 34.2421 83.7324 35.2906C84.6883 36.3392 85.1725 37.8121 85.1725 39.7095L85.1476 39.9342H76.5817C76.6065 41.0077 76.9666 41.869 77.6494 42.5305C78.3321 43.1921 79.1515 43.5167 80.095 43.5167C81.3985 43.5167 82.4165 42.8551 83.1613 41.5444L84.9862 42.4432C84.5021 43.3669 83.8193 44.0909 82.9503 44.6151C82.0689 45.1269 81.0881 45.3891 79.9957 45.3891ZM76.7307 38.2365H82.9751C82.913 37.4751 82.6027 36.851 82.0565 36.3517C81.4978 35.8523 80.7529 35.6027 79.8219 35.6027C79.0522 35.6027 78.3818 35.8399 77.8356 36.3142C77.2769 36.7885 76.9045 37.4376 76.7307 38.2365Z" fill="white"/>
<path d="M89.0702 45.0395H87.0219V34.0798H88.9833V35.8648H89.0702C89.2813 35.2781 89.7034 34.7913 90.3489 34.3794C90.9945 33.9674 91.6276 33.7677 92.2483 33.7677C92.8442 33.7677 93.3408 33.8551 93.7629 34.0299L93.1422 36.0146C92.8939 35.9147 92.4842 35.8523 91.938 35.8523C91.1683 35.8523 90.4979 36.1644 89.9268 36.7885C89.3558 37.4126 89.0702 38.1491 89.0702 38.9854V45.0395Z" fill="white"/>
<path d="M28.1775 19.675V21.0731H31.5045C31.3928 21.9593 31.0328 22.6459 30.4121 23.1327C29.8037 23.6195 29.0589 23.8567 28.1775 23.8567C27.1471 23.8567 26.2905 23.4947 25.5829 22.7707C24.8752 22.0592 24.5276 21.1729 24.5276 20.1369C24.5276 19.1008 24.8752 18.227 25.5829 17.503C26.2905 16.779 27.1471 16.4171 28.1775 16.4171C29.1334 16.4171 29.9651 16.7541 30.6852 17.4157L31.6659 16.4295C30.6852 15.4933 29.5182 15.019 28.1775 15.019C27.2712 15.019 26.4146 15.2562 25.5953 15.718C24.7883 16.1799 24.1552 16.804 23.6959 17.6029C23.2365 18.3893 23.0131 19.2256 23.0131 20.1369C23.0131 21.0481 23.2365 21.8969 23.6959 22.6833C24.1552 23.4697 24.7883 24.0939 25.5953 24.5557C26.4022 25.0176 27.2588 25.2547 28.1775 25.2547C29.5555 25.2547 30.6852 24.8179 31.5914 23.9566C32.4853 23.0953 32.9322 21.9718 32.9322 20.5488C32.9322 20.2118 32.9073 19.9247 32.8577 19.675H28.1775Z" fill="#016BE3"/>
<path d="M36.7058 18.6638C35.7747 18.6638 34.9926 18.9759 34.3595 19.6125C33.7263 20.2366 33.416 21.0231 33.416 21.9592C33.416 22.883 33.7387 23.6694 34.3719 24.306C35.005 24.9426 35.7747 25.2547 36.7058 25.2547C37.6368 25.2547 38.4065 24.9426 39.0397 24.306C39.6728 23.6694 39.9956 22.883 39.9956 21.9592C39.9956 21.0231 39.6728 20.2366 39.0397 19.6125C38.419 18.9759 37.6368 18.6638 36.7058 18.6638ZM38.0093 23.3823C37.6493 23.7692 37.2148 23.9565 36.7058 23.9565C36.1844 23.9565 35.7499 23.7692 35.3898 23.3823C35.0298 22.9953 34.856 22.521 34.856 21.9592C34.856 21.3726 35.0298 20.8982 35.3898 20.5362C35.7499 20.1493 36.1844 19.962 36.7058 19.962C37.2272 19.962 37.6617 20.1493 38.0217 20.5362C38.3817 20.8982 38.5555 21.3726 38.5555 21.9592C38.5555 22.5085 38.3817 22.9828 38.0093 23.3823Z" fill="#EF372C"/>
<path d="M56.47 15.3684H55.03V25.0425H56.47V15.3684Z" fill="#00AC4E"/>
<path d="M43.8814 18.6638C42.9504 18.6638 42.1683 18.9759 41.5351 19.6125C40.902 20.2366 40.5916 21.0231 40.5916 21.9592C40.5916 22.883 40.9144 23.6694 41.5475 24.306C42.1807 24.9426 42.9504 25.2547 43.8814 25.2547C44.8125 25.2547 45.5822 24.9426 46.2153 24.306C46.8485 23.6694 47.1712 22.883 47.1712 21.9592C47.1712 21.0231 46.8485 20.2366 46.2153 19.6125C45.5822 18.9759 44.8001 18.6638 43.8814 18.6638ZM45.1849 23.3823C44.8249 23.7692 44.3904 23.9565 43.8814 23.9565C43.36 23.9565 42.9255 23.7692 42.5655 23.3823C42.2055 22.9953 42.0317 22.521 42.0317 21.9592C42.0317 21.3726 42.2055 20.8982 42.5655 20.5362C42.9255 20.1493 43.36 19.962 43.8814 19.962C44.4028 19.962 44.8373 20.1493 45.1974 20.5362C45.5574 20.8982 45.7312 21.3726 45.7312 21.9592C45.7312 22.5085 45.545 22.9828 45.1849 23.3823Z" fill="#FDB614"/>
<path d="M60.4046 23.9565C59.6846 23.9565 59.1507 23.6195 58.8155 22.9579L63.1978 21.1355L63.0488 20.761C62.9371 20.4489 62.7881 20.1743 62.6019 19.9122C62.4157 19.65 62.2047 19.4378 61.9688 19.2506C61.7329 19.0633 61.4598 18.926 61.1743 18.8262C60.8887 18.7263 60.5784 18.6764 60.2556 18.6764C59.3742 18.6764 58.6417 18.9885 58.0459 19.6126C57.4624 20.2492 57.1644 21.0356 57.1644 21.9718C57.1644 22.908 57.4748 23.6819 58.0955 24.3185C58.7162 24.9551 59.4859 25.2672 60.417 25.2672C61.5715 25.2672 62.4778 24.7804 63.1482 23.8067L62.0309 23.0578C61.6088 23.6445 61.075 23.9565 60.4046 23.9565ZM59.0762 20.4864C59.4363 20.1244 59.8459 19.9371 60.2929 19.9371C60.5784 19.9371 60.8267 19.9995 61.0501 20.1244C61.2736 20.2492 61.4226 20.424 61.5095 20.6237L58.5797 21.847C58.5673 21.2977 58.7286 20.8484 59.0762 20.4864Z" fill="#EF372C"/>
<path d="M52.6717 19.4003H52.622C52.2123 18.9135 51.6289 18.6638 50.8964 18.6638C50.0522 18.6638 49.3198 18.9884 48.6867 19.6375C48.0659 20.2866 47.7556 21.0605 47.7556 21.9717C47.7556 22.8705 48.0659 23.6444 48.6867 24.2935C49.3198 24.9301 50.0647 25.2547 50.8964 25.2547C51.6289 25.2547 52.2123 25.005 52.622 24.5057H52.6717V24.8427C52.6717 26.2283 52.0882 26.9148 50.9212 26.9148C50.5488 26.9148 50.2136 26.8025 49.9281 26.5903C49.6426 26.3781 49.4191 26.091 49.2701 25.7415L48.0163 26.2657C48.1404 26.5528 48.3018 26.815 48.488 27.0522C48.6742 27.2893 48.8977 27.489 49.146 27.6638C49.3943 27.8386 49.6674 27.9634 49.9653 28.0632C50.2633 28.1631 50.5736 28.2006 50.9088 28.2006C51.8896 28.2006 52.6468 27.901 53.1931 27.3143C53.7393 26.7151 54.0124 25.8788 54.0124 24.7803V18.876H52.6468V19.4003H52.6717ZM52.262 23.3947C51.9268 23.7692 51.5047 23.9565 51.0206 23.9565C50.5116 23.9565 50.0771 23.7692 49.7171 23.3823C49.3694 22.9953 49.1956 22.5334 49.1956 21.9717C49.1956 21.41 49.3694 20.9357 49.7295 20.5487C50.0895 20.1618 50.524 19.962 51.0206 19.962C51.5171 19.962 51.9268 20.1493 52.262 20.5362C52.5972 20.9232 52.771 21.41 52.771 21.9717C52.771 22.521 52.5972 22.9953 52.262 23.3947Z" fill="#016BE3"/>
<path d="M14.9215 10.3301H9.18258V50.5025H14.9215V10.3301Z" fill="#016BE3"/>
</svg>
