<svg width="26" height="26" viewBox="0 0 26 26" fill="none" xmlns="http://www.w3.org/2000/svg">
<path d="M13.0001 9.39016C13.3046 9.39016 13.6024 9.29984 13.8556 9.13062C14.1089 8.9614 14.3063 8.72089 14.4228 8.43949C14.5394 8.15809 14.5699 7.84845 14.5105 7.54972C14.451 7.25099 14.3044 6.97659 14.089 6.76121C13.8736 6.54584 13.5992 6.39917 13.3005 6.33975C13.0018 6.28033 12.6921 6.31082 12.4107 6.42738C12.1293 6.54394 11.8888 6.74133 11.7196 6.99458C11.5504 7.24783 11.4601 7.54557 11.4601 7.85016C11.4601 8.25859 11.6223 8.6503 11.9111 8.9391C12.1999 9.22791 12.5916 9.39016 13.0001 9.39016ZM12.7341 7.58418C12.8051 7.51319 12.9007 7.47236 13.001 7.47016C13.0758 7.47035 13.149 7.49262 13.2112 7.5342C13.2737 7.57595 13.3224 7.6353 13.3511 7.70474C13.3799 7.77417 13.3874 7.85058 13.3728 7.92429C13.3581 7.998 13.3219 8.06571 13.2688 8.11886C13.2156 8.172 13.1479 8.20819 13.0742 8.22286C13.0005 8.23752 12.9241 8.22999 12.8546 8.20123C12.7852 8.17247 12.7259 8.12376 12.6841 8.06127C12.6425 7.99905 12.6203 7.92595 12.6201 7.85113C12.6223 7.75079 12.6631 7.65516 12.7341 7.58418Z" fill="#110302" stroke="#110302" stroke-width="0.2"/>
<path d="M7.3126 12.9852V12.9847C7.31701 12.0885 7.55267 11.2085 7.99678 10.4301C8.43145 9.66813 9.05139 9.02864 9.79876 8.57059C9.79766 7.41509 10.0213 6.2702 10.4573 5.19974C10.9005 4.11169 11.5545 3.12201 12.3816 2.28761L12.3834 2.28579L12.3834 2.28581L12.613 2.0658C12.6131 2.06566 12.6133 2.06553 12.6134 2.0654C12.7218 1.95938 12.8674 1.9 13.019 1.9C13.1706 1.9 13.3162 1.95938 13.4246 2.0654C13.4247 2.06553 13.4249 2.06566 13.425 2.0658L13.6546 2.28581L13.6566 2.28771L13.6565 2.28774C15.3101 3.96191 16.2373 6.21925 16.2391 8.57082C16.983 9.03117 17.5993 9.67172 18.0305 10.4336C18.4711 11.2119 18.7038 12.0906 18.7062 12.9849L18.7062 12.9852V15.2124V15.2126C18.706 15.3343 18.6681 15.453 18.5977 15.5524C18.5273 15.6518 18.4279 15.7269 18.3131 15.7675L18.297 15.7732H18.2798H18.1272C18.0366 15.7749 17.9468 15.7547 17.8657 15.7141C17.7847 15.6736 17.7147 15.614 17.6617 15.5406L16.5977 14.1314C16.5975 14.1312 16.5974 14.131 16.5972 14.1308C16.3172 13.7709 15.9941 13.4468 15.6354 13.1658L15.5081 13.961L15.5078 13.9629L15.5078 13.9629C15.4835 14.0986 15.4123 14.2216 15.3067 14.3103C15.2011 14.399 15.0677 14.4479 14.9298 14.4484L14.9294 14.4484H11.0894H11.089C10.9511 14.4479 10.8177 14.399 10.7121 14.3103C10.6065 14.2216 10.5353 14.0986 10.511 13.9629L10.5106 13.961L10.5107 13.961L10.3836 13.1672C10.0239 13.4536 9.70081 13.7836 9.42186 14.1497C9.42182 14.1497 9.42178 14.1498 9.42174 14.1498L8.3571 15.5597C8.3041 15.6332 8.23409 15.6928 8.15305 15.7333C8.07195 15.7739 7.98224 15.7941 7.8916 15.7924H7.739H7.72184L7.70566 15.7867C7.59087 15.7461 7.49145 15.671 7.42107 15.5716M7.3126 12.9852L7.42107 15.5716C7.42107 15.5716 7.42107 15.5716 7.42107 15.5716M7.3126 12.9852L7.3126 15.2316L7.3126 15.2318M7.3126 12.9852L7.3126 15.2318M7.42107 15.5716C7.35069 15.4722 7.3128 15.3535 7.3126 15.2318M7.42107 15.5716L7.3126 15.2318M16.1171 9.93583C16.5312 10.2908 16.8697 10.7266 17.1114 11.2171C17.3824 11.7673 17.5246 12.372 17.527 12.9854C17.527 12.9854 17.527 12.9855 17.527 12.9856L17.527 13.5002L17.5049 13.4717C17.0395 12.8513 16.4675 12.3188 15.8157 11.8991L16.1171 9.93583ZM12.9998 3.25261C13.7799 4.09177 14.3636 5.09451 14.708 6.18821C15.0629 7.31544 15.1541 8.50915 14.9746 9.67722L14.9745 9.67732L14.6098 12.0673L14.6097 12.0677L14.4119 13.3268H11.5877L11.3899 12.0677L11.3898 12.0673L11.0251 9.67732L11.025 9.67722C10.8455 8.50915 10.9367 7.31544 11.2916 6.18821C11.636 5.09451 12.2197 4.09177 12.9998 3.25261ZM9.86332 9.88782L10.1647 11.8511C9.51288 12.2708 8.94086 12.8033 8.47551 13.4237L8.4534 13.4522L8.4534 12.9852L8.45339 12.9844C8.44863 12.3631 8.58732 11.7491 8.85867 11.1902C9.10095 10.6911 9.44316 10.2479 9.86332 9.88782Z" fill="#110302" stroke="#110302" stroke-width="0.2"/>
<path d="M11.3543 16.614H11.3536L11.3551 16.6259C11.4703 17.5833 11.9065 18.4734 12.5924 19.151C12.6446 19.2062 12.7074 19.2503 12.7772 19.2805C12.8475 19.3109 12.9233 19.3266 12.9999 19.3266C13.0766 19.3266 13.1524 19.3109 13.2227 19.2805C13.2925 19.2503 13.3553 19.2062 13.4075 19.151C14.0934 18.4734 14.5296 17.5833 14.6448 16.6259L14.6455 16.626V16.614C14.6455 16.1775 14.4722 15.759 14.1636 15.4503C13.855 15.1417 13.4364 14.9684 12.9999 14.9684C12.5635 14.9684 12.1449 15.1417 11.8363 15.4503C11.5277 15.759 11.3543 16.1775 11.3543 16.614ZM13.3433 16.2706C13.4332 16.3605 13.4842 16.4819 13.4855 16.6089C13.4373 17.0575 13.2692 17.4841 12.9999 17.8443C12.7306 17.4841 12.5626 17.0575 12.5144 16.6089C12.5157 16.4819 12.5667 16.3605 12.6566 16.2706C12.7476 16.1795 12.8712 16.1284 12.9999 16.1284C13.1287 16.1284 13.2522 16.1795 13.3433 16.2706Z" fill="#110302" stroke="#110302" stroke-width="0.2"/>
<path d="M1.86 20.0852H1.48C1.32617 20.0852 1.17865 20.1463 1.06988 20.255C0.961107 20.3638 0.9 20.5113 0.9 20.6652V22.0092C0.9 22.5704 1.12294 23.1086 1.51976 23.5054C1.91659 23.9022 2.4548 24.1252 3.016 24.1252H22.984C23.5452 24.1252 24.0834 23.9022 24.4802 23.5054C24.8771 23.1086 25.1 22.5704 25.1 22.0092V20.6652C25.1 20.5113 25.0389 20.3638 24.9301 20.255C24.8214 20.1463 24.6738 20.0852 24.52 20.0852H24.14V7.63796L24.14 7.63744C24.1373 7.11874 23.9294 6.62219 23.5617 6.25635C23.1939 5.89051 22.6963 5.68515 22.1776 5.68516H17.8C17.6462 5.68516 17.4986 5.74626 17.3899 5.85503C17.2811 5.96381 17.22 6.11133 17.22 6.26516C17.22 6.41898 17.2811 6.56651 17.3899 6.67528C17.4986 6.78405 17.6462 6.84516 17.8 6.84516H22.1776C22.3889 6.84514 22.5918 6.92851 22.742 7.07715C22.8921 7.22566 22.9776 7.42736 22.98 7.6385V20.0852H3.02V7.6385C3.02238 7.42736 3.1079 7.22566 3.25801 7.07715C3.40824 6.92851 3.61106 6.84514 3.82239 6.84516H3.8224H8.2C8.35383 6.84516 8.50135 6.78405 8.61012 6.67528C8.71889 6.56651 8.78 6.41898 8.78 6.26516C8.78 6.11133 8.71889 5.96381 8.61012 5.85503C8.50135 5.74626 8.35383 5.68516 8.2 5.68516H3.8224C3.30369 5.68515 2.80607 5.89051 2.43834 6.25635C2.07061 6.62219 1.86268 7.11873 1.86 7.63744H1.86V7.63796V20.0852ZM23.94 22.0092C23.94 22.1347 23.9153 22.259 23.8672 22.375C23.8192 22.491 23.7488 22.5964 23.66 22.6852C23.5712 22.7739 23.4658 22.8443 23.3498 22.8924C23.2339 22.9404 23.1095 22.9652 22.984 22.9652H3.016C2.89046 22.9652 2.76614 22.9404 2.65016 22.8924C2.53417 22.8443 2.42878 22.7739 2.34001 22.6852C2.25123 22.5964 2.18081 22.491 2.13277 22.375C2.08473 22.259 2.06 22.1347 2.06 22.0092V21.2452H23.94V22.0092Z" fill="#110302" stroke="#110302" stroke-width="0.2"/>
</svg>
